<svg width="300" height="155" viewBox="0 0 300 155" fill="none" xmlns="http://www.w3.org/2000/svg">
<g clip-path="url(#clip0_1878_1528)">
<path d="M0 0H300.847V155.104H0V0Z" fill="white"/>
<path d="M196.445 71.2976C218.882 60.1075 242.028 85.4551 242.028 85.4551L241.891 85.5527C241.891 85.5527 211.406 101.195 194.258 82.8391L196.445 71.2976Z" fill="#109A2E"/>
<path d="M197.721 74.2973C222.62 71.5683 235.657 103.383 235.657 103.383L235.494 103.427C235.494 103.427 201.515 107.548 191.711 84.3748L197.721 74.2973Z" fill="#109A2E"/>
<path d="M197.479 77.327C221.852 83.1334 223.543 117.5 223.543 117.5L223.374 117.487C223.374 117.487 189.984 109.935 188.461 84.8004L197.479 77.327Z" fill="#109A2E"/>
<path d="M196.565 80.4517C217.452 94.3486 207.257 127.195 207.257 127.195L207.103 127.124C207.103 127.124 178.349 108.465 185.536 84.3418L196.565 80.4517Z" fill="#109A2E"/>
<path d="M194.661 83.1409C209.457 103.458 188.562 130.711 188.562 130.711L188.442 130.591C188.442 130.591 167.911 103.061 182.976 82.9436L194.661 83.1409Z" fill="#109A2E"/>
<path d="M191.942 84.9278C198.865 109.128 169.906 127.469 169.906 127.469L169.835 127.315C169.835 127.315 160 94.3574 181.04 80.6932L191.942 84.9278Z" fill="#109A2E"/>
<path d="M188.935 85.1872C187.403 110.322 154.009 117.859 154.009 117.859L153.992 117.691C153.992 117.691 155.699 83.3245 180.074 77.529L188.935 85.1872Z" fill="#109A2E"/>
<path d="M185.7 84.8228C175.643 107.885 141.711 103.388 141.711 103.388L141.754 103.225C141.754 103.225 155.137 71.5562 180.006 74.5623L185.7 84.8228Z" fill="#109A2E"/>
<path d="M182.82 83.158C165.496 101.344 135.164 85.4039 135.164 85.4039L135.261 85.2659C135.261 85.2659 158.65 60.1447 180.978 71.555L182.82 83.158Z" fill="#109A2E"/>
<path d="M181.069 80.6849C158.689 91.9943 135.414 66.767 135.414 66.767L135.55 66.6683C135.55 66.6683 165.955 50.8672 183.195 69.1321L181.069 80.6849Z" fill="#109A2E"/>
<path d="M179.779 77.6928C154.896 80.5524 141.695 48.8052 141.695 48.8052L141.857 48.7607C141.857 48.7607 175.814 44.464 185.737 67.5845L179.779 77.6928Z" fill="#109A2E"/>
<path d="M179.481 74.375C155.135 68.4665 153.586 34.0925 153.586 34.0925L153.756 34.1068C153.756 34.1068 187.115 41.7975 188.533 66.9381L179.481 74.375Z" fill="#109A2E"/>
<path d="M180.369 71.2031C159.572 57.1711 169.979 24.3916 169.979 24.3916L170.132 24.4629C170.132 24.4629 198.768 43.3101 191.422 67.3871L180.369 71.2031Z" fill="#109A2E"/>
<path d="M182.314 68.5957C167.603 48.2177 188.611 21.0525 188.611 21.0525L188.729 21.174C188.729 21.174 209.148 48.7886 193.998 68.8438L182.314 68.5957Z" fill="#109A2E"/>
<path d="M185.056 67.3199C177.978 43.1648 206.817 24.6375 206.817 24.6375L206.89 24.7921C206.89 24.7921 216.935 57.685 195.983 71.4844L185.056 67.3199Z" fill="#109A2E"/>
<path d="M188.227 66.5687C189.864 41.4417 223.291 34.043 223.291 34.043L223.305 34.213C223.305 34.213 221.457 68.5705 197.057 74.2656L188.227 66.5687Z" fill="#109A2E"/>
<path d="M191.5 67.1387C201.621 44.1036 235.542 48.6998 235.542 48.6998L235.498 48.8623C235.498 48.8623 222.025 80.4926 197.165 77.414L191.5 67.1387Z" fill="#109A2E"/>
<path d="M193.977 68.8677C211.183 50.5697 241.616 66.3133 241.616 66.3133L241.521 66.4524C241.521 66.4524 218.293 91.7242 195.893 80.4588L193.977 68.8677Z" fill="#109A2E"/>
<path d="M220.851 103.172C210.391 101.817 197.231 97.4168 191.719 84.3846L194.397 79.8933L197.481 77.3383C211.246 80.6182 217.775 93.0083 220.851 103.172Z" fill="#9AC019"/>
<path d="M195.992 117.57C188.808 109.807 181.487 97.9709 185.529 84.4082L189.216 83.1073L194.657 83.1991C202.863 94.4674 200.09 107.868 195.992 117.57Z" fill="#9AC019"/>
<path d="M188.516 84.8647L191.64 82.2755L196.615 80.5206C208.23 88.2484 210.232 101.834 209.722 112.375C200.312 107.579 189.371 99.004 188.516 84.8647Z" fill="#9AC019"/>
<path d="M227.998 90.3976C217.712 92.7525 203.847 93.1853 194.201 82.8592L194.959 78.8607L197.669 74.3147C211.515 72.7971 221.692 81.9615 227.998 90.3976ZM182.977 82.959L187.025 83.0275L191.943 84.938C195.793 98.3957 188.546 110.039 181.354 117.727C177.291 107.938 174.501 94.2758 182.977 82.959Z" fill="#9AC019"/>
<path d="M167.534 112.758C167.077 102.163 169.146 88.3774 180.978 80.693L185.836 82.5802L188.865 85.1979C188.002 99.3948 176.971 107.976 167.534 112.758Z" fill="#9AC019"/>
<path d="M156.711 103.242C159.808 93.1031 166.346 80.8026 180.057 77.5421L183.127 80.1952L185.695 84.8239C180.103 97.6485 167.129 101.949 156.711 103.242Z" fill="#9AC019"/>
<path d="M182.812 83.1664C173.201 93.257 159.586 92.8406 149.367 90.4715C155.758 82.0594 166.079 72.875 180.002 74.5575L182.023 78.2012L182.812 83.1664Z" fill="#9AC019"/>
<path d="M181.063 80.6851C168.423 87.0727 155.498 81.8041 146.641 76.0097C155.52 70.2843 168.412 65.1481 180.969 71.5647L181.79 76.7357L181.063 80.6851Z" fill="#9AC019"/>
<path d="M149.359 61.7691C159.632 59.3601 173.497 58.8559 183.195 69.1301L182.458 73.1326L179.77 77.6928C165.933 79.2829 155.709 70.1715 149.359 61.7691Z" fill="#9AC019"/>
<path d="M156.367 48.9426C166.856 50.2241 180.123 54.5362 185.726 67.5919L183.82 70.8301L179.485 74.3906C165.95 71.105 159.462 59.0246 156.367 48.9426Z" fill="#9AC019"/>
<path d="M188.532 66.9473L185.504 69.4355L180.36 71.2109C168.825 63.4284 166.891 49.88 167.454 39.3548C176.84 44.1928 187.736 52.8114 188.532 66.9473Z" fill="#9AC019"/>
<path d="M181.154 34.1554C188.292 41.9653 195.545 53.8541 191.414 67.3979L187.586 68.7188L182.313 68.6075C174.133 57.2759 176.998 43.8456 181.154 34.1554Z" fill="#9AC019"/>
<path d="M193.999 68.8438L188.793 68.7337L185.056 67.3102C181.058 53.6671 188.518 41.8205 195.769 34.0927C199.79 43.8959 202.52 57.5658 193.999 68.8438Z" fill="#9AC019"/>
<path d="M209.303 39.3232C209.829 49.9156 207.852 63.7207 196.067 71.4844L192.28 70.042L188.297 66.57C189.206 52.5967 199.947 44.1081 209.303 39.3232Z" fill="#9AC019"/>
<path d="M197.098 74.1953L193.962 71.4624L191.539 67.0647C197.154 54.285 210.095 50.0122 220.506 48.7387C217.349 58.8362 210.757 71.0073 197.098 74.1953Z" fill="#9AC019"/>
<path d="M227.956 61.4815C221.549 69.9057 211.043 79.1453 197.061 77.4139L194.537 72.8354L193.883 68.8711C203.6 58.5359 217.665 59.068 227.956 61.4815Z" fill="#9AC019"/>
<path d="M196.02 80.4527L195.469 77.1209L196.571 71.2986C208.956 65.1215 221.407 70.0376 230.213 75.7185C221.369 81.5118 208.637 86.7986 196.02 80.4527Z" fill="#9AC019"/>
<path d="M215.951 91.7656C208.352 91.6613 200.435 89.4644 194.25 82.8442L194.889 79.4696L197.47 77.3309C206.242 79.4206 212.076 85.2104 215.951 91.7656Z" fill="#F5E600"/>
<path d="M208.987 100.258C201.931 97.5197 195.182 92.7023 191.664 84.3871L193.332 81.5897L196.507 80.4696C203.962 85.4313 207.574 92.8238 208.987 100.258ZM219.446 70.3191C213.576 75.1702 206.236 78.6531 197.263 77.6123L195.584 74.6199L196.181 71.3126C204.223 67.2143 212.279 67.8268 219.446 70.3191Z" fill="#F5E600"/>
<path d="M219.449 81.2464C212.193 83.8989 204.055 84.4003 196.027 80.3373L195.503 77.119L197.207 74.2019C206.085 73.1462 213.594 76.49 219.449 81.2464ZM208.537 51.5592C207.15 59.0691 203.531 66.6737 195.995 71.6799L192.794 70.4754L191.133 67.556C194.669 59.2174 201.455 54.2865 208.537 51.5592Z" fill="#F5E600"/>
<path d="M215.601 60.0014C211.679 66.5036 205.813 72.2216 197.055 74.2422L194.608 72.0989L194.069 68.7603C200.236 62.2536 208.073 60.0921 215.601 60.0014ZM188.321 44.0161C192.041 50.679 194.119 58.6663 191.524 67.3642L188.298 68.5008L185.165 67.3283C182.566 58.6509 184.622 50.6728 188.321 44.0161Z" fill="#F5E600"/>
<path d="M199.113 46.0597C200.289 53.5708 199.477 61.7468 194.08 68.971L190.835 68.922L188.279 66.7205C188.818 57.7489 193.42 51.0123 199.113 46.0597ZM168.172 51.752C175.303 54.3835 181.93 59.0504 185.578 67.3576L183.862 70.3272L180.722 71.4844C173.136 66.5865 169.662 59.2283 168.172 51.752Z" fill="#F5E600"/>
<path d="M177.52 46.0785C183.274 51.0175 187.944 57.7574 188.518 66.7736L186.021 68.8558L182.657 68.8535C177.261 61.6881 176.399 53.5628 177.52 46.0785ZM157.609 70.5399C164.749 67.921 172.881 67.3228 181 71.299L181.597 74.6815L179.943 77.6027C171.002 78.7855 164.045 76.0572 157.609 70.5399Z" fill="#F5E600"/>
<path d="M161.305 60.2727C168.869 60.3046 176.827 62.6281 183.06 69.1388L182.494 72.3491L179.922 74.5334C171.198 72.567 165.259 66.7127 161.305 60.2727ZM161.603 91.875C165.454 85.2896 171.273 79.4609 180.055 77.3371L182.656 79.5659L183.228 82.8806C177.077 89.5082 169.186 91.7376 161.603 91.875Z" fill="#F5E600"/>
<path d="M157.734 81.6175C164.328 76.2149 170.346 73.6576 179.93 74.7954L181.48 77.6607L180.83 80.9787C172.796 84.9213 164.881 84.3037 157.734 81.6175ZM177.898 105.914C176.718 98.3659 177.534 90.1511 182.982 82.9047L186.397 82.9686L188.93 85.1631C188.36 94.2095 183.671 100.968 177.898 105.914Z" fill="#F5E600"/>
<path d="M188.732 107.859C184.966 101.222 182.942 93.0511 185.482 84.3344L188.699 83.1773L191.839 84.327C194.499 92.9884 192.387 101.178 188.732 107.859Z" fill="#F5E600"/>
<path d="M199.444 105.625C193.673 100.654 188.987 93.8725 188.453 84.8062L191.092 82.6242L194.435 82.6413C199.845 89.8934 200.642 98.0951 199.444 105.625ZM168.43 100.465C169.854 92.9965 173.374 85.5818 180.887 80.623L183.92 81.7727L185.585 84.715C182.053 92.9726 175.455 97.7432 168.43 100.465Z" fill="#F5E600"/>
<path d="M194.336 82.9018L194.655 81.2166L196.636 80.5174C200.585 83.1437 203.421 86.4475 205.426 90.0781C201.443 88.7116 197.642 86.4407 194.336 82.9018Z" fill="white"/>
<path d="M191.803 84.5449L192.562 83.2726L194.746 83.3096C197.473 87.0537 198.984 91.0334 199.641 95.0353C196.419 92.3839 193.671 88.9614 191.803 84.5449ZM192.507 97.6719C190.263 94.0281 188.842 89.8837 188.547 84.9715L189.559 84.1315L192.027 85.0896C193.3 89.5398 193.258 93.6968 192.507 97.6719Z" fill="white"/>
<path d="M185.495 84.5298L187.213 83.9235L188.891 85.3733C188.595 90.209 187.107 94.2628 184.917 97.8672C184.05 93.6543 184.083 89.2623 185.495 84.5298Z" fill="white"/>
<path d="M177.791 95.1641C178.451 90.9848 180.027 86.8312 182.931 82.953L184.638 82.9816L185.662 84.826C183.762 89.1849 181.006 92.5577 177.791 95.1641ZM172.047 90.171C174.089 86.6031 176.944 83.3688 180.884 80.8104L182.362 81.3852L182.664 83.2878C179.476 86.6356 175.848 88.8233 172.047 90.171Z" fill="white"/>
<path d="M181.176 78.9015L180.814 80.8673C176.561 83.0163 172.275 83.8432 168.125 83.7777C171.281 81.0025 175.125 78.8325 179.807 77.7192L181.176 78.9015ZM179.769 77.7061C175.148 78.237 170.445 77.5732 166.641 76.1423C170.513 74.6749 175.295 74.0002 180.004 74.5693L180.788 75.9792L179.769 77.7061ZM180.888 72.8185L179.175 74.2243C174.684 73.135 170.968 71.0739 167.895 68.439C172.075 68.3786 176.389 69.2204 180.663 71.4047L180.888 72.8185Z" fill="white"/>
<path d="M183.042 69.1388L182.824 70.3165L180.211 71.2188C176.402 68.6501 173.644 65.45 171.672 61.9391C175.749 63.276 179.65 65.5458 183.042 69.1388Z" fill="white"/>
<path d="M177.445 56.8576C180.839 59.5313 183.744 63.0273 185.706 67.6001L185.071 68.6797L182.294 68.6204C179.578 64.8603 178.084 60.8681 177.445 56.8576Z" fill="white"/>
<path d="M187.09 68.1172L185.022 67.3284C183.661 62.6815 183.632 58.2428 184.468 54.104C186.713 57.7671 188.223 62.0256 188.501 66.9577L187.09 68.1172Z" fill="white"/>
<path d="M191.529 67.4034L189.917 67.9606L188.328 66.5764C188.638 61.8274 190.084 57.7126 192.224 54.1601C193.02 58.3154 192.945 62.761 191.529 67.4034ZM196.642 71.2108C200.695 69.1902 204.769 68.3649 208.728 68.3632C205.602 71.0306 201.822 73.1042 197.249 74.1719L196.247 73.3004L196.642 71.2108Z" fill="white"/>
<path d="M194.085 68.631L192.499 68.5968L191.57 66.9109C193.433 62.67 196.104 59.3696 199.22 56.8009C198.51 60.8564 196.92 64.876 194.085 68.631ZM197.976 74.3222C202.502 73.8265 206.634 74.4761 210.369 75.8626C206.47 77.3397 202.146 78.0172 197.404 77.4298L196.788 76.3131L197.976 74.3222ZM196.069 71.4894L194.381 70.8467L194.054 68.8739C197.324 65.3973 201.072 63.152 204.998 61.7906C202.97 65.4823 200.093 68.8386 196.069 71.4894Z" fill="white"/>
<path d="M195.648 78.8075L197.498 77.2745C202.142 78.3803 205.961 80.5258 209.103 83.2713C204.797 83.4219 200.339 82.6269 195.911 80.4004L195.648 78.8075Z" fill="white"/>
<path d="M188.458 66.1808C193.953 66.1808 198.408 70.6595 198.408 76.1842C198.408 81.7089 193.953 86.1875 188.458 86.1875C182.963 86.1875 178.508 81.7089 178.508 76.1842C178.508 70.6595 182.963 66.1808 188.458 66.1808Z" fill="white"/>
<path d="M126.308 80.4588C126.238 98.9347 110.855 97.4645 110.855 97.4645C102.361 97.4645 99.7174 91.1659 99.7174 91.1659L98.5335 86.5469L96.4453 78.6389L99.3691 68.6316C101.597 61.0727 110.855 61.4223 110.855 61.4223C127.771 61.4228 126.308 80.4588 126.308 80.4588ZM110.241 66.1821C103.057 65.6956 99.9245 72.0872 99.9245 79.5492C99.9245 87.0106 103.222 92.9464 110.128 92.9464C116.192 92.9464 119.554 87.0106 119.554 79.5492C119.555 72.0872 116.318 66.5927 110.241 66.1821Z" fill="#109A2E"/>
<path d="M99.864 61.7727H93.5984V109.781H100.281V90.3255L97.7747 83.3973L99.9332 67.7907L99.864 61.7727ZM68.159 97.0455C68.159 97.0455 58.9009 97.3963 56.6726 89.8373L53.75 79.83L55.8387 71.9214L57.0221 67.3025C57.0221 67.3025 59.6679 61.0045 68.1607 61.0045C68.1607 61.0045 83.5437 59.5342 83.6146 78.0096C83.6146 78.0096 85.0731 97.0455 68.159 97.0455ZM76.8599 78.9209C76.8599 71.4589 73.4982 65.5237 67.4334 65.5237C60.5285 65.5237 57.2303 71.4584 57.2303 78.9209C57.2303 86.3824 60.3622 92.7739 67.548 92.288C73.6236 91.8756 76.8599 86.3824 76.8599 78.9209Z" fill="#109A2E"/>
<path d="M57.1563 96.6953H50.8906V48.6873H57.5738V68.143L55.0681 75.0707L57.2249 90.6779L57.1563 96.6953Z" fill="#109A2E"/>
</g>
<defs>
<clipPath id="clip0_1878_1528">
<rect width="300" height="154.795" rx="77.3973" fill="white"/>
</clipPath>
</defs>
</svg>
