<svg width="300" height="155" viewBox="0 0 300 155" fill="none" xmlns="http://www.w3.org/2000/svg">
<g clip-path="url(#clip0_1878_1594)">
<path d="M0 0H300.847V155.104H0V0Z" fill="white"/>
<path fill-rule="evenodd" clip-rule="evenodd" d="M75.0152 64.4064C74.239 63.7598 73.3333 63.1132 72.4275 62.8541L70.8752 93.2514L78.3777 72.2976C79.1538 69.062 77.3437 66.3461 75.0152 64.4064ZM62.5979 62.5949L66.9957 92.8626L71.3935 62.5949C68.8059 61.6905 65.4447 61.5609 62.5979 62.5949ZM58.9762 64.4064C56.5182 66.3475 54.8376 69.0634 55.4842 72.168L62.9867 93.1218L61.5639 62.8541C60.6582 63.1132 59.6228 63.7598 58.9762 64.4064ZM43.7148 67.2519C48.7592 76.0475 53.9332 85.618 58.848 94.0249C57.1661 86.6533 55.3559 74.3656 52.7696 70.8722C49.7932 66.7335 43.7148 67.2519 43.7148 67.2519ZM34.7896 71.6497L55.3546 95.5786L42.6795 67.3815C39.317 67.5097 36.4701 69.193 34.7896 71.6497ZM77.8607 78.1169L74.4982 94.5419C78.896 86.9125 83.2938 79.41 87.5621 71.6497C83.4221 72.0371 79.2834 73.5894 77.8607 78.1169ZM88.7257 71.6497L77.8607 95.966L97.0043 75.1418C94.8054 72.8133 91.9586 71.7793 88.7257 71.6497ZM32.0737 82.5147C38.8 87.6873 45.525 92.9922 52.2513 98.1649L34.143 72.5555C32.4611 75.4009 31.9441 78.7634 32.0737 82.5147ZM99.3315 78.1169C98.9339 77.3062 98.4099 76.564 97.7791 75.9179L81.2232 98.4227C87.7086 93.5999 94.0913 88.6403 100.367 83.5473C100.496 81.6076 100.237 79.6692 99.3315 78.1169ZM32.2019 92.9922L49.6636 101.009C43.843 95.1898 38.0225 89.6271 32.2019 83.9361V92.9922ZM100.367 93.5092V85.2306L83.8108 101.4C89.5018 98.8101 94.6758 96.2238 100.367 93.5092ZM32.0737 101.009C37.3772 102.174 43.1978 103.598 47.983 104.632L32.0737 94.1545V101.009ZM100.367 101.399V95.0616C95.452 98.2945 90.278 101.529 85.7506 104.762L100.367 101.399ZM32.0737 108.9H47.5943L32.0737 102.304V108.9ZM100.367 108.9V102.821C95.3224 105.019 90.9246 106.831 86.1393 108.9H100.367Z" fill="#367CA8"/>
<path fill-rule="evenodd" clip-rule="evenodd" d="M95.0636 63.6299C95.3215 54.4468 81.6123 54.3172 81.8715 63.6299C81.7419 72.1663 95.4524 72.5551 95.0636 63.6299ZM50.9572 58.8446C51.3459 49.532 36.9876 49.9207 37.5059 58.8446C36.9889 68.1573 51.8629 68.2869 50.9572 58.8446ZM66.9961 60.6548C72.4279 60.7844 74.4986 56.9035 74.6269 53.1523C74.886 47.4613 71.2644 45.1328 66.9961 45.1328C62.7279 45.1328 59.3654 47.5909 59.4937 53.1523C59.6232 56.2583 60.9164 60.5252 66.9961 60.6548ZM144.861 82.1269H147.836V64.923H144.861V82.1269ZM139.17 77.2107L140.852 82.1269H143.955L138.005 64.923H134.255L129.211 79.5392L124.296 73.3299L130.893 64.923H127.399L121.32 73.0707V64.923H118.345V82.1269H121.32V73.7187L127.657 82.1269H131.149L132.831 77.2107H139.17ZM135.936 67.6389L138.393 74.754H133.607L135.936 67.6389ZM166.46 104.115L163.486 91.5678H158.181V108.9H161.158V94.1541L164.909 108.9H168.012L171.764 94.1541V108.9H174.608V91.5678H169.565L166.46 104.115ZM182.113 91.5678L176.163 108.9H179.137L180.689 103.857H187.026L188.708 108.9H191.812L185.862 91.5678H182.113ZM181.464 101.528L183.792 94.2837L186.249 101.528H181.464ZM203.971 104.889L197.117 91.5678H193.106V108.9H195.95V95.836L202.805 108.9H206.815V91.5678H203.971V104.889ZM260.623 106.314H253.509V101.528H258.682V98.9393H253.509V94.1541H259.977V91.5678H250.533V108.9H260.623V106.314ZM233.33 91.5678H232.813V105.019L225.959 91.5678H221.948V106.314H212.895V101.528H218.197V98.9393H212.895V94.1541H219.362V91.5678H209.919V108.9H224.793V95.7078L231.65 108.9H235.658V94.1541H240.963V108.9H243.936V94.1541H249.112L248.982 91.5678H233.33ZM153.913 100.234C154.82 99.3294 155.595 98.1645 155.595 96.4826C155.595 94.9303 154.82 93.6384 153.913 92.8623C152.879 91.9552 151.456 91.5678 148.87 91.5678H143.955V106.314H134.772V101.528H140.076V98.9393H134.772V94.1541H141.239V91.5678H131.797V108.9H146.93V101.528H148.353C149.777 103.727 152.751 108.9 152.751 108.9H156.244L151.586 101.268C152.621 101.138 153.268 100.751 153.913 100.234ZM146.93 99.0716V94.1541H149.387C151.718 94.1541 152.621 95.0612 152.621 96.4826C152.621 98.1645 151.717 99.0716 149.387 99.0716H146.93ZM177.973 74.8822H179.523C180.817 76.9516 183.791 82.1269 183.791 82.1269H187.284L182.629 74.6231C183.663 74.3652 184.44 73.9765 184.957 73.4595C185.862 72.6833 186.639 71.3902 186.639 69.8378C186.639 68.1573 185.991 66.9923 184.957 66.2162C183.92 65.3104 182.5 64.923 180.042 64.923H174.997V79.6688H165.813V74.754H171.118V72.2959H165.813V67.3811H172.41V64.9244H162.969V82.1283H177.973V74.8822ZM177.973 72.1663V67.3811H180.559C182.758 67.3811 183.663 68.2868 183.663 69.8378C183.663 71.5197 182.758 72.2959 180.559 72.2959H177.973V72.1663ZM128.305 92.8623C127.27 91.9552 125.847 91.5678 123.389 91.5678H118.345V108.9H121.32V101.786H123.389C125.847 101.786 127.27 101.399 128.305 100.492C129.21 99.5872 129.986 98.2927 129.986 96.6108C129.995 95.9014 129.849 95.1985 129.559 94.5511C129.269 93.9037 128.841 93.3274 128.305 92.8623ZM123.778 99.2012H121.32V94.1554H123.778C126.106 94.1554 127.012 95.1921 127.012 96.6122C127.012 98.1645 125.977 99.2012 123.778 99.2012ZM161.03 77.2107C161.03 74.754 159.477 73.2017 156.502 72.0367C154.174 71.2606 153.009 70.614 153.009 69.1913C153.009 68.1559 154.045 66.9923 156.243 66.9923C157.664 66.9923 159.217 67.5093 159.863 67.8981V65.44C159.217 65.0526 157.664 64.6638 156.243 64.6638C152.492 64.6638 150.034 66.7332 150.034 69.4491C150.034 72.0367 151.975 73.4581 154.819 74.4935C157.018 75.2696 158.052 76.0458 158.052 77.4686C158.052 78.8913 156.76 79.9266 154.691 79.9266C153.138 79.9266 151.068 79.4083 150.035 78.6321V81.348C150.939 81.865 152.751 82.3847 154.562 82.3847C158.96 82.3847 161.03 79.928 161.03 77.2107ZM262.692 105.277C262.692 103.598 263.987 102.303 265.666 102.303C267.348 102.303 268.643 103.598 268.643 105.277C268.649 105.67 268.576 106.059 268.429 106.423C268.282 106.787 268.063 107.118 267.785 107.396C267.507 107.673 267.177 107.892 266.813 108.04C266.449 108.187 266.059 108.26 265.666 108.253C263.987 108.255 262.692 106.96 262.692 105.277ZM265.666 108.9C267.607 108.9 269.289 107.348 269.289 105.277C269.289 103.206 267.607 101.657 265.666 101.657C263.725 101.657 262.046 103.206 262.046 105.277C262.046 107.348 263.726 108.9 265.666 108.9ZM264.891 105.536H265.666L266.703 107.348H267.478L266.183 105.536C266.831 105.406 267.348 105.149 267.348 104.374C267.348 103.599 266.831 103.209 265.796 103.209H264.246V107.348H264.893L264.891 105.536ZM264.891 105.019V103.727H265.796C266.183 103.727 266.703 103.857 266.703 104.374C266.703 105.02 266.183 105.02 265.666 105.02L264.891 105.019Z" fill="#367CA8"/>
</g>
<defs>
<clipPath id="clip0_1878_1594">
<rect width="300" height="154.795" rx="77.3973" fill="white"/>
</clipPath>
</defs>
</svg>
