<svg width="300" height="155" viewBox="0 0 300 155" fill="none" xmlns="http://www.w3.org/2000/svg">
<g clip-path="url(#clip0_1878_1496)">
<path d="M0 0H300.847V155.104H0V0Z" fill="white"/>
<g clip-path="url(#clip1_1878_1496)">
<path d="M103.252 95.7056C104.146 93.6624 105.167 91.7469 106.061 89.8314C106.7 88.4268 107.338 87.0221 108.104 85.6174C108.487 84.8512 108.743 84.085 108.615 83.1912C108.615 82.8081 108.743 82.6804 109.126 82.6804C111.169 82.6804 113.212 82.6804 115.255 82.6804C115.638 82.6804 115.766 82.8081 115.766 83.1912C115.766 84.4681 115.766 84.4681 114.489 84.4681C113.212 84.4681 113.212 84.4681 113.212 85.7451C113.212 90.3422 113.212 94.9394 113.212 99.5365C113.212 100.047 113.34 100.175 113.723 100.047C114.234 100.047 114.872 100.047 115.383 100.047C115.638 100.047 115.766 100.175 115.766 100.43C115.766 101.835 115.894 101.835 114.361 101.835C111.935 101.835 109.637 101.835 107.21 101.835C106.827 101.835 106.572 101.835 106.572 101.324C106.572 100.047 106.572 100.047 107.849 100.047C109.254 100.047 109.254 100.047 109.254 98.6426C109.254 95.3225 109.254 92.0023 109.254 88.6822C109.254 88.4268 109.254 88.2991 109.254 88.0437H109.126C108.743 88.9376 108.36 89.7038 107.849 90.5976C106.189 94.1732 104.529 97.7487 102.741 101.324C102.613 101.58 102.613 101.835 102.23 101.835C101.847 101.835 101.719 101.58 101.592 101.324C99.6762 97.2379 97.7607 93.1516 95.7176 89.193C95.5899 89.0653 95.5899 88.8099 95.4622 88.6822C95.2068 88.8099 95.3345 88.9376 95.3345 89.0653C95.3345 92.5131 95.3345 96.0886 95.3345 99.5365C95.3345 100.047 95.4622 100.175 95.8453 100.047C96.3561 100.047 96.8669 100.047 97.2499 100.047C97.3776 100.047 97.5053 100.047 97.5053 100.047C98.1438 100.303 97.633 100.813 97.7607 101.324C97.7607 101.452 97.8884 101.835 97.5053 101.835C95.2068 101.835 93.0359 101.835 90.7374 101.835C90.0989 101.835 90.6097 101.069 90.482 100.686C90.482 100.558 90.2266 100.047 90.7374 100.047C91.2481 100.047 91.8866 100.047 92.3974 100.047C92.9082 100.047 92.9082 99.9196 92.9082 99.5365C92.9082 95.4502 92.9082 91.2361 92.9082 87.1498C92.9082 86.3836 92.9082 85.7451 92.9082 84.9789C92.9082 84.5958 92.7805 84.4681 92.3974 84.4681C91.7589 84.4681 91.2481 84.4681 90.6097 84.4681C90.482 84.4681 90.2266 84.5958 90.2266 84.3404C90.2266 83.8296 90.2266 83.3189 90.2266 82.8081C90.2266 82.5527 90.482 82.6804 90.6097 82.6804C92.6528 82.6804 94.8237 82.6804 96.8669 82.6804C97.1222 82.6804 97.2499 82.8081 97.2499 83.0635C97.1223 84.2127 97.5053 85.2343 98.0161 86.1282C99.5485 89.193 100.953 92.2577 102.486 95.3225C103.124 95.4502 103.252 95.5779 103.252 95.7056Z" fill="#0567AE"/>
<path d="M71.3307 66.066C71.3307 66.4491 71.3307 66.8322 71.3307 67.2153C71.4584 68.4923 72.4799 69.3861 73.7569 69.5138C75.1616 69.7692 76.5663 69.1307 77.2048 67.8538C78.2264 65.8106 77.4602 63.3843 75.6724 62.1074C74.2677 61.2135 72.6076 60.9581 70.9476 61.2135C67.372 61.7243 64.0519 63.7674 62.1364 66.8322C59.9656 70.0246 58.3055 73.6002 57.5393 77.4311C56.5177 81.7728 56.0069 86.1146 56.0069 90.584C56.0069 90.8394 56.0069 91.2225 55.8792 91.4779C55.6238 90.8394 55.4961 90.0732 55.3684 89.4347C54.7299 86.1146 54.4745 82.7944 54.6022 79.4743C54.6022 74.4941 56.0069 69.6415 58.5609 65.4275C60.9871 61.3412 64.9458 58.5318 69.5429 57.5102C72.6076 56.8717 75.6724 57.2548 78.2264 58.6595C81.9296 60.8304 83.0789 65.5552 80.908 69.1307C80.7803 69.2584 80.6526 69.3861 80.6526 69.6415C78.8648 72.0678 75.6724 72.9617 72.863 71.9401C70.9476 71.3016 69.926 69.3861 70.3091 67.343C70.4368 66.8322 70.8199 66.3214 71.3307 66.066Z" fill="#FBB61C"/>
<path d="M35.0712 68.7565C35.0712 69.9058 34.4327 70.9273 33.4111 71.4381C30.8572 72.9705 27.537 72.332 25.877 69.7781C23.4507 66.4579 24.3446 61.7331 27.6647 59.3068C28.3032 58.9237 29.0694 58.6683 29.7079 58.4129C32.9003 57.2637 36.3482 57.3914 39.4129 58.9237C43.1162 60.7115 46.0532 63.5209 48.0964 66.9687C50.6504 71.055 52.1827 75.7799 52.5658 80.6324C52.6935 84.2079 52.3104 87.7835 51.2888 91.1036C51.2888 91.2313 51.2888 91.4867 51.0335 91.6144C51.0335 90.9759 51.1611 90.3374 51.1611 89.8266C51.6719 81.9094 49.2457 73.9921 44.2655 67.7349C42.35 65.1809 39.6683 63.2655 36.6036 62.2439C35.0712 61.7331 33.4111 61.7331 31.8788 62.2439C29.7079 62.8824 28.5586 65.1809 29.1971 67.3518C29.3248 67.7349 29.4525 68.118 29.7079 68.5011C30.8572 70.1612 33.028 70.5442 34.5604 69.395C34.6881 69.2673 34.8158 69.1396 34.9435 69.1396C34.9435 68.8842 34.9435 68.8842 35.0712 68.7565Z" fill="#FBB61C"/>
<path d="M107.715 70.0251V69.3866C107.715 65.9388 107.715 62.4909 107.715 59.0431C107.715 58.5323 107.588 58.2769 107.077 58.2769C106.566 58.2769 105.928 58.2769 105.417 58.2769C105.289 58.2769 105.034 58.2769 105.034 58.0215C105.034 57.5107 105.034 57.1276 105.034 56.6168C105.034 56.3614 105.289 56.3614 105.417 56.3614C107.715 56.3614 110.014 56.2337 112.313 56.3614C113.079 56.3614 112.568 57.2553 112.696 57.6384C112.823 57.8938 112.696 58.1492 112.313 58.1492C111.674 58.1492 111.163 58.1492 110.525 58.1492C110.142 58.1492 110.014 58.2769 110.142 58.5323C110.142 58.66 110.142 58.7877 110.142 58.9154C110.142 64.151 110.142 69.5143 110.142 74.7499C110.142 75.2607 110.014 75.3884 109.503 75.3884C108.609 75.5161 107.715 75.133 107.077 74.3668C103.501 70.4082 99.7982 66.5773 96.2227 62.6186C96.095 62.4909 95.9673 62.3632 95.8396 62.2355C95.5842 62.3632 95.7119 62.6186 95.7119 62.7463C95.7119 66.1942 95.7119 69.642 95.7119 73.0899C95.7119 73.473 95.8396 73.7284 96.2227 73.6007C96.7335 73.6007 97.372 73.6007 97.8828 73.6007C98.2659 73.6007 98.3936 73.7284 98.3936 74.1115C98.3936 75.3884 98.3936 75.3884 97.1166 75.3884C95.2011 75.3884 93.4133 75.3884 91.4979 75.3884C91.1148 75.3884 90.9871 75.2607 90.9871 74.8776C90.9871 73.6007 90.9871 73.6007 92.2641 73.6007C93.541 73.6007 93.541 73.6007 93.541 72.3237C93.541 67.8543 93.541 63.2571 93.541 58.7877C93.541 58.1492 93.4133 58.0215 92.7748 58.1492C92.5194 58.1492 92.264 58.1492 92.0087 58.1492C91.6256 58.1492 91.1148 58.2769 90.9871 58.0215C90.8594 57.5107 90.8594 56.9999 90.8594 56.4891C90.8594 56.2337 90.9871 56.3614 91.1148 56.3614C92.9025 56.3614 94.6903 56.3614 96.6058 56.3614C96.8612 56.3614 96.9889 56.4891 96.9889 56.7445C96.8612 57.7661 97.2443 58.7877 98.1382 59.4262C101.203 62.7463 104.268 66.0665 107.332 69.3866C107.332 69.642 107.46 69.7697 107.715 70.0251Z" fill="#0567AE"/>
<path d="M159.441 63.5221C160.08 63.0113 160.846 62.6282 161.612 62.2451C162.634 61.6066 163.911 61.4789 165.06 61.6066C166.975 61.9897 168.252 63.7775 167.997 65.693C167.997 68.3746 167.997 70.9286 167.997 73.6102C167.997 74.121 168.125 74.2487 168.635 74.2487C169.018 74.2487 169.529 74.2487 169.912 74.2487C170.295 74.2487 170.423 74.3764 170.423 74.7595C170.423 75.7811 170.423 75.7811 169.402 75.7811C167.231 75.7811 165.06 75.7811 162.889 75.7811C162.378 75.7811 162.25 75.6534 162.378 75.2703C162.378 75.1426 162.378 74.8872 162.378 74.7595C162.378 74.5041 162.378 74.3764 162.761 74.3764C163.144 74.3764 163.527 74.3764 163.911 74.3764C164.294 74.3764 164.294 74.2487 164.294 73.9933C164.294 71.4394 164.294 68.8854 164.294 66.3314C164.421 65.1822 163.655 64.2883 162.506 64.1606C162.123 64.1606 161.74 64.1606 161.484 64.2883C161.357 64.2883 161.357 64.2883 161.229 64.2883C159.441 64.7991 159.441 64.9268 159.441 66.8422C159.441 69.1408 159.441 71.4394 159.441 73.7379C159.441 74.2487 159.569 74.5041 160.08 74.3764C160.207 74.3764 160.335 74.3764 160.335 74.3764C161.357 74.3764 161.357 74.3764 161.357 75.398C161.357 75.6534 161.229 75.7811 160.973 75.7811C158.547 75.7811 155.993 75.7811 153.567 75.7811C153.312 75.7811 153.184 75.6534 153.184 75.398C153.184 74.2487 153.056 74.2487 154.205 74.2487C155.61 74.2487 155.61 74.2487 155.61 72.844C155.61 67.4807 155.61 62.1174 155.61 56.7541C155.61 56.2433 155.482 56.1156 154.972 56.1156C154.716 56.1156 154.461 56.1156 154.205 56.1156C153.184 56.1156 153.184 56.1156 153.184 55.094C153.184 54.7109 153.312 54.7109 153.567 54.7109C155.355 54.7109 157.015 54.7109 158.803 54.7109C159.186 54.7109 159.313 54.8386 159.313 55.2217C159.313 57.7757 159.313 60.3296 159.313 62.8836L159.441 63.5221Z" fill="#0567AE"/>
<path d="M181.148 66.4538C179.999 69.5186 178.849 72.4556 177.7 75.5204C177.572 75.7758 177.572 76.0311 177.189 76.0311C176.806 76.0311 176.806 75.7758 176.678 75.5204C174.891 71.6894 173.103 67.8585 171.443 64.0275C171.187 63.5167 170.932 63.2614 170.421 63.3891C169.272 63.3891 169.272 63.3891 169.4 62.2398C169.4 61.9844 169.527 61.9844 169.783 61.9844C172.081 61.9844 174.38 61.9844 176.678 61.9844C176.934 61.9844 177.061 62.1121 177.061 62.3675C177.189 63.5168 177.189 63.5168 176.04 63.5168C175.274 63.5168 175.274 63.5168 175.529 64.2829C176.295 66.0707 177.189 67.8585 177.955 69.7739C178.083 69.9016 178.083 70.157 178.211 70.4124C178.977 68.2416 179.743 66.0707 180.637 63.8998C180.765 63.5168 180.637 63.5168 180.382 63.5168C180.126 63.5168 179.999 63.5168 179.743 63.5168C179.488 63.5168 178.977 63.6444 178.849 63.3891C178.594 63.006 178.849 62.6229 178.722 62.2398C178.722 61.9844 178.849 62.1121 178.977 62.1121C181.148 62.1121 183.191 62.1121 185.362 62.1121C185.617 62.1121 185.617 62.1121 185.745 62.3675C185.873 63.5168 185.873 63.5168 184.723 63.5168C184.468 63.5168 184.34 63.5168 184.085 63.5168L187.15 70.2847C187.533 69.1355 187.916 68.2416 188.299 67.3477C188.682 66.1984 189.065 65.1768 189.576 64.0275C189.704 63.5167 189.576 63.5168 189.193 63.5168C188.937 63.5168 188.81 63.5168 188.554 63.5168C187.66 63.5168 187.788 63.5168 187.66 62.7506C187.66 62.2398 187.788 62.1121 188.299 62.1121C189.831 62.1121 191.236 62.1121 192.768 62.1121C193.151 62.1121 193.279 62.2398 193.279 62.6229C193.279 63.6444 193.279 63.6444 192.258 63.6444C191.491 63.6444 191.236 63.8998 190.981 64.5383C189.576 68.2416 188.171 71.9448 186.767 75.6481C186.639 75.9035 186.639 76.1588 186.256 76.1588C185.873 76.1588 185.745 75.9035 185.617 75.6481C184.34 72.711 182.936 69.9016 181.659 66.9646C181.403 66.7092 181.403 66.4538 181.148 66.4538Z" fill="#0567AE"/>
<path d="M263.004 63.6352C263.898 62.9967 264.792 62.4859 265.685 62.1029C266.579 61.7198 267.473 61.5921 268.495 61.7198C270.283 61.8475 271.687 63.5075 271.687 65.2953C271.687 67.977 271.687 70.7863 271.687 73.468C271.687 74.1065 271.815 74.3619 272.453 74.2342C272.709 74.2342 272.964 74.2342 273.22 74.2342C273.475 74.2342 273.986 74.1065 273.986 74.3619C274.113 74.745 274.113 75.128 273.986 75.5111C273.986 75.7665 273.73 75.6388 273.603 75.6388C271.176 75.6388 268.75 75.6388 266.324 75.6388C266.069 75.6388 265.941 75.5111 265.941 75.2557C265.941 74.1065 265.941 74.1065 266.962 74.1065C267.984 74.1065 267.984 74.1065 267.984 73.0849C267.984 70.7863 267.984 68.4878 267.984 66.1892C268.239 65.0399 267.473 64.0183 266.324 63.7629C265.941 63.6352 265.558 63.7629 265.175 63.8906C264.536 64.0183 263.898 64.4014 263.387 64.6568C263.259 64.7845 263.131 64.9122 263.131 65.1676C263.131 67.977 263.131 70.7863 263.131 73.5957C263.131 73.9788 263.259 73.9788 263.515 73.9788C263.77 73.9788 264.025 73.9788 264.281 73.9788C265.047 73.9788 265.047 73.9788 265.047 74.745C265.047 75.2557 264.919 75.3834 264.408 75.3834C262.11 75.3834 259.811 75.3834 257.513 75.3834C257.13 75.3834 256.874 75.2557 257.002 74.8726C257.002 74.745 257.002 74.4896 257.002 74.3619C257.002 73.9788 257.13 73.8511 257.513 73.8511C258.024 73.8511 258.534 73.8511 259.045 73.8511C259.301 73.8511 259.428 73.8511 259.428 73.468C259.428 70.1478 259.428 66.8277 259.428 63.5075C259.428 63.2521 259.301 63.1244 259.045 63.1244C258.534 63.1244 258.024 63.1244 257.513 63.1244C257.13 63.1244 257.002 63.1244 257.002 62.7413C257.002 61.7198 257.002 61.7198 258.024 61.7198C259.556 61.7198 260.961 61.7198 262.493 61.7198C263.004 61.7198 263.131 61.8475 263.004 62.3583C263.004 62.869 263.004 63.2521 263.004 63.6352Z" fill="#0567AE"/>
<path d="M155.214 100.671C154.064 101.437 152.787 102.075 151.383 102.203C150.617 102.331 149.85 102.331 149.212 102.075C147.935 101.82 146.913 100.671 146.786 99.266C146.786 98.6275 146.658 98.1167 146.658 97.4782C146.658 95.0519 146.658 92.6257 146.658 90.0717C146.658 89.6886 146.53 89.5609 146.147 89.5609C145.636 89.5609 145.126 89.5609 144.742 89.5609C144.487 89.5609 144.359 89.4332 144.359 89.1778C144.359 88.1563 144.359 88.1562 145.381 88.1562C146.786 88.1562 148.19 88.1562 149.595 88.1562C150.489 88.1562 150.489 88.1563 150.489 89.0501C150.489 91.9872 150.489 94.7965 150.489 97.7336C150.489 97.989 150.489 98.2444 150.489 98.4998C150.489 99.5214 151.383 100.415 152.404 100.288C152.532 100.288 152.787 100.288 152.915 100.16C153.681 99.9045 154.448 99.6491 155.214 99.1383C155.469 99.0106 155.469 98.8829 155.469 98.6275C155.469 95.6904 155.469 92.8811 155.469 89.944C155.469 89.5609 155.341 89.5609 155.086 89.5609C154.575 89.5609 154.064 89.5609 153.554 89.5609C153.171 89.5609 153.171 89.4332 153.171 89.1778C153.171 88.1563 153.171 88.1562 154.192 88.1562C155.724 88.1562 157.129 88.1562 158.662 88.1562C159.172 88.1562 159.3 88.2839 159.3 88.7947C159.3 92.498 159.3 96.0735 159.3 99.7768C159.3 100.288 159.428 100.415 159.939 100.415C160.322 100.415 160.832 100.415 161.216 100.415C161.471 100.415 161.599 100.543 161.599 100.798C161.599 101.82 161.599 101.82 160.577 101.82C159.172 101.82 157.64 101.82 156.235 101.82C155.724 101.82 155.341 101.692 155.469 101.054C155.214 101.054 155.214 100.798 155.214 100.671Z" fill="#0567AE"/>
<path d="M127.135 100.546C126.241 101.056 125.347 101.567 124.453 101.823C123.304 102.206 122.155 102.206 121.005 101.95C119.473 101.567 118.324 100.035 118.579 98.5025C118.579 95.6931 118.579 92.8838 118.579 90.2021C118.579 89.6913 118.451 89.5636 117.941 89.5636C117.685 89.5636 117.43 89.5636 117.047 89.5636C116.025 89.5636 115.898 89.4359 116.025 88.2866C116.025 88.0312 116.153 88.0312 116.408 88.0312C118.196 88.0312 119.984 88.0312 121.899 88.0312C122.41 88.0312 122.155 88.4143 122.155 88.542C122.155 91.4791 122.155 94.4161 122.155 97.4809C122.155 97.864 122.155 98.3748 122.282 98.7579C122.538 99.7795 123.432 100.29 124.453 100.163C124.453 100.163 124.453 100.163 124.581 100.163C125.475 99.9072 126.241 99.6518 127.007 99.141C127.263 99.0133 127.263 98.8856 127.263 98.6302C127.263 95.6931 127.263 92.7561 127.263 89.819C127.263 89.5636 127.135 89.4359 126.88 89.4359C126.369 89.4359 125.858 89.4359 125.347 89.4359C124.964 89.4359 124.964 89.3082 124.964 89.0528C124.964 88.0312 124.964 88.0312 125.986 88.0312C127.518 88.0312 129.05 88.0312 130.583 88.0312C130.966 88.0312 131.094 88.1589 131.094 88.542C131.094 92.2453 131.094 95.8208 131.094 99.5241C131.094 100.035 131.221 100.29 131.732 100.163C131.987 100.163 132.371 100.163 132.626 100.163C133.392 100.163 133.392 100.163 133.392 100.929C133.392 101.44 133.264 101.695 132.754 101.567C131.221 101.567 129.561 101.567 128.029 101.567C127.518 101.567 127.263 101.44 127.39 100.929C127.135 101.056 127.135 100.801 127.135 100.546Z" fill="#0567AE"/>
<path d="M120.488 61.6016C124.574 61.6016 127.384 63.7724 128.15 67.348C129.044 71.1789 126.618 75.0098 122.787 75.9037C122.404 76.0314 121.893 76.0314 121.51 76.0314C120.105 76.1591 118.7 76.0314 117.423 75.5206C114.486 74.3714 112.698 71.4343 112.954 68.2419C113.209 64.9217 115.636 62.2401 118.828 61.7293C119.466 61.7293 119.977 61.6016 120.488 61.6016ZM117.04 68.8803C117.04 70.1573 117.296 71.4343 117.806 72.7113C118.189 73.6052 118.956 74.2437 119.85 74.4991C121.51 75.0098 123.17 73.9883 123.68 72.4559C124.574 70.1573 124.574 67.6034 123.68 65.3048C123.297 64.0278 122.148 63.1339 120.743 63.1339C119.339 63.1339 118.189 64.0278 117.806 65.3048C117.296 66.4541 117.04 67.6034 117.04 68.8803Z" fill="#0567AE"/>
<path d="M75.1599 54.0647C73.883 54.7032 72.606 55.0863 71.2013 55.3417C67.4981 56.1078 63.7948 56.7463 60.0916 57.0017C55.7499 57.3848 51.2804 57.6402 46.811 57.5125C42.9801 57.5125 39.2768 57.0017 35.5736 56.1078C34.8074 55.9801 34.1689 55.7247 33.5304 55.4694C33.0196 55.214 32.7642 54.5755 32.8919 53.937C33.0196 53.5539 33.5304 53.1708 34.1689 53.2985C35.5736 53.4262 36.9783 53.6816 38.2552 53.937C40.2984 54.1924 42.3416 54.4478 44.3847 54.4478C50.2588 54.7032 56.2606 54.7032 62.1347 54.5755C66.2211 54.4478 70.4351 54.3201 74.5214 54.0647C74.7768 54.0647 74.9045 54.0647 75.1599 54.0647Z" fill="#FBB61C"/>
<path d="M163.012 91.2296C162.629 89.8249 162.629 90.208 163.523 89.4418C165.055 88.2925 166.843 87.654 168.758 87.7817C170.929 87.9094 172.589 89.5695 172.717 91.7404C172.845 93.7835 172.717 95.8267 172.717 97.8699C172.717 98.1253 172.717 98.3807 172.717 98.6361C172.717 99.5299 173.483 100.168 174.377 100.168C174.505 100.168 174.633 100.168 174.76 100.041C174.888 100.041 175.016 99.913 175.271 99.913V100.041C175.271 101.445 175.271 101.445 173.994 101.829C173.228 102.084 172.462 102.212 171.695 102.212C170.674 102.084 169.78 101.445 169.269 100.552C168.375 101.19 167.354 101.829 166.332 102.084C164.544 102.595 162.757 101.573 162.374 99.7853C162.246 99.53 162.246 99.2746 162.246 99.0192C161.863 97.3591 163.012 95.699 164.672 95.3159C165.949 94.9328 167.226 94.5497 168.631 94.2943C169.014 94.1666 169.142 94.0389 169.142 93.6558C169.142 93.2727 169.142 92.8897 169.142 92.5066C169.269 91.2296 168.375 90.0803 167.098 89.9526C166.715 89.9526 166.332 89.9526 166.077 90.0803C164.927 90.208 163.906 90.7188 163.012 91.2296ZM169.142 97.4868C169.142 96.976 169.142 96.5929 169.142 96.0821C169.142 95.8267 169.014 95.8267 168.758 95.8267C167.992 95.9544 167.226 96.2098 166.46 96.7206C165.694 97.2314 165.311 98.253 165.694 99.0192C165.949 99.6576 166.588 100.041 167.354 99.913C168.503 99.6576 169.014 99.1469 169.014 98.1253C169.142 97.8699 169.142 97.7422 169.142 97.4868Z" fill="#0567AE"/>
<path d="M242.445 72.8325C242.445 72.9602 242.445 73.0879 242.445 73.2156C242.573 74.3649 241.807 74.8757 240.785 75.2588C238.87 76.025 236.699 76.1527 234.656 75.6419C232.102 75.0034 230.186 72.7048 229.803 70.1509C229.548 68.8739 229.548 67.4692 229.931 66.1922C230.697 62.8721 234.017 60.9566 237.337 61.7228C239.508 62.2336 241.168 63.8937 241.679 65.9368C241.807 66.4476 241.934 66.8307 242.062 67.3415C242.19 67.7246 242.062 67.8523 241.679 67.8523C239.125 67.8523 236.699 67.8523 234.145 67.8523C233.634 67.8523 233.506 67.98 233.634 68.4908C233.634 69.257 233.889 70.0232 234.017 70.7894C234.528 73.2156 236.826 74.748 239.253 74.2372C239.508 74.2372 239.763 74.1095 239.891 73.9818C240.785 73.7264 241.679 73.3433 242.445 72.8325ZM235.932 66.4476C236.571 66.4476 237.337 66.4476 237.976 66.4476C238.103 66.4476 238.359 66.4476 238.359 66.1922C238.231 65.1706 237.848 64.2768 237.209 63.6383C236.443 62.8721 235.294 62.8721 234.656 63.6383C234.528 63.766 234.528 63.766 234.4 63.8937C234.017 64.5322 233.762 65.2983 233.634 66.1922C233.634 66.5753 233.762 66.4476 234.017 66.4476C234.656 66.4476 235.294 66.4476 235.932 66.4476Z" fill="#0567AE"/>
<path d="M206.299 72.8344C206.172 73.3452 206.172 73.856 206.044 74.3667C206.044 74.4944 205.916 74.6221 205.789 74.7498C203.235 76.2822 200.042 76.5376 197.361 75.2606C195.19 74.239 193.657 72.0682 193.657 69.6419C193.53 68.3649 193.657 66.9603 194.04 65.811C195.19 62.6185 198.637 60.9585 201.83 61.98C203.618 62.6185 205.022 64.0232 205.661 65.811C205.789 66.3218 205.916 66.8326 206.044 67.4711C206.172 67.8541 206.044 67.9818 205.661 67.9818C203.235 67.9818 200.808 67.9818 198.51 67.9818C197.616 67.9818 197.616 67.9818 197.616 68.8757C197.616 69.5142 197.744 70.1527 197.999 70.7912C198.51 73.2175 200.808 74.6221 203.235 74.1113C203.362 74.1113 203.618 73.9836 203.745 73.9836C204.639 73.856 205.533 73.3452 206.299 72.8344ZM199.787 66.4495C200.425 66.4495 201.191 66.4495 201.83 66.4495C202.085 66.4495 202.213 66.4495 202.213 66.1941C202.085 65.3002 201.702 64.534 201.191 63.7678C200.553 63.0016 199.404 62.8739 198.637 63.5124C198.51 63.6401 198.382 63.7678 198.254 63.8955C197.871 64.534 197.616 65.3002 197.488 66.0664C197.488 66.3218 197.488 66.4495 197.871 66.4495C198.51 66.4495 199.148 66.4495 199.787 66.4495Z" fill="#0567AE"/>
<path d="M182.551 90.5957C182.551 93.6604 182.551 96.7252 182.551 99.7899C182.551 100.173 182.679 100.428 183.062 100.428C183.573 100.428 184.084 100.428 184.467 100.428C184.722 100.428 184.85 100.556 184.85 100.812C184.978 101.961 184.978 101.961 183.828 101.961C181.53 101.961 179.359 101.961 177.06 101.961C176.677 101.961 176.422 101.833 176.55 101.45C176.55 101.322 176.55 101.067 176.55 100.939C176.55 100.556 176.677 100.428 176.933 100.428C177.443 100.428 177.954 100.428 178.465 100.428C178.72 100.428 178.848 100.301 178.848 100.045C178.848 99.9176 178.848 99.7899 178.848 99.7899C178.848 94.1712 178.848 88.5525 178.848 82.9338C178.848 82.423 178.72 82.2953 178.21 82.2953C177.827 82.2953 177.571 82.2953 177.188 82.2953C176.677 82.423 176.422 82.1676 176.422 81.6568C176.422 80.8906 176.422 80.8906 177.188 80.8906C178.72 80.8906 180.381 80.8906 181.913 80.8906C182.296 80.8906 182.424 81.0183 182.424 81.4014C182.551 84.4662 182.551 87.5309 182.551 90.5957Z" fill="#0567AE"/>
<path d="M209.743 75.261C209.615 75.5164 209.743 75.8995 209.232 75.8995C208.466 75.8995 208.466 75.8995 208.466 75.1333C208.466 74.1117 208.466 73.0901 208.466 72.0686C208.466 71.9409 208.338 71.5578 208.721 71.5578C208.977 71.5578 209.36 71.4301 209.488 71.8132C209.615 72.324 209.998 72.8347 210.381 73.3455C211.148 74.2394 212.297 74.6225 213.446 74.3671C214.212 74.2394 214.723 73.4732 214.596 72.707C214.596 72.4516 214.34 72.0686 214.085 71.9409C213.574 71.4301 212.935 71.047 212.297 70.6639C211.403 70.1531 210.509 69.5146 209.743 68.8761C208.338 67.8545 207.955 65.9391 208.466 64.4067C209.105 62.7466 210.637 61.5973 212.297 61.5973C213.319 61.4696 214.212 61.725 215.106 62.1081C215.362 62.2358 215.489 62.3635 215.617 61.9804C215.745 61.3419 216.256 61.5973 216.511 61.5973C216.894 61.5973 216.766 61.9804 216.766 62.1081C216.766 63.002 216.766 63.8959 216.766 64.6621C216.766 64.7898 216.894 65.1729 216.511 65.1729C216.256 65.1729 215.745 65.4283 215.617 64.9175C215.489 64.6621 215.362 64.4067 215.234 64.1513C214.723 63.002 213.319 62.4912 212.169 63.002C211.531 63.2574 211.148 63.8959 211.275 64.6621C211.275 64.7898 211.403 64.9175 211.531 65.0452C211.914 65.556 212.297 65.9391 212.808 66.1945C213.702 66.8329 214.723 67.216 215.617 67.8545C217.66 69.1315 218.299 71.6855 217.022 73.7286C216.256 75.0056 214.851 75.7718 213.319 75.7718C212.297 76.1549 211.02 75.8995 209.743 75.261Z" fill="#0567AE"/>
<path d="M254.194 66.8293C253.939 66.3185 253.683 65.9354 253.3 65.5523C252.662 64.7861 251.513 64.7861 250.874 65.4246L250.746 65.5523C250.236 65.9354 249.98 66.5739 249.98 67.2124C249.98 69.3832 249.98 71.5541 249.98 73.8527C249.98 74.2358 250.108 74.3635 250.491 74.3635C251.002 74.3635 251.513 74.3635 251.896 74.3635C252.151 74.3635 252.279 74.4912 252.279 74.7466C252.279 75.7681 252.279 75.7681 251.257 75.7681C248.959 75.7681 246.66 75.7681 244.362 75.7681C243.851 75.7681 243.723 75.6404 243.851 75.2573C243.851 75.1296 243.851 74.8743 243.851 74.7466C243.851 74.4912 243.978 74.3635 244.234 74.3635C244.745 74.3635 245.383 74.3635 245.894 74.3635C246.277 74.3635 246.277 74.2358 246.277 73.9804C246.277 70.6602 246.277 67.3401 246.277 64.0199C246.277 63.6368 246.149 63.6368 245.766 63.6368C245.383 63.6368 244.872 63.6368 244.489 63.6368C244.234 63.6368 243.851 63.7645 243.851 63.5091C243.851 63.126 243.851 62.6152 243.851 62.2322C243.851 62.1045 244.106 62.1045 244.106 62.1045C245.894 62.1045 247.682 62.1045 249.469 62.1045C249.725 62.1045 249.853 62.2322 249.853 62.4876C249.853 63.126 249.853 63.6368 249.853 64.2753C250.108 64.2753 250.108 64.0199 250.236 63.8922C250.746 63.126 251.257 62.6152 252.023 62.1045C253.173 61.466 254.705 61.8491 255.344 62.9983C255.344 63.126 255.471 63.126 255.471 63.2537C255.344 64.403 254.833 65.68 254.194 66.8293Z" fill="#0567AE"/>
<path d="M139.778 66.8317C139.395 66.3209 139.139 65.9378 138.884 65.5547C138.246 64.7885 137.096 64.6608 136.33 65.2993C136.202 65.2993 136.202 65.427 136.075 65.5547C135.564 65.9378 135.308 66.5763 135.308 67.2148C135.308 69.3856 135.308 71.5565 135.308 73.7274C135.308 74.2382 135.436 74.3659 135.947 74.3659C136.202 74.3659 136.585 74.3659 136.969 74.3659C137.607 74.2382 137.735 74.4936 137.735 75.1321C137.735 75.7705 137.607 75.8982 136.969 75.8982C134.542 75.8982 132.244 75.8982 129.817 75.8982C129.434 75.8982 129.179 75.7705 129.307 75.3874C129.307 75.2597 129.307 75.0044 129.307 74.8767C129.307 74.6213 129.434 74.4936 129.69 74.4936C130.201 74.4936 130.839 74.4936 131.35 74.4936C131.605 74.4936 131.733 74.3659 131.733 74.1105C131.733 70.7903 131.733 67.4702 131.733 64.0223C131.733 63.5115 131.605 63.5115 131.35 63.5115C130.839 63.5115 130.328 63.5115 129.817 63.5115C129.562 63.5115 129.434 63.5115 129.434 63.1284C129.434 62.1069 129.434 62.1069 130.456 62.1069C131.988 62.1069 133.521 62.1069 135.053 62.1069C135.436 62.1069 135.564 62.2346 135.564 62.6177C135.564 63.1284 135.564 63.7669 135.564 64.2777C135.947 63.7669 136.458 63.1284 136.969 62.7454C137.735 61.7238 139.267 61.4684 140.416 62.2346C140.544 62.2346 140.672 62.49 140.799 62.6177C140.927 62.7454 141.055 62.873 141.055 63.1284C140.799 64.4054 140.416 65.6824 139.778 66.8317Z" fill="#0567AE"/>
<path d="M133.508 90.0769L139.254 84.5859C139.254 85.7352 139.254 86.7568 139.254 87.7784C139.254 88.2892 139.382 88.2892 139.893 88.2892C140.787 88.2892 141.808 88.2892 142.702 88.2892C143.085 88.2892 143.085 88.4169 143.085 88.6723C143.085 90.077 143.085 90.0769 141.808 90.0769C141.042 90.0769 140.403 90.0769 139.637 90.0769C139.382 90.0769 139.254 90.2046 139.254 90.46C139.254 93.014 139.254 95.568 139.254 98.2496C139.254 98.7604 139.382 99.3989 139.637 99.9097C139.893 100.676 140.787 101.059 141.68 100.804C141.808 100.804 141.808 100.804 141.936 100.676C142.319 100.42 142.702 100.293 142.957 100.037C143.213 99.9097 143.468 99.782 143.724 100.037C143.979 100.293 143.851 100.548 143.724 100.804C143.341 101.442 142.83 101.825 142.191 102.081C140.914 102.591 139.637 102.591 138.36 102.336C136.828 101.953 135.679 100.42 135.806 98.8881C135.679 96.2065 135.679 93.6525 135.806 90.9708C135.806 90.46 135.679 90.2046 135.04 90.3323C134.402 90.0769 134.019 90.0769 133.508 90.0769Z" fill="#0567AE"/>
<path d="M47.3083 92.8914C47.1806 91.8698 47.1806 90.8483 47.0529 89.8267C46.6698 86.1234 45.6482 82.5479 43.8604 79.2277C43.3496 78.2062 42.5834 77.44 41.8172 76.6738C41.1788 76.0353 40.4126 75.6522 39.6464 75.5245C38.3694 75.1414 36.9647 75.5245 36.1985 76.5461C36.0708 76.6738 36.0708 76.6738 35.9431 76.8015C35.9431 76.9292 35.8154 76.9292 35.6877 77.0569C34.6662 75.3968 35.1769 73.3536 36.7093 72.3321C36.837 72.2044 36.9647 72.2044 37.2201 72.0767C39.2633 71.1828 41.5618 71.4382 43.2219 72.9705C45.0097 74.5029 46.2867 76.4184 46.9252 78.5893C48.4575 83.0587 48.7129 88.0389 47.5636 92.636C47.5636 92.636 47.5636 92.8914 47.3083 92.8914Z" fill="#FBB61C"/>
<path d="M218.953 63.7723L224.7 58.2812C224.7 59.3028 224.7 60.1967 224.7 61.2183C224.7 61.9845 224.7 61.9845 225.466 61.9845C226.36 61.9845 227.253 61.9845 228.147 61.9845C228.403 61.9845 228.53 62.1122 228.53 62.3676C228.53 63.7723 228.53 63.7723 227.126 63.7723C226.36 63.7723 225.721 63.7723 224.955 63.7723C224.572 63.7723 224.572 63.9 224.572 64.1554C224.572 66.7093 224.572 69.2633 224.572 71.8172C224.572 72.328 224.7 72.9665 224.955 73.4773C225.21 74.2435 226.104 74.7543 226.998 74.4989C227.126 74.4989 227.253 74.3712 227.253 74.3712C227.637 74.1158 227.892 73.9881 228.275 73.7327C228.53 73.605 228.786 73.4773 229.041 73.7327C229.297 73.9881 229.169 74.2435 229.041 74.4989C228.786 74.882 228.403 75.2651 228.02 75.5205C226.487 76.2867 224.827 76.4144 223.167 75.9036C221.762 75.3928 220.869 73.8604 220.996 72.328C220.869 69.7741 220.996 67.0924 220.996 64.5384C220.996 64.0277 220.869 63.9 220.358 63.9C219.975 63.9 219.464 63.7723 218.953 63.7723Z" fill="#0567AE"/>
<path d="M141.938 63.7723L147.684 58.2812C147.684 59.4305 147.684 60.4521 147.684 61.4737C147.684 61.8568 147.812 61.9845 148.195 61.9845C149.216 61.9845 150.11 61.9845 151.132 61.9845C151.387 61.9845 151.515 62.1122 151.515 62.3676C151.515 63.7723 151.515 63.7723 150.11 63.7723C149.472 63.7723 148.705 63.7723 148.067 63.7723C147.812 63.7723 147.684 63.7723 147.684 64.1554C147.684 66.837 147.556 69.6464 147.684 72.328C147.684 72.5834 147.684 72.8388 147.812 73.0942C147.939 73.9881 148.705 74.7543 149.727 74.6266C150.11 74.6266 150.493 74.3712 150.749 74.1158C151.004 73.9881 151.259 73.7327 151.515 73.605C151.643 73.4773 151.898 73.4773 152.026 73.605C152.153 73.7327 152.153 73.9881 152.026 74.1158C151.898 74.4989 151.515 74.882 151.132 75.1374C149.599 76.159 147.556 76.2867 145.896 75.5205C144.875 75.0097 144.108 73.9881 144.108 72.8388C143.981 72.328 143.981 71.6895 143.981 71.1787C143.981 68.8802 143.981 66.7093 143.981 64.4108C143.981 63.7723 143.853 63.6446 143.342 63.7723C142.831 63.9 142.448 63.7723 141.938 63.7723Z" fill="#0567AE"/>
<path d="M71.4614 77.0546C70.4398 75.3945 68.3967 74.756 66.7366 75.6499C65.4596 76.2884 64.3103 77.1823 63.6718 78.4592C62.2672 80.7578 61.2456 83.3118 60.7348 85.9934C60.224 88.1643 59.9686 90.3351 59.8409 92.506C59.8409 92.6337 59.8409 92.7614 59.7132 92.8891C59.4578 92.1229 59.2024 91.229 59.2024 90.3351C58.5639 85.8657 59.2024 81.2686 60.9902 77.0546C61.7564 75.1391 63.0333 73.479 64.8211 72.3297C66.4812 71.3081 68.3967 71.1804 70.1844 72.0743C71.8445 72.8405 72.6107 74.8837 71.8445 76.6715C71.7168 76.7992 71.5891 76.9269 71.4614 77.0546Z" fill="#FBB61C"/>
<path d="M43.3562 94.6654C43.1008 92.8776 42.59 91.0898 41.9515 89.4298C41.1853 87.3866 40.036 85.4711 38.6314 83.9387C37.7375 83.0449 36.7159 82.4064 35.4389 82.151C33.9065 81.7679 32.5019 82.5341 31.8634 83.9387C31.8634 84.0664 31.7357 84.0664 31.7357 84.0664C31.0972 83.3003 30.9695 82.4064 31.2249 81.5125C31.608 79.8524 33.2681 78.7031 34.9281 78.7031C37.2267 78.7031 39.2699 79.8524 40.5468 81.6402C42.2069 83.9387 43.2285 86.6204 43.6116 89.4298C43.867 90.9621 43.867 92.6222 43.4839 94.1546C43.4839 94.41 43.4839 94.6654 43.3562 94.6654Z" fill="#FBB61C"/>
<path d="M63.5422 94.8033C63.2868 94.1648 63.1591 93.3986 63.1591 92.7601C63.0314 89.0569 64.053 85.4813 65.9685 82.4166C66.9901 80.7565 68.5224 79.4795 70.4379 79.0964C71.7149 78.8411 72.9919 78.9687 74.1411 79.4795C75.5458 80.2457 76.1843 81.7781 75.8012 83.1828C75.6735 83.5659 75.5458 83.949 75.2904 84.2044C75.035 83.3105 74.3965 82.672 73.5027 82.4166C72.4811 82.0335 71.3318 82.1612 70.3102 82.5443C68.9055 83.1828 67.8839 84.2044 66.9901 85.4813C65.33 88.0353 64.1807 90.9724 63.6699 94.1648C63.7976 94.2925 63.6699 94.5479 63.5422 94.8033Z" fill="#FBB61C"/>
<path d="M42.6016 102.086C43.4954 101.448 44.517 100.937 45.5386 100.554C49.1142 99.1491 53.0728 98.5106 56.9037 98.766C58.4361 98.766 59.9685 99.0214 61.3732 99.4045C61.884 99.5322 62.3947 99.7876 62.9055 100.043C63.544 100.426 63.7994 100.937 63.544 101.575C63.4163 102.086 62.9055 102.214 62.1393 102.086C60.3516 101.831 58.5638 101.575 56.776 101.448C53.9667 101.32 51.1573 101.32 48.348 101.575C46.5602 101.703 44.7724 101.831 42.9847 102.086C42.857 102.086 42.857 102.086 42.6016 102.086Z" fill="#FBB61C"/>
<path d="M42.7266 97.599C44.0035 96.7051 45.4082 96.0666 46.8129 95.5559C51.41 94.0235 56.3902 93.7681 61.2428 94.9174C61.7536 95.0451 62.1367 95.1728 62.6474 95.4282C62.9028 95.5559 63.1582 95.6836 63.4136 95.9389C63.7967 96.322 63.7967 96.8328 63.5413 97.2159C63.2859 97.599 62.9028 97.7267 62.5197 97.599C61.1151 97.3436 59.8381 97.2159 58.4334 96.9605C56.0071 96.7051 53.5809 96.7051 51.1546 96.8328C48.2176 97.0882 45.5359 97.3436 42.7266 97.599Z" fill="#FBB61C"/>
<path d="M42.7266 59.0403C45.2805 58.7849 47.8345 59.5511 49.75 61.2112C52.1762 63.5098 53.7086 66.5745 54.0917 70.0224C54.2194 70.6608 54.2194 71.1716 54.0917 71.8101C53.964 72.3209 53.8363 72.5763 53.3255 72.704C52.8147 72.704 52.5593 72.3209 52.4316 71.9378C52.0485 70.2777 51.41 68.7454 50.6438 67.213C49.2392 64.0205 46.8129 61.4666 43.8758 59.6788C43.4928 59.4234 43.1097 59.2957 42.7266 59.0403Z" fill="#FBB61C"/>
<path d="M55.3631 68.1177C54.2138 63.9037 56.6401 59.4342 60.8541 58.1573C62.1311 57.7742 63.4081 57.7742 64.685 58.0296C59.9602 59.8173 57.1509 63.3929 55.3631 68.1177Z" fill="#FBB61C"/>
</g>
</g>
<defs>
<clipPath id="clip0_1878_1496">
<rect width="300" height="154.795" rx="77.3973" fill="white"/>
</clipPath>
<clipPath id="clip1_1878_1496">
<rect width="249.522" height="49.036" fill="white" transform="translate(24.5859 53.2969)"/>
</clipPath>
</defs>
</svg>
