<svg width="300" height="155" viewBox="0 0 300 155" fill="none" xmlns="http://www.w3.org/2000/svg">
<g clip-path="url(#clip0_1878_1460)">
<path d="M0 0H300.847V155.104H0V0Z" fill="white"/>
<path d="M199.117 40.977C206.543 40.977 211.354 39.8484 216.76 46.1451L234.521 68.0646H221.334C218.364 68.0646 214.978 67.233 212.186 62.5402L199.117 40.977Z" fill="url(#paint0_linear_1878_1460)"/>
<path d="M239.392 74.4219L267.43 108.4H247.768C240.996 108.4 237.075 104.361 234.521 100.024L226.086 85.7084L228.521 78.1642L239.392 74.4219Z" fill="url(#paint1_linear_1878_1460)"/>
<path d="M228.211 89.3166C229.458 83.7921 239.081 79.2181 244.071 79.9904L239.022 73.8125L230.765 75.5946L225.359 84.3268L228.211 89.3166Z" fill="url(#paint2_linear_1878_1460)"/>
<path d="M228.049 89.0882L221.574 78.1581C219.673 74.7722 221.396 70.7328 228.286 69.9605C235.177 69.1883 247.176 68.0597 250.562 75.0692C241.236 74.1187 227.336 76.9701 228.049 89.0882Z" fill="url(#paint3_linear_1878_1460)"/>
<path d="M84.6794 73.9751V62.9288C84.6794 59.2951 83.3712 57.4056 80.9003 57.4056C79.2531 57.4056 77.7996 58.5199 77.1698 60.2156C77.0244 60.6517 76.9275 61.33 76.9275 61.9598V73.9267H72.2764V62.3958C72.2764 59.2467 70.9199 57.4056 68.5943 57.4056C66.5594 57.4056 65.2513 59.0044 64.7184 60.4094C64.5246 60.9908 64.4761 61.5722 64.4761 62.1536V73.9751H59.825V59.9249C59.825 57.6478 59.7281 55.7099 59.6797 54.0626H63.701L63.9432 57.0665H64.3308L64.3792 56.9696C65.2998 55.4192 67.1408 53.5781 70.4838 53.5781C73.0032 53.5781 75.0865 54.9831 75.9585 57.2118L76.007 57.3087H76.2977L76.3461 57.2118C77.0244 56.1459 77.7996 55.3223 78.7686 54.7409C79.9798 53.9173 81.2395 53.5781 82.8383 53.5781C84.3887 53.5781 89.4274 54.208 89.4274 62.202V73.9751H84.6794Z" fill="#394C75"/>
<path d="M102.888 74.3643C96.5416 74.3643 92.6172 70.4884 92.6172 64.2869C92.6172 59.1029 95.6695 53.5312 102.355 53.5312C108.702 53.5312 110.931 58.7637 110.931 63.221C110.931 64.19 110.834 64.8683 110.786 65.2075H97.1714V65.4012C97.3167 69.3741 100.563 70.8275 103.567 70.8275C106.086 70.8275 107.733 70.3915 109.041 69.9555L109.72 73.1531C108.412 73.7345 106.134 74.3643 102.888 74.3643ZM102.065 56.7289C98.6249 56.7289 97.3652 59.9265 97.2198 61.816V62.0098H106.474V61.8645C106.474 61.2831 106.425 59.2482 105.117 57.8917C104.293 57.1165 103.276 56.7289 102.065 56.7289Z" fill="#394C75"/>
<path d="M114.528 73.9736V60.4079C114.528 57.5494 114.48 55.7083 114.383 54.061H118.453L118.646 57.8885H119.034L119.082 57.7916C119.954 55.2723 122.086 53.625 124.509 53.625C124.945 53.625 125.187 53.6734 126.398 53.7219V58.1792C125.138 58.1308 124.702 58.0823 124.17 58.0823C121.747 58.0823 119.906 59.6327 119.422 62.1036C119.325 62.5881 119.276 63.121 119.276 63.6539V74.022H114.528V73.9736Z" fill="#394C75"/>
<path d="M147.334 74.3627C141.084 74.3627 137.062 70.3415 137.062 64.1884C137.062 57.8416 141.52 53.5781 148.157 53.5781C149.805 53.5781 151.646 53.9173 152.905 54.4502L152.082 57.987C151.016 57.5025 149.805 57.2602 148.303 57.2602C146.462 57.2602 144.911 57.8901 143.797 59.0044C142.586 60.2156 141.956 62.0082 141.956 63.9947C141.956 68.0159 144.524 70.6806 148.303 70.6806C149.708 70.6806 150.967 70.4384 152.227 69.9539L152.857 73.3938C151.839 73.8782 149.805 74.3627 147.334 74.3627Z" fill="#394C75"/>
<path d="M161.272 74.4112C157.202 74.4112 155.07 71.4558 155.07 68.5489C155.07 63.704 159.237 61.0393 166.747 61.0393H167.086V60.5548C167.086 59.1498 166.553 56.8727 162.822 56.8727C160.981 56.8727 158.946 57.4056 157.493 58.2777L156.572 55.2738C157.396 54.7893 159.867 53.5781 163.694 53.5781C170.477 53.5781 171.882 58.1323 171.882 61.9598V69.2271C171.882 71.262 171.979 72.8124 172.173 73.9267H167.909L167.522 71.698H167.183L167.134 71.7465C165.874 73.4422 163.743 74.4112 161.272 74.4112ZM166.795 64.0431C162.192 64.0431 159.818 65.3512 159.818 68.0159C159.818 69.9054 160.981 71.1167 162.919 71.1167C165.148 71.1167 166.601 69.6632 167.134 68.2097C167.279 67.8221 167.279 67.4345 167.279 67.0469V64.0916L166.795 64.0431Z" fill="#394C75"/>
<path d="M189.028 73.9736V62.685C189.028 59.2935 187.575 57.404 185.007 57.404C182.73 57.404 181.373 59.0997 180.84 60.5048C180.695 60.8923 180.598 61.5222 180.598 62.2005V73.9736H175.802V59.9234C175.802 57.6463 175.705 55.7083 175.656 54.061H179.774L180.017 57.1133H180.404L180.453 57.0164C181.422 55.3692 183.553 53.625 186.8 53.625C190.191 53.625 193.825 55.8537 193.825 62.152V74.022H189.028V73.9736Z" fill="#394C75"/>
<path d="M117.473 105.95V92.3844C117.473 89.5259 117.425 87.6849 117.328 86.0376H121.398L121.592 89.8651H121.979L122.028 89.7682C122.9 87.2488 125.032 85.6016 127.454 85.6016C127.89 85.6016 128.132 85.65 129.343 85.6985V90.1558C128.084 90.1073 127.648 90.0589 127.115 90.0589C124.692 90.0589 122.851 91.6092 122.367 94.0801C122.27 94.5646 122.221 95.0976 122.221 95.6305V105.999H117.473V105.95Z" fill="#394C75"/>
<path d="M136.242 76.7344H131.445V105.949H136.242V76.7344Z" fill="#394C75"/>
<path d="M164.38 105.95V94.6615C164.38 91.2701 162.926 89.3806 160.358 89.3806C158.081 89.3806 156.725 91.0763 156.192 92.4813C156.047 92.8689 155.95 93.4987 155.95 94.177V105.95H151.153V91.8999C151.153 89.6228 151.056 87.6849 151.008 86.0376H155.126L155.368 89.0899H155.756L155.804 88.993C156.773 87.3457 158.905 85.6016 162.151 85.6016C165.543 85.6016 169.176 87.8302 169.176 94.1286V105.999H164.38V105.95Z" fill="#394C75"/>
<path d="M183.084 106.341C176.737 106.341 172.812 102.465 172.812 96.2635C172.812 91.0794 175.865 85.5078 182.551 85.5078C188.898 85.5078 191.126 90.7403 191.126 95.1976C191.126 96.1666 191.029 96.8449 190.981 97.184H177.367V97.3778C177.512 101.351 180.758 102.804 183.762 102.804C186.281 102.804 187.929 102.368 189.237 101.932L189.915 105.13C188.607 105.711 186.33 106.341 183.084 106.341ZM182.26 88.7054C178.82 88.7054 177.561 91.9031 177.415 93.7926V93.9864H186.669V93.841C186.669 93.2597 186.62 91.2248 185.312 89.8682C184.489 89.093 183.471 88.7054 182.26 88.7054Z" fill="#394C75"/>
<path d="M199.451 106.331C197.223 106.331 195.091 105.847 193.492 105.023L194.461 101.632C195.672 102.359 197.756 103.037 199.5 103.037C201.68 103.037 202.891 102.165 202.891 100.566C202.891 99.0157 201.777 98.289 199.451 97.4653C195.866 96.2541 193.977 94.2677 193.977 91.6999C193.977 88.0662 197.077 85.5469 201.486 85.5469C203.424 85.5469 205.362 85.9829 206.719 86.6612L205.798 89.9073C204.829 89.3743 203.279 88.8414 201.632 88.8414C199.791 88.8414 198.628 89.7619 198.628 91.167C198.628 92.572 199.694 93.2018 202.261 94.1708C205.944 95.4305 207.542 97.2231 207.542 100.178C207.542 103.957 204.442 106.331 199.451 106.331Z" fill="#394C75"/>
<path d="M52.4061 73.9706H57.5901L48.627 46.2578H42.3287L33.4141 73.9706H38.3559L40.1 67.8661H50.565L52.4061 73.9706ZM41.1175 64.3777L43.7337 55.3662C44.0244 54.3003 44.3151 53.1376 44.6058 51.9748C44.7511 51.345 44.8965 50.7151 45.0903 50.1337L45.1387 49.9884H45.4779L45.7686 51.0543C46.1077 52.4108 46.4953 53.9612 46.9313 55.3178L49.596 64.3293H41.1175V64.3777Z" fill="#394C75"/>
<path d="M99.9451 105.947H105.129L96.1177 78.2344H89.8193L80.9531 105.947H85.8949L87.6391 99.8426H98.1041L99.9451 105.947ZM88.6565 96.3543L91.2728 87.3428C91.5634 86.2769 91.8541 85.1141 92.1448 83.9514C92.2902 83.3215 92.4355 82.6917 92.6293 82.1103L92.6778 81.9649H93.0169L93.3076 83.0308C93.6468 84.3874 94.0343 85.9378 94.4704 87.2943L97.1351 96.3058H88.6565V96.3543Z" fill="#394C75"/>
<path d="M129.008 73.961V54H133.804V73.9125H129.008V73.961Z" fill="#394C75"/>
<path d="M133.57 46.3906H129.258V50.4603H133.57V46.3906Z" fill="#394C75"/>
<path d="M107.453 105.945V85.9844H112.25V105.897H107.453V105.945Z" fill="#394C75"/>
<path d="M112.015 78.375H107.703V82.4447H112.015V78.375Z" fill="#394C75"/>
<path d="M141.648 105.945V85.9844H146.445V105.897H141.648V105.945Z" fill="#394C75"/>
<path d="M146.249 78.375H141.938V82.4447H146.249V78.375Z" fill="#394C75"/>
</g>
<defs>
<linearGradient id="paint0_linear_1878_1460" x1="216.803" y1="41.4006" x2="216.803" y2="67.7259" gradientUnits="userSpaceOnUse">
<stop stop-color="#00D9FF"/>
<stop offset="1" stop-color="#0E518A"/>
</linearGradient>
<linearGradient id="paint1_linear_1878_1460" x1="226.136" y1="91.4006" x2="267.424" y2="91.4006" gradientUnits="userSpaceOnUse">
<stop stop-color="#F12E1F"/>
<stop offset="1" stop-color="#9F1E1C"/>
</linearGradient>
<linearGradient id="paint2_linear_1878_1460" x1="250.808" y1="65.9054" x2="227.457" y2="86.6031" gradientUnits="userSpaceOnUse">
<stop stop-color="#F12E1F"/>
<stop offset="1" stop-color="#9F1E1C"/>
</linearGradient>
<linearGradient id="paint3_linear_1878_1460" x1="227.751" y1="79.3071" x2="249.799" y2="78.8811" gradientUnits="userSpaceOnUse">
<stop stop-color="#E6EAEF"/>
<stop offset="1" stop-color="#95AAB1"/>
</linearGradient>
<clipPath id="clip0_1878_1460">
<rect width="300" height="154.795" rx="77.3973" fill="white"/>
</clipPath>
</defs>
</svg>
