<svg width="300" height="155" viewBox="0 0 300 155" fill="none" xmlns="http://www.w3.org/2000/svg">
<g clip-path="url(#clip0_1878_1444)">
<path d="M0 0H300.847V155.104H0V0Z" fill="white"/>
<path fill-rule="evenodd" clip-rule="evenodd" d="M128.458 58.65C121.903 49.3668 111.021 43.8281 99.9533 43.8281C88.8804 43.8281 77.9934 49.3668 71.4527 58.65L71.1172 59.1262H79.3682L79.4586 59.0267C85.0792 53.2299 92.4095 50.1659 99.9528 50.1659C107.492 50.1659 114.822 53.2299 120.447 59.0267L120.542 59.1262H128.788L128.458 58.65Z" fill="#E21F2A"/>
<path d="M67.8559 89.5292L67.6972 89.6834C65.1616 92.2646 62.2308 93.6343 59.2101 93.6343C52.9004 93.6343 48.3236 88.8983 48.3236 82.3707C48.3236 75.8525 52.9009 71.1145 59.2101 71.1145C62.2308 71.1145 65.1616 72.4892 67.6972 75.075L67.8559 75.2337L71.9113 70.3274L71.8028 70.1938C68.428 66.2067 64.3811 64.2694 59.4055 64.2694C54.4113 64.2694 49.848 65.9475 46.5596 68.9808C42.9803 72.2602 41.0938 76.8887 41.0938 82.3707C41.0938 87.8481 42.9803 92.4911 46.5596 95.7726C49.848 98.8164 54.4113 100.486 59.4055 100.486C64.3811 100.486 68.428 98.5487 71.8028 94.5591L71.9113 94.4365L67.8559 89.5292ZM76.0125 99.8185H83.175V64.836H76.0125V99.8185ZM111.249 92.2114C109.339 93.3777 107.556 93.9623 105.96 93.9623C103.642 93.9623 102.598 92.7423 102.598 90.0214V71.4576H109.897V64.8686H102.598V53.9851L95.5719 57.7402V64.8691H89.5164V71.458H95.5719V91.2038C95.5719 96.5838 98.7604 100.256 103.518 100.355C106.749 100.418 108.694 99.4553 109.878 98.7516L109.946 98.7039L111.67 91.9537L111.249 92.2114ZM117.185 99.8185H124.353V64.836H117.185V99.8185ZM238.653 51.5234V84.8951L240.884 81.4233C240.88 81.4389 250.914 66.9104 252.197 65.0615H256.67C255.717 66.3388 247.829 77.1911 247.829 77.1911C247.829 77.1911 258.103 98.6034 258.697 99.8195H254.306C254.066 99.3227 245.239 80.6348 245.239 80.6348L238.652 89.8692V99.819H234.561V53.8616C234.92 53.6556 237.687 52.0674 238.653 51.5234ZM205.055 69.2023C207.159 66.0475 210.466 64.3101 214.335 64.3101C222.047 64.3101 226.133 69.2304 226.133 78.5357V99.819H222.033V79.4152C222.033 71.5002 219.284 67.822 213.327 67.822C207.625 67.822 204.224 72.1577 204.224 79.4152V99.819H200.133V65.0615H204.224V70.4505L205.055 69.2023ZM179.915 64.3101C187.849 64.3101 191.705 67.9376 191.705 75.406V99.819H187.618V94.7494L186.819 95.6279C183.808 98.9475 180.356 100.572 176.242 100.572C173.016 100.572 165.513 99.5055 165.513 89.6081C165.513 81.5203 172.191 78.6467 178.446 78.6467C181.589 78.6467 184.692 79.3705 186.943 80.6343L187.618 81.008V76.0163C187.618 70.4836 184.914 67.6804 179.575 67.6804C176.282 67.6804 173.307 68.5107 170.262 70.2305C169.995 69.6102 169.047 67.5217 168.784 66.928C171.968 65.2473 175.901 64.3101 179.915 64.3101ZM169.523 89.2705C169.523 94.4661 172.217 97.3287 177.112 97.3287C181.271 97.3287 184.973 95.3597 187.54 91.7829L187.618 91.6584V84.0418L187.386 83.9086C184.778 82.4199 182.106 81.8191 178.174 81.8191C172.766 81.8196 169.523 84.6048 169.523 89.2705ZM137.943 51.5234V70.121L138.733 69.255C141.744 65.9269 145.083 64.3101 148.916 64.3101C156.586 64.3101 160.986 70.7016 160.986 81.8588C160.986 93.224 155.987 100.572 148.244 100.572C144.47 100.572 141.449 99.1092 138.737 95.9725L137.943 95.0428V99.819H133.86V53.8616C134.205 53.6556 136.982 52.0674 137.943 51.5234ZM138.038 73.1482L137.943 73.2753V91.3751L138.016 91.4831C140.27 94.976 143.949 97.0649 147.859 97.0649C153.901 97.0649 156.962 91.9683 156.962 81.9322C156.962 72.9604 153.569 67.821 147.655 67.821C144.071 67.822 140.832 69.6132 138.038 73.1482Z" fill="#033C71"/>
</g>
<defs>
<clipPath id="clip0_1878_1444">
<rect width="300" height="154.795" rx="77.3973" fill="white"/>
</clipPath>
</defs>
</svg>
