<svg width="300" height="155" viewBox="0 0 300 155" fill="none" xmlns="http://www.w3.org/2000/svg">
<g clip-path="url(#clip0_1878_1441)">
<path d="M0 0H300.847V155.104H0V0Z" fill="white"/>
<path fill-rule="evenodd" clip-rule="evenodd" d="M123.658 59.8359V60.445H127.313L138.031 91.9311H139.309L146.557 71.4069H146.618L153.804 91.9311H155.023L166.168 60.445H169.699V59.8359H161.722V60.445H165.436L157.397 83.3436H157.336L149.48 60.445H153.499V59.8359H140.528V60.445H142.903L146.252 70.3717L141.684 83.2831H141.624L133.828 60.445H136.995V59.8359H123.658ZM66.7151 67.8143H67.3242V59.8359H40.1016V67.8143H40.6501C41.442 64.9518 42.5391 62.9418 43.8783 61.9065C45.0346 60.9318 46.7408 60.445 48.9942 60.445H50.578V90.1039H46.5579V90.7117H60.8086V90.1039H56.8503V60.445H58.4328C60.6862 60.445 62.3306 60.9318 63.5487 61.9065C64.8879 62.9418 65.9232 64.9518 66.7151 67.8143ZM73.6582 72.1383V72.6869H76.5207V90.1039H73.6582V90.7117H84.3768V90.1039H81.8195V79.5682C81.8195 77.1319 82.2457 75.427 83.0376 74.3917C83.9518 73.3565 84.9858 72.8684 86.1434 72.8684C87.9089 72.8684 88.7626 74.026 88.7626 76.2795V90.1039H86.2052V90.7117H96.6186V90.1039H94.0613V77.3148C94.0613 75.915 94.5481 74.818 95.6439 73.905C96.4358 73.2354 97.2895 72.8697 98.1407 72.8697C100.028 72.8697 101.003 74.1484 101.003 76.6452V90.1051H98.5064V90.7129H109.164V90.1051H106.302V78.229C106.302 76.4636 106.059 75.1231 105.51 74.2102C104.535 72.5658 102.587 71.7134 99.785 71.7134C97.1672 71.7134 95.2177 72.8697 93.8772 75.1849C93.2681 74.0891 92.7209 73.2972 92.05 72.8104C91.0752 72.1408 89.6743 71.7134 87.8471 71.7134C85.2897 71.7134 83.2192 72.8697 81.8182 75.1849H81.6971V72.1396L73.6582 72.1383Z" fill="#025BAA"/>
<path fill-rule="evenodd" clip-rule="evenodd" d="M61.909 72.1374V72.6859H64.832V90.1029H61.909V90.712H73.0537V90.1029H70.1307V72.1374H61.909ZM125.489 73.4778C123.966 72.1386 122.017 71.5283 119.764 71.5283C117.024 71.5283 114.588 72.5031 112.579 74.5736C110.629 76.5232 109.656 78.7753 109.656 81.3944C109.656 84.378 110.691 86.8142 112.762 88.6414C114.71 90.4686 117.329 91.3211 120.374 91.3211C122.628 91.3211 124.454 90.712 125.916 89.3716C126.952 88.3981 127.683 87.301 128.049 85.9013L127.44 85.6579C127.317 86.5721 126.77 87.5456 125.916 88.5796C124.638 89.9806 122.993 90.7107 121.045 90.7107C118.731 90.7107 117.147 89.7372 116.355 87.7877C115.807 86.5091 115.503 84.5003 115.503 81.7589V79.8724H128.292C128.291 77.0692 127.377 74.9999 125.489 73.4778ZM116.171 74.5736C116.78 72.9293 117.877 72.1374 119.643 72.1374C121.531 72.1374 122.445 73.4766 122.445 76.2785V79.2003H115.502C115.624 76.9494 115.807 75.4261 116.171 74.5736ZM200.156 75.4261C200.156 74.2697 199.789 73.3555 199.06 72.6859C198.267 72.0768 197.292 71.7112 196.075 71.7112C193.639 71.7112 191.75 73.0516 190.472 75.7312H190.411V72.1374H182.372V72.6859H185.234V90.1029H182.372V90.7107H193.943V90.1029H190.472V79.0187C190.472 77.3743 190.96 75.851 191.873 74.5736C192.664 73.5383 193.457 72.9898 194.186 72.9898C194.856 72.9898 195.161 73.3555 195.161 74.0251L194.917 76.2167C194.917 77.4967 195.77 78.1663 197.535 78.1663C199.301 78.1663 200.156 77.2533 200.156 75.4261Z" fill="#025BAA"/>
<path fill-rule="evenodd" clip-rule="evenodd" d="M199.428 72.1374V72.6859H202.351V90.1029H199.428V90.7107H210.39V90.1029H207.587V80.8459C207.587 78.2886 208.137 76.2785 209.171 74.8775C210.146 73.5384 211.365 72.8675 212.887 72.8675C214.653 72.8675 215.626 74.0251 215.626 76.3996V90.1029H212.887V90.7107H223.789V90.1029H220.866V77.8611C220.866 75.9746 220.316 74.5119 219.22 73.3555C218.186 72.2597 216.724 71.7112 214.835 71.7112C211.424 71.7112 208.988 73.295 207.587 76.3996H207.528V72.1374H199.428ZM240.11 73.4778C238.526 72.1386 236.578 71.5283 234.324 71.5283C231.583 71.5283 229.148 72.5031 227.138 74.5736C225.19 76.5232 224.215 78.7753 224.215 81.3944C224.215 84.378 225.249 86.8142 227.321 88.6414C229.331 90.4686 231.889 91.3211 234.995 91.3211C237.187 91.3211 239.015 90.712 240.475 89.3716C241.512 88.3981 242.241 87.301 242.608 85.9013L241.997 85.6579C241.876 86.5721 241.328 87.5456 240.475 88.5796C239.197 89.9806 237.613 90.7107 235.604 90.7107C233.289 90.7107 231.705 89.7372 230.914 87.7877C230.365 86.5091 230.062 84.5003 230.062 81.7589V79.8724H242.85C242.849 77.0692 241.938 74.9999 240.11 73.4778ZM234.202 72.1374C236.091 72.1374 237.066 73.4766 237.066 76.2785V79.2003H230.061C230.182 76.9481 230.425 75.4248 230.73 74.5724C231.339 72.9293 232.497 72.1374 234.202 72.1374ZM243.947 72.1374V72.6859H246.748V90.1029H243.947V90.7107H255.456V90.1029H252.045V79.0187C252.045 77.3743 252.533 75.851 253.384 74.5736C254.178 73.5383 255.03 72.9898 255.7 72.9898C256.431 72.9898 256.734 73.3555 256.734 74.0251L256.431 76.2167C256.431 77.4967 257.345 78.1663 259.049 78.1663C260.814 78.1663 261.728 77.252 261.728 75.4248C261.728 74.2685 261.364 73.3542 260.571 72.6847C259.839 72.0756 258.866 71.7099 257.648 71.7099C255.151 71.7099 253.325 73.0504 252.045 75.73H251.986V72.1361L243.947 72.1374ZM170.865 71.5283C168.915 71.5283 167.149 71.894 165.749 72.6859C164.225 73.6001 163.496 74.7565 163.496 76.1575C163.496 77.619 164.348 78.3491 165.993 78.3491C167.758 78.3491 168.611 77.8006 168.611 76.5837L168.367 74.2092C168.367 72.8082 169.158 72.1386 170.864 72.1386C172.629 72.1386 173.544 73.1121 173.544 75.184V77.8031C173.544 78.8989 173.177 79.6303 172.448 80.117C171.898 80.4827 170.316 81.0313 167.817 81.7614C165.993 82.3704 164.652 82.919 163.921 83.4675C162.702 84.2594 162.156 85.4776 162.156 87.0009C162.156 88.5229 162.825 89.6805 164.166 90.3501C165.261 91.0197 166.662 91.3236 168.305 91.3236C169.889 91.3236 170.985 91.1395 171.778 90.654C172.631 90.2278 173.239 89.4359 173.727 88.2783H173.788C174.153 90.3501 175.737 91.3236 178.416 91.3236C180.426 91.3236 181.765 90.8974 182.315 89.9844L181.887 89.6187C181.401 90.1673 180.853 90.4724 180.243 90.4724C179.269 90.4724 178.842 89.741 178.842 88.3413V77.6228C178.842 73.5384 176.163 71.5283 170.865 71.5283ZM173.483 79.9934H173.545V85.6579C173.545 87.2417 173.178 88.3981 172.57 89.2505C172.023 89.9819 171.292 90.3476 170.498 90.3476C168.612 90.3476 167.636 88.9466 167.636 86.2064C167.636 84.6831 168.186 83.5268 169.158 82.6731C169.525 82.3692 170.559 81.7589 172.266 80.9682C172.996 80.663 173.363 80.2986 173.483 79.9934Z" fill="#025BAA"/>
</g>
<defs>
<clipPath id="clip0_1878_1441">
<rect width="300" height="154.795" rx="77.3973" fill="white"/>
</clipPath>
</defs>
</svg>
