<svg width="300" height="155" viewBox="0 0 300 155" fill="none" xmlns="http://www.w3.org/2000/svg">
<g clip-path="url(#clip0_1878_1449)">
<path d="M0 0H300.847V155.104H0V0Z" fill="white"/>
<g clip-path="url(#clip1_1878_1449)">
<path fill-rule="evenodd" clip-rule="evenodd" d="M72.2031 123.342H164.413L254.654 33.0859H72.2031V123.342Z" fill="url(#paint0_linear_1878_1449)"/>
<path fill-rule="evenodd" clip-rule="evenodd" d="M180.478 51.1386H162.459L162.519 93.519L146.829 51.1246H131.271L117.877 86.5312C116.452 77.5216 107.138 74.4127 99.8092 72.0841C94.9694 70.5297 89.8329 68.2432 89.885 65.716C89.9251 63.6421 92.6328 61.7187 98.0141 62.0055C101.624 62.2 104.813 62.4908 111.157 65.5556L117.395 54.6847C111.611 51.7403 103.612 49.881 97.0534 49.875H97.0133C89.3655 49.875 82.9974 52.352 79.0502 56.4336C76.2984 59.2817 74.8142 62.904 74.754 66.9094C74.6537 72.4211 76.6735 76.3282 80.9175 79.451C84.5037 82.0785 89.0907 83.7833 93.1322 85.0349C98.1164 86.5793 102.188 87.9231 102.138 90.7832C102.104 91.8322 101.683 92.8314 100.954 93.5872C99.7109 94.8709 97.8055 95.3522 95.168 95.4044C90.0796 95.5127 86.3088 94.7124 80.2998 91.1603L74.75 102.172C80.7531 105.585 87.1252 107.298 94.3657 107.298L95.9944 107.286C102.296 107.172 107.411 105.662 111.474 102.392C111.707 102.206 111.916 102.017 112.132 101.827L111.45 105.341L126.653 105.292L129.381 98.3086C132.249 99.2874 135.511 99.8289 138.972 99.8289C142.346 99.8289 145.519 99.3155 148.333 98.3929L150.234 105.292L177.512 105.319L177.578 89.3973H183.383C197.413 89.3973 205.706 82.257 205.706 70.283C205.702 56.9471 197.639 51.1386 180.478 51.1386ZM138.972 87.3655C137.01 87.3789 135.061 87.0378 133.22 86.3587L138.908 68.3976H139.019L144.615 86.4088C142.93 87.0105 141.012 87.3655 138.972 87.3655ZM181.533 77.0462H177.574V62.5711H181.535C186.81 62.5711 191.022 64.3281 191.022 69.7154C191.018 75.2912 186.81 77.0462 181.535 77.0462" fill="white"/>
</g>
</g>
<defs>
<linearGradient id="paint0_linear_1878_1449" x1="163.428" y1="33.0859" x2="163.428" y2="123.344" gradientUnits="userSpaceOnUse">
<stop stop-color="#00AEEF"/>
<stop offset="0.212" stop-color="#0097DC"/>
<stop offset="0.519" stop-color="#007CC5"/>
<stop offset="0.792" stop-color="#006CB8"/>
<stop offset="1" stop-color="#0066B3"/>
</linearGradient>
<clipPath id="clip0_1878_1449">
<rect width="300" height="154.795" rx="77.3973" fill="white"/>
</clipPath>
<clipPath id="clip1_1878_1449">
<rect width="184.524" height="90.2693" fill="white" transform="translate(72.2031 33.0859)"/>
</clipPath>
</defs>
</svg>
