<svg width="300" height="155" viewBox="0 0 300 155" fill="none" xmlns="http://www.w3.org/2000/svg">
<g clip-path="url(#clip0_1878_1604)">
<path d="M0 0H300.847V155.104H0V0Z" fill="white"/>
<g clip-path="url(#clip1_1878_1604)">
<path d="M243.149 68.1303C244.504 68.1303 245.62 67.4258 245.77 66.5157L247.108 51.387C247.108 49.8916 245.356 48.6641 243.154 48.6641C240.953 48.6641 239.203 49.8916 239.203 51.3872L240.54 66.5157C240.687 67.4256 241.803 68.1303 243.154 68.1303H243.149ZM234.973 72.8557C235.653 71.6837 235.601 70.3665 234.885 69.7814L222.45 61.0585C221.157 60.3098 219.219 61.211 218.118 63.1191C217.014 65.0247 217.21 67.1529 218.499 67.9019L232.269 74.313C233.129 74.632 234.303 74.0179 234.977 72.8468L234.973 72.8557ZM251.333 72.8476C252.012 74.0187 253.179 74.6331 254.041 74.3138L267.81 67.9028C269.108 67.154 269.292 65.0255 268.198 63.1199C267.093 61.2137 265.151 60.3106 263.861 61.0593L251.426 69.7822C250.715 70.3665 250.662 71.6848 251.338 72.8565L251.333 72.8476ZM243.149 87.0284C244.504 87.0284 245.62 87.7269 245.77 88.6379L247.108 103.764C247.108 105.264 245.356 106.489 243.154 106.489C240.953 106.489 239.203 105.264 239.203 103.764L240.54 88.6379C240.687 87.7269 241.803 87.0284 243.154 87.0284H243.149ZM251.333 82.3019C252.012 81.1275 253.179 80.5186 254.041 80.8414L267.81 87.2481C269.108 87.9976 269.292 90.1281 268.198 92.0353C267.093 93.9352 265.151 94.8408 263.861 94.0931L251.426 85.3784C250.715 84.7894 250.662 83.4703 251.338 82.2995H251.332M234.973 82.3003C235.653 83.4704 235.601 84.7894 234.885 85.3795L222.45 94.0939C221.157 94.8416 219.219 93.936 218.118 92.0361C217.014 90.1289 217.21 87.9984 218.499 87.2489L232.269 80.8422C233.129 80.5194 234.303 81.1283 234.977 82.303H234.973" fill="#FDBB30"/>
<path d="M164.721 85.358C164.721 85.8223 164.68 86.3011 164.553 86.7216C164.025 88.4682 162.217 89.9452 159.954 89.9452C158.068 89.9452 156.57 88.8736 156.57 86.6104C156.57 83.1466 160.382 82.19 164.722 82.214L164.721 85.3577V85.358ZM171.528 79.3216C171.528 73.61 169.088 68.5842 160.841 68.5842C156.608 68.5842 153.249 69.7731 151.415 70.8328L152.758 75.4246C154.434 74.3665 157.105 73.4907 159.633 73.4907C163.815 73.4791 164.501 75.8594 164.501 77.3828V77.7434C155.383 77.7299 149.619 80.8871 149.619 87.3187C149.619 91.2486 152.554 94.9294 157.657 94.9294C160.793 94.9294 163.419 93.6778 164.991 91.671H165.146C165.146 91.671 166.186 96.028 171.927 94.361C171.628 92.5491 171.529 90.6149 171.529 88.289L171.529 79.3216M29.4609 60.8058C29.4609 60.8058 35.4193 85.2206 36.3707 89.183C37.4806 93.8079 39.481 95.5106 45.2455 94.361L48.9658 79.2247C49.9091 75.4632 50.5404 72.7813 51.1483 68.9588H51.2541C51.6808 72.8218 52.2863 75.4748 53.0625 79.2372C53.0625 79.2372 54.5762 86.1092 55.3528 89.7174C56.1301 93.3245 58.2937 95.5994 63.9409 94.361L72.806 60.8047H65.6505L62.6226 75.3134C61.8086 79.5349 61.0706 82.8373 60.5011 86.6984H60.3999C59.8825 82.8713 59.2236 79.7036 58.3969 75.5895L55.2469 60.8047H47.7903L44.4191 75.2168C43.4649 79.5975 42.5701 83.1334 42.0033 86.866H41.9002C41.3183 83.3512 40.5436 78.9054 39.7053 74.667C39.7053 74.667 37.7039 64.3581 36.9999 60.8047L29.4609 60.8058ZM86.3411 85.358C86.3411 85.8223 86.2998 86.3011 86.1708 86.7216C85.6444 88.4682 83.8349 89.9452 81.5725 89.9452C79.6858 89.9452 78.1897 88.8736 78.1897 86.6104C78.1897 83.1466 82.0011 82.19 86.3419 82.214L86.3411 85.3577V85.358ZM93.1475 79.3216C93.1475 73.61 90.707 68.5842 82.4622 68.5842C78.228 68.5842 74.8657 69.7731 73.033 70.8328L74.3744 75.4246C76.0501 74.3665 78.7211 73.4907 81.2497 73.4907C85.4355 73.4791 86.1206 75.8594 86.1206 77.3828V77.7434C76.9988 77.7299 71.2378 80.8871 71.2378 87.3187C71.2378 91.2486 74.1717 94.9294 79.271 94.9294C82.4109 94.9294 85.0355 93.6778 86.6091 91.671H86.7624C86.7624 91.671 87.8054 96.028 93.5454 94.361C93.2452 92.5491 93.1475 90.6149 93.1475 88.289V79.3216ZM104.507 87.238V60.8058H97.6918V94.3621H104.507V87.238ZM193.664 60.8058V85.5596C193.664 88.974 194.308 91.3636 195.68 92.826C196.883 94.1046 198.859 94.9321 201.229 94.9321C203.245 94.9321 205.227 94.5475 206.162 94.2007L206.074 88.8763C205.378 89.0464 204.579 89.184 203.485 89.184C201.163 89.184 200.386 87.6963 200.386 84.6325V75.1612H206.321V68.7399H200.386V60.8058H193.664ZM176.073 69.1534V94.3621H183.103V81.4548C183.103 80.757 183.145 80.1492 183.256 79.5932C183.776 76.8881 185.843 75.1612 188.813 75.1612C189.627 75.1612 190.21 75.2497 190.841 75.3393V68.7399C190.312 68.6344 189.952 68.585 189.293 68.585C186.669 68.585 183.684 70.2779 182.432 73.9093H182.242V69.1534H176.073ZM109.279 69.1534V94.3621H116.129V79.5797C116.129 78.886 116.21 78.1524 116.451 77.5164C117.018 76.0281 118.403 74.285 120.614 74.285C123.379 74.285 124.67 76.6217 124.67 79.994V94.3602H131.515V79.3978C131.515 78.7359 131.605 77.9381 131.801 77.3545C132.363 75.6605 133.855 74.2831 135.91 74.2831C138.712 74.2831 140.057 76.5788 140.057 80.5481V94.3594H146.906V79.5114C146.906 71.682 142.93 68.5825 138.441 68.5825C136.455 68.5825 134.886 69.08 133.467 69.9497C132.275 70.6838 131.206 71.7241 130.273 73.0915H130.172C129.09 70.3748 126.543 68.5839 123.225 68.5839C118.961 68.5839 117.045 70.7451 115.883 72.5778H115.781V69.1526H109.279" fill="#1A75CF"/>
<path d="M271.265 93.1292H271.368C271.505 93.1292 271.593 93.0725 271.593 92.9883C271.593 92.8925 271.511 92.8404 271.383 92.8404C271.34 92.8404 271.295 92.8493 271.265 92.8493V93.1317V93.1289L271.265 93.1292ZM271.249 93.8089H270.885V92.6226C270.967 92.6064 271.16 92.5775 271.407 92.5775C271.675 92.5775 271.795 92.6153 271.883 92.6747C271.957 92.7265 272.011 92.815 272.011 92.9346C272.011 93.0563 271.899 93.1594 271.734 93.2045V93.2196C271.869 93.2555 271.942 93.3532 271.981 93.5246C272.017 93.6958 272.04 93.7657 272.063 93.8097H271.651C271.615 93.7657 271.593 93.6607 271.569 93.556C271.546 93.4358 271.489 93.3757 271.367 93.3757H271.248L271.249 93.8089ZM271.4 92.2361C270.877 92.2361 270.482 92.662 270.482 93.2051C270.482 93.7341 270.878 94.1657 271.414 94.1657C271.952 94.1746 272.348 93.7344 272.348 93.1964C272.348 92.6609 271.952 92.2361 271.408 92.2361H271.4ZM271.423 91.9141C272.152 91.9141 272.733 92.4879 272.733 93.1962C272.733 93.9128 272.152 94.4874 271.413 94.4874C270.674 94.4874 270.086 93.912 270.086 93.1964C270.086 92.4879 270.675 91.9143 271.413 91.9143H271.421" fill="#FDBB30"/>
</g>
</g>
<defs>
<clipPath id="clip0_1878_1604">
<rect width="300" height="154.795" rx="77.3973" fill="white"/>
</clipPath>
<clipPath id="clip1_1878_1604">
<rect width="243.371" height="57.8249" fill="white" transform="translate(29.4062 48.6641)"/>
</clipPath>
</defs>
</svg>
