<svg width="300" height="155" viewBox="0 0 300 155" fill="none" xmlns="http://www.w3.org/2000/svg">
<g clip-path="url(#clip0_1878_1610)">
<path d="M0 0H300.847V155.104H0V0Z" fill="white"/>
<g clip-path="url(#clip1_1878_1610)">
<path d="M233.203 95.0911C232.697 95.0911 232.349 94.7404 232.349 94.236V69.1781H223.837C223.33 69.1781 222.981 68.8289 222.981 68.3239V64.8674C222.981 64.3613 223.331 64.0111 223.837 64.0111H246.495C247 64.0111 247.349 64.3617 247.349 64.8674V68.3237C247.349 68.8284 247 69.1781 246.495 69.1781H237.983V94.2356C237.983 94.7404 237.633 95.0911 237.129 95.0911H233.203ZM167.998 82.5809L163.529 69.7616L159.021 82.5809H167.998ZM177.908 94.0787C178.104 94.585 177.792 95.0911 177.248 95.0911H173.207C172.623 95.0911 172.273 94.82 172.078 94.2736L169.786 87.6715H157.234L154.939 94.2736C154.746 94.8202 154.395 95.0911 153.813 95.0911H150.005C149.499 95.0911 149.149 94.5848 149.344 94.0787L159.875 64.7897C160.07 64.2441 160.42 64.0125 161.002 64.0125H166.21C166.793 64.0125 167.182 64.2443 167.376 64.7897L177.908 94.0787ZM208.097 90.8946C210.583 90.8946 212.255 89.6923 213.615 87.6324L207.32 80.8718C204.91 82.2326 203.354 83.5905 203.354 86.3107C203.355 88.9918 205.53 90.8946 208.097 90.8946ZM209.845 68.129C207.825 68.129 206.659 69.4122 206.659 71.1213C206.659 72.4419 207.357 73.6076 208.951 75.3174C211.71 73.7235 212.877 72.7528 212.877 71.0439C212.877 69.4498 211.867 68.129 209.845 68.129ZM227.063 94.0032C227.568 94.5476 227.258 95.0911 226.634 95.0911H221.698C221.038 95.0911 220.688 94.935 220.261 94.4294L217.307 91.1675C215.326 93.8094 212.564 95.7902 207.979 95.7902C202.305 95.7902 197.835 92.3717 197.835 86.5066C197.835 81.9987 200.246 79.5895 203.899 77.5698C202.11 75.511 201.296 73.3353 201.296 71.4327C201.296 66.6141 204.676 63.3125 209.767 63.3125C214.975 63.3125 218.162 66.3827 218.162 70.9271C218.162 74.812 215.364 76.9856 212.41 78.6184L216.763 83.3207L219.211 79.0457C219.522 78.5415 219.872 78.3465 220.493 78.3465H224.262C224.884 78.3465 225.234 78.775 224.847 79.435L220.493 86.8929L227.063 94.0032ZM188.278 95.0911C188.783 95.0911 189.135 94.7404 189.135 94.236V69.1781H197.645C198.15 69.1781 198.499 68.8289 198.499 68.3239V64.8674C198.499 64.3613 198.15 64.0111 197.645 64.0111H174.986C174.48 64.0111 174.131 64.3617 174.131 64.8674V68.3237C174.131 68.8284 174.481 69.1781 174.986 69.1781H183.496V94.2356C183.496 94.7404 183.847 95.0911 184.352 95.0911H188.278Z" fill="black"/>
<path d="M73.2631 110.209C79.854 115.311 88.1268 118.377 97.1023 118.377C106.925 118.377 115.879 114.73 122.713 108.744C122.796 108.671 122.755 108.622 122.673 108.671C119.606 110.719 110.866 115.189 97.1027 115.189C85.1415 115.189 77.5825 112.521 73.3137 110.138C73.2321 110.098 73.2018 110.159 73.2631 110.209ZM99.7412 112.196C109.308 112.196 119.821 109.588 126.108 104.425C127.829 103.019 129.468 101.147 130.935 98.6309C131.78 97.1834 132.607 95.4636 133.28 93.7731C133.31 93.6906 133.259 93.6505 133.197 93.7432C127.35 102.348 110.419 107.714 92.936 107.714C80.5787 107.714 67.2825 103.763 62.0769 96.2174C62.0256 96.1476 61.9744 96.1775 62.0056 96.2577C66.855 106.565 81.5668 112.196 99.7412 112.196ZM89.2886 95.0964C69.3916 95.0964 60.0097 85.8295 58.3079 79.5055C58.2869 79.414 58.2266 79.434 58.2266 79.5163C58.2266 81.6453 58.4396 84.3927 58.8063 86.2163C58.9812 87.104 59.7036 88.4971 60.7628 89.6076C65.5808 94.6296 77.5927 101.667 98.3954 101.667C126.738 101.667 133.219 92.2253 134.542 89.1205C135.488 86.9 135.979 82.8873 135.979 79.5165C135.979 78.7008 135.958 78.0493 135.927 77.4096C135.927 77.3058 135.867 77.2973 135.846 77.3985C134.43 84.9957 110.214 95.0964 89.2886 95.0964ZM61.9744 62.8452C60.8343 65.1079 59.5705 68.9251 59.1948 70.9007C59.0301 71.7472 59.1003 72.1537 59.3971 72.7854C61.7819 77.8453 73.8447 85.941 101.982 85.941C119.148 85.941 132.483 81.7237 134.644 74.0278C135.042 72.6111 135.063 71.1153 134.552 69.0998C133.981 66.8476 132.911 64.2211 132.006 62.3769C131.976 62.3168 131.924 62.3257 131.934 62.3968C132.271 72.4907 104.122 78.9961 89.9192 78.9961C74.5352 78.9961 61.7006 72.8667 61.7006 65.1272C61.7006 64.3835 61.8545 63.6397 62.0466 62.8657C62.0659 62.7949 62.0054 62.7832 61.9744 62.8452ZM122.776 50.452C122.939 50.708 123.021 50.9812 123.021 51.349C123.021 55.6667 109.806 63.3049 88.7702 63.3049C73.3137 63.3049 70.42 57.571 70.42 53.9245C70.42 52.6211 70.9199 51.2873 72.0208 49.9328C72.081 49.8523 72.0299 49.8212 71.9605 49.8812C69.9491 51.5856 68.1159 53.4898 66.4891 55.5646C65.7158 56.5421 65.2357 57.408 65.2357 57.9269C65.2357 65.4836 84.184 70.9626 101.901 70.9626C120.779 70.9626 129.204 64.7999 129.204 59.384C129.204 57.4485 128.451 56.3186 126.523 54.128C125.272 52.7029 124.089 51.5426 122.836 50.4004C122.776 50.3505 122.734 50.3911 122.776 50.452ZM116.988 46.1352C111.162 42.643 104.397 40.6562 97.1027 40.6562C89.7579 40.6562 82.7884 42.7124 76.9413 46.2971C75.1875 47.3765 74.2003 48.2415 74.2003 49.3535C74.2003 52.6313 81.8606 56.1556 95.4511 56.1556C108.901 56.1556 119.332 52.2953 119.332 48.5794C119.332 47.6925 118.557 47.0719 116.988 46.1352Z" fill="#00A8E0"/>
</g>
</g>
<defs>
<clipPath id="clip0_1878_1610">
<rect width="300" height="154.795" rx="77.3973" fill="white"/>
</clipPath>
<clipPath id="clip1_1878_1610">
<rect width="200.57" height="82.3943" fill="white" transform="translate(50 36)"/>
</clipPath>
</defs>
</svg>
