<svg width="300" height="155" viewBox="0 0 300 155" fill="none" xmlns="http://www.w3.org/2000/svg">
<g clip-path="url(#clip0_1878_1455)">
<path d="M0 0H300.847V155.104H0V0Z" fill="white"/>
<g clip-path="url(#clip1_1878_1455)">
<path d="M149.583 18.7557C151.325 18.7457 153.06 18.3512 154.788 18.719C162.44 19.3976 169.985 21.5003 176.792 25.084C185.597 29.5937 193.172 36.4502 198.668 44.6673C204.274 53.0249 207.593 62.8667 208.342 72.8957C208.219 75.55 208.142 78.2211 208.399 80.8687C207.851 88.4941 205.942 96.056 202.539 102.923C198.658 110.902 192.911 117.963 185.914 123.418C177.196 130.255 166.498 134.531 155.46 135.544C153.778 135.664 152.1 135.975 150.409 135.845C149.288 135.771 148.142 136.129 147.066 135.671C151.188 124.074 155.306 112.473 159.465 100.887C163.991 100.803 168.521 100.917 173.047 100.833C175.936 100.733 178.791 98.9741 179.74 96.1663C183.568 85.3885 187.493 74.6407 191.2 63.8161C191.808 62.1813 192.146 60.3594 191.661 58.6478C191.006 56.4782 189.021 54.9437 186.887 54.3687C185.036 53.7937 183.079 54.0044 181.174 53.9709C175.364 53.9542 169.554 54.001 163.747 53.9442C163.654 54.1381 163.463 54.5225 163.369 54.7131C153.962 81.1362 144.572 107.566 135.128 133.976C125.426 131.458 116.387 126.417 109.179 119.45C100.498 111.143 94.4702 100.094 92.2404 88.2835C91.5417 84.7366 91.2876 81.1261 91.0938 77.5257C91.2509 70.0274 92.4811 62.4956 95.3059 55.5221C102.196 37.9078 118.139 24.0377 136.672 20.0729C127.185 46.379 117.918 72.7653 108.434 99.0747C109.039 99.2586 109.674 99.1884 110.296 99.1947C113.753 99.178 117.213 99.2018 120.669 99.188C121.141 99.1847 121.091 98.5295 121.288 98.2286C125.453 86.4679 129.669 74.724 133.847 62.97C134.098 62.2412 134.332 61.5057 134.666 60.8137C136.833 60.8505 138.999 60.8037 141.165 60.8371C136.622 73.5773 132.119 86.3376 127.509 99.054C127.99 99.2479 128.515 99.1877 129.02 99.1981C132.651 99.1643 136.281 99.2212 139.912 99.1713C144.013 87.5945 148.166 76.0378 152.278 64.4676C153.157 62.1008 153.233 59.3027 151.836 57.1197C150.616 55.1874 148.3 54.2648 146.09 54.1745C143.068 54.0843 140.042 54.1812 137.017 54.1277C141.175 42.3272 145.458 30.5699 149.583 18.7557Z" fill="#0097D6"/>
<path d="M173.669 60.9764C174.03 60.5686 174.672 60.8159 175.153 60.7457C176.831 60.7758 178.509 60.7324 180.188 60.7691C176.28 71.9247 172.188 83.0168 168.344 94.1958C166.171 94.3496 163.981 94.256 161.805 94.2426C165.773 83.1606 169.701 72.0618 173.669 60.9764Z" fill="#0097D6"/>
</g>
</g>
<defs>
<clipPath id="clip0_1878_1455">
<rect width="300" height="154.795" rx="77.3973" fill="white"/>
</clipPath>
<clipPath id="clip1_1878_1455">
<rect width="117.674" height="117.674" fill="white" transform="translate(90.9219 18.3828)"/>
</clipPath>
</defs>
</svg>
