<svg width="300" height="155" viewBox="0 0 300 155" fill="none" xmlns="http://www.w3.org/2000/svg">
<g clip-path="url(#clip0_1878_1600)">
<path d="M0 0H300.847V155.104H0V0Z" fill="white"/>
<g clip-path="url(#clip1_1878_1600)">
<path d="M61.5 42.4609V47.2183H95.8574V42.4609H61.5ZM100.725 42.4609V47.2183H149.686C149.686 47.2183 144.685 42.4609 138.061 42.4609H100.725ZM159.291 42.4609V47.2183H188.912L187.153 42.4609H159.291ZM210.148 42.4609L208.39 47.2183H237.742V42.4609H210.148ZM61.5 51.7128V56.4702H95.8574V51.7128H61.5ZM100.725 51.7196V56.4704H155.368C155.368 56.4704 154.73 52.8089 153.616 51.7196H100.725ZM159.291 51.7196V56.4704H192.159L190.532 51.7196H159.291ZM206.632 51.7196L205.004 56.4704H237.742V51.7196H206.632ZM71.3735 60.9648V65.7289H86.2528V60.9648H71.3735ZM110.599 60.9648V65.7289H125.478V60.9648H110.599ZM139.951 60.9648V65.7289H154.83C154.83 65.7289 155.775 63.213 155.775 60.9648H139.951ZM169.165 60.9648V65.7289H195.545L193.786 60.9648H169.165ZM203.391 60.9648L201.626 65.7289H228.137V60.9648H203.391ZM71.3735 70.2236V74.981H86.2528V70.2236H71.3735ZM110.599 70.2236V74.981H148.604C148.604 74.981 151.783 72.54 152.796 70.2236H110.599ZM169.165 70.2236V74.981H184.044V72.3328L184.989 74.981H212.244L213.258 72.3328V74.981H228.137V70.2236H200.206L198.723 74.2531L197.234 70.2236H169.165ZM71.3735 79.4755V84.2329H86.2528V79.4755H71.3735ZM110.599 79.4755V84.2329H152.796C151.783 81.9242 148.604 79.4755 148.604 79.4755H110.599ZM169.165 79.4755V84.2329H184.044V79.4755H169.165ZM186.747 79.4755L188.546 84.2329H208.983L210.693 79.4755H186.747ZM213.258 79.4755V84.2329H228.137V79.4755H213.258ZM71.3735 88.7274V93.4846H86.2528V88.7274H71.3735ZM110.599 88.7274V93.4846H125.478V88.7274H110.599ZM139.951 88.7274V93.4846H155.774C155.774 91.2395 154.83 88.7274 154.83 88.7274H139.951ZM169.165 88.7274V93.4846H184.044V88.7274H169.165ZM190.125 88.7274L191.87 93.4846H205.57L207.328 88.7274H190.125ZM213.258 88.7274V93.4846H228.137V88.7274H213.258ZM61.7688 97.9793V102.743H96.1263V97.9793H61.7688ZM100.725 97.9793V102.743H153.616C154.73 101.653 155.368 97.9793 155.368 97.9793H100.725ZM159.56 97.9793V102.743H184.044V97.9793H159.56ZM193.51 97.9793L195.303 102.743H202.274L203.956 97.9793H193.51ZM213.258 97.9793V102.743H238.011V97.9793H213.258ZM61.7688 107.238V111.995H96.1263V107.238H61.7688ZM100.725 107.238V111.989H138.061C144.685 111.989 149.686 107.238 149.686 107.238H100.725ZM159.56 107.238V111.995H184.044V107.238H159.56ZM196.91 107.238L198.634 111.982L198.93 111.989L200.681 107.238H196.91ZM213.258 107.238V111.995H238.011V107.238H213.258Z" fill="#1F70C1"/>
</g>
</g>
<defs>
<clipPath id="clip0_1878_1600">
<rect width="300" height="154.795" rx="77.3973" fill="white"/>
</clipPath>
<clipPath id="clip1_1878_1600">
<rect width="176.511" height="69.5345" fill="white" transform="translate(61.5 42.4609)"/>
</clipPath>
</defs>
</svg>
