<svg width="301" height="101" viewBox="0 0 301 101" fill="none" xmlns="http://www.w3.org/2000/svg">
<path d="M0.625 50.6164C0.625 23.145 22.895 0.875 50.3664 0.875H250.276C277.747 0.875 300.017 23.145 300.017 50.6164V50.6164C300.017 78.0879 277.747 100.358 250.276 100.358H50.3664C22.895 100.358 0.625 78.0879 0.625 50.6164V50.6164Z" fill="url(#paint0_linear_2129_472)"/>
<path d="M108.57 34.1612C108.789 34.1612 108.945 34.2081 109.039 34.3018C109.133 34.3956 109.179 34.5518 109.179 34.7706V38.7267C109.179 38.933 109.092 39.083 108.917 39.1767C108.748 39.2705 108.486 39.3173 108.129 39.3173C107.786 39.3173 107.545 39.2736 107.408 39.1861C107.276 39.0923 107.211 38.9392 107.211 38.7267V36.1768H105.514V43.3672H107.539C107.689 43.3672 107.804 43.3954 107.886 43.4516C107.967 43.5016 108.026 43.5954 108.064 43.7329C108.108 43.8703 108.129 44.0703 108.129 44.3328C108.129 44.5953 108.108 44.7953 108.064 44.9328C108.026 45.0703 107.967 45.1641 107.886 45.2141C107.804 45.2641 107.689 45.2891 107.539 45.2891H101.145C100.995 45.2891 100.88 45.2641 100.798 45.2141C100.717 45.1641 100.655 45.0703 100.611 44.9328C100.573 44.7953 100.555 44.5953 100.555 44.3328C100.555 44.0703 100.573 43.8703 100.611 43.7329C100.655 43.5954 100.717 43.5016 100.798 43.4516C100.88 43.3954 100.995 43.3672 101.145 43.3672H103.17V36.1768H101.473V38.7267C101.473 38.933 101.386 39.083 101.211 39.1767C101.042 39.2705 100.78 39.3173 100.423 39.3173C100.08 39.3173 99.839 39.2736 99.7015 39.1861C99.5703 39.0923 99.5047 38.9392 99.5047 38.7267V34.7706C99.5047 34.5518 99.5515 34.3956 99.6453 34.3018C99.7453 34.2081 99.9015 34.1612 100.114 34.1612H108.57ZM113.792 32.9894C114.004 32.9894 114.154 33.0363 114.242 33.13C114.336 33.2175 114.382 33.3675 114.382 33.58V38.1361C115.132 36.9924 116.039 36.4205 117.101 36.4205C117.67 36.4205 118.167 36.5455 118.592 36.7955C119.023 37.0455 119.354 37.4018 119.585 37.8643C119.817 38.3205 119.932 38.858 119.932 39.4767V43.3672H120.654C120.804 43.3672 120.92 43.3954 121.001 43.4516C121.082 43.5016 121.142 43.5954 121.179 43.7329C121.223 43.8703 121.245 44.0703 121.245 44.3328C121.245 44.5953 121.223 44.7953 121.179 44.9328C121.142 45.0703 121.082 45.1641 121.001 45.2141C120.92 45.2641 120.804 45.2891 120.654 45.2891H117.148C116.998 45.2891 116.882 45.2641 116.801 45.2141C116.72 45.1641 116.657 45.0703 116.614 44.9328C116.576 44.7953 116.557 44.5953 116.557 44.3328C116.557 44.0703 116.576 43.8703 116.614 43.7329C116.657 43.5954 116.72 43.5016 116.801 43.4516C116.882 43.3954 116.998 43.3672 117.148 43.3672H117.589V40.0298C117.589 39.5423 117.504 39.1736 117.335 38.9236C117.167 38.6736 116.885 38.5486 116.492 38.5486C116.129 38.5486 115.785 38.7017 115.461 39.008C115.136 39.308 114.873 39.7111 114.673 40.2173C114.479 40.7236 114.382 41.2642 114.382 41.8392V43.3672H114.823C114.973 43.3672 115.089 43.3954 115.17 43.4516C115.251 43.5016 115.311 43.5954 115.348 43.7329C115.392 43.8703 115.414 44.0703 115.414 44.3328C115.414 44.5953 115.392 44.7953 115.348 44.9328C115.311 45.0703 115.251 45.1641 115.17 45.2141C115.089 45.2641 114.973 45.2891 114.823 45.2891H111.317C111.167 45.2891 111.051 45.2641 110.97 45.2141C110.889 45.1641 110.826 45.0703 110.783 44.9328C110.745 44.7953 110.726 44.5953 110.726 44.3328C110.726 44.0703 110.745 43.8703 110.783 43.7329C110.826 43.5954 110.889 43.5016 110.97 43.4516C111.051 43.3954 111.167 43.3672 111.317 43.3672H112.039V34.9112H111.129C110.979 34.9112 110.864 34.8862 110.783 34.8362C110.701 34.7862 110.639 34.6925 110.595 34.555C110.558 34.4175 110.539 34.2175 110.539 33.955C110.539 33.6925 110.558 33.4925 110.595 33.355C110.639 33.2175 110.701 33.1237 110.783 33.0738C110.864 33.0175 110.979 32.9894 111.129 32.9894H113.792ZM127.498 36.4205C128.448 36.4205 129.257 36.6268 129.926 37.0393C130.594 37.4455 131.098 38.0142 131.435 38.7455C131.779 39.4705 131.951 40.3017 131.951 41.2392C131.951 41.4517 131.904 41.6017 131.81 41.6892C131.723 41.7767 131.573 41.8204 131.36 41.8204H125.342C125.46 42.3204 125.713 42.7048 126.101 42.9735C126.495 43.236 126.991 43.3672 127.591 43.3672C128.56 43.3672 129.61 43.1954 130.741 42.8516C130.816 42.8266 130.891 42.8141 130.966 42.8141C131.104 42.8141 131.223 42.8766 131.323 43.0016C131.423 43.1266 131.513 43.3391 131.594 43.6391C131.657 43.8703 131.688 44.0672 131.688 44.2297C131.688 44.3922 131.651 44.5203 131.576 44.6141C131.507 44.7016 131.391 44.7735 131.229 44.8297C130.604 45.0359 129.966 45.1984 129.316 45.3172C128.666 45.4359 128.029 45.4953 127.404 45.4953C126.454 45.4953 125.635 45.3016 124.948 44.9141C124.26 44.5266 123.735 43.9922 123.373 43.311C123.017 42.6235 122.838 41.8392 122.838 40.9579C122.838 40.0829 123.026 39.3017 123.401 38.6142C123.776 37.9268 124.317 37.3893 125.023 37.0018C125.729 36.6143 126.554 36.4205 127.498 36.4205ZM127.498 38.5486C126.354 38.5486 125.648 39.0298 125.379 39.9923H129.504C129.398 39.5361 129.17 39.183 128.82 38.933C128.476 38.6767 128.035 38.5486 127.498 38.5486ZM141.813 36.4205C142.344 36.4205 142.844 36.5955 143.313 36.9455C143.588 37.1455 143.725 37.408 143.725 37.733C143.725 37.9393 143.669 38.183 143.557 38.4642C143.444 38.7455 143.316 38.958 143.172 39.1017C143.035 39.2455 142.888 39.3173 142.732 39.3173C142.644 39.3173 142.55 39.2923 142.45 39.2423C142.1 39.0486 141.738 38.9517 141.363 38.9517C140.882 38.9517 140.432 39.1048 140.013 39.4111C139.594 39.7173 139.257 40.1392 139.001 40.6767C138.751 41.2142 138.626 41.8142 138.626 42.4766V43.3672H141.316C141.466 43.3672 141.582 43.3954 141.663 43.4516C141.744 43.5016 141.804 43.5954 141.841 43.7329C141.885 43.8703 141.907 44.0703 141.907 44.3328C141.907 44.5953 141.885 44.7953 141.841 44.9328C141.804 45.0703 141.744 45.1641 141.663 45.2141C141.582 45.2641 141.466 45.2891 141.316 45.2891H134.904C134.754 45.2891 134.638 45.2641 134.557 45.2141C134.476 45.1641 134.413 45.0703 134.369 44.9328C134.332 44.7953 134.313 44.5953 134.313 44.3328C134.313 44.0703 134.332 43.8703 134.369 43.7329C134.413 43.5954 134.476 43.5016 134.557 43.4516C134.638 43.3954 134.754 43.3672 134.904 43.3672H136.282V38.5486H135.185C135.035 38.5486 134.919 38.5236 134.838 38.4736C134.757 38.4236 134.694 38.3299 134.651 38.1924C134.613 38.0549 134.594 37.8549 134.594 37.5924C134.594 37.3299 134.613 37.1299 134.651 36.9924C134.694 36.8549 134.757 36.7612 134.838 36.7112C134.919 36.6549 135.035 36.6268 135.185 36.6268H137.754C137.966 36.6268 138.116 36.6737 138.204 36.7674C138.297 36.8549 138.344 37.0049 138.344 37.2174V39.2517C138.813 38.3455 139.351 37.6486 139.957 37.1611C140.569 36.6674 141.188 36.4205 141.813 36.4205ZM150.522 36.4205C151.472 36.4205 152.281 36.6268 152.95 37.0393C153.619 37.4455 154.122 38.0142 154.46 38.7455C154.803 39.4705 154.975 40.3017 154.975 41.2392C154.975 41.4517 154.928 41.6017 154.834 41.6892C154.747 41.7767 154.597 41.8204 154.385 41.8204H148.366C148.485 42.3204 148.738 42.7048 149.125 42.9735C149.519 43.236 150.016 43.3672 150.616 43.3672C151.585 43.3672 152.635 43.1954 153.766 42.8516C153.841 42.8266 153.916 42.8141 153.991 42.8141C154.128 42.8141 154.247 42.8766 154.347 43.0016C154.447 43.1266 154.538 43.3391 154.619 43.6391C154.681 43.8703 154.713 44.0672 154.713 44.2297C154.713 44.3922 154.675 44.5203 154.6 44.6141C154.531 44.7016 154.416 44.7735 154.253 44.8297C153.628 45.0359 152.991 45.1984 152.341 45.3172C151.691 45.4359 151.053 45.4953 150.428 45.4953C149.478 45.4953 148.66 45.3016 147.972 44.9141C147.285 44.5266 146.76 43.9922 146.397 43.311C146.041 42.6235 145.863 41.8392 145.863 40.9579C145.863 40.0829 146.05 39.3017 146.425 38.6142C146.8 37.9268 147.341 37.3893 148.047 37.0018C148.753 36.6143 149.578 36.4205 150.522 36.4205ZM150.522 38.5486C149.378 38.5486 148.672 39.0298 148.403 39.9923H152.528C152.422 39.5361 152.194 39.183 151.844 38.933C151.5 38.6767 151.06 38.5486 150.522 38.5486ZM173.312 36.4205C174.687 36.4205 175.681 36.7174 176.293 37.3111C176.906 37.9049 177.212 38.7549 177.212 39.8611V42.5704C177.212 42.8204 177.265 43.0172 177.371 43.161C177.478 43.2985 177.631 43.3672 177.831 43.3672H178.121C178.271 43.3672 178.387 43.3954 178.468 43.4516C178.55 43.5016 178.609 43.5954 178.646 43.7329C178.69 43.8703 178.712 44.0703 178.712 44.3328C178.712 44.5953 178.69 44.7953 178.646 44.9328C178.609 45.0703 178.55 45.1641 178.468 45.2141C178.387 45.2641 178.271 45.2891 178.121 45.2891H177.071C176.684 45.2891 176.34 45.2109 176.04 45.0547C175.746 44.8922 175.521 44.6391 175.365 44.2953C174.871 44.6766 174.35 44.9734 173.8 45.1859C173.25 45.3922 172.684 45.4953 172.103 45.4953C171.397 45.4953 170.787 45.3766 170.275 45.1391C169.762 44.8953 169.368 44.5516 169.094 44.1078C168.825 43.6579 168.69 43.1297 168.69 42.5235C168.69 41.6485 169 40.9704 169.618 40.4892C170.237 40.0079 171.103 39.7673 172.215 39.7673C173.047 39.7673 173.931 39.8611 174.868 40.0486V39.7767C174.868 39.358 174.737 39.0486 174.475 38.8486C174.212 38.6486 173.75 38.5486 173.087 38.5486C172.718 38.5486 172.306 38.5955 171.85 38.6892C171.4 38.7767 170.953 38.8955 170.509 39.0455C170.403 39.0767 170.312 39.0923 170.237 39.0923C170.081 39.0923 169.94 39.0361 169.815 38.9236C169.697 38.8049 169.587 38.608 169.487 38.333C169.393 38.058 169.347 37.833 169.347 37.658C169.347 37.3393 169.49 37.1268 169.778 37.0205C170.334 36.8205 170.925 36.6705 171.55 36.5705C172.175 36.4705 172.762 36.4205 173.312 36.4205ZM172.45 41.6985C172.012 41.6985 171.678 41.7767 171.447 41.9329C171.222 42.0891 171.109 42.3173 171.109 42.6173C171.109 42.911 171.218 43.136 171.437 43.2922C171.662 43.4422 171.984 43.5172 172.403 43.5172C172.834 43.5172 173.259 43.4329 173.678 43.2641C174.103 43.0891 174.5 42.8516 174.868 42.5516V41.9516C174.043 41.7829 173.237 41.6985 172.45 41.6985ZM187.862 36.4205C188.393 36.4205 188.893 36.5955 189.362 36.9455C189.637 37.1455 189.774 37.408 189.774 37.733C189.774 37.9393 189.718 38.183 189.605 38.4642C189.493 38.7455 189.365 38.958 189.221 39.1017C189.084 39.2455 188.937 39.3173 188.781 39.3173C188.693 39.3173 188.599 39.2923 188.499 39.2423C188.149 39.0486 187.787 38.9517 187.412 38.9517C186.931 38.9517 186.481 39.1048 186.062 39.4111C185.643 39.7173 185.306 40.1392 185.049 40.6767C184.799 41.2142 184.674 41.8142 184.674 42.4766V43.3672H187.365C187.515 43.3672 187.631 43.3954 187.712 43.4516C187.793 43.5016 187.852 43.5954 187.89 43.7329C187.934 43.8703 187.956 44.0703 187.956 44.3328C187.956 44.5953 187.934 44.7953 187.89 44.9328C187.852 45.0703 187.793 45.1641 187.712 45.2141C187.631 45.2641 187.515 45.2891 187.365 45.2891H180.953C180.803 45.2891 180.687 45.2641 180.606 45.2141C180.524 45.1641 180.462 45.0703 180.418 44.9328C180.381 44.7953 180.362 44.5953 180.362 44.3328C180.362 44.0703 180.381 43.8703 180.418 43.7329C180.462 43.5954 180.524 43.5016 180.606 43.4516C180.687 43.3954 180.803 43.3672 180.953 43.3672H182.331V38.5486H181.234C181.084 38.5486 180.968 38.5236 180.887 38.4736C180.806 38.4236 180.743 38.3299 180.699 38.1924C180.662 38.0549 180.643 37.8549 180.643 37.5924C180.643 37.3299 180.662 37.1299 180.699 36.9924C180.743 36.8549 180.806 36.7612 180.887 36.7112C180.968 36.6549 181.084 36.6268 181.234 36.6268H183.803C184.015 36.6268 184.165 36.6737 184.252 36.7674C184.346 36.8549 184.393 37.0049 184.393 37.2174V39.2517C184.862 38.3455 185.399 37.6486 186.006 37.1611C186.618 36.6674 187.237 36.4205 187.862 36.4205ZM196.571 36.4205C197.521 36.4205 198.33 36.6268 198.999 37.0393C199.668 37.4455 200.171 38.0142 200.508 38.7455C200.852 39.4705 201.024 40.3017 201.024 41.2392C201.024 41.4517 200.977 41.6017 200.883 41.6892C200.796 41.7767 200.646 41.8204 200.433 41.8204H194.415C194.533 42.3204 194.787 42.7048 195.174 42.9735C195.568 43.236 196.065 43.3672 196.665 43.3672C197.633 43.3672 198.683 43.1954 199.815 42.8516C199.89 42.8266 199.965 42.8141 200.04 42.8141C200.177 42.8141 200.296 42.8766 200.396 43.0016C200.496 43.1266 200.586 43.3391 200.668 43.6391C200.73 43.8703 200.761 44.0672 200.761 44.2297C200.761 44.3922 200.724 44.5203 200.649 44.6141C200.58 44.7016 200.465 44.7735 200.302 44.8297C199.677 45.0359 199.04 45.1984 198.39 45.3172C197.74 45.4359 197.102 45.4953 196.477 45.4953C195.527 45.4953 194.708 45.3016 194.021 44.9141C193.334 44.5266 192.809 43.9922 192.446 43.311C192.09 42.6235 191.912 41.8392 191.912 40.9579C191.912 40.0829 192.099 39.3017 192.474 38.6142C192.849 37.9268 193.39 37.3893 194.096 37.0018C194.802 36.6143 195.627 36.4205 196.571 36.4205ZM196.571 38.5486C195.427 38.5486 194.721 39.0298 194.452 39.9923H198.577C198.471 39.5361 198.243 39.183 197.893 38.933C197.549 38.6767 197.108 38.5486 196.571 38.5486ZM222.202 36.4205C222.602 36.4205 222.886 36.4674 223.055 36.5612C223.223 36.6487 223.308 36.7987 223.308 37.0111V38.9892C223.308 39.2017 223.239 39.3548 223.102 39.4486C222.97 39.5361 222.752 39.5798 222.445 39.5798C222.114 39.5798 221.886 39.5142 221.761 39.383C221.392 38.9892 220.97 38.7111 220.495 38.5486C220.02 38.3799 219.47 38.2955 218.845 38.2955C218.477 38.2955 218.186 38.3611 217.974 38.4924C217.767 38.6236 217.664 38.7986 217.664 39.0173C217.664 39.2798 217.895 39.4673 218.358 39.5798C218.602 39.6423 219.017 39.7017 219.605 39.758C220.186 39.8267 220.667 39.8955 221.048 39.9642C221.436 40.0329 221.802 40.1361 222.145 40.2736C222.645 40.4798 223.036 40.7673 223.317 41.136C223.598 41.5048 223.739 41.9923 223.739 42.5985C223.739 43.1922 223.592 43.7079 223.298 44.1453C223.011 44.5766 222.586 44.9109 222.023 45.1484C221.467 45.3797 220.795 45.4953 220.008 45.4953C219.139 45.4953 218.333 45.2734 217.589 44.8297V44.9047C217.589 45.1172 217.499 45.2672 217.317 45.3547C217.136 45.4484 216.845 45.4953 216.445 45.4953C216.045 45.4953 215.761 45.4484 215.592 45.3547C215.424 45.2672 215.339 45.1172 215.339 44.9047V42.8141C215.339 42.6079 215.411 42.4579 215.555 42.3641C215.705 42.2704 215.933 42.2235 216.239 42.2235C216.62 42.2235 216.88 42.311 217.017 42.486C217.33 42.8797 217.73 43.1672 218.217 43.3485C218.705 43.5297 219.239 43.6204 219.82 43.6204C220.82 43.6204 221.32 43.361 221.32 42.8423C221.32 42.686 221.248 42.561 221.105 42.4673C220.967 42.3735 220.761 42.2954 220.486 42.2329C220.33 42.2016 219.967 42.1454 219.398 42.0641C218.767 41.9891 218.224 41.9048 217.767 41.811C217.317 41.711 216.908 41.5579 216.539 41.3517C215.677 40.8767 215.245 40.1267 215.245 39.1017C215.245 38.558 215.392 38.083 215.686 37.6768C215.98 37.2705 216.383 36.9612 216.895 36.7487C217.414 36.5299 217.995 36.4205 218.639 36.4205C219.583 36.4205 220.42 36.6487 221.152 37.1049V37.0111C221.152 36.7987 221.227 36.6487 221.377 36.5612C221.533 36.4674 221.808 36.4205 222.202 36.4205ZM229.767 33.955C230.061 33.955 230.286 33.9769 230.442 34.0206C230.604 34.0581 230.717 34.1175 230.779 34.1987C230.842 34.28 230.873 34.3956 230.873 34.5456V37.1893H234.351C234.57 37.1893 234.723 37.2611 234.811 37.4049C234.898 37.5486 234.942 37.8143 234.942 38.2017C234.942 38.5892 234.898 38.8549 234.811 38.9986C234.723 39.1361 234.57 39.2048 234.351 39.2048H230.873V41.811C230.873 42.8485 231.276 43.3672 232.083 43.3672C232.37 43.3672 232.704 43.3047 233.086 43.1797C233.473 43.0485 233.923 42.8672 234.436 42.636C234.573 42.5798 234.682 42.5516 234.764 42.5516C234.895 42.5516 235.017 42.6079 235.129 42.7204C235.242 42.8266 235.348 43.0047 235.448 43.2547C235.561 43.536 235.617 43.7641 235.617 43.9391C235.617 44.0766 235.582 44.1922 235.514 44.286C235.451 44.3735 235.354 44.4516 235.223 44.5203C233.936 45.1703 232.82 45.4953 231.876 45.4953C230.789 45.4953 229.958 45.1922 229.383 44.586C228.814 43.9797 228.529 43.0954 228.529 41.9329V39.2048H226.72C226.501 39.2048 226.348 39.1361 226.261 38.9986C226.173 38.8549 226.13 38.5892 226.13 38.2017C226.13 37.8143 226.173 37.5486 226.261 37.4049C226.348 37.2611 226.501 37.1893 226.72 37.1893H228.529V34.5456C228.529 34.3331 228.623 34.1831 228.811 34.0956C229.004 34.0019 229.323 33.955 229.767 33.955ZM243.201 36.6268C243.413 36.6268 243.563 36.6737 243.651 36.7674C243.745 36.8549 243.792 37.0049 243.792 37.2174V43.3672H246.426C246.576 43.3672 246.692 43.3954 246.773 43.4516C246.854 43.5016 246.913 43.5954 246.951 43.7329C246.995 43.8703 247.017 44.0703 247.017 44.3328C247.017 44.5953 246.995 44.7953 246.951 44.9328C246.913 45.0703 246.854 45.1641 246.773 45.2141C246.692 45.2641 246.576 45.2891 246.426 45.2891H238.889C238.739 45.2891 238.623 45.2641 238.542 45.2141C238.46 45.1641 238.398 45.0703 238.354 44.9328C238.317 44.7953 238.298 44.5953 238.298 44.3328C238.298 44.0703 238.317 43.8703 238.354 43.7329C238.398 43.5954 238.46 43.5016 238.542 43.4516C238.623 43.3954 238.739 43.3672 238.889 43.3672H241.448V38.5486H239.451C239.301 38.5486 239.185 38.5236 239.104 38.4736C239.023 38.4236 238.96 38.3299 238.917 38.1924C238.879 38.0549 238.86 37.8549 238.86 37.5924C238.86 37.3299 238.879 37.1299 238.917 36.9924C238.96 36.8549 239.023 36.7612 239.104 36.7112C239.185 36.6549 239.301 36.6268 239.451 36.6268H243.201ZM242.592 32.5113C243.035 32.5113 243.345 32.5581 243.52 32.6519C243.701 32.7394 243.792 32.8894 243.792 33.1019V34.6393C243.792 34.8518 243.707 35.005 243.538 35.0987C243.376 35.1862 243.076 35.2299 242.638 35.2299C242.201 35.2299 241.892 35.1862 241.71 35.0987C241.535 35.005 241.448 34.8518 241.448 34.6393V33.1019C241.448 32.8831 241.529 32.73 241.692 32.6425C241.854 32.555 242.154 32.5113 242.592 32.5113ZM254.619 32.9894C254.832 32.9894 254.982 33.0363 255.069 33.13C255.163 33.2175 255.21 33.3675 255.21 33.58V43.3672H257.844C257.994 43.3672 258.11 43.3954 258.191 43.4516C258.272 43.5016 258.332 43.5954 258.369 43.7329C258.413 43.8703 258.435 44.0703 258.435 44.3328C258.435 44.5953 258.413 44.7953 258.369 44.9328C258.332 45.0703 258.272 45.1641 258.191 45.2141C258.11 45.2641 257.994 45.2891 257.844 45.2891H250.307C250.157 45.2891 250.041 45.2641 249.96 45.2141C249.879 45.1641 249.816 45.0703 249.773 44.9328C249.735 44.7953 249.716 44.5953 249.716 44.3328C249.716 44.0703 249.735 43.8703 249.773 43.7329C249.816 43.5954 249.879 43.5016 249.96 43.4516C250.041 43.3954 250.157 43.3672 250.307 43.3672H252.866V34.9112H250.682C250.532 34.9112 250.416 34.8862 250.335 34.8362C250.254 34.7862 250.191 34.6925 250.148 34.555C250.11 34.4175 250.091 34.2175 250.091 33.955C250.091 33.6925 250.11 33.4925 250.148 33.355C250.191 33.2175 250.254 33.1237 250.335 33.0738C250.416 33.0175 250.532 32.9894 250.682 32.9894H254.619ZM266.132 32.9894C266.344 32.9894 266.494 33.0363 266.582 33.13C266.675 33.2175 266.722 33.3675 266.722 33.58V43.3672H269.357C269.507 43.3672 269.622 43.3954 269.703 43.4516C269.785 43.5016 269.844 43.5954 269.882 43.7329C269.925 43.8703 269.947 44.0703 269.947 44.3328C269.947 44.5953 269.925 44.7953 269.882 44.9328C269.844 45.0703 269.785 45.1641 269.703 45.2141C269.622 45.2641 269.507 45.2891 269.357 45.2891H261.819C261.669 45.2891 261.554 45.2641 261.472 45.2141C261.391 45.1641 261.329 45.0703 261.285 44.9328C261.247 44.7953 261.229 44.5953 261.229 44.3328C261.229 44.0703 261.247 43.8703 261.285 43.7329C261.329 43.5954 261.391 43.5016 261.472 43.4516C261.554 43.3954 261.669 43.3672 261.819 43.3672H264.379V34.9112H262.194C262.044 34.9112 261.929 34.8862 261.847 34.8362C261.766 34.7862 261.704 34.6925 261.66 34.555C261.622 34.4175 261.604 34.2175 261.604 33.955C261.604 33.6925 261.622 33.4925 261.66 33.355C261.704 33.2175 261.766 33.1237 261.847 33.0738C261.929 33.0175 262.044 32.9894 262.194 32.9894H266.132ZM107.539 61.4205C107.926 61.4205 108.192 61.4643 108.336 61.5518C108.479 61.6393 108.551 61.7924 108.551 62.0111V65.0204C108.551 65.2329 108.454 65.3861 108.261 65.4798C108.073 65.5673 107.758 65.6111 107.314 65.6111C107.02 65.6111 106.792 65.5923 106.629 65.5548C106.473 65.5111 106.364 65.4486 106.301 65.3673C106.239 65.2861 106.208 65.1704 106.208 65.0204C106.208 64.758 106.142 64.5142 106.011 64.2892C105.886 64.0642 105.695 63.8861 105.439 63.7549C105.189 63.6174 104.886 63.5486 104.53 63.5486C104.08 63.5486 103.686 63.6486 103.348 63.8486C103.011 64.0423 102.748 64.3236 102.561 64.6923C102.38 65.0548 102.289 65.4767 102.289 65.9579C102.289 66.4392 102.38 66.8642 102.561 67.2329C102.748 67.5954 103.011 67.8766 103.348 68.0766C103.686 68.2704 104.08 68.3672 104.53 68.3672C105.011 68.3672 105.501 68.2891 106.001 68.1329C106.508 67.9766 106.998 67.761 107.473 67.486C107.586 67.4235 107.689 67.3923 107.783 67.3923C108.064 67.3923 108.311 67.6391 108.523 68.1329C108.636 68.4016 108.692 68.6297 108.692 68.8172C108.692 69.0985 108.558 69.3141 108.289 69.4641C107.708 69.7891 107.095 70.0422 106.451 70.2234C105.814 70.4047 105.173 70.4953 104.53 70.4953C103.58 70.4953 102.745 70.3016 102.026 69.9141C101.308 69.5266 100.752 68.9891 100.358 68.3016C99.9703 67.6141 99.7765 66.8329 99.7765 65.9579C99.7765 65.0829 99.9734 64.3017 100.367 63.6142C100.761 62.9205 101.295 62.383 101.97 62.0018C102.651 61.6143 103.411 61.4205 104.248 61.4205C105.261 61.4205 105.976 61.7862 106.395 62.5174V62.0111C106.395 61.7987 106.486 61.6487 106.667 61.5612C106.848 61.4674 107.139 61.4205 107.539 61.4205ZM115.854 61.4205C116.804 61.4205 117.635 61.6143 118.348 62.0018C119.06 62.3893 119.607 62.9268 119.989 63.6142C120.376 64.3017 120.57 65.0829 120.57 65.9579C120.57 66.8329 120.376 67.6141 119.989 68.3016C119.607 68.9891 119.06 69.5266 118.348 69.9141C117.635 70.3016 116.804 70.4953 115.854 70.4953C114.904 70.4953 114.073 70.3016 113.361 69.9141C112.648 69.5266 112.098 68.9891 111.711 68.3016C111.329 67.6141 111.139 66.8329 111.139 65.9579C111.139 65.0829 111.329 64.3017 111.711 63.6142C112.098 62.9268 112.648 62.3893 113.361 62.0018C114.073 61.6143 114.904 61.4205 115.854 61.4205ZM115.854 63.5486C115.404 63.5486 115.014 63.6486 114.682 63.8486C114.351 64.0423 114.095 64.3205 113.914 64.683C113.739 65.0454 113.651 65.4704 113.651 65.9579C113.651 66.4454 113.739 66.8704 113.914 67.2329C114.095 67.5954 114.351 67.8766 114.682 68.0766C115.014 68.2704 115.404 68.3672 115.854 68.3672C116.304 68.3672 116.695 68.2704 117.026 68.0766C117.357 67.8766 117.61 67.5954 117.785 67.2329C117.967 66.8704 118.057 66.4454 118.057 65.9579C118.057 65.4704 117.967 65.0454 117.785 64.683C117.61 64.3205 117.357 64.0423 117.026 63.8486C116.695 63.6486 116.304 63.5486 115.854 63.5486ZM128.173 61.4205C128.991 61.4205 129.707 61.6205 130.319 62.0205C130.932 62.4205 131.401 62.9642 131.726 63.6517C132.051 64.3392 132.213 65.1079 132.213 65.9579C132.213 66.8079 132.051 67.5766 131.726 68.2641C131.401 68.9516 130.932 69.4953 130.319 69.8953C129.707 70.2953 128.991 70.4953 128.173 70.4953C127.685 70.4953 127.232 70.4016 126.813 70.2141C126.395 70.0203 126.026 69.7453 125.707 69.3891V72.0046H127.273C127.423 72.0046 127.538 72.0296 127.62 72.0796C127.701 72.1296 127.76 72.2234 127.798 72.3609C127.841 72.4984 127.863 72.6984 127.863 72.9609C127.863 73.2234 127.841 73.4234 127.798 73.5609C127.76 73.6984 127.701 73.7921 127.62 73.8421C127.538 73.8983 127.423 73.9265 127.273 73.9265H122.548C122.398 73.9265 122.282 73.9015 122.201 73.8515C122.12 73.8015 122.057 73.7077 122.013 73.5702C121.976 73.4327 121.957 73.2327 121.957 72.9702C121.957 72.7078 121.976 72.5078 122.013 72.3703C122.057 72.2328 122.12 72.1359 122.201 72.0796C122.282 72.0296 122.398 72.0046 122.548 72.0046H123.363V63.5486H122.548C122.398 63.5486 122.282 63.5236 122.201 63.4736C122.12 63.4236 122.057 63.3299 122.013 63.1924C121.976 63.0549 121.957 62.8549 121.957 62.5924C121.957 62.3299 121.976 62.1299 122.013 61.9924C122.057 61.8549 122.12 61.7612 122.201 61.7112C122.282 61.6549 122.398 61.6268 122.548 61.6268H124.742C124.954 61.6268 125.104 61.6737 125.192 61.7674C125.285 61.8549 125.332 62.0049 125.332 62.2174V63.0049C125.657 62.5049 126.063 62.1174 126.551 61.8424C127.038 61.5612 127.579 61.4205 128.173 61.4205ZM127.798 63.5486C127.398 63.5486 127.035 63.6424 126.71 63.8299C126.385 64.0173 126.126 64.2955 125.932 64.6642C125.738 65.0267 125.641 65.4579 125.641 65.9579C125.641 66.4579 125.738 66.8923 125.932 67.261C126.126 67.6235 126.385 67.8985 126.71 68.086C127.035 68.2735 127.398 68.3672 127.798 68.3672C128.185 68.3672 128.523 68.2704 128.81 68.0766C129.098 67.8766 129.316 67.5954 129.466 67.2329C129.623 66.8704 129.701 66.4454 129.701 65.9579C129.701 65.4704 129.623 65.0454 129.466 64.683C129.316 64.3205 129.098 64.0423 128.81 63.8486C128.523 63.6486 128.185 63.5486 127.798 63.5486ZM139.591 61.6268C139.804 61.6268 139.954 61.6737 140.041 61.7674C140.135 61.8549 140.182 62.0049 140.182 62.2174V68.3672H142.816C142.966 68.3672 143.082 68.3954 143.163 68.4516C143.244 68.5016 143.304 68.5954 143.341 68.7329C143.385 68.8703 143.407 69.0703 143.407 69.3328C143.407 69.5953 143.385 69.7953 143.341 69.9328C143.304 70.0703 143.244 70.1641 143.163 70.2141C143.082 70.2641 142.966 70.2891 142.816 70.2891H135.279C135.129 70.2891 135.013 70.2641 134.932 70.2141C134.851 70.1641 134.788 70.0703 134.744 69.9328C134.707 69.7953 134.688 69.5953 134.688 69.3328C134.688 69.0703 134.707 68.8703 134.744 68.7329C134.788 68.5954 134.851 68.5016 134.932 68.4516C135.013 68.3954 135.129 68.3672 135.279 68.3672H137.838V63.5486H135.841C135.691 63.5486 135.576 63.5236 135.494 63.4736C135.413 63.4236 135.351 63.3299 135.307 63.1924C135.269 63.0549 135.251 62.8549 135.251 62.5924C135.251 62.3299 135.269 62.1299 135.307 61.9924C135.351 61.8549 135.413 61.7612 135.494 61.7112C135.576 61.6549 135.691 61.6268 135.841 61.6268H139.591ZM138.982 57.5113C139.426 57.5113 139.735 57.5581 139.91 57.6519C140.091 57.7394 140.182 57.8894 140.182 58.1019V59.6393C140.182 59.8518 140.097 60.005 139.929 60.0987C139.766 60.1862 139.466 60.2299 139.029 60.2299C138.591 60.2299 138.282 60.1862 138.101 60.0987C137.926 60.005 137.838 59.8518 137.838 59.6393V58.1019C137.838 57.8831 137.919 57.73 138.082 57.6425C138.244 57.555 138.544 57.5113 138.982 57.5113ZM150.522 61.4205C151.472 61.4205 152.281 61.6268 152.95 62.0393C153.619 62.4455 154.122 63.0142 154.46 63.7455C154.803 64.4705 154.975 65.3017 154.975 66.2392C154.975 66.4517 154.928 66.6017 154.834 66.6892C154.747 66.7767 154.597 66.8204 154.385 66.8204H148.366C148.485 67.3204 148.738 67.7048 149.125 67.9735C149.519 68.236 150.016 68.3672 150.616 68.3672C151.585 68.3672 152.635 68.1954 153.766 67.8516C153.841 67.8266 153.916 67.8141 153.991 67.8141C154.128 67.8141 154.247 67.8766 154.347 68.0016C154.447 68.1266 154.538 68.3391 154.619 68.6391C154.681 68.8703 154.713 69.0672 154.713 69.2297C154.713 69.3922 154.675 69.5203 154.6 69.6141C154.531 69.7016 154.416 69.7735 154.253 69.8297C153.628 70.0359 152.991 70.1984 152.341 70.3172C151.691 70.4359 151.053 70.4953 150.428 70.4953C149.478 70.4953 148.66 70.3016 147.972 69.9141C147.285 69.5266 146.76 68.9922 146.397 68.311C146.041 67.6235 145.863 66.8392 145.863 65.9579C145.863 65.0829 146.05 64.3017 146.425 63.6142C146.8 62.9268 147.341 62.3893 148.047 62.0018C148.753 61.6143 149.578 61.4205 150.522 61.4205ZM150.522 63.5486C149.378 63.5486 148.672 64.0298 148.403 64.9923H152.528C152.422 64.5361 152.194 64.183 151.844 63.933C151.5 63.6767 151.06 63.5486 150.522 63.5486ZM164.64 61.4205C165.04 61.4205 165.325 61.4674 165.494 61.5612C165.662 61.6487 165.747 61.7987 165.747 62.0111V63.9892C165.747 64.2017 165.678 64.3548 165.54 64.4486C165.409 64.5361 165.19 64.5798 164.884 64.5798C164.553 64.5798 164.325 64.5142 164.2 64.383C163.831 63.9892 163.409 63.7111 162.934 63.5486C162.459 63.3799 161.909 63.2955 161.284 63.2955C160.916 63.2955 160.625 63.3611 160.412 63.4924C160.206 63.6236 160.103 63.7986 160.103 64.0173C160.103 64.2798 160.334 64.4673 160.797 64.5798C161.041 64.6423 161.456 64.7017 162.044 64.758C162.625 64.8267 163.106 64.8955 163.487 64.9642C163.875 65.0329 164.241 65.1361 164.584 65.2736C165.084 65.4798 165.475 65.7673 165.756 66.136C166.037 66.5048 166.178 66.9923 166.178 67.5985C166.178 68.1922 166.031 68.7079 165.737 69.1453C165.45 69.5766 165.025 69.9109 164.462 70.1484C163.906 70.3797 163.234 70.4953 162.447 70.4953C161.578 70.4953 160.772 70.2734 160.028 69.8297V69.9047C160.028 70.1172 159.937 70.2672 159.756 70.3547C159.575 70.4484 159.284 70.4953 158.884 70.4953C158.484 70.4953 158.2 70.4484 158.031 70.3547C157.863 70.2672 157.778 70.1172 157.778 69.9047V67.8141C157.778 67.6079 157.85 67.4579 157.994 67.3641C158.144 67.2704 158.372 67.2235 158.678 67.2235C159.059 67.2235 159.319 67.311 159.456 67.486C159.769 67.8797 160.169 68.1672 160.656 68.3485C161.144 68.5297 161.678 68.6204 162.259 68.6204C163.259 68.6204 163.759 68.361 163.759 67.8423C163.759 67.686 163.687 67.561 163.544 67.4673C163.406 67.3735 163.2 67.2954 162.925 67.2329C162.769 67.2016 162.406 67.1454 161.837 67.0641C161.206 66.9891 160.662 66.9048 160.206 66.811C159.756 66.711 159.347 66.5579 158.978 66.3517C158.116 65.8767 157.684 65.1267 157.684 64.1017C157.684 63.558 157.831 63.083 158.125 62.6768C158.419 62.2705 158.822 61.9612 159.334 61.7487C159.853 61.5299 160.434 61.4205 161.078 61.4205C162.022 61.4205 162.859 61.6487 163.591 62.1049V62.0111C163.591 61.7987 163.666 61.6487 163.816 61.5612C163.972 61.4674 164.247 61.4205 164.64 61.4205ZM185.546 57.9894C185.759 57.9894 185.909 58.0363 185.996 58.13C186.09 58.2175 186.137 58.3675 186.137 58.58V68.3672H188.771C188.921 68.3672 189.037 68.3954 189.118 68.4516C189.199 68.5016 189.259 68.5954 189.296 68.7329C189.34 68.8703 189.362 69.0703 189.362 69.3328C189.362 69.5953 189.34 69.7953 189.296 69.9328C189.259 70.0703 189.199 70.1641 189.118 70.2141C189.037 70.2641 188.921 70.2891 188.771 70.2891H181.234C181.084 70.2891 180.968 70.2641 180.887 70.2141C180.806 70.1641 180.743 70.0703 180.699 69.9328C180.662 69.7953 180.643 69.5953 180.643 69.3328C180.643 69.0703 180.662 68.8703 180.699 68.7329C180.743 68.5954 180.806 68.5016 180.887 68.4516C180.968 68.3954 181.084 68.3672 181.234 68.3672H183.793V59.9112H181.609C181.459 59.9112 181.343 59.8862 181.262 59.8362C181.181 59.7862 181.118 59.6925 181.074 59.555C181.037 59.4175 181.018 59.2175 181.018 58.955C181.018 58.6925 181.037 58.4925 181.074 58.355C181.118 58.2175 181.181 58.1237 181.262 58.0738C181.343 58.0175 181.459 57.9894 181.609 57.9894H185.546ZM196.571 61.4205C197.521 61.4205 198.33 61.6268 198.999 62.0393C199.668 62.4455 200.171 63.0142 200.508 63.7455C200.852 64.4705 201.024 65.3017 201.024 66.2392C201.024 66.4517 200.977 66.6017 200.883 66.6892C200.796 66.7767 200.646 66.8204 200.433 66.8204H194.415C194.533 67.3204 194.787 67.7048 195.174 67.9735C195.568 68.236 196.065 68.3672 196.665 68.3672C197.633 68.3672 198.683 68.1954 199.815 67.8516C199.89 67.8266 199.965 67.8141 200.04 67.8141C200.177 67.8141 200.296 67.8766 200.396 68.0016C200.496 68.1266 200.586 68.3391 200.668 68.6391C200.73 68.8703 200.761 69.0672 200.761 69.2297C200.761 69.3922 200.724 69.5203 200.649 69.6141C200.58 69.7016 200.465 69.7735 200.302 69.8297C199.677 70.0359 199.04 70.1984 198.39 70.3172C197.74 70.4359 197.102 70.4953 196.477 70.4953C195.527 70.4953 194.708 70.3016 194.021 69.9141C193.334 69.5266 192.809 68.9922 192.446 68.311C192.09 67.6235 191.912 66.8392 191.912 65.9579C191.912 65.0829 192.099 64.3017 192.474 63.6142C192.849 62.9268 193.39 62.3893 194.096 62.0018C194.802 61.6143 195.627 61.4205 196.571 61.4205ZM196.571 63.5486C195.427 63.5486 194.721 64.0298 194.452 64.9923H198.577C198.471 64.5361 198.243 64.183 197.893 63.933C197.549 63.6767 197.108 63.5486 196.571 63.5486ZM209.414 57.9425C210.364 57.9425 211.314 58.1206 212.264 58.4769C212.421 58.5331 212.536 58.6144 212.611 58.7206C212.692 58.8206 212.733 58.9581 212.733 59.1331C212.733 59.2956 212.702 59.4893 212.639 59.7143C212.564 59.9893 212.471 60.1862 212.358 60.3049C212.252 60.4237 212.124 60.4831 211.974 60.4831C211.899 60.4831 211.808 60.4674 211.702 60.4362C210.908 60.1924 210.214 60.0706 209.621 60.0706C208.814 60.0706 208.411 60.5893 208.411 61.6268V62.1893H211.327C211.546 62.1893 211.699 62.2611 211.786 62.4049C211.874 62.5486 211.917 62.8143 211.917 63.2017C211.917 63.5892 211.874 63.8549 211.786 63.9986C211.699 64.1361 211.546 64.2048 211.327 64.2048H208.411V68.3672H211.046C211.196 68.3672 211.311 68.3954 211.392 68.4516C211.474 68.5016 211.533 68.5954 211.571 68.7329C211.614 68.8703 211.636 69.0703 211.636 69.3328C211.636 69.5953 211.614 69.7953 211.571 69.9328C211.533 70.0703 211.474 70.1641 211.392 70.2141C211.311 70.2641 211.196 70.2891 211.046 70.2891H204.352C204.202 70.2891 204.086 70.2641 204.005 70.2141C203.924 70.1641 203.861 70.0703 203.818 69.9328C203.78 69.7953 203.761 69.5953 203.761 69.3328C203.761 69.0703 203.78 68.8703 203.818 68.7329C203.861 68.5954 203.924 68.5016 204.005 68.4516C204.086 68.3954 204.202 68.3672 204.352 68.3672H206.068V64.2048H204.352C204.133 64.2048 203.98 64.1361 203.893 63.9986C203.805 63.8549 203.761 63.5892 203.761 63.2017C203.761 62.8143 203.805 62.5486 203.893 62.4049C203.98 62.2611 204.133 62.1893 204.352 62.1893H206.068V61.5049C206.068 60.3424 206.352 59.4581 206.921 58.8519C207.496 58.2456 208.327 57.9425 209.414 57.9425ZM218.255 58.955C218.548 58.955 218.773 58.9769 218.93 59.0206C219.092 59.0581 219.205 59.1175 219.267 59.1987C219.33 59.28 219.361 59.3956 219.361 59.5456V62.1893H222.839C223.058 62.1893 223.211 62.2611 223.298 62.4049C223.386 62.5486 223.43 62.8143 223.43 63.2017C223.43 63.5892 223.386 63.8549 223.298 63.9986C223.211 64.1361 223.058 64.2048 222.839 64.2048H219.361V66.811C219.361 67.8485 219.764 68.3672 220.57 68.3672C220.858 68.3672 221.192 68.3047 221.573 68.1797C221.961 68.0485 222.411 67.8672 222.923 67.636C223.061 67.5798 223.17 67.5516 223.251 67.5516C223.383 67.5516 223.505 67.6079 223.617 67.7204C223.73 67.8266 223.836 68.0047 223.936 68.2547C224.048 68.536 224.105 68.7641 224.105 68.9391C224.105 69.0766 224.07 69.1922 224.001 69.286C223.939 69.3735 223.842 69.4516 223.711 69.5203C222.423 70.1703 221.308 70.4953 220.364 70.4953C219.277 70.4953 218.445 70.1922 217.87 69.586C217.302 68.9797 217.017 68.0954 217.017 66.9329V64.2048H215.208C214.989 64.2048 214.836 64.1361 214.749 63.9986C214.661 63.8549 214.617 63.5892 214.617 63.2017C214.617 62.8143 214.661 62.5486 214.749 62.4049C214.836 62.2611 214.989 62.1893 215.208 62.1893H217.017V59.5456C217.017 59.3331 217.111 59.1831 217.299 59.0956C217.492 59.0019 217.811 58.955 218.255 58.955ZM230.976 66.8204C231.52 66.8204 231.914 66.8673 232.158 66.961C232.401 67.0485 232.523 67.1985 232.523 67.411V69.7922C232.523 70.0047 232.401 70.1578 232.158 70.2516C231.914 70.3391 231.52 70.3828 230.976 70.3828C230.433 70.3828 230.039 70.3391 229.795 70.2516C229.551 70.1578 229.429 70.0047 229.429 69.7922V67.411C229.429 67.1985 229.551 67.0485 229.795 66.961C230.039 66.8673 230.433 66.8204 230.976 66.8204Z" fill="#02274D"/>
<circle cx="50.4776" cy="50.8995" r="36.7354" fill="#A9EB35"/>
<g clip-path="url(#clip0_2129_472)">
<mask id="mask0_2129_472" style="mask-type:luminance" maskUnits="userSpaceOnUse" x="25" y="26" width="45" height="45">
<path d="M25.5 26.9019H69.5825V70.9844H25.5V26.9019Z" fill="white"/>
</mask>
<g mask="url(#mask0_2129_472)">
<path d="M68.2983 51.5305C68.2983 58.6632 62.5162 64.4453 55.3835 64.4453C48.2509 64.4453 42.4688 58.6632 42.4688 51.5305C42.4688 44.3978 48.2509 38.6157 55.3835 38.6157C62.5162 38.6157 68.2983 44.3978 68.2983 51.5305Z" stroke="#316034" stroke-width="2.44903" stroke-miterlimit="10" stroke-linecap="round" stroke-linejoin="round"/>
<path d="M34.5469 38.6094H37.302" stroke="#316034" stroke-width="2.44903" stroke-miterlimit="10" stroke-linecap="round" stroke-linejoin="round"/>
<path d="M31.9609 46.3594H37.2991" stroke="#316034" stroke-width="2.44903" stroke-miterlimit="10" stroke-linecap="round" stroke-linejoin="round"/>
<path d="M29.3828 54.1094H37.3039" stroke="#316034" stroke-width="2.44903" stroke-miterlimit="10" stroke-linecap="round" stroke-linejoin="round"/>
<path d="M26.7969 61.8516H37.3009" stroke="#316034" stroke-width="2.44903" stroke-miterlimit="10" stroke-linecap="round" stroke-linejoin="round"/>
<path d="M55.3906 38.6202V41.2031" stroke="#316034" stroke-width="2.44903" stroke-miterlimit="10" stroke-linecap="round" stroke-linejoin="round"/>
<path d="M55.3906 61.8624V64.4453" stroke="#316034" stroke-width="2.44903" stroke-miterlimit="10" stroke-linecap="round" stroke-linejoin="round"/>
<path d="M42.4688 51.5156H45.0517" stroke="#316034" stroke-width="2.44903" stroke-miterlimit="10" stroke-linecap="round" stroke-linejoin="round"/>
<path d="M65.7188 51.5156H68.3017" stroke="#316034" stroke-width="2.44903" stroke-miterlimit="10" stroke-linecap="round" stroke-linejoin="round"/>
<path d="M55.3906 46.3497V51.5156H60.5565" stroke="#316034" stroke-width="2.44903" stroke-miterlimit="10" stroke-linecap="round" stroke-linejoin="round"/>
<path d="M57.9628 36.0264C57.9628 37.4529 56.8063 38.6094 55.3798 38.6094C53.9534 38.6094 52.7969 37.4529 52.7969 36.0264C52.7969 34.5999 53.9534 33.4435 55.3798 33.4435C56.8063 33.4435 57.9628 34.5999 57.9628 36.0264Z" stroke="#316034" stroke-width="2.44903" stroke-miterlimit="10" stroke-linecap="round" stroke-linejoin="round"/>
</g>
</g>
<defs>
<linearGradient id="paint0_linear_2129_472" x1="394.399" y1="60.3439" x2="22.6266" y2="57.7258" gradientUnits="userSpaceOnUse">
<stop stop-color="white"/>
<stop offset="1" stop-color="white"/>
</linearGradient>
<clipPath id="clip0_2129_472">
<rect width="44.0825" height="44.0825" fill="white" transform="translate(25.5 26.8984)"/>
</clipPath>
</defs>
</svg>
