<svg width="362" height="101" viewBox="0 0 362 101" fill="none" xmlns="http://www.w3.org/2000/svg">
<path d="M0.625 50.6164C0.625 23.145 22.895 0.875 50.3664 0.875H311.276C338.747 0.875 361.017 23.145 361.017 50.6164V50.6164C361.017 78.0879 338.747 100.358 311.276 100.358H50.3664C22.895 100.358 0.625 78.0879 0.625 50.6164V50.6164Z" fill="url(#paint0_linear_2129_445)"/>
<path d="M109.226 34.1612C109.376 34.1612 109.492 34.1893 109.573 34.2456C109.654 34.2956 109.714 34.3893 109.751 34.5268C109.795 34.6643 109.817 34.8643 109.817 35.1268C109.817 35.3893 109.795 35.5893 109.751 35.7268C109.714 35.8643 109.654 35.9581 109.573 36.0081C109.492 36.058 109.376 36.083 109.226 36.083H108.692V44.8766C108.692 45.0828 108.614 45.2359 108.458 45.3359C108.301 45.4422 108.036 45.4953 107.661 45.4953C107.373 45.4953 107.158 45.4547 107.014 45.3734C106.876 45.2984 106.754 45.1734 106.648 44.9984L102.43 38.0142H102.392V43.3672H103.433C103.583 43.3672 103.698 43.3954 103.78 43.4516C103.861 43.5016 103.92 43.5954 103.958 43.7329C104.001 43.8703 104.023 44.0703 104.023 44.3328C104.023 44.5953 104.001 44.7953 103.958 44.9328C103.92 45.0703 103.861 45.1641 103.78 45.2141C103.698 45.2641 103.583 45.2891 103.433 45.2891H99.6453C99.4953 45.2891 99.3797 45.2641 99.2984 45.2141C99.2172 45.1641 99.1547 45.0703 99.1109 44.9328C99.0734 44.7953 99.0547 44.5953 99.0547 44.3328C99.0547 44.0703 99.0734 43.8703 99.1109 43.7329C99.1547 43.5954 99.2172 43.5016 99.2984 43.4516C99.3797 43.3954 99.4953 43.3672 99.6453 43.3672H100.273V36.083H99.6453C99.4953 36.083 99.3797 36.058 99.2984 36.0081C99.2172 35.9581 99.1547 35.8643 99.1109 35.7268C99.0734 35.5893 99.0547 35.3893 99.0547 35.1268C99.0547 34.8643 99.0734 34.6643 99.1109 34.5268C99.1547 34.3893 99.2172 34.2956 99.2984 34.2456C99.3797 34.1893 99.4953 34.1612 99.6453 34.1612H102.12C102.37 34.1612 102.545 34.2456 102.645 34.4143L106.536 40.8548H106.573V36.083H105.711C105.561 36.083 105.445 36.058 105.364 36.0081C105.283 35.9581 105.22 35.8643 105.176 35.7268C105.139 35.5893 105.12 35.3893 105.12 35.1268C105.12 34.8643 105.139 34.6643 105.176 34.5268C105.22 34.3893 105.283 34.2956 105.364 34.2456C105.445 34.1893 105.561 34.1612 105.711 34.1612H109.226ZM115.854 36.4205C116.804 36.4205 117.635 36.6143 118.348 37.0018C119.06 37.3893 119.607 37.9268 119.989 38.6142C120.376 39.3017 120.57 40.0829 120.57 40.9579C120.57 41.8329 120.376 42.6141 119.989 43.3016C119.607 43.9891 119.06 44.5266 118.348 44.9141C117.635 45.3016 116.804 45.4953 115.854 45.4953C114.904 45.4953 114.073 45.3016 113.361 44.9141C112.648 44.5266 112.098 43.9891 111.711 43.3016C111.329 42.6141 111.139 41.8329 111.139 40.9579C111.139 40.0829 111.329 39.3017 111.711 38.6142C112.098 37.9268 112.648 37.3893 113.361 37.0018C114.073 36.6143 114.904 36.4205 115.854 36.4205ZM115.854 38.5486C115.404 38.5486 115.014 38.6486 114.682 38.8486C114.351 39.0423 114.095 39.3205 113.914 39.683C113.739 40.0454 113.651 40.4704 113.651 40.9579C113.651 41.4454 113.739 41.8704 113.914 42.2329C114.095 42.5954 114.351 42.8766 114.682 43.0766C115.014 43.2704 115.404 43.3672 115.854 43.3672C116.304 43.3672 116.695 43.2704 117.026 43.0766C117.357 42.8766 117.61 42.5954 117.785 42.2329C117.967 41.8704 118.057 41.4454 118.057 40.9579C118.057 40.4704 117.967 40.0454 117.785 39.683C117.61 39.3205 117.357 39.0423 117.026 38.8486C116.695 38.6486 116.304 38.5486 115.854 38.5486ZM138.072 36.4205C138.666 36.4205 139.207 36.5455 139.694 36.7955C140.182 37.0455 140.588 37.4049 140.913 37.8736V37.2174C140.913 37.0049 140.957 36.8549 141.044 36.7674C141.138 36.6737 141.291 36.6268 141.504 36.6268H143.697C143.847 36.6268 143.963 36.6549 144.044 36.7112C144.125 36.7612 144.185 36.8549 144.222 36.9924C144.266 37.1299 144.288 37.3299 144.288 37.5924C144.288 37.8549 144.266 38.0549 144.222 38.1924C144.185 38.3299 144.125 38.4236 144.044 38.4736C143.963 38.5236 143.847 38.5486 143.697 38.5486H142.882V45.2797C142.882 46.5047 142.513 47.4515 141.775 48.1202C141.044 48.7952 139.947 49.1327 138.485 49.1327C137.947 49.1327 137.36 49.0796 136.722 48.9733C136.085 48.8733 135.476 48.7327 134.894 48.5515C134.594 48.4577 134.444 48.2421 134.444 47.9046C134.444 47.7546 134.485 47.5359 134.566 47.2484C134.66 46.9546 134.763 46.7422 134.876 46.6109C134.994 46.4797 135.132 46.414 135.288 46.414C135.369 46.414 135.444 46.4265 135.513 46.4515C136.707 46.8203 137.666 47.0046 138.391 47.0046C139.147 47.0046 139.694 46.8453 140.032 46.5265C140.369 46.214 140.538 45.7359 140.538 45.0922V44.136C140.219 44.4797 139.851 44.7453 139.432 44.9328C139.013 45.1203 138.56 45.2141 138.072 45.2141C137.266 45.2141 136.557 45.0266 135.944 44.6516C135.332 44.2703 134.86 43.7485 134.529 43.086C134.198 42.4173 134.032 41.661 134.032 40.8173C134.032 39.9736 134.198 39.2205 134.529 38.558C134.86 37.8893 135.332 37.3674 135.944 36.9924C136.557 36.6112 137.266 36.4205 138.072 36.4205ZM138.447 38.5486C137.866 38.5486 137.404 38.7486 137.06 39.1486C136.716 39.5423 136.544 40.0986 136.544 40.8173C136.544 41.536 136.716 42.0954 137.06 42.4954C137.404 42.8891 137.866 43.086 138.447 43.086C138.847 43.086 139.21 43.0016 139.535 42.8329C139.866 42.6579 140.125 42.4016 140.313 42.0641C140.507 41.7204 140.604 41.3048 140.604 40.8173C140.604 40.3298 140.507 39.9173 140.313 39.5798C140.125 39.2361 139.866 38.9798 139.535 38.8111C139.21 38.6361 138.847 38.5486 138.447 38.5486ZM153.719 36.6268C153.931 36.6268 154.081 36.6737 154.169 36.7674C154.263 36.8549 154.31 37.0049 154.31 37.2174V43.3672H155.031C155.181 43.3672 155.297 43.3922 155.378 43.4422C155.459 43.4922 155.519 43.586 155.556 43.7235C155.6 43.861 155.622 44.061 155.622 44.3235C155.622 44.586 155.6 44.786 155.556 44.9234C155.519 45.0609 155.459 45.1578 155.378 45.2141C155.297 45.2641 155.181 45.2891 155.031 45.2891H152.931C152.719 45.2891 152.566 45.2453 152.472 45.1578C152.385 45.0641 152.341 44.9109 152.341 44.6985V43.3391C151.516 44.7766 150.485 45.4953 149.247 45.4953C148.678 45.4953 148.178 45.3703 147.747 45.1203C147.322 44.8703 146.994 44.5172 146.763 44.061C146.532 43.5985 146.416 43.0579 146.416 42.4391V38.5486H145.694C145.544 38.5486 145.428 38.5236 145.347 38.4736C145.266 38.4174 145.203 38.3205 145.16 38.183C145.122 38.0455 145.103 37.8455 145.103 37.583C145.103 37.3205 145.122 37.1205 145.16 36.983C145.203 36.8455 145.266 36.7518 145.347 36.7018C145.428 36.6518 145.544 36.6268 145.694 36.6268H148.169C148.382 36.6268 148.532 36.6737 148.619 36.7674C148.713 36.8549 148.76 37.0049 148.76 37.2174V41.886C148.76 42.3735 148.844 42.7423 149.013 42.9922C149.182 43.2422 149.463 43.3672 149.856 43.3672C150.219 43.3672 150.563 43.2172 150.888 42.9172C151.213 42.611 151.472 42.2048 151.666 41.6985C151.866 41.1923 151.966 40.6517 151.966 40.0767V38.5486H150.963C150.813 38.5486 150.697 38.5236 150.616 38.4736C150.535 38.4174 150.472 38.3205 150.428 38.183C150.391 38.0455 150.372 37.8455 150.372 37.583C150.372 37.3205 150.391 37.1205 150.428 36.983C150.472 36.8455 150.535 36.7518 150.616 36.7018C150.697 36.6518 150.813 36.6268 150.963 36.6268H153.719ZM161.8 36.4205C163.175 36.4205 164.169 36.7174 164.781 37.3111C165.394 37.9049 165.7 38.7549 165.7 39.8611V42.5704C165.7 42.8204 165.753 43.0172 165.859 43.161C165.965 43.2985 166.119 43.3672 166.319 43.3672H166.609C166.759 43.3672 166.875 43.3954 166.956 43.4516C167.037 43.5016 167.097 43.5954 167.134 43.7329C167.178 43.8703 167.2 44.0703 167.2 44.3328C167.2 44.5953 167.178 44.7953 167.134 44.9328C167.097 45.0703 167.037 45.1641 166.956 45.2141C166.875 45.2641 166.759 45.2891 166.609 45.2891H165.559C165.172 45.2891 164.828 45.2109 164.528 45.0547C164.234 44.8922 164.009 44.6391 163.853 44.2953C163.359 44.6766 162.837 44.9734 162.287 45.1859C161.737 45.3922 161.172 45.4953 160.591 45.4953C159.884 45.4953 159.275 45.3766 158.763 45.1391C158.25 44.8953 157.856 44.5516 157.581 44.1078C157.313 43.6579 157.178 43.1297 157.178 42.5235C157.178 41.6485 157.488 40.9704 158.106 40.4892C158.725 40.0079 159.591 39.7673 160.703 39.7673C161.534 39.7673 162.419 39.8611 163.356 40.0486V39.7767C163.356 39.358 163.225 39.0486 162.962 38.8486C162.7 38.6486 162.237 38.5486 161.575 38.5486C161.206 38.5486 160.794 38.5955 160.337 38.6892C159.887 38.7767 159.441 38.8955 158.997 39.0455C158.891 39.0767 158.8 39.0923 158.725 39.0923C158.569 39.0923 158.428 39.0361 158.303 38.9236C158.184 38.8049 158.075 38.608 157.975 38.333C157.881 38.058 157.834 37.833 157.834 37.658C157.834 37.3393 157.978 37.1268 158.266 37.0205C158.822 36.8205 159.413 36.6705 160.037 36.5705C160.662 36.4705 161.25 36.4205 161.8 36.4205ZM160.937 41.6985C160.5 41.6985 160.166 41.7767 159.934 41.9329C159.709 42.0891 159.597 42.3173 159.597 42.6173C159.597 42.911 159.706 43.136 159.925 43.2922C160.15 43.4422 160.472 43.5172 160.891 43.5172C161.322 43.5172 161.747 43.4329 162.166 43.2641C162.591 43.0891 162.987 42.8516 163.356 42.5516V41.9516C162.531 41.7829 161.725 41.6985 160.937 41.6985ZM176.35 36.4205C176.881 36.4205 177.381 36.5955 177.85 36.9455C178.125 37.1455 178.262 37.408 178.262 37.733C178.262 37.9393 178.206 38.183 178.093 38.4642C177.981 38.7455 177.853 38.958 177.709 39.1017C177.571 39.2455 177.425 39.3173 177.268 39.3173C177.181 39.3173 177.087 39.2923 176.987 39.2423C176.637 39.0486 176.275 38.9517 175.9 38.9517C175.418 38.9517 174.968 39.1048 174.55 39.4111C174.131 39.7173 173.793 40.1392 173.537 40.6767C173.287 41.2142 173.162 41.8142 173.162 42.4766V43.3672H175.853C176.003 43.3672 176.118 43.3954 176.2 43.4516C176.281 43.5016 176.34 43.5954 176.378 43.7329C176.421 43.8703 176.443 44.0703 176.443 44.3328C176.443 44.5953 176.421 44.7953 176.378 44.9328C176.34 45.0703 176.281 45.1641 176.2 45.2141C176.118 45.2641 176.003 45.2891 175.853 45.2891H169.44C169.29 45.2891 169.175 45.2641 169.094 45.2141C169.012 45.1641 168.95 45.0703 168.906 44.9328C168.869 44.7953 168.85 44.5953 168.85 44.3328C168.85 44.0703 168.869 43.8703 168.906 43.7329C168.95 43.5954 169.012 43.5016 169.094 43.4516C169.175 43.3954 169.29 43.3672 169.44 43.3672H170.818V38.5486H169.722C169.572 38.5486 169.456 38.5236 169.375 38.4736C169.293 38.4236 169.231 38.3299 169.187 38.1924C169.15 38.0549 169.131 37.8549 169.131 37.5924C169.131 37.3299 169.15 37.1299 169.187 36.9924C169.231 36.8549 169.293 36.7612 169.375 36.7112C169.456 36.6549 169.572 36.6268 169.722 36.6268H172.29C172.503 36.6268 172.653 36.6737 172.74 36.7674C172.834 36.8549 172.881 37.0049 172.881 37.2174V39.2517C173.35 38.3455 173.887 37.6486 174.493 37.1611C175.106 36.6674 175.725 36.4205 176.35 36.4205ZM184.824 36.4205C186.199 36.4205 187.193 36.7174 187.806 37.3111C188.418 37.9049 188.724 38.7549 188.724 39.8611V42.5704C188.724 42.8204 188.777 43.0172 188.884 43.161C188.99 43.2985 189.143 43.3672 189.343 43.3672H189.634C189.784 43.3672 189.899 43.3954 189.98 43.4516C190.062 43.5016 190.121 43.5954 190.159 43.7329C190.202 43.8703 190.224 44.0703 190.224 44.3328C190.224 44.5953 190.202 44.7953 190.159 44.9328C190.121 45.0703 190.062 45.1641 189.98 45.2141C189.899 45.2641 189.784 45.2891 189.634 45.2891H188.584C188.196 45.2891 187.852 45.2109 187.552 45.0547C187.259 44.8922 187.034 44.6391 186.877 44.2953C186.384 44.6766 185.862 44.9734 185.312 45.1859C184.762 45.3922 184.196 45.4953 183.615 45.4953C182.909 45.4953 182.299 45.3766 181.787 45.1391C181.274 44.8953 180.881 44.5516 180.606 44.1078C180.337 43.6579 180.203 43.1297 180.203 42.5235C180.203 41.6485 180.512 40.9704 181.131 40.4892C181.749 40.0079 182.615 39.7673 183.728 39.7673C184.559 39.7673 185.443 39.8611 186.381 40.0486V39.7767C186.381 39.358 186.249 39.0486 185.987 38.8486C185.724 38.6486 185.262 38.5486 184.599 38.5486C184.231 38.5486 183.818 38.5955 183.362 38.6892C182.912 38.7767 182.465 38.8955 182.021 39.0455C181.915 39.0767 181.824 39.0923 181.749 39.0923C181.593 39.0923 181.453 39.0361 181.328 38.9236C181.209 38.8049 181.099 38.608 180.999 38.333C180.906 38.058 180.859 37.833 180.859 37.658C180.859 37.3393 181.003 37.1268 181.29 37.0205C181.846 36.8205 182.437 36.6705 183.062 36.5705C183.687 36.4705 184.274 36.4205 184.824 36.4205ZM183.962 41.6985C183.524 41.6985 183.19 41.7767 182.959 41.9329C182.734 42.0891 182.621 42.3173 182.621 42.6173C182.621 42.911 182.731 43.136 182.949 43.2922C183.174 43.4422 183.496 43.5172 183.915 43.5172C184.346 43.5172 184.771 43.4329 185.19 43.2641C185.615 43.0891 186.012 42.8516 186.381 42.5516V41.9516C185.556 41.7829 184.749 41.6985 183.962 41.6985ZM197.78 36.4205C198.349 36.4205 198.846 36.5455 199.271 36.7955C199.702 37.0455 200.033 37.4018 200.265 37.8643C200.496 38.3205 200.611 38.858 200.611 39.4767V43.3672H201.333C201.483 43.3672 201.599 43.3954 201.68 43.4516C201.761 43.5016 201.821 43.5954 201.858 43.7329C201.902 43.8703 201.924 44.0703 201.924 44.3328C201.924 44.5953 201.902 44.7953 201.858 44.9328C201.821 45.0703 201.761 45.1641 201.68 45.2141C201.599 45.2641 201.483 45.2891 201.333 45.2891H197.827C197.677 45.2891 197.562 45.2641 197.48 45.2141C197.399 45.1641 197.337 45.0703 197.293 44.9328C197.255 44.7953 197.237 44.5953 197.237 44.3328C197.237 44.0703 197.255 43.8703 197.293 43.7329C197.337 43.5954 197.399 43.5016 197.48 43.4516C197.562 43.3954 197.677 43.3672 197.827 43.3672H198.268V40.0298C198.268 39.5423 198.183 39.1736 198.015 38.9236C197.846 38.6736 197.565 38.5486 197.171 38.5486C196.808 38.5486 196.465 38.7017 196.14 39.008C195.815 39.308 195.552 39.7111 195.352 40.2173C195.158 40.7236 195.062 41.2642 195.062 41.8392V43.3672H195.502C195.652 43.3672 195.768 43.3954 195.849 43.4516C195.93 43.5016 195.99 43.5954 196.027 43.7329C196.071 43.8703 196.093 44.0703 196.093 44.3328C196.093 44.5953 196.071 44.7953 196.027 44.9328C195.99 45.0703 195.93 45.1641 195.849 45.2141C195.768 45.2641 195.652 45.2891 195.502 45.2891H191.996C191.846 45.2891 191.73 45.2641 191.649 45.2141C191.568 45.1641 191.505 45.0703 191.462 44.9328C191.424 44.7953 191.405 44.5953 191.405 44.3328C191.405 44.0703 191.424 43.8703 191.462 43.7329C191.505 43.5954 191.568 43.5016 191.649 43.4516C191.73 43.3954 191.846 43.3672 191.996 43.3672H192.718V38.5486H191.809C191.659 38.5486 191.543 38.5236 191.462 38.4736C191.38 38.4236 191.318 38.3299 191.274 38.1924C191.237 38.0549 191.218 37.8549 191.218 37.5924C191.218 37.3299 191.237 37.1299 191.274 36.9924C191.318 36.8549 191.38 36.7612 191.462 36.7112C191.543 36.6549 191.659 36.6268 191.809 36.6268H194.096C194.308 36.6268 194.458 36.6737 194.546 36.7674C194.64 36.8549 194.687 37.0049 194.687 37.2174V38.5767C195.512 37.1393 196.543 36.4205 197.78 36.4205ZM206.743 33.955C207.036 33.955 207.261 33.9769 207.418 34.0206C207.58 34.0581 207.693 34.1175 207.755 34.1987C207.818 34.28 207.849 34.3956 207.849 34.5456V37.1893H211.327C211.546 37.1893 211.699 37.2611 211.786 37.4049C211.874 37.5486 211.917 37.8143 211.917 38.2017C211.917 38.5892 211.874 38.8549 211.786 38.9986C211.699 39.1361 211.546 39.2048 211.327 39.2048H207.849V41.811C207.849 42.8485 208.252 43.3672 209.058 43.3672C209.346 43.3672 209.68 43.3047 210.061 43.1797C210.449 43.0485 210.899 42.8672 211.411 42.636C211.549 42.5798 211.658 42.5516 211.739 42.5516C211.871 42.5516 211.992 42.6079 212.105 42.7204C212.217 42.8266 212.324 43.0047 212.424 43.2547C212.536 43.536 212.592 43.7641 212.592 43.9391C212.592 44.0766 212.558 44.1922 212.489 44.286C212.427 44.3735 212.33 44.4516 212.199 44.5203C210.911 45.1703 209.796 45.4953 208.852 45.4953C207.764 45.4953 206.933 45.1922 206.358 44.586C205.789 43.9797 205.505 43.0954 205.505 41.9329V39.2048H203.696C203.477 39.2048 203.324 39.1361 203.236 38.9986C203.149 38.8549 203.105 38.5892 203.105 38.2017C203.105 37.8143 203.149 37.5486 203.236 37.4049C203.324 37.2611 203.477 37.1893 203.696 37.1893H205.505V34.5456C205.505 34.3331 205.599 34.1831 205.786 34.0956C205.98 34.0019 206.299 33.955 206.743 33.955ZM219.595 36.4205C220.545 36.4205 221.355 36.6268 222.023 37.0393C222.692 37.4455 223.195 38.0142 223.533 38.7455C223.876 39.4705 224.048 40.3017 224.048 41.2392C224.048 41.4517 224.001 41.6017 223.908 41.6892C223.82 41.7767 223.67 41.8204 223.458 41.8204H217.439C217.558 42.3204 217.811 42.7048 218.199 42.9735C218.592 43.236 219.089 43.3672 219.689 43.3672C220.658 43.3672 221.708 43.1954 222.839 42.8516C222.914 42.8266 222.989 42.8141 223.064 42.8141C223.201 42.8141 223.32 42.8766 223.42 43.0016C223.52 43.1266 223.611 43.3391 223.692 43.6391C223.755 43.8703 223.786 44.0672 223.786 44.2297C223.786 44.3922 223.748 44.5203 223.673 44.6141C223.605 44.7016 223.489 44.7735 223.326 44.8297C222.702 45.0359 222.064 45.1984 221.414 45.3172C220.764 45.4359 220.127 45.4953 219.502 45.4953C218.552 45.4953 217.733 45.3016 217.045 44.9141C216.358 44.5266 215.833 43.9922 215.47 43.311C215.114 42.6235 214.936 41.8392 214.936 40.9579C214.936 40.0829 215.124 39.3017 215.499 38.6142C215.874 37.9268 216.414 37.3893 217.12 37.0018C217.827 36.6143 218.652 36.4205 219.595 36.4205ZM219.595 38.5486C218.452 38.5486 217.745 39.0298 217.477 39.9923H221.602C221.495 39.5361 221.267 39.183 220.917 38.933C220.573 38.6767 220.133 38.5486 219.595 38.5486ZM231.108 36.4205C232.058 36.4205 232.867 36.6268 233.536 37.0393C234.204 37.4455 234.707 38.0142 235.045 38.7455C235.389 39.4705 235.561 40.3017 235.561 41.2392C235.561 41.4517 235.514 41.6017 235.42 41.6892C235.332 41.7767 235.182 41.8204 234.97 41.8204H228.951C229.07 42.3204 229.323 42.7048 229.711 42.9735C230.104 43.236 230.601 43.3672 231.201 43.3672C232.17 43.3672 233.22 43.1954 234.351 42.8516C234.426 42.8266 234.501 42.8141 234.576 42.8141C234.714 42.8141 234.832 42.8766 234.932 43.0016C235.032 43.1266 235.123 43.3391 235.204 43.6391C235.267 43.8703 235.298 44.0672 235.298 44.2297C235.298 44.3922 235.261 44.5203 235.186 44.6141C235.117 44.7016 235.001 44.7735 234.839 44.8297C234.214 45.0359 233.576 45.1984 232.926 45.3172C232.276 45.4359 231.639 45.4953 231.014 45.4953C230.064 45.4953 229.245 45.3016 228.558 44.9141C227.87 44.5266 227.345 43.9922 226.983 43.311C226.626 42.6235 226.448 41.8392 226.448 40.9579C226.448 40.0829 226.636 39.3017 227.011 38.6142C227.386 37.9268 227.926 37.3893 228.633 37.0018C229.339 36.6143 230.164 36.4205 231.108 36.4205ZM231.108 38.5486C229.964 38.5486 229.258 39.0298 228.989 39.9923H233.114C233.007 39.5361 232.779 39.183 232.429 38.933C232.086 38.6767 231.645 38.5486 231.108 38.5486ZM257.385 34.1612C257.535 34.1612 257.651 34.1893 257.732 34.2456C257.813 34.2956 257.872 34.3893 257.91 34.5268C257.954 34.6643 257.976 34.8643 257.976 35.1268C257.976 35.3893 257.954 35.5893 257.91 35.7268C257.872 35.8643 257.813 35.9581 257.732 36.0081C257.651 36.058 257.535 36.083 257.385 36.083H255.173V43.3672H257.572C257.722 43.3672 257.838 43.3954 257.919 43.4516C258.001 43.5016 258.06 43.5954 258.097 43.7329C258.141 43.8703 258.163 44.0703 258.163 44.3328C258.163 44.5953 258.141 44.7953 258.097 44.9328C258.06 45.0703 258.001 45.1641 257.919 45.2141C257.838 45.2641 257.722 45.2891 257.572 45.2891H250.429C250.279 45.2891 250.163 45.2641 250.082 45.2141C250.001 45.1641 249.938 45.0703 249.895 44.9328C249.857 44.7953 249.838 44.5953 249.838 44.3328C249.838 44.0703 249.857 43.8703 249.895 43.7329C249.938 43.5954 250.001 43.5016 250.082 43.4516C250.163 43.3954 250.279 43.3672 250.429 43.3672H252.829V36.083H250.616C250.466 36.083 250.351 36.058 250.27 36.0081C250.188 35.9581 250.126 35.8643 250.082 35.7268C250.045 35.5893 250.026 35.3893 250.026 35.1268C250.026 34.8643 250.045 34.6643 250.082 34.5268C250.126 34.3893 250.188 34.2956 250.27 34.2456C250.351 34.1893 250.466 34.1612 250.616 34.1612H257.385ZM266.685 33.3925C266.985 33.3925 267.113 33.5487 267.069 33.8612L266.385 38.3611C266.354 38.5674 266.272 38.7267 266.141 38.8392C266.01 38.9455 265.8 38.9986 265.513 38.9986C265.225 38.9986 265.016 38.9455 264.885 38.8392C264.754 38.7267 264.672 38.5674 264.641 38.3611L263.957 33.8612C263.95 33.8362 263.947 33.7987 263.947 33.7487C263.947 33.5112 264.079 33.3925 264.341 33.3925H266.685ZM277.644 32.9894C277.856 32.9894 278.006 33.0363 278.094 33.13C278.188 33.2175 278.234 33.3675 278.234 33.58V43.3672H280.869C281.019 43.3672 281.134 43.3954 281.216 43.4516C281.297 43.5016 281.356 43.5954 281.394 43.7329C281.438 43.8703 281.459 44.0703 281.459 44.3328C281.459 44.5953 281.438 44.7953 281.394 44.9328C281.356 45.0703 281.297 45.1641 281.216 45.2141C281.134 45.2641 281.019 45.2891 280.869 45.2891H273.331C273.181 45.2891 273.066 45.2641 272.985 45.2141C272.903 45.1641 272.841 45.0703 272.797 44.9328C272.76 44.7953 272.741 44.5953 272.741 44.3328C272.741 44.0703 272.76 43.8703 272.797 43.7329C272.841 43.5954 272.903 43.5016 272.985 43.4516C273.066 43.3954 273.181 43.3672 273.331 43.3672H275.891V34.9112H273.706C273.556 34.9112 273.441 34.8862 273.36 34.8362C273.278 34.7862 273.216 34.6925 273.172 34.555C273.135 34.4175 273.116 34.2175 273.116 33.955C273.116 33.6925 273.135 33.4925 273.172 33.355C273.216 33.2175 273.278 33.1237 273.36 33.0738C273.441 33.0175 273.556 32.9894 273.706 32.9894H277.644ZM289.156 32.9894C289.369 32.9894 289.519 33.0363 289.606 33.13C289.7 33.2175 289.747 33.3675 289.747 33.58V43.3672H292.381C292.531 43.3672 292.647 43.3954 292.728 43.4516C292.809 43.5016 292.868 43.5954 292.906 43.7329C292.95 43.8703 292.972 44.0703 292.972 44.3328C292.972 44.5953 292.95 44.7953 292.906 44.9328C292.868 45.0703 292.809 45.1641 292.728 45.2141C292.647 45.2641 292.531 45.2891 292.381 45.2891H284.844C284.694 45.2891 284.578 45.2641 284.497 45.2141C284.416 45.1641 284.353 45.0703 284.309 44.9328C284.272 44.7953 284.253 44.5953 284.253 44.3328C284.253 44.0703 284.272 43.8703 284.309 43.7329C284.353 43.5954 284.416 43.5016 284.497 43.4516C284.578 43.3954 284.694 43.3672 284.844 43.3672H287.403V34.9112H285.219C285.069 34.9112 284.953 34.8862 284.872 34.8362C284.791 34.7862 284.728 34.6925 284.684 34.555C284.647 34.4175 284.628 34.2175 284.628 33.955C284.628 33.6925 284.647 33.4925 284.684 33.355C284.728 33.2175 284.791 33.1237 284.872 33.0738C284.953 33.0175 285.069 32.9894 285.219 32.9894H289.156ZM314.974 32.9894C315.187 32.9894 315.337 33.0363 315.424 33.13C315.518 33.2175 315.565 33.3675 315.565 33.58V43.3672H316.38C316.53 43.3672 316.646 43.3922 316.727 43.4422C316.808 43.4922 316.868 43.586 316.905 43.7235C316.949 43.861 316.971 44.061 316.971 44.3235C316.971 44.586 316.949 44.786 316.905 44.9234C316.868 45.0609 316.808 45.1578 316.727 45.2141C316.646 45.2641 316.53 45.2891 316.38 45.2891H314.187C313.974 45.2891 313.821 45.2453 313.727 45.1578C313.64 45.0641 313.596 44.9109 313.596 44.6985V43.911C313.271 44.411 312.865 44.8016 312.377 45.0828C311.89 45.3578 311.349 45.4953 310.756 45.4953C309.937 45.4953 309.221 45.2953 308.609 44.8953C307.996 44.4953 307.527 43.9516 307.202 43.2641C306.877 42.5766 306.715 41.8079 306.715 40.9579C306.715 40.1079 306.877 39.3392 307.202 38.6517C307.527 37.9642 307.996 37.4205 308.609 37.0205C309.221 36.6205 309.937 36.4205 310.756 36.4205C311.243 36.4205 311.696 36.5174 312.115 36.7112C312.534 36.8987 312.902 37.1705 313.221 37.5268V34.9112H311.843C311.693 34.9112 311.577 34.8862 311.496 34.8362C311.415 34.7862 311.352 34.6925 311.309 34.555C311.271 34.4175 311.252 34.2175 311.252 33.955C311.252 33.6925 311.271 33.4925 311.309 33.355C311.352 33.2175 311.415 33.1237 311.496 33.0738C311.577 33.0175 311.693 32.9894 311.843 32.9894H314.974ZM311.13 38.5486C310.743 38.5486 310.406 38.6486 310.118 38.8486C309.831 39.0423 309.609 39.3205 309.452 39.683C309.302 40.0454 309.227 40.4704 309.227 40.9579C309.227 41.4454 309.302 41.8704 309.452 42.2329C309.609 42.5954 309.831 42.8766 310.118 43.0766C310.406 43.2704 310.743 43.3672 311.13 43.3672C311.53 43.3672 311.893 43.2735 312.218 43.086C312.543 42.8985 312.802 42.6235 312.996 42.261C313.19 41.8923 313.287 41.4579 313.287 40.9579C313.287 40.4579 313.19 40.0267 312.996 39.6642C312.802 39.2955 312.543 39.0173 312.218 38.8299C311.893 38.6424 311.53 38.5486 311.13 38.5486ZM323.074 36.4205C324.024 36.4205 324.855 36.6143 325.568 37.0018C326.28 37.3893 326.827 37.9268 327.208 38.6142C327.596 39.3017 327.789 40.0829 327.789 40.9579C327.789 41.8329 327.596 42.6141 327.208 43.3016C326.827 43.9891 326.28 44.5266 325.568 44.9141C324.855 45.3016 324.024 45.4953 323.074 45.4953C322.124 45.4953 321.293 45.3016 320.58 44.9141C319.868 44.5266 319.318 43.9891 318.93 43.3016C318.549 42.6141 318.358 41.8329 318.358 40.9579C318.358 40.0829 318.549 39.3017 318.93 38.6142C319.318 37.9268 319.868 37.3893 320.58 37.0018C321.293 36.6143 322.124 36.4205 323.074 36.4205ZM323.074 38.5486C322.624 38.5486 322.233 38.6486 321.902 38.8486C321.571 39.0423 321.315 39.3205 321.133 39.683C320.958 40.0454 320.871 40.4704 320.871 40.9579C320.871 41.4454 320.958 41.8704 321.133 42.2329C321.315 42.5954 321.571 42.8766 321.902 43.0766C322.233 43.2704 322.624 43.3672 323.074 43.3672C323.524 43.3672 323.915 43.2704 324.246 43.0766C324.577 42.8766 324.83 42.5954 325.005 42.2329C325.186 41.8704 325.277 41.4454 325.277 40.9579C325.277 40.4704 325.186 40.0454 325.005 39.683C324.83 39.3205 324.577 39.0423 324.246 38.8486C323.915 38.6486 323.524 38.5486 323.074 38.5486ZM104.239 61.4205C105.614 61.4205 106.608 61.7174 107.22 62.3111C107.833 62.9049 108.139 63.7549 108.139 64.8611V67.5704C108.139 67.8204 108.192 68.0172 108.298 68.161C108.404 68.2985 108.558 68.3672 108.758 68.3672H109.048C109.198 68.3672 109.314 68.3954 109.395 68.4516C109.476 68.5016 109.536 68.5954 109.573 68.7329C109.617 68.8703 109.639 69.0703 109.639 69.3328C109.639 69.5953 109.617 69.7953 109.573 69.9328C109.536 70.0703 109.476 70.1641 109.395 70.2141C109.314 70.2641 109.198 70.2891 109.048 70.2891H107.998C107.611 70.2891 107.267 70.2109 106.967 70.0547C106.673 69.8922 106.448 69.6391 106.292 69.2953C105.798 69.6766 105.276 69.9734 104.726 70.1859C104.176 70.3922 103.611 70.4953 103.03 70.4953C102.323 70.4953 101.714 70.3766 101.201 70.1391C100.689 69.8953 100.295 69.5516 100.02 69.1078C99.7515 68.6579 99.6172 68.1297 99.6172 67.5235C99.6172 66.6485 99.9265 65.9704 100.545 65.4892C101.164 65.0079 102.03 64.7673 103.142 64.7673C103.973 64.7673 104.858 64.8611 105.795 65.0486V64.7767C105.795 64.358 105.664 64.0486 105.401 63.8486C105.139 63.6486 104.676 63.5486 104.014 63.5486C103.645 63.5486 103.233 63.5955 102.776 63.6892C102.326 63.7767 101.88 63.8955 101.436 64.0455C101.33 64.0767 101.239 64.0923 101.164 64.0923C101.008 64.0923 100.867 64.0361 100.742 63.9236C100.623 63.8049 100.514 63.608 100.414 63.333C100.32 63.058 100.273 62.833 100.273 62.658C100.273 62.3393 100.417 62.1268 100.705 62.0205C101.261 61.8205 101.851 61.6705 102.476 61.5705C103.101 61.4705 103.689 61.4205 104.239 61.4205ZM103.376 66.6985C102.939 66.6985 102.605 66.7767 102.373 66.9329C102.148 67.0891 102.036 67.3173 102.036 67.6173C102.036 67.911 102.145 68.136 102.364 68.2922C102.589 68.4422 102.911 68.5172 103.33 68.5172C103.761 68.5172 104.186 68.4329 104.605 68.2641C105.03 68.0891 105.426 67.8516 105.795 67.5516V66.9516C104.97 66.7829 104.164 66.6985 103.376 66.6985ZM117.195 61.4205C117.764 61.4205 118.26 61.5455 118.685 61.7955C119.117 62.0455 119.448 62.4018 119.679 62.8643C119.91 63.3205 120.026 63.858 120.026 64.4767V68.3672H120.748C120.898 68.3672 121.013 68.3954 121.095 68.4516C121.176 68.5016 121.235 68.5954 121.273 68.7329C121.317 68.8703 121.338 69.0703 121.338 69.3328C121.338 69.5953 121.317 69.7953 121.273 69.9328C121.235 70.0703 121.176 70.1641 121.095 70.2141C121.013 70.2641 120.898 70.2891 120.748 70.2891H117.242C117.092 70.2891 116.976 70.2641 116.895 70.2141C116.814 70.1641 116.751 70.0703 116.707 69.9328C116.67 69.7953 116.651 69.5953 116.651 69.3328C116.651 69.0703 116.67 68.8703 116.707 68.7329C116.751 68.5954 116.814 68.5016 116.895 68.4516C116.976 68.3954 117.092 68.3672 117.242 68.3672H117.682V65.0298C117.682 64.5423 117.598 64.1736 117.429 63.9236C117.26 63.6736 116.979 63.5486 116.585 63.5486C116.223 63.5486 115.879 63.7017 115.554 64.008C115.229 64.308 114.967 64.7111 114.767 65.2173C114.573 65.7236 114.476 66.2642 114.476 66.8392V68.3672H114.917C115.067 68.3672 115.182 68.3954 115.264 68.4516C115.345 68.5016 115.404 68.5954 115.442 68.7329C115.486 68.8703 115.507 69.0703 115.507 69.3328C115.507 69.5953 115.486 69.7953 115.442 69.9328C115.404 70.0703 115.345 70.1641 115.264 70.2141C115.182 70.2641 115.067 70.2891 114.917 70.2891H111.411C111.261 70.2891 111.145 70.2641 111.064 70.2141C110.982 70.1641 110.92 70.0703 110.876 69.9328C110.839 69.7953 110.82 69.5953 110.82 69.3328C110.82 69.0703 110.839 68.8703 110.876 68.7329C110.92 68.5954 110.982 68.5016 111.064 68.4516C111.145 68.3954 111.261 68.3672 111.411 68.3672H112.132V63.5486H111.223C111.073 63.5486 110.957 63.5236 110.876 63.4736C110.795 63.4236 110.733 63.3299 110.689 63.1924C110.651 63.0549 110.633 62.8549 110.633 62.5924C110.633 62.3299 110.651 62.1299 110.689 61.9924C110.733 61.8549 110.795 61.7612 110.876 61.7112C110.957 61.6549 111.073 61.6268 111.223 61.6268H113.511C113.723 61.6268 113.873 61.6737 113.961 61.7674C114.054 61.8549 114.101 62.0049 114.101 62.2174V63.5767C114.926 62.1393 115.957 61.4205 117.195 61.4205ZM127.366 61.4205C128.316 61.4205 129.148 61.6143 129.86 62.0018C130.573 62.3893 131.119 62.9268 131.501 63.6142C131.888 64.3017 132.082 65.0829 132.082 65.9579C132.082 66.8329 131.888 67.6141 131.501 68.3016C131.119 68.9891 130.573 69.5266 129.86 69.9141C129.148 70.3016 128.316 70.4953 127.366 70.4953C126.416 70.4953 125.585 70.3016 124.873 69.9141C124.16 69.5266 123.61 68.9891 123.223 68.3016C122.842 67.6141 122.651 66.8329 122.651 65.9579C122.651 65.0829 122.842 64.3017 123.223 63.6142C123.61 62.9268 124.16 62.3893 124.873 62.0018C125.585 61.6143 126.416 61.4205 127.366 61.4205ZM127.366 63.5486C126.916 63.5486 126.526 63.6486 126.195 63.8486C125.863 64.0423 125.607 64.3205 125.426 64.683C125.251 65.0454 125.163 65.4704 125.163 65.9579C125.163 66.4454 125.251 66.8704 125.426 67.2329C125.607 67.5954 125.863 67.8766 126.195 68.0766C126.526 68.2704 126.916 68.3672 127.366 68.3672C127.816 68.3672 128.207 68.2704 128.538 68.0766C128.87 67.8766 129.123 67.5954 129.298 67.2329C129.479 66.8704 129.57 66.4454 129.57 65.9579C129.57 65.4704 129.479 65.0454 129.298 64.683C129.123 64.3205 128.87 64.0423 128.538 63.8486C128.207 63.6486 127.816 63.5486 127.366 63.5486ZM137.669 58.955C137.963 58.955 138.188 58.9769 138.344 59.0206C138.507 59.0581 138.619 59.1175 138.682 59.1987C138.744 59.28 138.776 59.3956 138.776 59.5456V62.1893H142.254C142.472 62.1893 142.625 62.2611 142.713 62.4049C142.8 62.5486 142.844 62.8143 142.844 63.2017C142.844 63.5892 142.8 63.8549 142.713 63.9986C142.625 64.1361 142.472 64.2048 142.254 64.2048H138.776V66.811C138.776 67.8485 139.179 68.3672 139.985 68.3672C140.272 68.3672 140.607 68.3047 140.988 68.1797C141.375 68.0485 141.825 67.8672 142.338 67.636C142.475 67.5798 142.585 67.5516 142.666 67.5516C142.797 67.5516 142.919 67.6079 143.032 67.7204C143.144 67.8266 143.25 68.0047 143.35 68.2547C143.463 68.536 143.519 68.7641 143.519 68.9391C143.519 69.0766 143.485 69.1922 143.416 69.286C143.354 69.3735 143.257 69.4516 143.125 69.5203C141.838 70.1703 140.722 70.4953 139.779 70.4953C138.691 70.4953 137.86 70.1922 137.285 69.586C136.716 68.9797 136.432 68.0954 136.432 66.9329V64.2048H134.623C134.404 64.2048 134.251 64.1361 134.163 63.9986C134.076 63.8549 134.032 63.5892 134.032 63.2017C134.032 62.8143 134.076 62.5486 134.163 62.4049C134.251 62.2611 134.404 62.1893 134.623 62.1893H136.432V59.5456C136.432 59.3331 136.526 59.1831 136.713 59.0956C136.907 59.0019 137.226 58.955 137.669 58.955ZM148.328 57.9894C148.541 57.9894 148.691 58.0363 148.778 58.13C148.872 58.2175 148.919 58.3675 148.919 58.58V63.1361C149.669 61.9924 150.575 61.4205 151.638 61.4205C152.206 61.4205 152.703 61.5455 153.128 61.7955C153.56 62.0455 153.891 62.4018 154.122 62.8643C154.353 63.3205 154.469 63.858 154.469 64.4767V68.3672H155.191C155.341 68.3672 155.456 68.3954 155.538 68.4516C155.619 68.5016 155.678 68.5954 155.716 68.7329C155.759 68.8703 155.781 69.0703 155.781 69.3328C155.781 69.5953 155.759 69.7953 155.716 69.9328C155.678 70.0703 155.619 70.1641 155.538 70.2141C155.456 70.2641 155.341 70.2891 155.191 70.2891H151.685C151.535 70.2891 151.419 70.2641 151.338 70.2141C151.256 70.1641 151.194 70.0703 151.15 69.9328C151.113 69.7953 151.094 69.5953 151.094 69.3328C151.094 69.0703 151.113 68.8703 151.15 68.7329C151.194 68.5954 151.256 68.5016 151.338 68.4516C151.419 68.3954 151.535 68.3672 151.685 68.3672H152.125V65.0298C152.125 64.5423 152.041 64.1736 151.872 63.9236C151.703 63.6736 151.422 63.5486 151.028 63.5486C150.666 63.5486 150.322 63.7017 149.997 64.008C149.672 64.308 149.41 64.7111 149.21 65.2173C149.016 65.7236 148.919 66.2642 148.919 66.8392V68.3672H149.36C149.51 68.3672 149.625 68.3954 149.707 68.4516C149.788 68.5016 149.847 68.5954 149.885 68.7329C149.928 68.8703 149.95 69.0703 149.95 69.3328C149.95 69.5953 149.928 69.7953 149.885 69.9328C149.847 70.0703 149.788 70.1641 149.707 70.2141C149.625 70.2641 149.51 70.2891 149.36 70.2891H145.853C145.703 70.2891 145.588 70.2641 145.507 70.2141C145.425 70.1641 145.363 70.0703 145.319 69.9328C145.282 69.7953 145.263 69.5953 145.263 69.3328C145.263 69.0703 145.282 68.8703 145.319 68.7329C145.363 68.5954 145.425 68.5016 145.507 68.4516C145.588 68.3954 145.703 68.3672 145.853 68.3672H146.575V59.9112H145.666C145.516 59.9112 145.4 59.8862 145.319 59.8362C145.238 59.7862 145.175 59.6925 145.132 59.555C145.094 59.4175 145.075 59.2175 145.075 58.955C145.075 58.6925 145.094 58.4925 145.132 58.355C145.175 58.2175 145.238 58.1237 145.319 58.0738C145.4 58.0175 145.516 57.9894 145.666 57.9894H148.328ZM162.034 61.4205C162.984 61.4205 163.794 61.6268 164.462 62.0393C165.131 62.4455 165.634 63.0142 165.972 63.7455C166.315 64.4705 166.487 65.3017 166.487 66.2392C166.487 66.4517 166.44 66.6017 166.347 66.6892C166.259 66.7767 166.109 66.8204 165.897 66.8204H159.878C159.997 67.3204 160.25 67.7048 160.637 67.9735C161.031 68.236 161.528 68.3672 162.128 68.3672C163.097 68.3672 164.147 68.1954 165.278 67.8516C165.353 67.8266 165.428 67.8141 165.503 67.8141C165.64 67.8141 165.759 67.8766 165.859 68.0016C165.959 68.1266 166.05 68.3391 166.131 68.6391C166.194 68.8703 166.225 69.0672 166.225 69.2297C166.225 69.3922 166.187 69.5203 166.112 69.6141C166.044 69.7016 165.928 69.7735 165.765 69.8297C165.14 70.0359 164.503 70.1984 163.853 70.3172C163.203 70.4359 162.566 70.4953 161.941 70.4953C160.991 70.4953 160.172 70.3016 159.484 69.9141C158.797 69.5266 158.272 68.9922 157.909 68.311C157.553 67.6235 157.375 66.8392 157.375 65.9579C157.375 65.0829 157.563 64.3017 157.938 63.6142C158.313 62.9268 158.853 62.3893 159.559 62.0018C160.266 61.6143 161.091 61.4205 162.034 61.4205ZM162.034 63.5486C160.891 63.5486 160.184 64.0298 159.916 64.9923H164.041C163.934 64.5361 163.706 64.183 163.356 63.933C163.012 63.6767 162.572 63.5486 162.034 63.5486ZM176.35 61.4205C176.881 61.4205 177.381 61.5955 177.85 61.9455C178.125 62.1455 178.262 62.408 178.262 62.733C178.262 62.9393 178.206 63.183 178.093 63.4642C177.981 63.7455 177.853 63.958 177.709 64.1017C177.571 64.2455 177.425 64.3173 177.268 64.3173C177.181 64.3173 177.087 64.2923 176.987 64.2423C176.637 64.0486 176.275 63.9517 175.9 63.9517C175.418 63.9517 174.968 64.1048 174.55 64.4111C174.131 64.7173 173.793 65.1392 173.537 65.6767C173.287 66.2142 173.162 66.8142 173.162 67.4766V68.3672H175.853C176.003 68.3672 176.118 68.3954 176.2 68.4516C176.281 68.5016 176.34 68.5954 176.378 68.7329C176.421 68.8703 176.443 69.0703 176.443 69.3328C176.443 69.5953 176.421 69.7953 176.378 69.9328C176.34 70.0703 176.281 70.1641 176.2 70.2141C176.118 70.2641 176.003 70.2891 175.853 70.2891H169.44C169.29 70.2891 169.175 70.2641 169.094 70.2141C169.012 70.1641 168.95 70.0703 168.906 69.9328C168.869 69.7953 168.85 69.5953 168.85 69.3328C168.85 69.0703 168.869 68.8703 168.906 68.7329C168.95 68.5954 169.012 68.5016 169.094 68.4516C169.175 68.3954 169.29 68.3672 169.44 68.3672H170.818V63.5486H169.722C169.572 63.5486 169.456 63.5236 169.375 63.4736C169.293 63.4236 169.231 63.3299 169.187 63.1924C169.15 63.0549 169.131 62.8549 169.131 62.5924C169.131 62.3299 169.15 62.1299 169.187 61.9924C169.231 61.8549 169.293 61.7612 169.375 61.7112C169.456 61.6549 169.572 61.6268 169.722 61.6268H172.29C172.503 61.6268 172.653 61.6737 172.74 61.7674C172.834 61.8549 172.881 62.0049 172.881 62.2174V64.2517C173.35 63.3455 173.887 62.6486 174.493 62.1611C175.106 61.6674 175.725 61.4205 176.35 61.4205ZM197.246 61.4205C198.065 61.4205 198.78 61.6205 199.393 62.0205C200.005 62.4205 200.474 62.9642 200.799 63.6517C201.124 64.3392 201.286 65.1079 201.286 65.9579C201.286 66.8079 201.124 67.5766 200.799 68.2641C200.474 68.9516 200.005 69.4953 199.393 69.8953C198.78 70.2953 198.065 70.4953 197.246 70.4953C196.758 70.4953 196.305 70.4016 195.887 70.2141C195.468 70.0203 195.099 69.7453 194.78 69.3891V72.0046H196.346C196.496 72.0046 196.612 72.0296 196.693 72.0796C196.774 72.1296 196.833 72.2234 196.871 72.3609C196.915 72.4984 196.937 72.6984 196.937 72.9609C196.937 73.2234 196.915 73.4234 196.871 73.5609C196.833 73.6984 196.774 73.7921 196.693 73.8421C196.612 73.8983 196.496 73.9265 196.346 73.9265H191.621C191.471 73.9265 191.355 73.9015 191.274 73.8515C191.193 73.8015 191.13 73.7077 191.087 73.5702C191.049 73.4327 191.03 73.2327 191.03 72.9702C191.03 72.7078 191.049 72.5078 191.087 72.3703C191.13 72.2328 191.193 72.1359 191.274 72.0796C191.355 72.0296 191.471 72.0046 191.621 72.0046H192.437V63.5486H191.621C191.471 63.5486 191.355 63.5236 191.274 63.4736C191.193 63.4236 191.13 63.3299 191.087 63.1924C191.049 63.0549 191.03 62.8549 191.03 62.5924C191.03 62.3299 191.049 62.1299 191.087 61.9924C191.13 61.8549 191.193 61.7612 191.274 61.7112C191.355 61.6549 191.471 61.6268 191.621 61.6268H193.815C194.027 61.6268 194.177 61.6737 194.265 61.7674C194.358 61.8549 194.405 62.0049 194.405 62.2174V63.0049C194.73 62.5049 195.137 62.1174 195.624 61.8424C196.112 61.5612 196.652 61.4205 197.246 61.4205ZM196.871 63.5486C196.471 63.5486 196.108 63.6424 195.783 63.8299C195.458 64.0173 195.199 64.2955 195.005 64.6642C194.812 65.0267 194.715 65.4579 194.715 65.9579C194.715 66.4579 194.812 66.8923 195.005 67.261C195.199 67.6235 195.458 67.8985 195.783 68.086C196.108 68.2735 196.471 68.3672 196.871 68.3672C197.258 68.3672 197.596 68.2704 197.883 68.0766C198.171 67.8766 198.39 67.5954 198.54 67.2329C198.696 66.8704 198.774 66.4454 198.774 65.9579C198.774 65.4704 198.696 65.0454 198.54 64.683C198.39 64.3205 198.171 64.0423 197.883 63.8486C197.596 63.6486 197.258 63.5486 196.871 63.5486ZM210.886 61.4205C211.417 61.4205 211.917 61.5955 212.386 61.9455C212.661 62.1455 212.799 62.408 212.799 62.733C212.799 62.9393 212.742 63.183 212.63 63.4642C212.517 63.7455 212.389 63.958 212.246 64.1017C212.108 64.2455 211.961 64.3173 211.805 64.3173C211.717 64.3173 211.624 64.2923 211.524 64.2423C211.174 64.0486 210.811 63.9517 210.436 63.9517C209.955 63.9517 209.505 64.1048 209.086 64.4111C208.667 64.7173 208.33 65.1392 208.074 65.6767C207.824 66.2142 207.699 66.8142 207.699 67.4766V68.3672H210.389C210.539 68.3672 210.655 68.3954 210.736 68.4516C210.817 68.5016 210.877 68.5954 210.914 68.7329C210.958 68.8703 210.98 69.0703 210.98 69.3328C210.98 69.5953 210.958 69.7953 210.914 69.9328C210.877 70.0703 210.817 70.1641 210.736 70.2141C210.655 70.2641 210.539 70.2891 210.389 70.2891H203.977C203.827 70.2891 203.711 70.2641 203.63 70.2141C203.549 70.1641 203.486 70.0703 203.443 69.9328C203.405 69.7953 203.386 69.5953 203.386 69.3328C203.386 69.0703 203.405 68.8703 203.443 68.7329C203.486 68.5954 203.549 68.5016 203.63 68.4516C203.711 68.3954 203.827 68.3672 203.977 68.3672H205.355V63.5486H204.258C204.108 63.5486 203.993 63.5236 203.911 63.4736C203.83 63.4236 203.768 63.3299 203.724 63.1924C203.686 63.0549 203.668 62.8549 203.668 62.5924C203.668 62.3299 203.686 62.1299 203.724 61.9924C203.768 61.8549 203.83 61.7612 203.911 61.7112C203.993 61.6549 204.108 61.6268 204.258 61.6268H206.827C207.039 61.6268 207.189 61.6737 207.277 61.7674C207.371 61.8549 207.418 62.0049 207.418 62.2174V64.2517C207.886 63.3455 208.424 62.6486 209.03 62.1611C209.642 61.6674 210.261 61.4205 210.886 61.4205ZM220.177 61.6268C220.389 61.6268 220.539 61.6737 220.627 61.7674C220.72 61.8549 220.767 62.0049 220.767 62.2174V68.3672H223.401C223.551 68.3672 223.667 68.3954 223.748 68.4516C223.83 68.5016 223.889 68.5954 223.926 68.7329C223.97 68.8703 223.992 69.0703 223.992 69.3328C223.992 69.5953 223.97 69.7953 223.926 69.9328C223.889 70.0703 223.83 70.1641 223.748 70.2141C223.667 70.2641 223.551 70.2891 223.401 70.2891H215.864C215.714 70.2891 215.599 70.2641 215.517 70.2141C215.436 70.1641 215.374 70.0703 215.33 69.9328C215.292 69.7953 215.274 69.5953 215.274 69.3328C215.274 69.0703 215.292 68.8703 215.33 68.7329C215.374 68.5954 215.436 68.5016 215.517 68.4516C215.599 68.3954 215.714 68.3672 215.864 68.3672H218.423V63.5486H216.427C216.277 63.5486 216.161 63.5236 216.08 63.4736C215.999 63.4236 215.936 63.3299 215.892 63.1924C215.855 63.0549 215.836 62.8549 215.836 62.5924C215.836 62.3299 215.855 62.1299 215.892 61.9924C215.936 61.8549 215.999 61.7612 216.08 61.7112C216.161 61.6549 216.277 61.6268 216.427 61.6268H220.177ZM219.567 57.5113C220.011 57.5113 220.32 57.5581 220.495 57.6519C220.677 57.7394 220.767 57.8894 220.767 58.1019V59.6393C220.767 59.8518 220.683 60.005 220.514 60.0987C220.352 60.1862 220.052 60.2299 219.614 60.2299C219.177 60.2299 218.867 60.1862 218.686 60.0987C218.511 60.005 218.423 59.8518 218.423 59.6393V58.1019C218.423 57.8831 218.505 57.73 218.667 57.6425C218.83 57.555 219.13 57.5113 219.567 57.5113ZM232.317 61.4205C232.886 61.4205 233.382 61.5455 233.807 61.7955C234.239 62.0455 234.57 62.4018 234.801 62.8643C235.032 63.3205 235.148 63.858 235.148 64.4767V68.3672H235.87C236.02 68.3672 236.136 68.3954 236.217 68.4516C236.298 68.5016 236.357 68.5954 236.395 68.7329C236.439 68.8703 236.461 69.0703 236.461 69.3328C236.461 69.5953 236.439 69.7953 236.395 69.9328C236.357 70.0703 236.298 70.1641 236.217 70.2141C236.136 70.2641 236.02 70.2891 235.87 70.2891H232.364C232.214 70.2891 232.098 70.2641 232.017 70.2141C231.936 70.1641 231.873 70.0703 231.829 69.9328C231.792 69.7953 231.773 69.5953 231.773 69.3328C231.773 69.0703 231.792 68.8703 231.829 68.7329C231.873 68.5954 231.936 68.5016 232.017 68.4516C232.098 68.3954 232.214 68.3672 232.364 68.3672H232.804V65.0298C232.804 64.5423 232.72 64.1736 232.551 63.9236C232.383 63.6736 232.101 63.5486 231.708 63.5486C231.345 63.5486 231.001 63.7017 230.676 64.008C230.351 64.308 230.089 64.7111 229.889 65.2173C229.695 65.7236 229.598 66.2642 229.598 66.8392V68.3672H230.039C230.189 68.3672 230.304 68.3954 230.386 68.4516C230.467 68.5016 230.526 68.5954 230.564 68.7329C230.608 68.8703 230.629 69.0703 230.629 69.3328C230.629 69.5953 230.608 69.7953 230.564 69.9328C230.526 70.0703 230.467 70.1641 230.386 70.2141C230.304 70.2641 230.189 70.2891 230.039 70.2891H226.533C226.383 70.2891 226.267 70.2641 226.186 70.2141C226.105 70.1641 226.042 70.0703 225.998 69.9328C225.961 69.7953 225.942 69.5953 225.942 69.3328C225.942 69.0703 225.961 68.8703 225.998 68.7329C226.042 68.5954 226.105 68.5016 226.186 68.4516C226.267 68.3954 226.383 68.3672 226.533 68.3672H227.255V63.5486H226.345C226.195 63.5486 226.08 63.5236 225.998 63.4736C225.917 63.4236 225.855 63.3299 225.811 63.1924C225.773 63.0549 225.755 62.8549 225.755 62.5924C225.755 62.3299 225.773 62.1299 225.811 61.9924C225.855 61.8549 225.917 61.7612 225.998 61.7112C226.08 61.6549 226.195 61.6268 226.345 61.6268H228.633C228.845 61.6268 228.995 61.6737 229.083 61.7674C229.176 61.8549 229.223 62.0049 229.223 62.2174V63.5767C230.048 62.1393 231.079 61.4205 232.317 61.4205ZM241.279 58.955C241.573 58.955 241.798 58.9769 241.954 59.0206C242.117 59.0581 242.229 59.1175 242.292 59.1987C242.354 59.28 242.385 59.3956 242.385 59.5456V62.1893H245.863C246.082 62.1893 246.235 62.2611 246.323 62.4049C246.41 62.5486 246.454 62.8143 246.454 63.2017C246.454 63.5892 246.41 63.8549 246.323 63.9986C246.235 64.1361 246.082 64.2048 245.863 64.2048H242.385V66.811C242.385 67.8485 242.788 68.3672 243.595 68.3672C243.882 68.3672 244.217 68.3047 244.598 68.1797C244.985 68.0485 245.435 67.8672 245.948 67.636C246.085 67.5798 246.195 67.5516 246.276 67.5516C246.407 67.5516 246.529 67.6079 246.642 67.7204C246.754 67.8266 246.86 68.0047 246.96 68.2547C247.073 68.536 247.129 68.7641 247.129 68.9391C247.129 69.0766 247.095 69.1922 247.026 69.286C246.963 69.3735 246.867 69.4516 246.735 69.5203C245.448 70.1703 244.332 70.4953 243.388 70.4953C242.301 70.4953 241.47 70.1922 240.895 69.586C240.326 68.9797 240.042 68.0954 240.042 66.9329V64.2048H238.232C238.014 64.2048 237.86 64.1361 237.773 63.9986C237.685 63.8549 237.642 63.5892 237.642 63.2017C237.642 62.8143 237.685 62.5486 237.773 62.4049C237.86 62.2611 238.014 62.1893 238.232 62.1893H240.042V59.5456C240.042 59.3331 240.135 59.1831 240.323 59.0956C240.517 59.0019 240.835 58.955 241.279 58.955ZM268.447 61.4205C268.978 61.4205 269.478 61.5955 269.947 61.9455C270.222 62.1455 270.36 62.408 270.36 62.733C270.36 62.9393 270.303 63.183 270.191 63.4642C270.078 63.7455 269.95 63.958 269.807 64.1017C269.669 64.2455 269.522 64.3173 269.366 64.3173C269.278 64.3173 269.185 64.2923 269.085 64.2423C268.735 64.0486 268.372 63.9517 267.997 63.9517C267.516 63.9517 267.066 64.1048 266.647 64.4111C266.229 64.7173 265.891 65.1392 265.635 65.6767C265.385 66.2142 265.26 66.8142 265.26 67.4766V68.3672H267.95C268.1 68.3672 268.216 68.3954 268.297 68.4516C268.378 68.5016 268.438 68.5954 268.475 68.7329C268.519 68.8703 268.541 69.0703 268.541 69.3328C268.541 69.5953 268.519 69.7953 268.475 69.9328C268.438 70.0703 268.378 70.1641 268.297 70.2141C268.216 70.2641 268.1 70.2891 267.95 70.2891H261.538C261.388 70.2891 261.272 70.2641 261.191 70.2141C261.11 70.1641 261.047 70.0703 261.004 69.9328C260.966 69.7953 260.947 69.5953 260.947 69.3328C260.947 69.0703 260.966 68.8703 261.004 68.7329C261.047 68.5954 261.11 68.5016 261.191 68.4516C261.272 68.3954 261.388 68.3672 261.538 68.3672H262.916V63.5486H261.819C261.669 63.5486 261.554 63.5236 261.472 63.4736C261.391 63.4236 261.329 63.3299 261.285 63.1924C261.247 63.0549 261.229 62.8549 261.229 62.5924C261.229 62.3299 261.247 62.1299 261.285 61.9924C261.329 61.8549 261.391 61.7612 261.472 61.7112C261.554 61.6549 261.669 61.6268 261.819 61.6268H264.388C264.6 61.6268 264.75 61.6737 264.838 61.7674C264.932 61.8549 264.979 62.0049 264.979 62.2174V64.2517C265.447 63.3455 265.985 62.6486 266.591 62.1611C267.203 61.6674 267.822 61.4205 268.447 61.4205ZM280.353 61.6268C280.566 61.6268 280.716 61.6737 280.803 61.7674C280.897 61.8549 280.944 62.0049 280.944 62.2174V68.3672H281.666C281.816 68.3672 281.931 68.3922 282.012 68.4422C282.094 68.4922 282.153 68.586 282.191 68.7235C282.234 68.861 282.256 69.061 282.256 69.3235C282.256 69.586 282.234 69.786 282.191 69.9234C282.153 70.0609 282.094 70.1578 282.012 70.2141C281.931 70.2641 281.816 70.2891 281.666 70.2891H279.566C279.353 70.2891 279.2 70.2453 279.106 70.1578C279.019 70.0641 278.975 69.9109 278.975 69.6985V68.3391C278.15 69.7766 277.119 70.4953 275.881 70.4953C275.313 70.4953 274.813 70.3703 274.381 70.1203C273.956 69.8703 273.628 69.5172 273.397 69.061C273.166 68.5985 273.05 68.0579 273.05 67.4391V63.5486H272.328C272.178 63.5486 272.063 63.5236 271.981 63.4736C271.9 63.4174 271.838 63.3205 271.794 63.183C271.756 63.0455 271.738 62.8455 271.738 62.583C271.738 62.3205 271.756 62.1205 271.794 61.983C271.838 61.8455 271.9 61.7518 271.981 61.7018C272.063 61.6518 272.178 61.6268 272.328 61.6268H274.803C275.016 61.6268 275.166 61.6737 275.253 61.7674C275.347 61.8549 275.394 62.0049 275.394 62.2174V66.886C275.394 67.3735 275.478 67.7423 275.647 67.9922C275.816 68.2422 276.097 68.3672 276.491 68.3672C276.853 68.3672 277.197 68.2172 277.522 67.9172C277.847 67.611 278.106 67.2048 278.3 66.6985C278.5 66.1923 278.6 65.6517 278.6 65.0767V63.5486H277.597C277.447 63.5486 277.331 63.5236 277.25 63.4736C277.169 63.4174 277.106 63.3205 277.063 63.183C277.025 63.0455 277.006 62.8455 277.006 62.583C277.006 62.3205 277.025 62.1205 277.063 61.983C277.106 61.8455 277.169 61.7518 277.25 61.7018C277.331 61.6518 277.447 61.6268 277.597 61.6268H280.353ZM289.878 61.4205C290.447 61.4205 290.944 61.5455 291.368 61.7955C291.8 62.0455 292.131 62.4018 292.362 62.8643C292.593 63.3205 292.709 63.858 292.709 64.4767V68.3672H293.431C293.581 68.3672 293.697 68.3954 293.778 68.4516C293.859 68.5016 293.918 68.5954 293.956 68.7329C294 68.8703 294.022 69.0703 294.022 69.3328C294.022 69.5953 294 69.7953 293.956 69.9328C293.918 70.0703 293.859 70.1641 293.778 70.2141C293.697 70.2641 293.581 70.2891 293.431 70.2891H289.925C289.775 70.2891 289.659 70.2641 289.578 70.2141C289.497 70.1641 289.434 70.0703 289.39 69.9328C289.353 69.7953 289.334 69.5953 289.334 69.3328C289.334 69.0703 289.353 68.8703 289.39 68.7329C289.434 68.5954 289.497 68.5016 289.578 68.4516C289.659 68.3954 289.775 68.3672 289.925 68.3672H290.365V65.0298C290.365 64.5423 290.281 64.1736 290.112 63.9236C289.944 63.6736 289.662 63.5486 289.269 63.5486C288.906 63.5486 288.562 63.7017 288.237 64.008C287.912 64.308 287.65 64.7111 287.45 65.2173C287.256 65.7236 287.159 66.2642 287.159 66.8392V68.3672H287.6C287.75 68.3672 287.865 68.3954 287.947 68.4516C288.028 68.5016 288.087 68.5954 288.125 68.7329C288.169 68.8703 288.19 69.0703 288.19 69.3328C288.19 69.5953 288.169 69.7953 288.125 69.9328C288.087 70.0703 288.028 70.1641 287.947 70.2141C287.865 70.2641 287.75 70.2891 287.6 70.2891H284.094C283.944 70.2891 283.828 70.2641 283.747 70.2141C283.666 70.1641 283.603 70.0703 283.559 69.9328C283.522 69.7953 283.503 69.5953 283.503 69.3328C283.503 69.0703 283.522 68.8703 283.559 68.7329C283.603 68.5954 283.666 68.5016 283.747 68.4516C283.828 68.3954 283.944 68.3672 284.094 68.3672H284.816V63.5486H283.906C283.756 63.5486 283.641 63.5236 283.559 63.4736C283.478 63.4236 283.416 63.3299 283.372 63.1924C283.334 63.0549 283.316 62.8549 283.316 62.5924C283.316 62.3299 283.334 62.1299 283.372 61.9924C283.416 61.8549 283.478 61.7612 283.559 61.7112C283.641 61.6549 283.756 61.6268 283.906 61.6268H286.194C286.406 61.6268 286.556 61.6737 286.644 61.7674C286.737 61.8549 286.784 62.0049 286.784 62.2174V63.5767C287.609 62.1393 288.64 61.4205 289.878 61.4205ZM300.05 66.8204C300.593 66.8204 300.987 66.8673 301.231 66.961C301.474 67.0485 301.596 67.1985 301.596 67.411V69.7922C301.596 70.0047 301.474 70.1578 301.231 70.2516C300.987 70.3391 300.593 70.3828 300.05 70.3828C299.506 70.3828 299.112 70.3391 298.868 70.2516C298.625 70.1578 298.503 70.0047 298.503 69.7922V67.411C298.503 67.1985 298.625 67.0485 298.868 66.961C299.112 66.8673 299.506 66.8204 300.05 66.8204Z" fill="#02274D"/>
<circle cx="50.4776" cy="50.8995" r="36.7354" fill="#A9EB35"/>
<g clip-path="url(#clip0_2129_445)">
<g opacity="0.8">
<mask id="mask0_2129_445" style="mask-type:luminance" maskUnits="userSpaceOnUse" x="30" y="32" width="41" height="40">
<path d="M68.9608 70.3844V33.3127H31.8891V70.3844H68.9608Z" fill="white" stroke="white" stroke-width="2.2"/>
</mask>
<g mask="url(#mask0_2129_445)">
<path d="M62.0738 61.6562H64.2982C66.8401 61.6562 68.9003 59.596 68.9003 57.0541V47.8498C68.9003 45.3079 66.8401 43.2476 64.2982 43.2476H36.5318C33.9899 43.2476 31.9297 45.3079 31.9297 47.8498V57.0541C31.9297 59.596 33.9899 61.6562 36.5318 61.6562H38.7562" stroke="#133D34" stroke-width="2.2" stroke-miterlimit="10" stroke-linecap="round" stroke-linejoin="round"/>
<path d="M63.9134 55.5234H36.9141" stroke="#133D34" stroke-width="2.2" stroke-miterlimit="10" stroke-linecap="round" stroke-linejoin="round"/>
<path d="M41.0667 70.3203H59.7821C61.0529 70.3203 62.0832 69.29 62.0832 68.0192V55.5167H38.7656V68.0192C38.7656 69.29 39.7959 70.3203 41.0667 70.3203Z" stroke="#133D34" stroke-width="2.2" stroke-miterlimit="10" stroke-linecap="round" stroke-linejoin="round"/>
<path d="M53.48 60.4297H47.3438" stroke="#133D34" stroke-width="2.2" stroke-miterlimit="10" stroke-linecap="round" stroke-linejoin="round"/>
<path d="M53.48 65.3438H47.3438" stroke="#133D34" stroke-width="2.2" stroke-miterlimit="10" stroke-linecap="round" stroke-linejoin="round"/>
<path d="M40.5958 48.1562H36.9141" stroke="#133D34" stroke-width="2.2" stroke-miterlimit="10" stroke-linecap="round" stroke-linejoin="round"/>
<path d="M43.3678 33.3476H57.4811C60.0227 33.3476 62.0832 35.408 62.0832 37.9497V43.2422H38.7656V37.9497C38.7656 35.408 40.8261 33.3476 43.3678 33.3476Z" stroke="#133D34" stroke-width="2.2" stroke-miterlimit="10" stroke-linecap="round" stroke-linejoin="round"/>
</g>
</g>
</g>
<defs>
<linearGradient id="paint0_linear_2129_445" x1="394.399" y1="60.3439" x2="22.6266" y2="57.7258" gradientUnits="userSpaceOnUse">
<stop stop-color="white"/>
<stop offset="1" stop-color="white"/>
</linearGradient>
<clipPath id="clip0_2129_445">
<rect width="39.2717" height="39.2717" fill="white" transform="translate(30.7578 32.2031)"/>
</clipPath>
</defs>
</svg>
