<svg width="190" height="30" viewBox="0 0 190 30" fill="none" xmlns="http://www.w3.org/2000/svg" style="">
<path d="M29.2039 10.7298L19.9814 9.32107L15.8477 0.516074C15.5389 -0.141426 14.4602 -0.141426 14.1514 0.516074L10.0189 9.32107L0.796437 10.7298C0.0389366 10.8461 -0.263564 11.7673 0.267686 12.3111L6.96769 19.1786L5.38394 28.8873C5.25769 29.6586 6.08144 30.2373 6.76269 29.8586L15.0002 25.3061L23.2377 29.8598C23.9127 30.2348 24.7439 29.6673 24.6164 28.8886L23.0327 19.1798L29.7327 12.3123C30.2639 11.7673 29.9602 10.8461 29.2039 10.7298Z" fill="#FFC107" style=""></path>
<path d="M69.2039 10.7298L59.9814 9.32107L55.8477 0.516074C55.5389 -0.141426 54.4602 -0.141426 54.1514 0.516074L50.0189 9.32107L40.7964 10.7298C40.0389 10.8461 39.7364 11.7673 40.2677 12.3111L46.9677 19.1786L45.3839 28.8873C45.2577 29.6586 46.0814 30.2373 46.7627 29.8586L55.0002 25.3061L63.2377 29.8598C63.9127 30.2348 64.7439 29.6673 64.6164 28.8886L63.0327 19.1798L69.7327 12.3123C70.2639 11.7673 69.9602 10.8461 69.2039 10.7298Z" fill="#FFC107" style=""></path>
<path d="M109.204 10.7298L99.9814 9.32107L95.8477 0.516074C95.5389 -0.141426 94.4602 -0.141426 94.1514 0.516074L90.0189 9.32107L80.7964 10.7298C80.0389 10.8461 79.7364 11.7673 80.2677 12.3111L86.9677 19.1786L85.3839 28.8873C85.2577 29.6586 86.0814 30.2373 86.7627 29.8586L95.0002 25.3061L103.238 29.8598C103.913 30.2348 104.744 29.6673 104.616 28.8886L103.033 19.1798L109.733 12.3123C110.264 11.7673 109.96 10.8461 109.204 10.7298Z" fill="#FFC107"></path>
<path d="M149.204 10.7298L139.981 9.32107L135.848 0.516074C135.539 -0.141426 134.46 -0.141426 134.151 0.516074L130.019 9.32107L120.796 10.7298C120.039 10.8461 119.736 11.7673 120.268 12.3111L126.968 19.1786L125.384 28.8873C125.258 29.6586 126.081 30.2373 126.763 29.8586L135 25.3061L143.238 29.8598C143.913 30.2348 144.744 29.6673 144.616 28.8886L143.033 19.1798L149.733 12.3123C150.264 11.7673 149.96 10.8461 149.204 10.7298Z" fill="#FFC107"></path>
<path d="M189.204 10.7298L179.981 9.32107L175.848 0.516074C175.539 -0.141426 174.46 -0.141426 174.151 0.516074L170.019 9.32107L160.796 10.7298C160.039 10.8461 159.736 11.7673 160.268 12.3111L166.968 19.1786L165.384 28.8873C165.258 29.6586 166.081 30.2373 166.763 29.8586L175 25.3061L183.238 29.8598C183.913 30.2348 184.744 29.6673 184.616 28.8886L183.033 19.1798L189.733 12.3123C190.264 11.7673 189.96 10.8461 189.204 10.7298Z" fill="#FFC107"></path>
</svg>
