<svg width="296" height="417" viewBox="0 0 296 417" fill="none" xmlns="http://www.w3.org/2000/svg">
<!-- Align pill L to first row (~x=33): export staggered L margins -->
<g transform="translate(-7.4609, 0)">
<g filter="url(#filter0_b_2184_311)">
<rect x="40.4609" y="330.656" width="255.077" height="85.74" rx="42.87" fill="url(#paint0_linear_2184_311)"/>
</g>
<path opacity="0" d="M141.051 367.897C141.426 367.897 141.692 367.941 141.851 368.029C142.009 368.111 142.088 368.252 142.088 368.451V370.859C142.088 371.059 142.023 371.202 141.895 371.29C141.771 371.372 141.566 371.413 141.279 371.413C141.086 371.413 140.934 371.39 140.822 371.343C140.711 371.296 140.623 371.226 140.559 371.132C140.283 370.698 139.929 370.364 139.495 370.13C139.062 369.89 138.561 369.77 137.992 369.77C137.564 369.77 137.228 369.878 136.981 370.095C136.741 370.312 136.621 370.593 136.621 370.938C136.621 371.108 136.674 371.249 136.779 371.36C136.885 371.466 137.037 371.56 137.236 371.642C137.494 371.741 137.937 371.844 138.563 371.949C139.173 372.066 139.671 372.178 140.058 372.283C140.444 372.383 140.808 372.538 141.147 372.749C142.085 373.317 142.554 374.234 142.554 375.5C142.554 376.145 142.416 376.707 142.141 377.188C141.871 377.668 141.464 378.043 140.919 378.312C140.374 378.582 139.703 378.717 138.906 378.717C137.928 378.717 137.099 378.421 136.419 377.829V378.163C136.419 378.362 136.346 378.503 136.199 378.585C136.059 378.673 135.804 378.717 135.435 378.717C135.06 378.717 134.793 378.673 134.635 378.585C134.477 378.503 134.397 378.362 134.397 378.163V375.228C134.397 375.028 134.459 374.888 134.582 374.806C134.711 374.718 134.919 374.674 135.206 374.674C135.411 374.674 135.572 374.7 135.689 374.753C135.812 374.806 135.906 374.896 135.971 375.025C136.287 375.629 136.665 376.083 137.104 376.388C137.544 376.692 138.057 376.845 138.643 376.845C139.158 376.845 139.551 376.739 139.82 376.528C140.09 376.317 140.225 376.024 140.225 375.649C140.225 375.415 140.163 375.219 140.04 375.061C139.923 374.896 139.75 374.759 139.521 374.647C139.334 374.554 139.126 374.478 138.897 374.419C138.675 374.36 138.344 374.284 137.904 374.19C137.4 374.085 136.984 373.988 136.656 373.9C136.328 373.812 136.021 373.692 135.733 373.54C135.288 373.306 134.939 372.995 134.688 372.608C134.436 372.216 134.31 371.709 134.31 371.088C134.31 370.467 134.453 369.916 134.74 369.436C135.027 368.949 135.429 368.571 135.944 368.302C136.466 368.032 137.061 367.897 137.729 367.897C138.197 367.897 138.631 367.974 139.029 368.126C139.428 368.278 139.773 368.495 140.066 368.776V368.451C140.066 368.252 140.137 368.111 140.277 368.029C140.424 367.941 140.682 367.897 141.051 367.897ZM149.189 370.209C150.08 370.209 150.859 370.391 151.527 370.754C152.195 371.117 152.708 371.621 153.065 372.266C153.429 372.91 153.61 373.643 153.61 374.463C153.61 375.283 153.429 376.016 153.065 376.66C152.708 377.305 152.195 377.809 151.527 378.172C150.859 378.535 150.08 378.717 149.189 378.717C148.299 378.717 147.52 378.535 146.852 378.172C146.184 377.809 145.668 377.305 145.305 376.66C144.947 376.016 144.769 375.283 144.769 374.463C144.769 373.643 144.947 372.91 145.305 372.266C145.668 371.621 146.184 371.117 146.852 370.754C147.52 370.391 148.299 370.209 149.189 370.209ZM149.189 372.204C148.768 372.204 148.401 372.298 148.091 372.485C147.78 372.667 147.54 372.928 147.37 373.268C147.206 373.607 147.124 374.006 147.124 374.463C147.124 374.92 147.206 375.318 147.37 375.658C147.54 375.998 147.78 376.262 148.091 376.449C148.401 376.631 148.768 376.722 149.189 376.722C149.611 376.722 149.978 376.631 150.288 376.449C150.599 376.262 150.836 375.998 151 375.658C151.17 375.318 151.255 374.92 151.255 374.463C151.255 374.006 151.17 373.607 151 373.268C150.836 372.928 150.599 372.667 150.288 372.485C149.978 372.298 149.611 372.204 149.189 372.204ZM160.562 366.992C160.762 366.992 160.902 367.036 160.984 367.124C161.072 367.206 161.116 367.347 161.116 367.546V376.722H163.586C163.727 376.722 163.835 376.748 163.911 376.801C163.987 376.848 164.043 376.936 164.078 377.064C164.119 377.193 164.14 377.381 164.14 377.627C164.14 377.873 164.119 378.061 164.078 378.189C164.043 378.318 163.987 378.406 163.911 378.453C163.835 378.5 163.727 378.523 163.586 378.523H156.52C156.379 378.523 156.271 378.5 156.194 378.453C156.118 378.406 156.06 378.318 156.019 378.189C155.983 378.061 155.966 377.873 155.966 377.627C155.966 377.381 155.983 377.193 156.019 377.064C156.06 376.936 156.118 376.848 156.194 376.801C156.271 376.748 156.379 376.722 156.52 376.722H158.919V368.794H156.871C156.73 368.794 156.622 368.771 156.546 368.724C156.47 368.677 156.411 368.589 156.37 368.46C156.335 368.331 156.317 368.144 156.317 367.897C156.317 367.651 156.335 367.464 156.37 367.335C156.411 367.206 156.47 367.118 156.546 367.071C156.622 367.019 156.73 366.992 156.871 366.992H160.562ZM170.775 370.209C171.666 370.209 172.445 370.391 173.113 370.754C173.781 371.117 174.294 371.621 174.651 372.266C175.015 372.91 175.196 373.643 175.196 374.463C175.196 375.283 175.015 376.016 174.651 376.66C174.294 377.305 173.781 377.809 173.113 378.172C172.445 378.535 171.666 378.717 170.775 378.717C169.885 378.717 169.105 378.535 168.438 378.172C167.77 377.809 167.254 377.305 166.891 376.66C166.533 376.016 166.354 375.283 166.354 374.463C166.354 373.643 166.533 372.91 166.891 372.266C167.254 371.621 167.77 371.117 168.438 370.754C169.105 370.391 169.885 370.209 170.775 370.209ZM170.775 372.204C170.354 372.204 169.987 372.298 169.677 372.485C169.366 372.667 169.126 372.928 168.956 373.268C168.792 373.607 168.71 374.006 168.71 374.463C168.71 374.92 168.792 375.318 168.956 375.658C169.126 375.998 169.366 376.262 169.677 376.449C169.987 376.631 170.354 376.722 170.775 376.722C171.197 376.722 171.563 376.631 171.874 376.449C172.185 376.262 172.422 375.998 172.586 375.658C172.756 375.318 172.841 374.92 172.841 374.463C172.841 374.006 172.756 373.607 172.586 373.268C172.422 372.928 172.185 372.667 171.874 372.485C171.563 372.298 171.197 372.204 170.775 372.204ZM182.324 370.209C183.092 370.209 183.763 370.396 184.337 370.771C184.911 371.146 185.351 371.656 185.655 372.301C185.96 372.945 186.112 373.666 186.112 374.463C186.112 375.26 185.96 375.98 185.655 376.625C185.351 377.27 184.911 377.779 184.337 378.154C183.763 378.529 183.092 378.717 182.324 378.717C181.867 378.717 181.442 378.629 181.05 378.453C180.657 378.271 180.312 378.014 180.013 377.68V380.132H181.48C181.621 380.132 181.729 380.155 181.806 380.202C181.882 380.249 181.938 380.337 181.973 380.466C182.014 380.595 182.034 380.782 182.034 381.028C182.034 381.274 182.014 381.462 181.973 381.591C181.938 381.72 181.882 381.808 181.806 381.854C181.729 381.907 181.621 381.934 181.48 381.934H177.051C176.91 381.934 176.802 381.91 176.726 381.863C176.649 381.816 176.591 381.729 176.55 381.6C176.515 381.471 176.497 381.283 176.497 381.037C176.497 380.791 176.515 380.604 176.55 380.475C176.591 380.346 176.649 380.255 176.726 380.202C176.802 380.155 176.91 380.132 177.051 380.132H177.815V372.204H177.051C176.91 372.204 176.802 372.181 176.726 372.134C176.649 372.087 176.591 371.999 176.55 371.87C176.515 371.741 176.497 371.554 176.497 371.308C176.497 371.062 176.515 370.874 176.55 370.745C176.591 370.616 176.649 370.528 176.726 370.481C176.802 370.429 176.91 370.402 177.051 370.402H179.107C179.307 370.402 179.447 370.446 179.529 370.534C179.617 370.616 179.661 370.757 179.661 370.956V371.694C179.966 371.226 180.347 370.862 180.804 370.604C181.261 370.341 181.768 370.209 182.324 370.209ZM181.973 372.204C181.598 372.204 181.258 372.292 180.953 372.468C180.648 372.644 180.405 372.904 180.224 373.25C180.042 373.59 179.951 373.994 179.951 374.463C179.951 374.932 180.042 375.339 180.224 375.685C180.405 376.024 180.648 376.282 180.953 376.458C181.258 376.634 181.598 376.722 181.973 376.722C182.336 376.722 182.652 376.631 182.922 376.449C183.191 376.262 183.396 375.998 183.537 375.658C183.684 375.318 183.757 374.92 183.757 374.463C183.757 374.006 183.684 373.607 183.537 373.268C183.396 372.928 183.191 372.667 182.922 372.485C182.652 372.298 182.336 372.204 181.973 372.204ZM195.112 370.209C195.61 370.209 196.079 370.373 196.519 370.701C196.776 370.889 196.905 371.135 196.905 371.439C196.905 371.633 196.853 371.861 196.747 372.125C196.642 372.389 196.521 372.588 196.387 372.723C196.258 372.857 196.12 372.925 195.974 372.925C195.892 372.925 195.804 372.901 195.71 372.854C195.382 372.673 195.042 372.582 194.69 372.582C194.239 372.582 193.817 372.726 193.425 373.013C193.032 373.3 192.716 373.695 192.476 374.199C192.241 374.703 192.124 375.266 192.124 375.887V376.722H194.646C194.787 376.722 194.896 376.748 194.972 376.801C195.048 376.848 195.104 376.936 195.139 377.064C195.18 377.193 195.2 377.381 195.2 377.627C195.2 377.873 195.18 378.061 195.139 378.189C195.104 378.318 195.048 378.406 194.972 378.453C194.896 378.5 194.787 378.523 194.646 378.523H188.635C188.494 378.523 188.386 378.5 188.31 378.453C188.233 378.406 188.175 378.318 188.134 378.189C188.099 378.061 188.081 377.873 188.081 377.627C188.081 377.381 188.099 377.193 188.134 377.064C188.175 376.936 188.233 376.848 188.31 376.801C188.386 376.748 188.494 376.722 188.635 376.722H189.927V372.204H188.898C188.758 372.204 188.649 372.181 188.573 372.134C188.497 372.087 188.438 371.999 188.397 371.87C188.362 371.741 188.345 371.554 188.345 371.308C188.345 371.062 188.362 370.874 188.397 370.745C188.438 370.616 188.497 370.528 188.573 370.481C188.649 370.429 188.758 370.402 188.898 370.402H191.307C191.506 370.402 191.646 370.446 191.729 370.534C191.816 370.616 191.86 370.757 191.86 370.956V372.863C192.3 372.014 192.804 371.36 193.372 370.903C193.946 370.44 194.526 370.209 195.112 370.209ZM203.277 370.209C204.168 370.209 204.927 370.402 205.554 370.789C206.181 371.17 206.652 371.703 206.969 372.389C207.291 373.068 207.452 373.848 207.452 374.727C207.452 374.926 207.408 375.066 207.32 375.148C207.238 375.23 207.098 375.271 206.898 375.271H201.256C201.367 375.74 201.604 376.101 201.968 376.353C202.337 376.599 202.803 376.722 203.365 376.722C204.273 376.722 205.258 376.561 206.318 376.238C206.389 376.215 206.459 376.203 206.529 376.203C206.658 376.203 206.77 376.262 206.863 376.379C206.957 376.496 207.042 376.695 207.118 376.977C207.177 377.193 207.206 377.378 207.206 377.53C207.206 377.683 207.171 377.803 207.101 377.891C207.036 377.973 206.928 378.04 206.775 378.093C206.189 378.286 205.592 378.438 204.982 378.55C204.373 378.661 203.775 378.717 203.189 378.717C202.299 378.717 201.531 378.535 200.887 378.172C200.242 377.809 199.75 377.308 199.41 376.669C199.076 376.024 198.909 375.289 198.909 374.463C198.909 373.643 199.085 372.91 199.437 372.266C199.788 371.621 200.295 371.117 200.957 370.754C201.619 370.391 202.393 370.209 203.277 370.209ZM203.277 372.204C202.205 372.204 201.543 372.655 201.291 373.558H205.158C205.059 373.13 204.845 372.799 204.517 372.564C204.194 372.324 203.781 372.204 203.277 372.204ZM215.204 370.209C215.737 370.209 216.203 370.326 216.602 370.561C217.006 370.795 217.316 371.129 217.533 371.562C217.75 371.99 217.858 372.494 217.858 373.074V376.722H218.535C218.676 376.722 218.784 376.748 218.86 376.801C218.937 376.848 218.992 376.936 219.027 377.064C219.068 377.193 219.089 377.381 219.089 377.627C219.089 377.873 219.068 378.061 219.027 378.189C218.992 378.318 218.937 378.406 218.86 378.453C218.784 378.5 218.676 378.523 218.535 378.523H215.248C215.107 378.523 214.999 378.5 214.923 378.453C214.847 378.406 214.788 378.318 214.747 378.189C214.712 378.061 214.694 377.873 214.694 377.627C214.694 377.381 214.712 377.193 214.747 377.064C214.788 376.936 214.847 376.848 214.923 376.801C214.999 376.748 215.107 376.722 215.248 376.722H215.661V373.593C215.661 373.136 215.582 372.79 215.424 372.556C215.266 372.321 215.002 372.204 214.633 372.204C214.293 372.204 213.971 372.348 213.666 372.635C213.361 372.916 213.115 373.294 212.928 373.769C212.746 374.243 212.655 374.75 212.655 375.289V376.722H213.068C213.209 376.722 213.317 376.748 213.394 376.801C213.47 376.848 213.525 376.936 213.561 377.064C213.602 377.193 213.622 377.381 213.622 377.627C213.622 377.873 213.602 378.061 213.561 378.189C213.525 378.318 213.47 378.406 213.394 378.453C213.317 378.5 213.209 378.523 213.068 378.523H209.781C209.641 378.523 209.532 378.5 209.456 378.453C209.38 378.406 209.321 378.318 209.28 378.189C209.245 378.061 209.228 377.873 209.228 377.627C209.228 377.381 209.245 377.193 209.28 377.064C209.321 376.936 209.38 376.848 209.456 376.801C209.532 376.748 209.641 376.722 209.781 376.722H210.458V372.204H209.605C209.465 372.204 209.356 372.181 209.28 372.134C209.204 372.087 209.146 371.999 209.104 371.87C209.069 371.741 209.052 371.554 209.052 371.308C209.052 371.062 209.069 370.874 209.104 370.745C209.146 370.616 209.204 370.528 209.28 370.481C209.356 370.429 209.465 370.402 209.605 370.402H211.75C211.949 370.402 212.09 370.446 212.172 370.534C212.26 370.616 212.304 370.757 212.304 370.956V372.23C213.077 370.883 214.044 370.209 215.204 370.209ZM224.863 370.209C225.754 370.209 226.513 370.402 227.14 370.789C227.767 371.17 228.238 371.703 228.555 372.389C228.877 373.068 229.038 373.848 229.038 374.727C229.038 374.926 228.994 375.066 228.906 375.148C228.824 375.23 228.684 375.271 228.484 375.271H222.842C222.953 375.74 223.19 376.101 223.554 376.353C223.923 376.599 224.389 376.722 224.951 376.722C225.859 376.722 226.844 376.561 227.904 376.238C227.975 376.215 228.045 376.203 228.115 376.203C228.244 376.203 228.355 376.262 228.449 376.379C228.543 376.496 228.628 376.695 228.704 376.977C228.763 377.193 228.792 377.378 228.792 377.53C228.792 377.683 228.757 377.803 228.687 377.891C228.622 377.973 228.514 378.04 228.361 378.093C227.775 378.286 227.178 378.438 226.568 378.55C225.959 378.661 225.361 378.717 224.775 378.717C223.885 378.717 223.117 378.535 222.473 378.172C221.828 377.809 221.336 377.308 220.996 376.669C220.662 376.024 220.495 375.289 220.495 374.463C220.495 373.643 220.671 372.91 221.022 372.266C221.374 371.621 221.881 371.117 222.543 370.754C223.205 370.391 223.979 370.209 224.863 370.209ZM224.863 372.204C223.791 372.204 223.129 372.655 222.877 373.558H226.744C226.645 373.13 226.431 372.799 226.103 372.564C225.78 372.324 225.367 372.204 224.863 372.204ZM238.653 370.402C238.853 370.402 238.993 370.446 239.075 370.534C239.163 370.616 239.207 370.757 239.207 370.956V376.722H239.884C240.024 376.722 240.133 376.745 240.209 376.792C240.285 376.839 240.341 376.927 240.376 377.056C240.417 377.185 240.438 377.372 240.438 377.618C240.438 377.864 240.417 378.052 240.376 378.181C240.341 378.31 240.285 378.4 240.209 378.453C240.133 378.5 240.024 378.523 239.884 378.523H237.915C237.716 378.523 237.572 378.482 237.484 378.4C237.402 378.312 237.361 378.169 237.361 377.97V376.695C236.588 378.043 235.621 378.717 234.461 378.717C233.928 378.717 233.459 378.6 233.055 378.365C232.656 378.131 232.349 377.8 232.132 377.372C231.915 376.938 231.807 376.432 231.807 375.852V372.204H231.13C230.989 372.204 230.881 372.181 230.805 372.134C230.729 372.081 230.67 371.99 230.629 371.861C230.594 371.732 230.576 371.545 230.576 371.299C230.576 371.053 230.594 370.865 230.629 370.736C230.67 370.607 230.729 370.52 230.805 370.473C230.881 370.426 230.989 370.402 231.13 370.402H233.45C233.649 370.402 233.79 370.446 233.872 370.534C233.96 370.616 234.004 370.757 234.004 370.956V375.333C234.004 375.79 234.083 376.136 234.241 376.37C234.399 376.604 234.663 376.722 235.032 376.722C235.372 376.722 235.694 376.581 235.999 376.3C236.304 376.013 236.547 375.632 236.729 375.157C236.916 374.683 237.01 374.176 237.01 373.637V372.204H236.069C235.929 372.204 235.82 372.181 235.744 372.134C235.668 372.081 235.609 371.99 235.568 371.861C235.533 371.732 235.516 371.545 235.516 371.299C235.516 371.053 235.533 370.865 235.568 370.736C235.609 370.607 235.668 370.52 235.744 370.473C235.82 370.426 235.929 370.402 236.069 370.402H238.653ZM249.077 370.209C249.575 370.209 250.044 370.373 250.483 370.701C250.741 370.889 250.87 371.135 250.87 371.439C250.87 371.633 250.817 371.861 250.712 372.125C250.606 372.389 250.486 372.588 250.352 372.723C250.223 372.857 250.085 372.925 249.938 372.925C249.856 372.925 249.769 372.901 249.675 372.854C249.347 372.673 249.007 372.582 248.655 372.582C248.204 372.582 247.782 372.726 247.39 373.013C246.997 373.3 246.681 373.695 246.44 374.199C246.206 374.703 246.089 375.266 246.089 375.887V376.722H248.611C248.752 376.722 248.86 376.748 248.937 376.801C249.013 376.848 249.068 376.936 249.104 377.064C249.145 377.193 249.165 377.381 249.165 377.627C249.165 377.873 249.145 378.061 249.104 378.189C249.068 378.318 249.013 378.406 248.937 378.453C248.86 378.5 248.752 378.523 248.611 378.523H242.6C242.459 378.523 242.351 378.5 242.274 378.453C242.198 378.406 242.14 378.318 242.099 378.189C242.063 378.061 242.046 377.873 242.046 377.627C242.046 377.381 242.063 377.193 242.099 377.064C242.14 376.936 242.198 376.848 242.274 376.801C242.351 376.748 242.459 376.722 242.6 376.722H243.892V372.204H242.863C242.723 372.204 242.614 372.181 242.538 372.134C242.462 372.087 242.403 371.999 242.362 371.87C242.327 371.741 242.31 371.554 242.31 371.308C242.31 371.062 242.327 370.874 242.362 370.745C242.403 370.616 242.462 370.528 242.538 370.481C242.614 370.429 242.723 370.402 242.863 370.402H245.271C245.471 370.402 245.611 370.446 245.693 370.534C245.781 370.616 245.825 370.757 245.825 370.956V372.863C246.265 372.014 246.769 371.36 247.337 370.903C247.911 370.44 248.491 370.209 249.077 370.209ZM259.686 370.209C260.061 370.209 260.327 370.253 260.485 370.341C260.644 370.423 260.723 370.563 260.723 370.763V372.617C260.723 372.816 260.658 372.96 260.529 373.048C260.406 373.13 260.201 373.171 259.914 373.171C259.604 373.171 259.39 373.109 259.272 372.986C258.927 372.617 258.531 372.356 258.086 372.204C257.641 372.046 257.125 371.967 256.539 371.967C256.193 371.967 255.921 372.028 255.722 372.151C255.528 372.274 255.432 372.438 255.432 372.644C255.432 372.89 255.648 373.065 256.082 373.171C256.311 373.229 256.7 373.285 257.251 373.338C257.796 373.402 258.247 373.467 258.604 373.531C258.968 373.596 259.311 373.692 259.633 373.821C260.102 374.015 260.468 374.284 260.731 374.63C260.995 374.976 261.127 375.433 261.127 376.001C261.127 376.558 260.989 377.041 260.714 377.451C260.444 377.855 260.046 378.169 259.519 378.392C258.997 378.608 258.367 378.717 257.629 378.717C256.814 378.717 256.059 378.509 255.361 378.093V378.163C255.361 378.362 255.276 378.503 255.106 378.585C254.937 378.673 254.664 378.717 254.289 378.717C253.914 378.717 253.647 378.673 253.489 378.585C253.331 378.503 253.252 378.362 253.252 378.163V376.203C253.252 376.01 253.319 375.869 253.454 375.781C253.595 375.693 253.809 375.649 254.096 375.649C254.453 375.649 254.696 375.731 254.825 375.896C255.118 376.265 255.493 376.534 255.95 376.704C256.407 376.874 256.908 376.959 257.453 376.959C258.391 376.959 258.859 376.716 258.859 376.229C258.859 376.083 258.792 375.966 258.657 375.878C258.528 375.79 258.335 375.717 258.077 375.658C257.931 375.629 257.591 375.576 257.058 375.5C256.466 375.43 255.956 375.351 255.528 375.263C255.106 375.169 254.723 375.025 254.377 374.832C253.568 374.387 253.164 373.684 253.164 372.723C253.164 372.213 253.302 371.768 253.577 371.387C253.853 371.006 254.23 370.716 254.711 370.517C255.197 370.312 255.742 370.209 256.346 370.209C257.23 370.209 258.016 370.423 258.701 370.851V370.763C258.701 370.563 258.771 370.423 258.912 370.341C259.059 370.253 259.316 370.209 259.686 370.209Z" fill="#072114"/>
<circle cx="88" cy="373.523" r="35" fill="#58C9AB"/>
<path d="M88.0625 371.148C85.4737 371.148 83.375 369.05 83.375 366.461V361.773H92.75V366.461C92.75 369.05 90.6513 371.148 88.0625 371.148Z" stroke="#072114" stroke-width="2.5" stroke-miterlimit="10" stroke-linecap="round" stroke-linejoin="round"/>
<path d="M83.375 361.773C81.6491 361.773 80.25 360.374 80.25 358.648V355.523H89.625C91.3509 355.523 92.75 356.923 92.75 358.648V361.773" stroke="#072114" stroke-width="2.5" stroke-miterlimit="10" stroke-linecap="round" stroke-linejoin="round"/>
<path d="M77.125 377.398C77.125 373.947 79.9232 371.148 83.375 371.148H92.75C96.2018 371.148 99 373.947 99 377.398" stroke="#072114" stroke-width="2.5" stroke-miterlimit="10" stroke-linecap="round" stroke-linejoin="round"/>
<path d="M77.125 392.398L74 377.398" stroke="#072114" stroke-width="2.5" stroke-miterlimit="10" stroke-linecap="round" stroke-linejoin="round"/>
<path d="M74 377.398H102.125L99 392.398" stroke="#072114" stroke-width="2.5" stroke-miterlimit="10" stroke-linecap="round" stroke-linejoin="round"/>
<path d="M74 392.398H102.125" stroke="#072114" stroke-width="2.5" stroke-miterlimit="10" stroke-linecap="round" stroke-linejoin="round"/>
<circle cx="88.0625" cy="386.148" r="1.5625" fill="#072114"/>
</g>
<g transform="translate(14.78125, 0)">
<g filter="url(#filter1_b_2184_311)">
<path d="M18.21875 263.5262C18.21875 239.8498 37.41245 220.65625 61.08865 220.65625H214.34865C238.02565 220.65625 257.21875 239.8498 257.21875 263.5262V263.5262C257.21875 287.2026 238.02565 306.3962 214.34865 306.3962H61.08865C37.41245 306.3962 18.21875 287.2026 18.21875 263.5262V263.5262Z" fill="url(#paint1_linear_2184_311)"/>
</g>
<path opacity="0" d="M119.36 258.091C119.565 258.091 119.712 258.135 119.8 258.223C119.888 258.311 119.932 258.457 119.932 258.662V262.371C119.932 262.564 119.85 262.705 119.686 262.793C119.527 262.881 119.281 262.925 118.947 262.925C118.625 262.925 118.399 262.884 118.271 262.802C118.147 262.714 118.086 262.57 118.086 262.371V259.98H116.495V266.722H118.394C118.534 266.722 118.643 266.748 118.719 266.801C118.795 266.848 118.851 266.936 118.886 267.064C118.927 267.193 118.947 267.381 118.947 267.627C118.947 267.873 118.927 268.061 118.886 268.189C118.851 268.318 118.795 268.406 118.719 268.453C118.643 268.5 118.534 268.523 118.394 268.523H112.399C112.259 268.523 112.15 268.5 112.074 268.453C111.998 268.406 111.939 268.318 111.898 268.189C111.863 268.061 111.846 267.873 111.846 267.627C111.846 267.381 111.863 267.193 111.898 267.064C111.939 266.936 111.998 266.848 112.074 266.801C112.15 266.748 112.259 266.722 112.399 266.722H114.298V259.98H112.707V262.371C112.707 262.564 112.625 262.705 112.461 262.793C112.303 262.881 112.057 262.925 111.723 262.925C111.4 262.925 111.175 262.884 111.046 262.802C110.923 262.714 110.861 262.57 110.861 262.371V258.662C110.861 258.457 110.905 258.311 110.993 258.223C111.087 258.135 111.233 258.091 111.433 258.091H119.36ZM124.256 256.992C124.455 256.992 124.596 257.036 124.678 257.124C124.766 257.206 124.81 257.347 124.81 257.546V261.817C125.513 260.745 126.362 260.209 127.358 260.209C127.892 260.209 128.357 260.326 128.756 260.561C129.16 260.795 129.471 261.129 129.688 261.562C129.904 261.99 130.013 262.494 130.013 263.074V266.722H130.689C130.83 266.722 130.938 266.748 131.015 266.801C131.091 266.848 131.146 266.936 131.182 267.064C131.223 267.193 131.243 267.381 131.243 267.627C131.243 267.873 131.223 268.061 131.182 268.189C131.146 268.318 131.091 268.406 131.015 268.453C130.938 268.5 130.83 268.523 130.689 268.523H127.402C127.262 268.523 127.153 268.5 127.077 268.453C127.001 268.406 126.942 268.318 126.901 268.189C126.866 268.061 126.849 267.873 126.849 267.627C126.849 267.381 126.866 267.193 126.901 267.064C126.942 266.936 127.001 266.848 127.077 266.801C127.153 266.748 127.262 266.722 127.402 266.722H127.815V263.593C127.815 263.136 127.736 262.79 127.578 262.556C127.42 262.321 127.156 262.204 126.787 262.204C126.447 262.204 126.125 262.348 125.82 262.635C125.516 262.916 125.27 263.294 125.082 263.769C124.9 264.243 124.81 264.75 124.81 265.289V266.722H125.223C125.363 266.722 125.472 266.748 125.548 266.801C125.624 266.848 125.68 266.936 125.715 267.064C125.756 267.193 125.776 267.381 125.776 267.627C125.776 267.873 125.756 268.061 125.715 268.189C125.68 268.318 125.624 268.406 125.548 268.453C125.472 268.5 125.363 268.523 125.223 268.523H121.936C121.795 268.523 121.687 268.5 121.61 268.453C121.534 268.406 121.476 268.318 121.435 268.189C121.399 268.061 121.382 267.873 121.382 267.627C121.382 267.381 121.399 267.193 121.435 267.064C121.476 266.936 121.534 266.848 121.61 266.801C121.687 266.748 121.795 266.722 121.936 266.722H122.612V258.794H121.76C121.619 258.794 121.511 258.771 121.435 258.724C121.358 258.677 121.3 258.589 121.259 258.46C121.224 258.331 121.206 258.144 121.206 257.897C121.206 257.651 121.224 257.464 121.259 257.335C121.3 257.206 121.358 257.118 121.435 257.071C121.511 257.019 121.619 256.992 121.76 256.992H124.256ZM137.65 260.402C137.85 260.402 137.99 260.446 138.072 260.534C138.16 260.616 138.204 260.757 138.204 260.956V266.722H140.674C140.814 266.722 140.923 266.748 140.999 266.801C141.075 266.848 141.131 266.936 141.166 267.064C141.207 267.193 141.228 267.381 141.228 267.627C141.228 267.873 141.207 268.061 141.166 268.189C141.131 268.318 141.075 268.406 140.999 268.453C140.923 268.5 140.814 268.523 140.674 268.523H133.607C133.467 268.523 133.358 268.5 133.282 268.453C133.206 268.406 133.147 268.318 133.106 268.189C133.071 268.061 133.054 267.873 133.054 267.627C133.054 267.381 133.071 267.193 133.106 267.064C133.147 266.936 133.206 266.848 133.282 266.801C133.358 266.748 133.467 266.722 133.607 266.722H136.007V262.204H134.135C133.994 262.204 133.886 262.181 133.81 262.134C133.733 262.087 133.675 261.999 133.634 261.87C133.599 261.741 133.581 261.554 133.581 261.308C133.581 261.062 133.599 260.874 133.634 260.745C133.675 260.616 133.733 260.528 133.81 260.481C133.886 260.429 133.994 260.402 134.135 260.402H137.65ZM137.079 256.544C137.495 256.544 137.785 256.588 137.949 256.676C138.119 256.758 138.204 256.898 138.204 257.098V258.539C138.204 258.738 138.125 258.882 137.967 258.97C137.814 259.052 137.533 259.093 137.123 259.093C136.713 259.093 136.423 259.052 136.253 258.97C136.089 258.882 136.007 258.738 136.007 258.539V257.098C136.007 256.893 136.083 256.749 136.235 256.667C136.388 256.585 136.669 256.544 137.079 256.544ZM149.032 260.209C149.565 260.209 150.031 260.326 150.43 260.561C150.834 260.795 151.145 261.129 151.361 261.562C151.578 261.99 151.687 262.494 151.687 263.074V266.722H152.363C152.504 266.722 152.612 266.748 152.688 266.801C152.765 266.848 152.82 266.936 152.855 267.064C152.896 267.193 152.917 267.381 152.917 267.627C152.917 267.873 152.896 268.061 152.855 268.189C152.82 268.318 152.765 268.406 152.688 268.453C152.612 268.5 152.504 268.523 152.363 268.523H149.076C148.936 268.523 148.827 268.5 148.751 268.453C148.675 268.406 148.616 268.318 148.575 268.189C148.54 268.061 148.522 267.873 148.522 267.627C148.522 267.381 148.54 267.193 148.575 267.064C148.616 266.936 148.675 266.848 148.751 266.801C148.827 266.748 148.936 266.722 149.076 266.722H149.489V263.593C149.489 263.136 149.41 262.79 149.252 262.556C149.094 262.321 148.83 262.204 148.461 262.204C148.121 262.204 147.799 262.348 147.494 262.635C147.189 262.916 146.943 263.294 146.756 263.769C146.574 264.243 146.483 264.75 146.483 265.289V266.722H146.896C147.037 266.722 147.146 266.748 147.222 266.801C147.298 266.848 147.354 266.936 147.389 267.064C147.43 267.193 147.45 267.381 147.45 267.627C147.45 267.873 147.43 268.061 147.389 268.189C147.354 268.318 147.298 268.406 147.222 268.453C147.146 268.5 147.037 268.523 146.896 268.523H143.609C143.469 268.523 143.36 268.5 143.284 268.453C143.208 268.406 143.149 268.318 143.108 268.189C143.073 268.061 143.056 267.873 143.056 267.627C143.056 267.381 143.073 267.193 143.108 267.064C143.149 266.936 143.208 266.848 143.284 266.801C143.36 266.748 143.469 266.722 143.609 266.722H144.286V262.204H143.434C143.293 262.204 143.185 262.181 143.108 262.134C143.032 262.087 142.974 261.999 142.933 261.87C142.897 261.741 142.88 261.554 142.88 261.308C142.88 261.062 142.897 260.874 142.933 260.745C142.974 260.616 143.032 260.528 143.108 260.481C143.185 260.429 143.293 260.402 143.434 260.402H145.578C145.777 260.402 145.918 260.446 146 260.534C146.088 260.616 146.132 260.757 146.132 260.956V262.23C146.905 260.883 147.872 260.209 149.032 260.209ZM162.893 266.722C163.098 266.722 163.241 266.783 163.323 266.906C163.405 267.029 163.446 267.27 163.446 267.627C163.446 267.873 163.426 268.061 163.385 268.189C163.35 268.318 163.294 268.406 163.218 268.453C163.142 268.5 163.033 268.523 162.893 268.523H161.39C161.097 268.523 160.868 268.406 160.704 268.172L158.489 265.096L157.276 266.019V266.722H158.041C158.182 266.722 158.29 266.748 158.366 266.801C158.442 266.848 158.498 266.936 158.533 267.064C158.574 267.193 158.595 267.381 158.595 267.627C158.595 267.873 158.574 268.061 158.533 268.189C158.498 268.318 158.442 268.406 158.366 268.453C158.29 268.5 158.182 268.523 158.041 268.523H154.402C154.262 268.523 154.153 268.5 154.077 268.453C154.001 268.406 153.942 268.318 153.901 268.189C153.866 268.061 153.849 267.873 153.849 267.627C153.849 267.381 153.866 267.193 153.901 267.064C153.942 266.936 154.001 266.848 154.077 266.801C154.153 266.748 154.262 266.722 154.402 266.722H155.079V258.794H154.227C154.086 258.794 153.978 258.771 153.901 258.724C153.825 258.677 153.767 258.589 153.726 258.46C153.69 258.331 153.673 258.144 153.673 257.897C153.673 257.651 153.69 257.464 153.726 257.335C153.767 257.206 153.825 257.118 153.901 257.071C153.978 257.019 154.086 256.992 154.227 256.992H156.723C156.922 256.992 157.062 257.036 157.145 257.124C157.232 257.206 157.276 257.347 157.276 257.546V263.892L159.562 262.028H159.122C158.917 262.028 158.773 261.973 158.691 261.861C158.609 261.75 158.568 261.536 158.568 261.22C158.568 260.897 158.609 260.681 158.691 260.569C158.773 260.458 158.917 260.402 159.122 260.402H162.761C162.966 260.402 163.109 260.458 163.191 260.569C163.273 260.681 163.314 260.897 163.314 261.22C163.314 261.536 163.273 261.75 163.191 261.861C163.109 261.973 162.966 262.028 162.761 262.028H162.409L160.221 263.795L162.356 266.722H162.893ZM169.484 260.209C170.375 260.209 171.134 260.402 171.761 260.789C172.388 261.17 172.859 261.703 173.176 262.389C173.498 263.068 173.659 263.848 173.659 264.727C173.659 264.926 173.615 265.066 173.527 265.148C173.445 265.23 173.305 265.271 173.105 265.271H167.463C167.574 265.74 167.812 266.101 168.175 266.353C168.544 266.599 169.01 266.722 169.572 266.722C170.48 266.722 171.465 266.561 172.525 266.238C172.596 266.215 172.666 266.203 172.736 266.203C172.865 266.203 172.977 266.262 173.07 266.379C173.164 266.496 173.249 266.695 173.325 266.977C173.384 267.193 173.413 267.378 173.413 267.53C173.413 267.683 173.378 267.803 173.308 267.891C173.243 267.973 173.135 268.04 172.982 268.093C172.396 268.286 171.799 268.438 171.189 268.55C170.58 268.661 169.982 268.717 169.396 268.717C168.506 268.717 167.738 268.535 167.094 268.172C166.449 267.809 165.957 267.308 165.617 266.669C165.283 266.024 165.116 265.289 165.116 264.463C165.116 263.643 165.292 262.91 165.644 262.266C165.995 261.621 166.502 261.117 167.164 260.754C167.826 260.391 168.6 260.209 169.484 260.209ZM169.484 262.204C168.412 262.204 167.75 262.655 167.498 263.558H171.365C171.266 263.13 171.052 262.799 170.724 262.564C170.401 262.324 169.988 262.204 169.484 262.204ZM182.905 260.209C183.403 260.209 183.872 260.373 184.312 260.701C184.569 260.889 184.698 261.135 184.698 261.439C184.698 261.633 184.646 261.861 184.54 262.125C184.435 262.389 184.314 262.588 184.18 262.723C184.051 262.857 183.913 262.925 183.767 262.925C183.685 262.925 183.597 262.901 183.503 262.854C183.175 262.673 182.835 262.582 182.483 262.582C182.032 262.582 181.61 262.726 181.218 263.013C180.825 263.3 180.509 263.695 180.269 264.199C180.034 264.703 179.917 265.266 179.917 265.887V266.722H182.439C182.58 266.722 182.688 266.748 182.765 266.801C182.841 266.848 182.896 266.936 182.932 267.064C182.973 267.193 182.993 267.381 182.993 267.627C182.993 267.873 182.973 268.061 182.932 268.189C182.896 268.318 182.841 268.406 182.765 268.453C182.688 268.5 182.58 268.523 182.439 268.523H176.428C176.287 268.523 176.179 268.5 176.103 268.453C176.026 268.406 175.968 268.318 175.927 268.189C175.892 268.061 175.874 267.873 175.874 267.627C175.874 267.381 175.892 267.193 175.927 267.064C175.968 266.936 176.026 266.848 176.103 266.801C176.179 266.748 176.287 266.722 176.428 266.722H177.72V262.204H176.691C176.551 262.204 176.442 262.181 176.366 262.134C176.29 262.087 176.231 261.999 176.19 261.87C176.155 261.741 176.138 261.554 176.138 261.308C176.138 261.062 176.155 260.874 176.19 260.745C176.231 260.616 176.29 260.528 176.366 260.481C176.442 260.429 176.551 260.402 176.691 260.402H179.1C179.299 260.402 179.439 260.446 179.521 260.534C179.609 260.616 179.653 260.757 179.653 260.956V262.863C180.093 262.014 180.597 261.36 181.165 260.903C181.739 260.44 182.319 260.209 182.905 260.209ZM193.514 260.209C193.889 260.209 194.155 260.253 194.313 260.341C194.472 260.423 194.551 260.563 194.551 260.763V262.617C194.551 262.816 194.486 262.96 194.357 263.048C194.234 263.13 194.029 263.171 193.742 263.171C193.432 263.171 193.218 263.109 193.101 262.986C192.755 262.617 192.359 262.356 191.914 262.204C191.469 262.046 190.953 261.967 190.367 261.967C190.021 261.967 189.749 262.028 189.55 262.151C189.356 262.274 189.26 262.438 189.26 262.644C189.26 262.89 189.477 263.065 189.91 263.171C190.139 263.229 190.528 263.285 191.079 263.338C191.624 263.402 192.075 263.467 192.433 263.531C192.796 263.596 193.139 263.692 193.461 263.821C193.93 264.015 194.296 264.284 194.56 264.63C194.823 264.976 194.955 265.433 194.955 266.001C194.955 266.558 194.817 267.041 194.542 267.451C194.272 267.855 193.874 268.169 193.347 268.392C192.825 268.608 192.195 268.717 191.457 268.717C190.643 268.717 189.887 268.509 189.189 268.093V268.163C189.189 268.362 189.104 268.503 188.935 268.585C188.765 268.673 188.492 268.717 188.117 268.717C187.742 268.717 187.476 268.673 187.317 268.585C187.159 268.503 187.08 268.362 187.08 268.163V266.203C187.08 266.01 187.147 265.869 187.282 265.781C187.423 265.693 187.637 265.649 187.924 265.649C188.281 265.649 188.524 265.731 188.653 265.896C188.946 266.265 189.321 266.534 189.778 266.704C190.235 266.874 190.736 266.959 191.281 266.959C192.219 266.959 192.688 266.716 192.688 266.229C192.688 266.083 192.62 265.966 192.485 265.878C192.356 265.79 192.163 265.717 191.905 265.658C191.759 265.629 191.419 265.576 190.886 265.5C190.294 265.43 189.784 265.351 189.356 265.263C188.935 265.169 188.551 265.025 188.205 264.832C187.396 264.387 186.992 263.684 186.992 262.723C186.992 262.213 187.13 261.768 187.405 261.387C187.681 261.006 188.059 260.716 188.539 260.517C189.025 260.312 189.57 260.209 190.174 260.209C191.059 260.209 191.844 260.423 192.529 260.851V260.763C192.529 260.563 192.6 260.423 192.74 260.341C192.887 260.253 193.145 260.209 193.514 260.209Z" fill="#072114"/>
<circle cx="65" cy="263.523" r="35" fill="#58C9AB"/>
<path d="M69.2109 258.586C69.2109 255.997 67.1123 253.898 64.5234 253.898C61.9346 253.898 59.8359 255.997 59.8359 258.586C59.8359 259.63 60.1809 260.587 60.7608 261.362C61.6802 262.589 62.1797 264.082 62.1797 265.616V265.617H66.8672V265.609C66.8672 264.074 67.3634 262.592 68.2845 261.364C68.8652 260.589 69.2109 259.631 69.2109 258.586Z" stroke="#072114" stroke-width="2.5" stroke-miterlimit="10"/>
<path d="M78.4268 256.398C78.9853 260.081 78.1102 263.536 76.2798 266.307C73.4123 270.647 71.5625 275.734 71.5625 280.936V282.188H57.5V277.422H50.4687V270.312C48.968 270.312 47.5445 269.716 46.4834 268.655L45.7969 267.969L50.4687 260.938V258.594C50.4687 250.784 56.8582 244.447 64.6875 244.532C71.7517 244.609 77.4448 249.922 78.4268 256.398Z" stroke="#072114" stroke-width="2.5" stroke-miterlimit="10"/>
<path d="M66.875 265.633V267.977C66.875 269.271 65.8256 270.32 64.5312 270.32C63.2369 270.32 62.1875 269.271 62.1875 267.977V265.633" stroke="#072114" stroke-width="2.5" stroke-miterlimit="10"/>
<path d="M55.1562 253.891L57.5 256.234" stroke="#072114" stroke-width="2.5" stroke-miterlimit="10"/>
<path d="M71.5469 256.234L73.8906 253.891" stroke="#072114" stroke-width="2.5" stroke-miterlimit="10"/>
<path d="M53.9844 260.938H57.5" stroke="#072114" stroke-width="2.5" stroke-miterlimit="10"/>
<path d="M71.5469 260.938H75.0625" stroke="#072114" stroke-width="2.5" stroke-miterlimit="10"/>
</g>
<g transform="translate(32.171875, 0)">
<g filter="url(#filter2_b_2184_311)">
<path d="M0.828125 153.5262C0.828125 129.8498 20.0217 110.65625 43.6981 110.65625H196.9581C220.6351 110.65625 239.828125 129.8498 239.828125 153.5262V153.5262C239.828125 177.2026 220.6351 196.3962 196.9581 196.3962H43.6981C20.0217 196.3962 0.828125 177.2026 0.828125 153.5262V153.5262Z" fill="url(#paint2_linear_2184_311)"/>
</g>
<path opacity="0" d="M100.217 147.897C100.58 147.897 100.829 147.938 100.964 148.021C101.099 148.103 101.166 148.246 101.166 148.451V151.826C101.166 152.025 101.075 152.169 100.894 152.257C100.718 152.339 100.422 152.38 100.006 152.38C99.7305 152.38 99.5166 152.362 99.3643 152.327C99.2178 152.286 99.1152 152.228 99.0566 152.151C98.998 152.075 98.9688 151.967 98.9688 151.826C98.9688 151.24 98.8076 150.771 98.4854 150.42C98.1689 150.068 97.7148 149.893 97.123 149.893C96.3086 149.893 95.6904 150.186 95.2686 150.771C94.8467 151.357 94.6357 152.201 94.6357 153.303C94.6357 154.393 94.8584 155.236 95.3037 155.834C95.7549 156.426 96.3906 156.722 97.2109 156.722C97.7207 156.722 98.21 156.654 98.6787 156.52C99.1475 156.379 99.6572 156.168 100.208 155.887C100.302 155.84 100.39 155.816 100.472 155.816C100.747 155.816 100.976 156.06 101.157 156.546C101.239 156.769 101.28 156.968 101.28 157.144C101.28 157.442 101.146 157.656 100.876 157.785C99.6221 158.406 98.3711 158.717 97.123 158.717C96.1621 158.717 95.3154 158.497 94.583 158.058C93.8506 157.618 93.2822 156.991 92.8779 156.177C92.4795 155.356 92.2803 154.398 92.2803 153.303C92.2803 152.213 92.4766 151.261 92.8691 150.446C93.2617 149.626 93.8037 148.996 94.4951 148.557C95.1924 148.117 95.9805 147.897 96.8594 147.897C97.8848 147.897 98.6465 148.267 99.1445 149.005V148.451C99.1445 148.252 99.2295 148.111 99.3994 148.029C99.5693 147.941 99.8418 147.897 100.217 147.897ZM110.315 150.209C110.813 150.209 111.282 150.373 111.722 150.701C111.979 150.889 112.108 151.135 112.108 151.439C112.108 151.633 112.056 151.861 111.95 152.125C111.845 152.389 111.725 152.588 111.59 152.723C111.461 152.857 111.323 152.925 111.177 152.925C111.095 152.925 111.007 152.901 110.913 152.854C110.585 152.673 110.245 152.582 109.894 152.582C109.442 152.582 109.021 152.726 108.628 153.013C108.235 153.3 107.919 153.695 107.679 154.199C107.444 154.703 107.327 155.266 107.327 155.887V156.722H109.85C109.99 156.722 110.099 156.748 110.175 156.801C110.251 156.848 110.307 156.936 110.342 157.064C110.383 157.193 110.403 157.381 110.403 157.627C110.403 157.873 110.383 158.061 110.342 158.189C110.307 158.318 110.251 158.406 110.175 158.453C110.099 158.5 109.99 158.523 109.85 158.523H103.838C103.697 158.523 103.589 158.5 103.513 158.453C103.437 158.406 103.378 158.318 103.337 158.189C103.302 158.061 103.284 157.873 103.284 157.627C103.284 157.381 103.302 157.193 103.337 157.064C103.378 156.936 103.437 156.848 103.513 156.801C103.589 156.748 103.697 156.722 103.838 156.722H105.13V152.204H104.102C103.961 152.204 103.853 152.181 103.776 152.134C103.7 152.087 103.642 151.999 103.601 151.87C103.565 151.741 103.548 151.554 103.548 151.308C103.548 151.062 103.565 150.874 103.601 150.745C103.642 150.616 103.7 150.528 103.776 150.481C103.853 150.429 103.961 150.402 104.102 150.402H106.51C106.709 150.402 106.85 150.446 106.932 150.534C107.02 150.616 107.063 150.757 107.063 150.956V152.863C107.503 152.014 108.007 151.36 108.575 150.903C109.149 150.44 109.729 150.209 110.315 150.209ZM118.48 150.209C119.371 150.209 120.13 150.402 120.757 150.789C121.384 151.17 121.855 151.703 122.172 152.389C122.494 153.068 122.655 153.848 122.655 154.727C122.655 154.926 122.611 155.066 122.523 155.148C122.441 155.23 122.301 155.271 122.102 155.271H116.459C116.57 155.74 116.808 156.101 117.171 156.353C117.54 156.599 118.006 156.722 118.568 156.722C119.477 156.722 120.461 156.561 121.521 156.238C121.592 156.215 121.662 156.203 121.732 156.203C121.861 156.203 121.973 156.262 122.066 156.379C122.16 156.496 122.245 156.695 122.321 156.977C122.38 157.193 122.409 157.378 122.409 157.53C122.409 157.683 122.374 157.803 122.304 157.891C122.239 157.973 122.131 158.04 121.979 158.093C121.393 158.286 120.795 158.438 120.186 158.55C119.576 158.661 118.979 158.717 118.393 158.717C117.502 158.717 116.734 158.535 116.09 158.172C115.445 157.809 114.953 157.308 114.613 156.669C114.279 156.024 114.112 155.289 114.112 154.463C114.112 153.643 114.288 152.91 114.64 152.266C114.991 151.621 115.498 151.117 116.16 150.754C116.822 150.391 117.596 150.209 118.48 150.209ZM118.48 152.204C117.408 152.204 116.746 152.655 116.494 153.558H120.361C120.262 153.13 120.048 152.799 119.72 152.564C119.397 152.324 118.984 152.204 118.48 152.204ZM129.054 150.209C130.343 150.209 131.274 150.487 131.849 151.044C132.423 151.601 132.71 152.397 132.71 153.435V155.975C132.71 156.209 132.76 156.394 132.859 156.528C132.959 156.657 133.103 156.722 133.29 156.722H133.562C133.703 156.722 133.812 156.748 133.888 156.801C133.964 156.848 134.02 156.936 134.055 157.064C134.096 157.193 134.116 157.381 134.116 157.627C134.116 157.873 134.096 158.061 134.055 158.189C134.02 158.318 133.964 158.406 133.888 158.453C133.812 158.5 133.703 158.523 133.562 158.523H132.578C132.215 158.523 131.893 158.45 131.611 158.304C131.336 158.151 131.125 157.914 130.979 157.592C130.516 157.949 130.026 158.228 129.511 158.427C128.995 158.62 128.465 158.717 127.92 158.717C127.258 158.717 126.687 158.605 126.206 158.383C125.726 158.154 125.356 157.832 125.099 157.416C124.847 156.994 124.721 156.499 124.721 155.931C124.721 155.11 125.011 154.475 125.591 154.023C126.171 153.572 126.982 153.347 128.025 153.347C128.805 153.347 129.634 153.435 130.513 153.61V153.355C130.513 152.963 130.39 152.673 130.144 152.485C129.897 152.298 129.464 152.204 128.843 152.204C128.497 152.204 128.11 152.248 127.683 152.336C127.261 152.418 126.842 152.529 126.426 152.67C126.326 152.699 126.241 152.714 126.171 152.714C126.024 152.714 125.893 152.661 125.775 152.556C125.664 152.444 125.562 152.26 125.468 152.002C125.38 151.744 125.336 151.533 125.336 151.369C125.336 151.07 125.471 150.871 125.74 150.771C126.262 150.584 126.815 150.443 127.401 150.35C127.987 150.256 128.538 150.209 129.054 150.209ZM128.245 155.157C127.835 155.157 127.521 155.23 127.305 155.377C127.094 155.523 126.988 155.737 126.988 156.019C126.988 156.294 127.091 156.505 127.296 156.651C127.507 156.792 127.809 156.862 128.201 156.862C128.605 156.862 129.004 156.783 129.396 156.625C129.795 156.461 130.167 156.238 130.513 155.957V155.395C129.739 155.236 128.983 155.157 128.245 155.157ZM138.81 147.897C139.085 147.897 139.296 147.918 139.442 147.959C139.595 147.994 139.7 148.05 139.759 148.126C139.817 148.202 139.847 148.311 139.847 148.451V150.93H143.107C143.312 150.93 143.456 150.997 143.538 151.132C143.62 151.267 143.661 151.516 143.661 151.879C143.661 152.242 143.62 152.491 143.538 152.626C143.456 152.755 143.312 152.819 143.107 152.819H139.847V155.263C139.847 156.235 140.225 156.722 140.98 156.722C141.25 156.722 141.563 156.663 141.921 156.546C142.284 156.423 142.706 156.253 143.187 156.036C143.315 155.983 143.418 155.957 143.494 155.957C143.617 155.957 143.731 156.01 143.837 156.115C143.942 156.215 144.042 156.382 144.136 156.616C144.241 156.88 144.294 157.094 144.294 157.258C144.294 157.387 144.262 157.495 144.197 157.583C144.139 157.665 144.048 157.738 143.925 157.803C142.718 158.412 141.672 158.717 140.787 158.717C139.768 158.717 138.988 158.433 138.449 157.864C137.916 157.296 137.649 156.467 137.649 155.377V152.819H135.953C135.748 152.819 135.604 152.755 135.522 152.626C135.44 152.491 135.399 152.242 135.399 151.879C135.399 151.516 135.44 151.267 135.522 151.132C135.604 150.997 135.748 150.93 135.953 150.93H137.649V148.451C137.649 148.252 137.737 148.111 137.913 148.029C138.095 147.941 138.394 147.897 138.81 147.897ZM150.736 150.209C151.627 150.209 152.406 150.391 153.074 150.754C153.742 151.117 154.255 151.621 154.612 152.266C154.976 152.91 155.157 153.643 155.157 154.463C155.157 155.283 154.976 156.016 154.612 156.66C154.255 157.305 153.742 157.809 153.074 158.172C152.406 158.535 151.627 158.717 150.736 158.717C149.846 158.717 149.066 158.535 148.398 158.172C147.73 157.809 147.215 157.305 146.852 156.66C146.494 156.016 146.315 155.283 146.315 154.463C146.315 153.643 146.494 152.91 146.852 152.266C147.215 151.621 147.73 151.117 148.398 150.754C149.066 150.391 149.846 150.209 150.736 150.209ZM150.736 152.204C150.314 152.204 149.948 152.298 149.638 152.485C149.327 152.667 149.087 152.928 148.917 153.268C148.753 153.607 148.671 154.006 148.671 154.463C148.671 154.92 148.753 155.318 148.917 155.658C149.087 155.998 149.327 156.262 149.638 156.449C149.948 156.631 150.314 156.722 150.736 156.722C151.158 156.722 151.524 156.631 151.835 156.449C152.146 156.262 152.383 155.998 152.547 155.658C152.717 155.318 152.802 154.92 152.802 154.463C152.802 154.006 152.717 153.607 152.547 153.268C152.383 152.928 152.146 152.667 151.835 152.485C151.524 152.298 151.158 152.204 150.736 152.204ZM164.28 150.209C164.778 150.209 165.247 150.373 165.687 150.701C165.944 150.889 166.073 151.135 166.073 151.439C166.073 151.633 166.021 151.861 165.915 152.125C165.81 152.389 165.689 152.588 165.555 152.723C165.426 152.857 165.288 152.925 165.142 152.925C165.06 152.925 164.972 152.901 164.878 152.854C164.55 152.673 164.21 152.582 163.858 152.582C163.407 152.582 162.985 152.726 162.593 153.013C162.2 153.3 161.884 153.695 161.644 154.199C161.409 154.703 161.292 155.266 161.292 155.887V156.722H163.814C163.955 156.722 164.063 156.748 164.14 156.801C164.216 156.848 164.271 156.936 164.307 157.064C164.348 157.193 164.368 157.381 164.368 157.627C164.368 157.873 164.348 158.061 164.307 158.189C164.271 158.318 164.216 158.406 164.14 158.453C164.063 158.5 163.955 158.523 163.814 158.523H157.803C157.662 158.523 157.554 158.5 157.478 158.453C157.401 158.406 157.343 158.318 157.302 158.189C157.267 158.061 157.249 157.873 157.249 157.627C157.249 157.381 157.267 157.193 157.302 157.064C157.343 156.936 157.401 156.848 157.478 156.801C157.554 156.748 157.662 156.722 157.803 156.722H159.095V152.204H158.066C157.926 152.204 157.817 152.181 157.741 152.134C157.665 152.087 157.606 151.999 157.565 151.87C157.53 151.741 157.513 151.554 157.513 151.308C157.513 151.062 157.53 150.874 157.565 150.745C157.606 150.616 157.665 150.528 157.741 150.481C157.817 150.429 157.926 150.402 158.066 150.402H160.475C160.674 150.402 160.814 150.446 160.896 150.534C160.984 150.616 161.028 150.757 161.028 150.956V152.863C161.468 152.014 161.972 151.36 162.54 150.903C163.114 150.44 163.694 150.209 164.28 150.209ZM174.889 150.209C175.264 150.209 175.53 150.253 175.688 150.341C175.847 150.423 175.926 150.563 175.926 150.763V152.617C175.926 152.816 175.861 152.96 175.732 153.048C175.609 153.13 175.404 153.171 175.117 153.171C174.807 153.171 174.593 153.109 174.476 152.986C174.13 152.617 173.734 152.356 173.289 152.204C172.844 152.046 172.328 151.967 171.742 151.967C171.396 151.967 171.124 152.028 170.925 152.151C170.731 152.274 170.635 152.438 170.635 152.644C170.635 152.89 170.852 153.065 171.285 153.171C171.514 153.229 171.903 153.285 172.454 153.338C172.999 153.402 173.45 153.467 173.808 153.531C174.171 153.596 174.514 153.692 174.836 153.821C175.305 154.015 175.671 154.284 175.935 154.63C176.198 154.976 176.33 155.433 176.33 156.001C176.33 156.558 176.192 157.041 175.917 157.451C175.647 157.855 175.249 158.169 174.722 158.392C174.2 158.608 173.57 158.717 172.832 158.717C172.018 158.717 171.262 158.509 170.564 158.093V158.163C170.564 158.362 170.479 158.503 170.31 158.585C170.14 158.673 169.867 158.717 169.492 158.717C169.117 158.717 168.851 158.673 168.692 158.585C168.534 158.503 168.455 158.362 168.455 158.163V156.203C168.455 156.01 168.522 155.869 168.657 155.781C168.798 155.693 169.012 155.649 169.299 155.649C169.656 155.649 169.899 155.731 170.028 155.896C170.321 156.265 170.696 156.534 171.153 156.704C171.61 156.874 172.111 156.959 172.656 156.959C173.594 156.959 174.062 156.716 174.062 156.229C174.062 156.083 173.995 155.966 173.86 155.878C173.731 155.79 173.538 155.717 173.28 155.658C173.134 155.629 172.794 155.576 172.261 155.5C171.669 155.43 171.159 155.351 170.731 155.263C170.31 155.169 169.926 155.025 169.58 154.832C168.771 154.387 168.367 153.684 168.367 152.723C168.367 152.213 168.505 151.768 168.78 151.387C169.056 151.006 169.434 150.716 169.914 150.517C170.4 150.312 170.945 150.209 171.549 150.209C172.434 150.209 173.219 150.423 173.904 150.851V150.763C173.904 150.563 173.975 150.423 174.115 150.341C174.262 150.253 174.52 150.209 174.889 150.209Z" fill="#072114"/>
<circle cx="46.375" cy="153.273" r="35" fill="#58C9AB"/>
<path d="M47.2969 155.043L32.9609 171.23C31.6977 172.674 29.482 172.74 28.1328 171.391C26.7797 170.038 26.8539 167.823 28.2938 166.563L44.4805 152.227" stroke="#072114" stroke-width="2.2" stroke-miterlimit="10" stroke-linecap="round" stroke-linejoin="round"/>
<path d="M55.839 143.716L54.1328 149.797L57.2578 154.172H51.6328L47.9637 159.172L46.9272 152.627L40.3828 151.591L45.3828 147.922V142.297L49.7578 145.422L55.839 143.716Z" stroke="#072114" stroke-width="2.2" stroke-miterlimit="10" stroke-linecap="round" stroke-linejoin="round"/>
<path d="M62.9531 134.719V138.469" stroke="#072114" stroke-width="2.2" stroke-miterlimit="10" stroke-linecap="round" stroke-linejoin="round"/>
<path d="M61.0703 136.57H64.8203" stroke="#072114" stroke-width="2.2" stroke-miterlimit="10" stroke-linecap="round" stroke-linejoin="round"/>
<path d="M50.375 136.039V139.789" stroke="#072114" stroke-width="2.2" stroke-miterlimit="10" stroke-linecap="round" stroke-linejoin="round"/>
<path d="M48.5078 137.922H52.2578" stroke="#072114" stroke-width="2.2" stroke-miterlimit="10" stroke-linecap="round" stroke-linejoin="round"/>
<path d="M61.6172 147.273V151.023" stroke="#072114" stroke-width="2.2" stroke-miterlimit="10" stroke-linecap="round" stroke-linejoin="round"/>
<path d="M59.7344 149.141H63.4844" stroke="#072114" stroke-width="2.2" stroke-miterlimit="10" stroke-linecap="round" stroke-linejoin="round"/>
<path d="M62.9531 158.523V162.273" stroke="#072114" stroke-width="2.2" stroke-miterlimit="10" stroke-linecap="round" stroke-linejoin="round"/>
<path d="M61.0703 160.406H64.8203" stroke="#072114" stroke-width="2.2" stroke-miterlimit="10" stroke-linecap="round" stroke-linejoin="round"/>
<path d="M39.1172 134.719V138.469" stroke="#072114" stroke-width="2.2" stroke-miterlimit="10" stroke-linecap="round" stroke-linejoin="round"/>
<path d="M37.25 136.57H41" stroke="#072114" stroke-width="2.2" stroke-miterlimit="10" stroke-linecap="round" stroke-linejoin="round"/>
<path d="M33.5 141.664L37.875 144.164" stroke="#072114" stroke-width="2.2" stroke-miterlimit="10" stroke-linecap="round" stroke-linejoin="round"/>
<path d="M30.3672 148.539L35.3672 147.914" stroke="#072114" stroke-width="2.2" stroke-miterlimit="10" stroke-linecap="round" stroke-linejoin="round"/>
<path d="M57.8594 166.016L55.3594 161.641" stroke="#072114" stroke-width="2.2" stroke-miterlimit="10" stroke-linecap="round" stroke-linejoin="round"/>
<path d="M50.9844 169.156L51.6094 164.156" stroke="#072114" stroke-width="2.2" stroke-miterlimit="10" stroke-linecap="round" stroke-linejoin="round"/>
<path d="M42.6985 160.25L39.2891 156.841" stroke="#072114" stroke-width="2.2" stroke-miterlimit="10" stroke-linecap="round" stroke-linejoin="round"/>
</g>
<g filter="url(#filter3_b_2184_311)">
<path d="M33 43.5262C33 19.8498 52.1935 0.65625 75.87 0.65625H229.13C252.806 0.65625 272 19.8498 272 43.5262V43.5262C272 67.2026 252.806 86.3962 229.13 86.3962H75.87C52.1935 86.3962 33 67.2026 33 43.5262V43.5262Z" fill="url(#paint3_linear_2184_311)"/>
</g>
<path opacity="0" d="M132.944 28.0908C133.085 28.0908 133.193 28.1172 133.27 28.1699C133.346 28.2168 133.401 28.3047 133.437 28.4336C133.478 28.5625 133.498 28.75 133.498 28.9961C133.498 29.2422 133.478 29.4297 133.437 29.5586C133.401 29.6875 133.346 29.7754 133.27 29.8223C133.193 29.8691 133.085 29.8926 132.944 29.8926H130.87V36.7217H133.12C133.261 36.7217 133.369 36.748 133.445 36.8008C133.521 36.8477 133.577 36.9355 133.612 37.0645C133.653 37.1934 133.674 37.3809 133.674 37.627C133.674 37.873 133.653 38.0605 133.612 38.1895C133.577 38.3184 133.521 38.4062 133.445 38.4531C133.369 38.5 133.261 38.5234 133.12 38.5234H126.423C126.282 38.5234 126.174 38.5 126.098 38.4531C126.021 38.4062 125.963 38.3184 125.922 38.1895C125.887 38.0605 125.869 37.873 125.869 37.627C125.869 37.3809 125.887 37.1934 125.922 37.0645C125.963 36.9355 126.021 36.8477 126.098 36.8008C126.174 36.748 126.282 36.7217 126.423 36.7217H128.673V29.8926H126.599C126.458 29.8926 126.35 29.8691 126.273 29.8223C126.197 29.7754 126.139 29.6875 126.098 29.5586C126.062 29.4297 126.045 29.2422 126.045 28.9961C126.045 28.75 126.062 28.5625 126.098 28.4336C126.139 28.3047 126.197 28.2168 126.273 28.1699C126.35 28.1172 126.458 28.0908 126.599 28.0908H132.944ZM141.821 30.209C142.354 30.209 142.82 30.3262 143.219 30.5605C143.623 30.7949 143.934 31.1289 144.15 31.5625C144.367 31.9902 144.476 32.4941 144.476 33.0742V36.7217H145.152C145.293 36.7217 145.401 36.748 145.478 36.8008C145.554 36.8477 145.609 36.9355 145.645 37.0645C145.686 37.1934 145.706 37.3809 145.706 37.627C145.706 37.873 145.686 38.0605 145.645 38.1895C145.609 38.3184 145.554 38.4062 145.478 38.4531C145.401 38.5 145.293 38.5234 145.152 38.5234H141.865C141.725 38.5234 141.616 38.5 141.54 38.4531C141.464 38.4062 141.405 38.3184 141.364 38.1895C141.329 38.0605 141.312 37.873 141.312 37.627C141.312 37.3809 141.329 37.1934 141.364 37.0645C141.405 36.9355 141.464 36.8477 141.54 36.8008C141.616 36.748 141.725 36.7217 141.865 36.7217H142.278V33.5928C142.278 33.1357 142.199 32.79 142.041 32.5557C141.883 32.3213 141.619 32.2041 141.25 32.2041C140.91 32.2041 140.588 32.3477 140.283 32.6348C139.979 32.916 139.732 33.2939 139.545 33.7686C139.363 34.2432 139.272 34.75 139.272 35.2891V36.7217H139.686C139.826 36.7217 139.935 36.748 140.011 36.8008C140.087 36.8477 140.143 36.9355 140.178 37.0645C140.219 37.1934 140.239 37.3809 140.239 37.627C140.239 37.873 140.219 38.0605 140.178 38.1895C140.143 38.3184 140.087 38.4062 140.011 38.4531C139.935 38.5 139.826 38.5234 139.686 38.5234H136.398C136.258 38.5234 136.149 38.5 136.073 38.4531C135.997 38.4062 135.938 38.3184 135.897 38.1895C135.862 38.0605 135.845 37.873 135.845 37.627C135.845 37.3809 135.862 37.1934 135.897 37.0645C135.938 36.9355 135.997 36.8477 136.073 36.8008C136.149 36.748 136.258 36.7217 136.398 36.7217H137.075V32.2041H136.223C136.082 32.2041 135.974 32.1807 135.897 32.1338C135.821 32.0869 135.763 31.999 135.722 31.8701C135.687 31.7412 135.669 31.5537 135.669 31.3076C135.669 31.0615 135.687 30.874 135.722 30.7451C135.763 30.6162 135.821 30.5283 135.897 30.4814C135.974 30.4287 136.082 30.4023 136.223 30.4023H138.367C138.566 30.4023 138.707 30.4463 138.789 30.5342C138.877 30.6162 138.921 30.7568 138.921 30.9561V32.2305C139.694 30.8828 140.661 30.209 141.821 30.209ZM154.557 26.9922C154.756 26.9922 154.896 27.0361 154.979 27.124C155.066 27.2061 155.11 27.3467 155.11 27.5459V36.7217H155.875C156.016 36.7217 156.124 36.7451 156.2 36.792C156.276 36.8389 156.332 36.9268 156.367 37.0557C156.408 37.1846 156.429 37.3721 156.429 37.6182C156.429 37.8643 156.408 38.0518 156.367 38.1807C156.332 38.3096 156.276 38.4004 156.2 38.4531C156.124 38.5 156.016 38.5234 155.875 38.5234H153.818C153.619 38.5234 153.476 38.4824 153.388 38.4004C153.306 38.3125 153.265 38.1689 153.265 37.9697V37.2314C152.96 37.7002 152.579 38.0664 152.122 38.3301C151.665 38.5879 151.158 38.7168 150.602 38.7168C149.834 38.7168 149.163 38.5293 148.589 38.1543C148.015 37.7793 147.575 37.2695 147.271 36.625C146.966 35.9805 146.813 35.2598 146.813 34.4629C146.813 33.666 146.966 32.9453 147.271 32.3008C147.575 31.6562 148.015 31.1465 148.589 30.7715C149.163 30.3965 149.834 30.209 150.602 30.209C151.059 30.209 151.483 30.2998 151.876 30.4814C152.269 30.6572 152.614 30.9121 152.913 31.2461V28.7939H151.621C151.48 28.7939 151.372 28.7705 151.296 28.7236C151.22 28.6768 151.161 28.5889 151.12 28.46C151.085 28.3311 151.067 28.1436 151.067 27.8975C151.067 27.6514 151.085 27.4639 151.12 27.335C151.161 27.2061 151.22 27.1182 151.296 27.0713C151.372 27.0186 151.48 26.9922 151.621 26.9922H154.557ZM150.953 32.2041C150.59 32.2041 150.273 32.2979 150.004 32.4854C149.734 32.667 149.526 32.9277 149.38 33.2676C149.239 33.6074 149.169 34.0059 149.169 34.4629C149.169 34.9199 149.239 35.3184 149.38 35.6582C149.526 35.998 149.734 36.2617 150.004 36.4492C150.273 36.6309 150.59 36.7217 150.953 36.7217C151.328 36.7217 151.668 36.6338 151.973 36.458C152.277 36.2822 152.521 36.0244 152.702 35.6846C152.884 35.3389 152.975 34.9316 152.975 34.4629C152.975 33.9941 152.884 33.5898 152.702 33.25C152.521 32.9043 152.277 32.6436 151.973 32.4678C151.668 32.292 151.328 32.2041 150.953 32.2041ZM162.273 30.209C163.164 30.209 163.923 30.4023 164.55 30.7891C165.177 31.1699 165.648 31.7031 165.965 32.3887C166.287 33.0684 166.448 33.8477 166.448 34.7266C166.448 34.9258 166.404 35.0664 166.316 35.1484C166.234 35.2305 166.094 35.2715 165.895 35.2715H160.252C160.363 35.7402 160.601 36.1006 160.964 36.3525C161.333 36.5986 161.799 36.7217 162.361 36.7217C163.27 36.7217 164.254 36.5605 165.314 36.2383C165.385 36.2148 165.455 36.2031 165.525 36.2031C165.654 36.2031 165.766 36.2617 165.859 36.3789C165.953 36.4961 166.038 36.6953 166.114 36.9766C166.173 37.1934 166.202 37.3779 166.202 37.5303C166.202 37.6826 166.167 37.8027 166.097 37.8906C166.032 37.9727 165.924 38.04 165.771 38.0928C165.186 38.2861 164.588 38.4385 163.979 38.5498C163.369 38.6611 162.771 38.7168 162.186 38.7168C161.295 38.7168 160.527 38.5352 159.883 38.1719C159.238 37.8086 158.746 37.3076 158.406 36.6689C158.072 36.0244 157.905 35.2891 157.905 34.4629C157.905 33.6426 158.081 32.9102 158.433 32.2656C158.784 31.6211 159.291 31.1172 159.953 30.7539C160.615 30.3906 161.389 30.209 162.273 30.209ZM162.273 32.2041C161.201 32.2041 160.539 32.6553 160.287 33.5576H164.154C164.055 33.1299 163.841 32.7988 163.513 32.5645C163.19 32.3242 162.777 32.2041 162.273 32.2041ZM173.699 30.209C174.467 30.209 175.138 30.3965 175.712 30.7715C176.286 31.1465 176.726 31.6562 177.03 32.3008C177.335 32.9453 177.487 33.666 177.487 34.4629C177.487 35.2598 177.335 35.9805 177.03 36.625C176.726 37.2695 176.286 37.7793 175.712 38.1543C175.138 38.5293 174.467 38.7168 173.699 38.7168C173.242 38.7168 172.817 38.6289 172.425 38.4531C172.032 38.2715 171.687 38.0137 171.388 37.6797V40.1318H172.855C172.996 40.1318 173.104 40.1553 173.181 40.2021C173.257 40.249 173.312 40.3369 173.348 40.4658C173.389 40.5947 173.409 40.7822 173.409 41.0283C173.409 41.2744 173.389 41.4619 173.348 41.5908C173.312 41.7197 173.257 41.8076 173.181 41.8545C173.104 41.9072 172.996 41.9336 172.855 41.9336H168.426C168.285 41.9336 168.177 41.9102 168.101 41.8633C168.024 41.8164 167.966 41.7285 167.925 41.5996C167.89 41.4707 167.872 41.2832 167.872 41.0371C167.872 40.791 167.89 40.6035 167.925 40.4746C167.966 40.3457 168.024 40.2549 168.101 40.2021C168.177 40.1553 168.285 40.1318 168.426 40.1318H169.19V32.2041H168.426C168.285 32.2041 168.177 32.1807 168.101 32.1338C168.024 32.0869 167.966 31.999 167.925 31.8701C167.89 31.7412 167.872 31.5537 167.872 31.3076C167.872 31.0615 167.89 30.874 167.925 30.7451C167.966 30.6162 168.024 30.5283 168.101 30.4814C168.177 30.4287 168.285 30.4023 168.426 30.4023H170.482C170.682 30.4023 170.822 30.4463 170.904 30.5342C170.992 30.6162 171.036 30.7568 171.036 30.9561V31.6943C171.341 31.2256 171.722 30.8623 172.179 30.6045C172.636 30.3408 173.143 30.209 173.699 30.209ZM173.348 32.2041C172.973 32.2041 172.633 32.292 172.328 32.4678C172.023 32.6436 171.78 32.9043 171.599 33.25C171.417 33.5898 171.326 33.9941 171.326 34.4629C171.326 34.9316 171.417 35.3389 171.599 35.6846C171.78 36.0244 172.023 36.2822 172.328 36.458C172.633 36.6338 172.973 36.7217 173.348 36.7217C173.711 36.7217 174.027 36.6309 174.297 36.4492C174.566 36.2617 174.771 35.998 174.912 35.6582C175.059 35.3184 175.132 34.9199 175.132 34.4629C175.132 34.0059 175.059 33.6074 174.912 33.2676C174.771 32.9277 174.566 32.667 174.297 32.4854C174.027 32.2979 173.711 32.2041 173.348 32.2041ZM183.859 30.209C184.75 30.209 185.509 30.4023 186.136 30.7891C186.763 31.1699 187.234 31.7031 187.551 32.3887C187.873 33.0684 188.034 33.8477 188.034 34.7266C188.034 34.9258 187.99 35.0664 187.902 35.1484C187.82 35.2305 187.68 35.2715 187.48 35.2715H181.838C181.949 35.7402 182.187 36.1006 182.55 36.3525C182.919 36.5986 183.385 36.7217 183.947 36.7217C184.855 36.7217 185.84 36.5605 186.9 36.2383C186.971 36.2148 187.041 36.2031 187.111 36.2031C187.24 36.2031 187.352 36.2617 187.445 36.3789C187.539 36.4961 187.624 36.6953 187.7 36.9766C187.759 37.1934 187.788 37.3779 187.788 37.5303C187.788 37.6826 187.753 37.8027 187.683 37.8906C187.618 37.9727 187.51 38.04 187.357 38.0928C186.771 38.2861 186.174 38.4385 185.564 38.5498C184.955 38.6611 184.357 38.7168 183.771 38.7168C182.881 38.7168 182.113 38.5352 181.469 38.1719C180.824 37.8086 180.332 37.3076 179.992 36.6689C179.658 36.0244 179.491 35.2891 179.491 34.4629C179.491 33.6426 179.667 32.9102 180.019 32.2656C180.37 31.6211 180.877 31.1172 181.539 30.7539C182.201 30.3906 182.975 30.209 183.859 30.209ZM183.859 32.2041C182.787 32.2041 182.125 32.6553 181.873 33.5576H185.74C185.641 33.1299 185.427 32.7988 185.099 32.5645C184.776 32.3242 184.363 32.2041 183.859 32.2041ZM195.786 30.209C196.319 30.209 196.785 30.3262 197.184 30.5605C197.588 30.7949 197.898 31.1289 198.115 31.5625C198.332 31.9902 198.44 32.4941 198.44 33.0742V36.7217H199.117C199.258 36.7217 199.366 36.748 199.442 36.8008C199.519 36.8477 199.574 36.9355 199.609 37.0645C199.65 37.1934 199.671 37.3809 199.671 37.627C199.671 37.873 199.65 38.0605 199.609 38.1895C199.574 38.3184 199.519 38.4062 199.442 38.4531C199.366 38.5 199.258 38.5234 199.117 38.5234H195.83C195.689 38.5234 195.581 38.5 195.505 38.4531C195.429 38.4062 195.37 38.3184 195.329 38.1895C195.294 38.0605 195.276 37.873 195.276 37.627C195.276 37.3809 195.294 37.1934 195.329 37.0645C195.37 36.9355 195.429 36.8477 195.505 36.8008C195.581 36.748 195.689 36.7217 195.83 36.7217H196.243V33.5928C196.243 33.1357 196.164 32.79 196.006 32.5557C195.848 32.3213 195.584 32.2041 195.215 32.2041C194.875 32.2041 194.553 32.3477 194.248 32.6348C193.943 32.916 193.697 33.2939 193.51 33.7686C193.328 34.2432 193.237 34.75 193.237 35.2891V36.7217H193.65C193.791 36.7217 193.899 36.748 193.976 36.8008C194.052 36.8477 194.107 36.9355 194.143 37.0645C194.184 37.1934 194.204 37.3809 194.204 37.627C194.204 37.873 194.184 38.0605 194.143 38.1895C194.107 38.3184 194.052 38.4062 193.976 38.4531C193.899 38.5 193.791 38.5234 193.65 38.5234H190.363C190.223 38.5234 190.114 38.5 190.038 38.4531C189.962 38.4062 189.903 38.3184 189.862 38.1895C189.827 38.0605 189.81 37.873 189.81 37.627C189.81 37.3809 189.827 37.1934 189.862 37.0645C189.903 36.9355 189.962 36.8477 190.038 36.8008C190.114 36.748 190.223 36.7217 190.363 36.7217H191.04V32.2041H190.188C190.047 32.2041 189.938 32.1807 189.862 32.1338C189.786 32.0869 189.728 31.999 189.687 31.8701C189.651 31.7412 189.634 31.5537 189.634 31.3076C189.634 31.0615 189.651 30.874 189.687 30.7451C189.728 30.6162 189.786 30.5283 189.862 30.4814C189.938 30.4287 190.047 30.4023 190.188 30.4023H192.332C192.531 30.4023 192.672 30.4463 192.754 30.5342C192.842 30.6162 192.886 30.7568 192.886 30.9561V32.2305C193.659 30.8828 194.626 30.209 195.786 30.209ZM208.521 26.9922C208.721 26.9922 208.861 27.0361 208.943 27.124C209.031 27.2061 209.075 27.3467 209.075 27.5459V36.7217H209.84C209.98 36.7217 210.089 36.7451 210.165 36.792C210.241 36.8389 210.297 36.9268 210.332 37.0557C210.373 37.1846 210.394 37.3721 210.394 37.6182C210.394 37.8643 210.373 38.0518 210.332 38.1807C210.297 38.3096 210.241 38.4004 210.165 38.4531C210.089 38.5 209.98 38.5234 209.84 38.5234H207.783C207.584 38.5234 207.44 38.4824 207.353 38.4004C207.271 38.3125 207.229 38.1689 207.229 37.9697V37.2314C206.925 37.7002 206.544 38.0664 206.087 38.3301C205.63 38.5879 205.123 38.7168 204.566 38.7168C203.799 38.7168 203.128 38.5293 202.554 38.1543C201.979 37.7793 201.54 37.2695 201.235 36.625C200.931 35.9805 200.778 35.2598 200.778 34.4629C200.778 33.666 200.931 32.9453 201.235 32.3008C201.54 31.6562 201.979 31.1465 202.554 30.7715C203.128 30.3965 203.799 30.209 204.566 30.209C205.023 30.209 205.448 30.2998 205.841 30.4814C206.233 30.6572 206.579 30.9121 206.878 31.2461V28.7939H205.586C205.445 28.7939 205.337 28.7705 205.261 28.7236C205.185 28.6768 205.126 28.5889 205.085 28.46C205.05 28.3311 205.032 28.1436 205.032 27.8975C205.032 27.6514 205.05 27.4639 205.085 27.335C205.126 27.2061 205.185 27.1182 205.261 27.0713C205.337 27.0186 205.445 26.9922 205.586 26.9922H208.521ZM204.918 32.2041C204.555 32.2041 204.238 32.2979 203.969 32.4854C203.699 32.667 203.491 32.9277 203.345 33.2676C203.204 33.6074 203.134 34.0059 203.134 34.4629C203.134 34.9199 203.204 35.3184 203.345 35.6582C203.491 35.998 203.699 36.2617 203.969 36.4492C204.238 36.6309 204.555 36.7217 204.918 36.7217C205.293 36.7217 205.633 36.6338 205.938 36.458C206.242 36.2822 206.485 36.0244 206.667 35.6846C206.849 35.3389 206.939 34.9316 206.939 34.4629C206.939 33.9941 206.849 33.5898 206.667 33.25C206.485 32.9043 206.242 32.6436 205.938 32.4678C205.633 32.292 205.293 32.2041 204.918 32.2041ZM216.238 30.209C217.129 30.209 217.888 30.4023 218.515 30.7891C219.142 31.1699 219.613 31.7031 219.93 32.3887C220.252 33.0684 220.413 33.8477 220.413 34.7266C220.413 34.9258 220.369 35.0664 220.281 35.1484C220.199 35.2305 220.059 35.2715 219.859 35.2715H214.217C214.328 35.7402 214.565 36.1006 214.929 36.3525C215.298 36.5986 215.764 36.7217 216.326 36.7217C217.234 36.7217 218.219 36.5605 219.279 36.2383C219.35 36.2148 219.42 36.2031 219.49 36.2031C219.619 36.2031 219.73 36.2617 219.824 36.3789C219.918 36.4961 220.003 36.6953 220.079 36.9766C220.138 37.1934 220.167 37.3779 220.167 37.5303C220.167 37.6826 220.132 37.8027 220.062 37.8906C219.997 37.9727 219.889 38.04 219.736 38.0928C219.15 38.2861 218.553 38.4385 217.943 38.5498C217.334 38.6611 216.736 38.7168 216.15 38.7168C215.26 38.7168 214.492 38.5352 213.848 38.1719C213.203 37.8086 212.711 37.3076 212.371 36.6689C212.037 36.0244 211.87 35.2891 211.87 34.4629C211.87 33.6426 212.046 32.9102 212.397 32.2656C212.749 31.6211 213.256 31.1172 213.918 30.7539C214.58 30.3906 215.354 30.209 216.238 30.209ZM216.238 32.2041C215.166 32.2041 214.504 32.6553 214.252 33.5576H218.119C218.02 33.1299 217.806 32.7988 217.478 32.5645C217.155 32.3242 216.742 32.2041 216.238 32.2041ZM228.165 30.209C228.698 30.209 229.164 30.3262 229.562 30.5605C229.967 30.7949 230.277 31.1289 230.494 31.5625C230.711 31.9902 230.819 32.4941 230.819 33.0742V36.7217H231.496C231.637 36.7217 231.745 36.748 231.821 36.8008C231.897 36.8477 231.953 36.9355 231.988 37.0645C232.029 37.1934 232.05 37.3809 232.05 37.627C232.05 37.873 232.029 38.0605 231.988 38.1895C231.953 38.3184 231.897 38.4062 231.821 38.4531C231.745 38.5 231.637 38.5234 231.496 38.5234H228.209C228.068 38.5234 227.96 38.5 227.884 38.4531C227.808 38.4062 227.749 38.3184 227.708 38.1895C227.673 38.0605 227.655 37.873 227.655 37.627C227.655 37.3809 227.673 37.1934 227.708 37.0645C227.749 36.9355 227.808 36.8477 227.884 36.8008C227.96 36.748 228.068 36.7217 228.209 36.7217H228.622V33.5928C228.622 33.1357 228.543 32.79 228.385 32.5557C228.227 32.3213 227.963 32.2041 227.594 32.2041C227.254 32.2041 226.932 32.3477 226.627 32.6348C226.322 32.916 226.076 33.2939 225.889 33.7686C225.707 34.2432 225.616 34.75 225.616 35.2891V36.7217H226.029C226.17 36.7217 226.278 36.748 226.354 36.8008C226.431 36.8477 226.486 36.9355 226.521 37.0645C226.562 37.1934 226.583 37.3809 226.583 37.627C226.583 37.873 226.562 38.0605 226.521 38.1895C226.486 38.3184 226.431 38.4062 226.354 38.4531C226.278 38.5 226.17 38.5234 226.029 38.5234H222.742C222.602 38.5234 222.493 38.5 222.417 38.4531C222.341 38.4062 222.282 38.3184 222.241 38.1895C222.206 38.0605 222.188 37.873 222.188 37.627C222.188 37.3809 222.206 37.1934 222.241 37.0645C222.282 36.9355 222.341 36.8477 222.417 36.8008C222.493 36.748 222.602 36.7217 222.742 36.7217H223.419V32.2041H222.566C222.426 32.2041 222.317 32.1807 222.241 32.1338C222.165 32.0869 222.106 31.999 222.065 31.8701C222.03 31.7412 222.013 31.5537 222.013 31.3076C222.013 31.0615 222.03 30.874 222.065 30.7451C222.106 30.6162 222.165 30.5283 222.241 30.4814C222.317 30.4287 222.426 30.4023 222.566 30.4023H224.711C224.91 30.4023 225.051 30.4463 225.133 30.5342C225.221 30.6162 225.265 30.7568 225.265 30.9561V32.2305C226.038 30.8828 227.005 30.209 228.165 30.209ZM236.567 27.8975C236.843 27.8975 237.054 27.918 237.2 27.959C237.353 27.9941 237.458 28.0498 237.517 28.126C237.575 28.2021 237.604 28.3105 237.604 28.4512V30.9297H240.865C241.07 30.9297 241.214 30.9971 241.296 31.1318C241.378 31.2666 241.419 31.5156 241.419 31.8789C241.419 32.2422 241.378 32.4912 241.296 32.626C241.214 32.7549 241.07 32.8193 240.865 32.8193H237.604V35.2627C237.604 36.2354 237.982 36.7217 238.738 36.7217C239.008 36.7217 239.321 36.6631 239.679 36.5459C240.042 36.4229 240.464 36.2529 240.944 36.0361C241.073 35.9834 241.176 35.957 241.252 35.957C241.375 35.957 241.489 36.0098 241.595 36.1152C241.7 36.2148 241.8 36.3818 241.894 36.6162C241.999 36.8799 242.052 37.0938 242.052 37.2578C242.052 37.3867 242.02 37.4951 241.955 37.583C241.896 37.665 241.806 37.7383 241.683 37.8027C240.476 38.4121 239.43 38.7168 238.545 38.7168C237.525 38.7168 236.746 38.4326 236.207 37.8643C235.674 37.2959 235.407 36.4668 235.407 35.377V32.8193H233.711C233.506 32.8193 233.362 32.7549 233.28 32.626C233.198 32.4912 233.157 32.2422 233.157 31.8789C233.157 31.5156 233.198 31.2666 233.28 31.1318C233.362 30.9971 233.506 30.9297 233.711 30.9297H235.407V28.4512C235.407 28.252 235.495 28.1113 235.671 28.0293C235.853 27.9414 236.151 27.8975 236.567 27.8975ZM134.79 51.4023C134.931 51.4023 135.039 51.4287 135.115 51.4814C135.191 51.5283 135.247 51.6162 135.282 51.7451C135.323 51.874 135.344 52.0615 135.344 52.3076C135.344 52.5537 135.323 52.7412 135.282 52.8701C135.247 52.999 135.191 53.0869 135.115 53.1338C135.039 53.1807 134.931 53.2041 134.79 53.2041H134.43L133.146 59.1455C133.1 59.3564 132.997 59.5029 132.839 59.585C132.687 59.6729 132.435 59.7168 132.083 59.7168C131.743 59.7168 131.491 59.6729 131.327 59.585C131.163 59.4971 131.043 59.3506 130.967 59.1455L129.736 56.0254L128.488 59.1455C128.406 59.3506 128.283 59.4971 128.119 59.585C127.955 59.6729 127.7 59.7168 127.354 59.7168C127.003 59.7168 126.751 59.6729 126.599 59.585C126.452 59.5029 126.355 59.3564 126.309 59.1455L125.052 53.2041H124.753C124.612 53.2041 124.504 53.1807 124.428 53.1338C124.352 53.0869 124.296 52.999 124.261 52.8701C124.22 52.7412 124.199 52.5537 124.199 52.3076C124.199 52.0615 124.22 51.874 124.261 51.7451C124.296 51.6162 124.352 51.5283 124.428 51.4814C124.504 51.4287 124.612 51.4023 124.753 51.4023H127.776C127.917 51.4023 128.025 51.4287 128.102 51.4814C128.178 51.5283 128.233 51.6162 128.269 51.7451C128.31 51.874 128.33 52.0615 128.33 52.3076C128.33 52.5537 128.31 52.7412 128.269 52.8701C128.233 52.999 128.178 53.0869 128.102 53.1338C128.025 53.1807 127.917 53.2041 127.776 53.2041H127.029L127.688 56.6143L128.901 53.6348C128.966 53.4707 129.062 53.3477 129.191 53.2656C129.32 53.1777 129.505 53.1338 129.745 53.1338C129.997 53.1338 130.185 53.1689 130.308 53.2393C130.437 53.3096 130.533 53.4209 130.598 53.5732L131.802 56.6143L132.487 53.2041H131.854C131.714 53.2041 131.605 53.1807 131.529 53.1338C131.453 53.0869 131.395 52.999 131.354 52.8701C131.318 52.7412 131.301 52.5537 131.301 52.3076C131.301 52.0615 131.318 51.874 131.354 51.7451C131.395 51.6162 131.453 51.5283 131.529 51.4814C131.605 51.4287 131.714 51.4023 131.854 51.4023H134.79ZM143.315 51.209C143.813 51.209 144.282 51.373 144.722 51.7012C144.979 51.8887 145.108 52.1348 145.108 52.4395C145.108 52.6328 145.056 52.8613 144.95 53.125C144.845 53.3887 144.725 53.5879 144.59 53.7227C144.461 53.8574 144.323 53.9248 144.177 53.9248C144.095 53.9248 144.007 53.9014 143.913 53.8545C143.585 53.6729 143.245 53.582 142.894 53.582C142.442 53.582 142.021 53.7256 141.628 54.0127C141.235 54.2998 140.919 54.6953 140.679 55.1992C140.444 55.7031 140.327 56.2656 140.327 56.8867V57.7217H142.85C142.99 57.7217 143.099 57.748 143.175 57.8008C143.251 57.8477 143.307 57.9355 143.342 58.0645C143.383 58.1934 143.403 58.3809 143.403 58.627C143.403 58.873 143.383 59.0605 143.342 59.1895C143.307 59.3184 143.251 59.4062 143.175 59.4531C143.099 59.5 142.99 59.5234 142.85 59.5234H136.838C136.697 59.5234 136.589 59.5 136.513 59.4531C136.437 59.4062 136.378 59.3184 136.337 59.1895C136.302 59.0605 136.284 58.873 136.284 58.627C136.284 58.3809 136.302 58.1934 136.337 58.0645C136.378 57.9355 136.437 57.8477 136.513 57.8008C136.589 57.748 136.697 57.7217 136.838 57.7217H138.13V53.2041H137.102C136.961 53.2041 136.853 53.1807 136.776 53.1338C136.7 53.0869 136.642 52.999 136.601 52.8701C136.565 52.7412 136.548 52.5537 136.548 52.3076C136.548 52.0615 136.565 51.874 136.601 51.7451C136.642 51.6162 136.7 51.5283 136.776 51.4814C136.853 51.4287 136.961 51.4023 137.102 51.4023H139.51C139.709 51.4023 139.85 51.4463 139.932 51.5342C140.02 51.6162 140.063 51.7568 140.063 51.9561V53.8633C140.503 53.0137 141.007 52.3604 141.575 51.9033C142.149 51.4404 142.729 51.209 143.315 51.209ZM152.025 51.4023C152.225 51.4023 152.365 51.4463 152.447 51.5342C152.535 51.6162 152.579 51.7568 152.579 51.9561V57.7217H155.049C155.189 57.7217 155.298 57.748 155.374 57.8008C155.45 57.8477 155.506 57.9355 155.541 58.0645C155.582 58.1934 155.603 58.3809 155.603 58.627C155.603 58.873 155.582 59.0605 155.541 59.1895C155.506 59.3184 155.45 59.4062 155.374 59.4531C155.298 59.5 155.189 59.5234 155.049 59.5234H147.982C147.842 59.5234 147.733 59.5 147.657 59.4531C147.581 59.4062 147.522 59.3184 147.481 59.1895C147.446 59.0605 147.429 58.873 147.429 58.627C147.429 58.3809 147.446 58.1934 147.481 58.0645C147.522 57.9355 147.581 57.8477 147.657 57.8008C147.733 57.748 147.842 57.7217 147.982 57.7217H150.382V53.2041H148.51C148.369 53.2041 148.261 53.1807 148.185 53.1338C148.108 53.0869 148.05 52.999 148.009 52.8701C147.974 52.7412 147.956 52.5537 147.956 52.3076C147.956 52.0615 147.974 51.874 148.009 51.7451C148.05 51.6162 148.108 51.5283 148.185 51.4814C148.261 51.4287 148.369 51.4023 148.51 51.4023H152.025ZM151.454 47.5439C151.87 47.5439 152.16 47.5879 152.324 47.6758C152.494 47.7578 152.579 47.8984 152.579 48.0977V49.5391C152.579 49.7383 152.5 49.8818 152.342 49.9697C152.189 50.0518 151.908 50.0928 151.498 50.0928C151.088 50.0928 150.798 50.0518 150.628 49.9697C150.464 49.8818 150.382 49.7383 150.382 49.5391V48.0977C150.382 47.8926 150.458 47.749 150.61 47.667C150.763 47.585 151.044 47.5439 151.454 47.5439ZM161.017 48.8975C161.292 48.8975 161.503 48.918 161.649 48.959C161.802 48.9941 161.907 49.0498 161.966 49.126C162.024 49.2021 162.054 49.3105 162.054 49.4512V51.9297H165.314C165.52 51.9297 165.663 51.9971 165.745 52.1318C165.827 52.2666 165.868 52.5156 165.868 52.8789C165.868 53.2422 165.827 53.4912 165.745 53.626C165.663 53.7549 165.52 53.8193 165.314 53.8193H162.054V56.2627C162.054 57.2354 162.432 57.7217 163.188 57.7217C163.457 57.7217 163.771 57.6631 164.128 57.5459C164.491 57.4229 164.913 57.2529 165.394 57.0361C165.522 56.9834 165.625 56.957 165.701 56.957C165.824 56.957 165.938 57.0098 166.044 57.1152C166.149 57.2148 166.249 57.3818 166.343 57.6162C166.448 57.8799 166.501 58.0938 166.501 58.2578C166.501 58.3867 166.469 58.4951 166.404 58.583C166.346 58.665 166.255 58.7383 166.132 58.8027C164.925 59.4121 163.879 59.7168 162.994 59.7168C161.975 59.7168 161.195 59.4326 160.656 58.8643C160.123 58.2959 159.856 57.4668 159.856 56.377V53.8193H158.16C157.955 53.8193 157.812 53.7549 157.729 53.626C157.647 53.4912 157.606 53.2422 157.606 52.8789C157.606 52.5156 157.647 52.2666 157.729 52.1318C157.812 51.9971 157.955 51.9297 158.16 51.9297H159.856V49.4512C159.856 49.252 159.944 49.1113 160.12 49.0293C160.302 48.9414 160.601 48.8975 161.017 48.8975ZM173.066 51.209C173.957 51.209 174.716 51.4023 175.343 51.7891C175.97 52.1699 176.441 52.7031 176.758 53.3887C177.08 54.0684 177.241 54.8477 177.241 55.7266C177.241 55.9258 177.197 56.0664 177.109 56.1484C177.027 56.2305 176.887 56.2715 176.688 56.2715H171.045C171.156 56.7402 171.394 57.1006 171.757 57.3525C172.126 57.5986 172.592 57.7217 173.154 57.7217C174.062 57.7217 175.047 57.5605 176.107 57.2383C176.178 57.2148 176.248 57.2031 176.318 57.2031C176.447 57.2031 176.559 57.2617 176.652 57.3789C176.746 57.4961 176.831 57.6953 176.907 57.9766C176.966 58.1934 176.995 58.3779 176.995 58.5303C176.995 58.6826 176.96 58.8027 176.89 58.8906C176.825 58.9727 176.717 59.04 176.564 59.0928C175.979 59.2861 175.381 59.4385 174.771 59.5498C174.162 59.6611 173.564 59.7168 172.979 59.7168C172.088 59.7168 171.32 59.5352 170.676 59.1719C170.031 58.8086 169.539 58.3076 169.199 57.6689C168.865 57.0244 168.698 56.2891 168.698 55.4629C168.698 54.6426 168.874 53.9102 169.226 53.2656C169.577 52.6211 170.084 52.1172 170.746 51.7539C171.408 51.3906 172.182 51.209 173.066 51.209ZM173.066 53.2041C171.994 53.2041 171.332 53.6553 171.08 54.5576H174.947C174.848 54.1299 174.634 53.7988 174.306 53.5645C173.983 53.3242 173.57 53.2041 173.066 53.2041ZM186.487 51.209C186.985 51.209 187.454 51.373 187.894 51.7012C188.151 51.8887 188.28 52.1348 188.28 52.4395C188.28 52.6328 188.228 52.8613 188.122 53.125C188.017 53.3887 187.896 53.5879 187.762 53.7227C187.633 53.8574 187.495 53.9248 187.349 53.9248C187.267 53.9248 187.179 53.9014 187.085 53.8545C186.757 53.6729 186.417 53.582 186.065 53.582C185.614 53.582 185.192 53.7256 184.8 54.0127C184.407 54.2998 184.091 54.6953 183.851 55.1992C183.616 55.7031 183.499 56.2656 183.499 56.8867V57.7217H186.021C186.162 57.7217 186.271 57.748 186.347 57.8008C186.423 57.8477 186.479 57.9355 186.514 58.0645C186.555 58.1934 186.575 58.3809 186.575 58.627C186.575 58.873 186.555 59.0605 186.514 59.1895C186.479 59.3184 186.423 59.4062 186.347 59.4531C186.271 59.5 186.162 59.5234 186.021 59.5234H180.01C179.869 59.5234 179.761 59.5 179.685 59.4531C179.608 59.4062 179.55 59.3184 179.509 59.1895C179.474 59.0605 179.456 58.873 179.456 58.627C179.456 58.3809 179.474 58.1934 179.509 58.0645C179.55 57.9355 179.608 57.8477 179.685 57.8008C179.761 57.748 179.869 57.7217 180.01 57.7217H181.302V53.2041H180.273C180.133 53.2041 180.024 53.1807 179.948 53.1338C179.872 53.0869 179.813 52.999 179.772 52.8701C179.737 52.7412 179.72 52.5537 179.72 52.3076C179.72 52.0615 179.737 51.874 179.772 51.7451C179.813 51.6162 179.872 51.5283 179.948 51.4814C180.024 51.4287 180.133 51.4023 180.273 51.4023H182.682C182.881 51.4023 183.021 51.4463 183.104 51.5342C183.191 51.6162 183.235 51.7568 183.235 51.9561V53.8633C183.675 53.0137 184.179 52.3604 184.747 51.9033C185.321 51.4404 185.901 51.209 186.487 51.209ZM197.096 51.209C197.471 51.209 197.737 51.2529 197.896 51.3408C198.054 51.4229 198.133 51.5635 198.133 51.7627V53.6172C198.133 53.8164 198.068 53.96 197.939 54.0479C197.816 54.1299 197.611 54.1709 197.324 54.1709C197.014 54.1709 196.8 54.1094 196.683 53.9863C196.337 53.6172 195.941 53.3564 195.496 53.2041C195.051 53.0459 194.535 52.9668 193.949 52.9668C193.604 52.9668 193.331 53.0283 193.132 53.1514C192.938 53.2744 192.842 53.4385 192.842 53.6436C192.842 53.8896 193.059 54.0654 193.492 54.1709C193.721 54.2295 194.11 54.2852 194.661 54.3379C195.206 54.4023 195.657 54.4668 196.015 54.5312C196.378 54.5957 196.721 54.6924 197.043 54.8213C197.512 55.0146 197.878 55.2842 198.142 55.6299C198.405 55.9756 198.537 56.4326 198.537 57.001C198.537 57.5576 198.399 58.041 198.124 58.4512C197.854 58.8555 197.456 59.1689 196.929 59.3916C196.407 59.6084 195.777 59.7168 195.039 59.7168C194.225 59.7168 193.469 59.5088 192.771 59.0928V59.1631C192.771 59.3623 192.687 59.5029 192.517 59.585C192.347 59.6729 192.074 59.7168 191.699 59.7168C191.324 59.7168 191.058 59.6729 190.899 59.585C190.741 59.5029 190.662 59.3623 190.662 59.1631V57.2031C190.662 57.0098 190.729 56.8691 190.864 56.7812C191.005 56.6934 191.219 56.6494 191.506 56.6494C191.863 56.6494 192.106 56.7314 192.235 56.8955C192.528 57.2646 192.903 57.5342 193.36 57.7041C193.817 57.874 194.318 57.959 194.863 57.959C195.801 57.959 196.27 57.7158 196.27 57.2295C196.27 57.083 196.202 56.9658 196.067 56.8779C195.938 56.79 195.745 56.7168 195.487 56.6582C195.341 56.6289 195.001 56.5762 194.468 56.5C193.876 56.4297 193.366 56.3506 192.938 56.2627C192.517 56.1689 192.133 56.0254 191.787 55.832C190.979 55.3867 190.574 54.6836 190.574 53.7227C190.574 53.2129 190.712 52.7676 190.987 52.3867C191.263 52.0059 191.641 51.7158 192.121 51.5166C192.607 51.3115 193.152 51.209 193.756 51.209C194.641 51.209 195.426 51.4229 196.111 51.8506V51.7627C196.111 51.5635 196.182 51.4229 196.322 51.3408C196.469 51.2529 196.727 51.209 197.096 51.209Z" fill="#072114"/>
<circle cx="79.375" cy="43.2734" r="35" fill="#58C9AB"/>
<path d="M64.0078 40.7188H74.1785C74.7684 40.7188 75.1416 41.352 74.8559 41.868L73.7066 43.9445C73.4209 44.4605 73.7941 45.0938 74.384 45.0938H84.3552C84.9404 45.0938 85.3141 44.4696 85.0377 43.9538L83.9154 41.8587C83.6391 41.3429 84.0127 40.7188 84.5979 40.7188H94.6328" stroke="#072114" stroke-width="2.5" stroke-miterlimit="10"/>
<path d="M93.0703 37.6719C92.2074 37.6719 91.5078 36.9723 91.5078 36.1094V27.4063C91.5078 26.3017 90.6124 25.4063 89.5078 25.4063H69.0547C67.9501 25.4063 67.0547 26.3017 67.0547 27.4063V36.1484C67.0547 36.9898 66.3726 37.6719 65.5312 37.6719V37.6719C64.6899 37.6719 64.0078 38.3539 64.0078 39.1953V59.1563C64.0078 60.8822 65.407 62.2812 67.1328 62.2812H91.5078C93.2337 62.2812 94.6328 60.8822 94.6328 59.1563V39.2344C94.6328 38.3714 93.9333 37.6719 93.0703 37.6719V37.6719Z" stroke="#072114" stroke-width="2.5" stroke-miterlimit="10"/>
<path d="M95.3359 40.7188H97.3203" stroke="#072114" stroke-width="2.5" stroke-miterlimit="10" stroke-linecap="round"/>
<path d="M61.3203 40.7188H64.9297" stroke="#072114" stroke-width="2.5" stroke-miterlimit="10" stroke-linecap="round"/>
<path d="M72.6016 56.9844C72.6016 57.5367 72.1538 57.9844 71.6016 57.9844H70.4766C69.9243 57.9844 69.4766 57.5367 69.4766 56.9844V55.8594C69.4766 55.3071 69.9243 54.8594 70.4766 54.8594H71.6016C72.1538 54.8594 72.6016 55.3071 72.6016 55.8594V56.9844Z" fill="#072114"/>
<path d="M78.0703 56.9844C78.0703 57.5367 77.6226 57.9844 77.0703 57.9844H75.9453C75.393 57.9844 74.9453 57.5367 74.9453 56.9844V55.8594C74.9453 55.3071 75.393 54.8594 75.9453 54.8594H77.0703C77.6226 54.8594 78.0703 55.3071 78.0703 55.8594V56.9844Z" fill="#072114"/>
<path d="M83.5391 56.9844C83.5391 57.5367 83.0913 57.9844 82.5391 57.9844H81.4141C80.8618 57.9844 80.4141 57.5367 80.4141 56.9844V55.8594C80.4141 55.3071 80.8618 54.8594 81.4141 54.8594H82.5391C83.0913 54.8594 83.5391 55.3071 83.5391 55.8594V56.9844Z" fill="#072114"/>
<path d="M89.0078 56.9844C89.0078 57.5367 88.5601 57.9844 88.0078 57.9844H86.8828C86.3305 57.9844 85.8828 57.5367 85.8828 56.9844V55.8594C85.8828 55.3071 86.3305 54.8594 86.8828 54.8594H88.0078C88.5601 54.8594 89.0078 55.3071 89.0078 55.8594V56.9844Z" fill="#072114"/>
<path d="M72.6016 51.5156C72.6016 52.0679 72.1538 52.5156 71.6016 52.5156H70.4766C69.9243 52.5156 69.4766 52.0679 69.4766 51.5156V50.3906C69.4766 49.8383 69.9243 49.3906 70.4766 49.3906H71.6016C72.1538 49.3906 72.6016 49.8383 72.6016 50.3906V51.5156Z" fill="#072114"/>
<path d="M78.0703 51.5156C78.0703 52.0679 77.6226 52.5156 77.0703 52.5156H75.9453C75.393 52.5156 74.9453 52.0679 74.9453 51.5156V50.3906C74.9453 49.8383 75.393 49.3906 75.9453 49.3906H77.0703C77.6226 49.3906 78.0703 49.8383 78.0703 50.3906V51.5156Z" fill="#072114"/>
<path d="M83.5391 51.5156C83.5391 52.0679 83.0913 52.5156 82.5391 52.5156H81.4141C80.8618 52.5156 80.4141 52.0679 80.4141 51.5156V50.3906C80.4141 49.8383 80.8618 49.3906 81.4141 49.3906H82.5391C83.0913 49.3906 83.5391 49.8383 83.5391 50.3906V51.5156Z" fill="#072114"/>
<path d="M89.0078 51.5156C89.0078 52.0679 88.5601 52.5156 88.0078 52.5156H86.8828C86.3305 52.5156 85.8828 52.0679 85.8828 51.5156V50.3906C85.8828 49.8383 86.3305 49.3906 86.8828 49.3906H88.0078C88.5601 49.3906 89.0078 49.8383 89.0078 50.3906V51.5156Z" fill="#072114"/>
<g id="audience-pill-labels" fill="#072114" font-family="system-ui, -apple-system, 'Segoe UI', Roboto, sans-serif" font-size="15" font-weight="700" letter-spacing="-0.02em">
<text x="122" y="49">Beginner Designers</text>
<text x="122" y="159">Trained Designers</text>
<text x="122" y="269">Active Freelancers</text>
<text x="122" y="379">Career Switchers</text>
</g>
<defs>
<filter id="filter0_b_2184_311" x="24.9631" y="322.619" width="271.152" height="101.816" filterUnits="userSpaceOnUse" color-interpolation-filters="sRGB">
<feFlood flood-opacity="0" result="BackgroundImageFix"/>
<feGaussianBlur in="BackgroundImageFix" stdDeviation="4.01843"/>
<feComposite in2="SourceAlpha" operator="in" result="effect1_backgroundBlur_2184_311"/>
<feBlend mode="normal" in="SourceGraphic" in2="effect1_backgroundBlur_2184_311" result="shape"/>
</filter>
<filter id="filter1_b_2184_311" x="24.9631" y="212.619" width="271.152" height="101.816" filterUnits="userSpaceOnUse" color-interpolation-filters="sRGB">
<feFlood flood-opacity="0" result="BackgroundImageFix"/>
<feGaussianBlur in="BackgroundImageFix" stdDeviation="4.01843"/>
<feComposite in2="SourceAlpha" operator="in" result="effect1_backgroundBlur_2184_311"/>
<feBlend mode="normal" in="SourceGraphic" in2="effect1_backgroundBlur_2184_311" result="shape"/>
</filter>
<filter id="filter2_b_2184_311" x="24.9631" y="102.619" width="271.152" height="101.816" filterUnits="userSpaceOnUse" color-interpolation-filters="sRGB">
<feFlood flood-opacity="0" result="BackgroundImageFix"/>
<feGaussianBlur in="BackgroundImageFix" stdDeviation="4.01843"/>
<feComposite in2="SourceAlpha" operator="in" result="effect1_backgroundBlur_2184_311"/>
<feBlend mode="normal" in="SourceGraphic" in2="effect1_backgroundBlur_2184_311" result="shape"/>
</filter>
<filter id="filter3_b_2184_311" x="24.9631" y="-7.38061" width="271.152" height="101.816" filterUnits="userSpaceOnUse" color-interpolation-filters="sRGB">
<feFlood flood-opacity="0" result="BackgroundImageFix"/>
<feGaussianBlur in="BackgroundImageFix" stdDeviation="4.01843"/>
<feComposite in2="SourceAlpha" operator="in" result="effect1_backgroundBlur_2184_311"/>
<feBlend mode="normal" in="SourceGraphic" in2="effect1_backgroundBlur_2184_311" result="shape"/>
</filter>
<linearGradient id="paint0_linear_2184_311" x1="364.437" y1="380.361" x2="60.8767" y2="378.132" gradientUnits="userSpaceOnUse">
<stop stop-color="white"/>
<stop offset="1" stop-color="white"/>
</linearGradient>
<linearGradient id="paint1_linear_2184_311" x1="342.195" y1="270.361" x2="38.6345" y2="268.132" gradientUnits="userSpaceOnUse">
<stop stop-color="white"/>
<stop offset="1" stop-color="white"/>
</linearGradient>
<linearGradient id="paint2_linear_2184_311" x1="324.805" y1="160.361" x2="21.2439" y2="158.132" gradientUnits="userSpaceOnUse">
<stop stop-color="white"/>
<stop offset="1" stop-color="white"/>
</linearGradient>
<linearGradient id="paint3_linear_2184_311" x1="356.976" y1="50.3609" x2="53.4158" y2="48.1321" gradientUnits="userSpaceOnUse">
<stop stop-color="white"/>
<stop offset="1" stop-color="white"/>
</linearGradient>
</defs>
</svg>
