<svg width="101" height="100" viewBox="0 0 101 100" fill="none" xmlns="http://www.w3.org/2000/svg">
<circle cx="50.6484" cy="50" r="50" fill="#A9EB35"/>
<path fill-rule="evenodd" clip-rule="evenodd" d="M49.6484 41C56.8281 41 62.6484 35.1797 62.6484 28C62.6484 26.6044 62.4285 25.2601 62.0214 24H95.6484C98.4099 24 100.648 26.2386 100.648 29V83C100.648 85.7614 98.4099 88 95.6484 88H5.64844C2.88702 88 0.648438 85.7614 0.648438 83V29C0.648438 26.2386 2.88701 24 5.64844 24H37.2754C36.8684 25.2601 36.6484 26.6044 36.6484 28C36.6484 35.1797 42.4687 41 49.6484 41Z" fill="#072114"/>
<path fill-rule="evenodd" clip-rule="evenodd" d="M10.602 81.921C8.3926 81.921 6.60156 80.13 6.60156 77.9206V27.7767C6.60156 26.6308 7.25277 25.5802 8.2933 25.1003C24.9179 17.4328 37.671 18.5112 50.668 25.5633C63.665 18.5112 76.418 17.4328 93.0426 25.1003C94.0832 25.5802 94.7344 26.6308 94.7344 27.7767V77.9206C94.7344 80.13 92.9433 81.921 90.734 81.921H51.2882H50.0478H10.602Z" fill="white"/>
<path d="M15.2969 66.0202C18.5152 66.0202 18.5152 64 21.7337 64C24.9521 64 24.9521 66.0202 28.1704 66.0202C31.3889 66.0202 31.3889 64 34.6074 64C37.8249 64 37.825 66.0202 41.0427 66.0202" stroke="#072114" stroke-width="3.53536" stroke-miterlimit="10" stroke-linecap="round" stroke-linejoin="round"/>
<path d="M15.2969 52.0202C18.5152 52.0202 18.5152 50 21.7337 50C24.9521 50 24.9521 52.0202 28.1704 52.0202C31.3889 52.0202 31.3889 50 34.6074 50C37.8249 50 37.8249 52.0202 41.0427 52.0202" stroke="#072114" stroke-width="3.53536" stroke-miterlimit="10" stroke-linecap="round" stroke-linejoin="round"/>
<path d="M59.6484 52.0202C62.8668 52.0202 62.8668 50 66.0853 50C69.3036 50 69.3036 52.0202 72.5219 52.0202C75.7405 52.0202 75.7405 50 78.959 50C82.1765 50 82.1765 52.0202 85.3942 52.0202" stroke="#072114" stroke-width="3.53536" stroke-miterlimit="10" stroke-linecap="round" stroke-linejoin="round"/>
<path d="M15.2969 38.0202C18.5152 38.0202 18.5152 36 21.7337 36C24.9521 36 24.9521 38.0202 28.1704 38.0202C31.3889 38.0202 31.3889 36 34.6074 36C37.8249 36 37.8249 38.0202 41.0427 38.0202" stroke="#072114" stroke-width="3.53536" stroke-miterlimit="10" stroke-linecap="round" stroke-linejoin="round"/>
<path d="M59.7422 66.0202C62.9605 66.0202 62.9605 64 66.179 64C69.3974 64 69.3974 66.0202 72.6157 66.0202" stroke="#072114" stroke-width="3.53536" stroke-miterlimit="10" stroke-linecap="round" stroke-linejoin="round"/>
<path d="M84.573 15.2901C83.169 15.6256 84.7366 15.0314 85.619 15.1985C85.0941 15.1066 84.703 15.2213 84.573 15.2901Z" fill="#072114"/>
<path fill-rule="evenodd" clip-rule="evenodd" d="M61.0436 34.9617C61.0436 34.9617 58.744 26.3693 60.5751 18.5239C60.6865 18.0469 61.3119 17.9086 61.9471 17.7682C62.5821 17.6278 63.2268 17.4852 63.3771 16.9999C63.4745 16.6854 63.1978 16.3322 62.8673 15.9103C62.3235 15.2159 61.6338 14.3354 62.2256 13.135C64.2228 9.08436 65.9235 8.36488 69.694 5.23746C69.779 5.16694 69.8646 5.0969 69.9509 5.02736C70.3535 4.74838 71.1129 5.05612 71.6781 5.37816C72.2432 5.70013 72.8169 6.02701 73.254 5.76799C73.5372 5.60012 73.569 5.1526 73.6071 4.61801C73.6108 4.56502 73.6144 4.51062 73.6181 4.45506C73.6715 3.64012 73.7412 2.57561 74.7204 2.06595C74.8947 1.98554 75.071 1.90687 75.2492 1.82999C78.4519 0.448546 87.8144 -0.037288 92.4798 0.00220776L92.4887 0.0023054C92.7077 0.000362102 92.9286 0.000318487 93.1514 0.00220562C94.2176 0.0111736 95.0102 0.991717 94.8078 2.03848C94.3621 4.34336 90.3034 10.1001 87.8906 14.5956C87.7525 14.853 87.6099 15.1117 87.4628 15.3715C86.8005 15.4222 86.1729 15.3034 85.619 15.1985C84.7366 15.0314 83.169 15.6256 84.573 15.2901C84.1675 15.6529 84.4788 16.4251 84.7861 17.1873C85.1763 18.1552 84.7861 19.4679 84.7861 19.4679C84.7861 19.4679 82.9915 22.4909 80.6855 24.438C79.7429 25.2339 79.6319 25.3705 78.7694 25.3103C78.1072 25.3609 77.4796 25.2421 76.9257 25.1372C76.6517 25.0853 76.3114 25.107 76.0149 25.1513C75.3589 25.2495 74.9169 25.4589 75.8797 25.2289C75.4741 25.5917 75.7855 26.3638 76.0928 27.126C76.3976 27.8821 76.6985 28.6284 76.2919 28.9558C67.882 35.7261 61.7193 34.9692 61.7193 34.9692C61.7193 34.9692 61.7082 34.8443 61.6933 34.6091C61.2549 34.8592 61.0436 34.9617 61.0436 34.9617Z" fill="#072114"/>
<path d="M75.8797 25.2289C75.9115 25.1959 75.9582 25.1705 76.0149 25.1513C75.3589 25.2495 74.9169 25.4589 75.8797 25.2289Z" fill="#072114"/>
<path d="M58.9968 43.5322C58.9133 43.5322 58.8287 43.522 58.7442 43.5008C58.1898 43.3617 57.8533 42.7996 57.9922 42.2454C59.6826 35.5069 67.6484 15 83.2907 6.00889C83.6976 5.60768 84.3528 5.61223 84.754 6.0191C85.1552 6.42597 85.1507 7.08118 84.7438 7.48239C71.6849 16 61.6255 36.2671 59.9995 42.7488C59.8817 43.2188 59.4601 43.5322 58.9968 43.5322Z" fill="#A9EB35"/>
<path d="M72.6484 38.0202C75.8668 38.0202 75.8668 36 79.0853 36C82.3036 36 82.3036 38.0202 85.5219 38.0202" stroke="#072114" stroke-width="3.53536" stroke-miterlimit="10" stroke-linecap="round" stroke-linejoin="round"/>
</svg>
