<svg width="367" height="143" viewBox="0 0 367 143" fill="none" xmlns="http://www.w3.org/2000/svg">
<g filter="url(#filter0_b_2186_433)">
<path d="M168.148 109.411C168.148 90.8938 183.159 75.8828 201.677 75.8828H323.945C342.462 75.8828 357.473 90.8938 357.473 109.411V109.411C357.473 127.928 342.462 142.939 323.945 142.939H201.677C183.16 142.939 168.148 127.928 168.148 109.411V109.411Z" fill="url(#paint0_linear_2186_433)"/>
</g>
<path opacity="0" d="M245.257 104.276C245.551 104.276 245.759 104.31 245.883 104.379C246.007 104.443 246.068 104.553 246.068 104.709V106.592C246.068 106.748 246.018 106.86 245.917 106.929C245.821 106.993 245.661 107.025 245.436 107.025C245.285 107.025 245.166 107.007 245.079 106.97C244.992 106.933 244.923 106.878 244.872 106.805C244.657 106.466 244.38 106.205 244.041 106.021C243.702 105.834 243.31 105.74 242.865 105.74C242.531 105.74 242.267 105.824 242.075 105.994C241.887 106.164 241.793 106.383 241.793 106.654C241.793 106.787 241.834 106.897 241.917 106.984C241.999 107.066 242.118 107.14 242.274 107.204C242.476 107.282 242.822 107.362 243.312 107.444C243.789 107.536 244.178 107.623 244.481 107.706C244.783 107.783 245.067 107.905 245.333 108.07C246.066 108.514 246.433 109.232 246.433 110.221C246.433 110.725 246.325 111.165 246.11 111.541C245.899 111.917 245.58 112.21 245.154 112.421C244.728 112.632 244.203 112.737 243.58 112.737C242.815 112.737 242.166 112.506 241.635 112.043V112.304C241.635 112.46 241.578 112.57 241.463 112.634C241.353 112.703 241.154 112.737 240.865 112.737C240.572 112.737 240.363 112.703 240.239 112.634C240.116 112.57 240.054 112.46 240.054 112.304V110.008C240.054 109.852 240.102 109.742 240.198 109.678C240.299 109.61 240.462 109.575 240.686 109.575C240.847 109.575 240.973 109.596 241.064 109.637C241.161 109.678 241.234 109.749 241.284 109.85C241.532 110.322 241.827 110.677 242.171 110.916C242.515 111.154 242.916 111.273 243.374 111.273C243.777 111.273 244.084 111.191 244.295 111.026C244.506 110.861 244.611 110.631 244.611 110.338C244.611 110.155 244.563 110.001 244.467 109.878C244.375 109.749 244.24 109.642 244.061 109.555C243.915 109.481 243.752 109.422 243.573 109.376C243.399 109.33 243.14 109.27 242.797 109.197C242.402 109.115 242.077 109.039 241.82 108.97C241.564 108.902 241.323 108.808 241.099 108.688C240.75 108.505 240.478 108.262 240.281 107.96C240.084 107.653 239.985 107.256 239.985 106.771C239.985 106.285 240.097 105.854 240.322 105.478C240.546 105.098 240.86 104.802 241.264 104.592C241.672 104.381 242.137 104.276 242.659 104.276C243.026 104.276 243.365 104.335 243.676 104.454C243.988 104.573 244.258 104.743 244.487 104.963V104.709C244.487 104.553 244.542 104.443 244.652 104.379C244.767 104.31 244.969 104.276 245.257 104.276ZM251.622 106.083C252.319 106.083 252.929 106.225 253.451 106.509C253.973 106.794 254.374 107.188 254.654 107.692C254.938 108.196 255.08 108.769 255.08 109.41C255.08 110.052 254.938 110.625 254.654 111.129C254.374 111.633 253.973 112.027 253.451 112.311C252.929 112.595 252.319 112.737 251.622 112.737C250.926 112.737 250.316 112.595 249.794 112.311C249.272 112.027 248.868 111.633 248.584 111.129C248.305 110.625 248.165 110.052 248.165 109.41C248.165 108.769 248.305 108.196 248.584 107.692C248.868 107.188 249.272 106.794 249.794 106.509C250.316 106.225 250.926 106.083 251.622 106.083ZM251.622 107.644C251.293 107.644 251.006 107.717 250.763 107.864C250.52 108.006 250.333 108.21 250.2 108.475C250.071 108.741 250.007 109.053 250.007 109.41C250.007 109.768 250.071 110.079 250.2 110.345C250.333 110.611 250.52 110.817 250.763 110.964C251.006 111.106 251.293 111.177 251.622 111.177C251.952 111.177 252.239 111.106 252.482 110.964C252.725 110.817 252.91 110.611 253.039 110.345C253.171 110.079 253.238 109.768 253.238 109.41C253.238 109.053 253.171 108.741 253.039 108.475C252.91 108.21 252.725 108.006 252.482 107.864C252.239 107.717 251.952 107.644 251.622 107.644ZM260.517 103.567C260.673 103.567 260.783 103.602 260.847 103.671C260.916 103.735 260.95 103.845 260.95 104.001V111.177H262.882C262.992 111.177 263.077 111.197 263.136 111.239C263.196 111.275 263.239 111.344 263.267 111.445C263.299 111.546 263.315 111.692 263.315 111.885C263.315 112.077 263.299 112.224 263.267 112.325C263.239 112.426 263.196 112.494 263.136 112.531C263.077 112.568 262.992 112.586 262.882 112.586H257.355C257.245 112.586 257.16 112.568 257.101 112.531C257.041 112.494 256.996 112.426 256.963 112.325C256.936 112.224 256.922 112.077 256.922 111.885C256.922 111.692 256.936 111.546 256.963 111.445C256.996 111.344 257.041 111.275 257.101 111.239C257.16 111.197 257.245 111.177 257.355 111.177H259.232V104.977H257.63C257.52 104.977 257.435 104.958 257.376 104.922C257.316 104.885 257.27 104.816 257.238 104.715C257.211 104.615 257.197 104.468 257.197 104.276C257.197 104.083 257.211 103.936 257.238 103.836C257.27 103.735 257.316 103.666 257.376 103.629C257.435 103.588 257.52 103.567 257.63 103.567H260.517ZM268.505 106.083C269.201 106.083 269.811 106.225 270.333 106.509C270.855 106.794 271.256 107.188 271.536 107.692C271.82 108.196 271.962 108.769 271.962 109.41C271.962 110.052 271.82 110.625 271.536 111.129C271.256 111.633 270.855 112.027 270.333 112.311C269.811 112.595 269.201 112.737 268.505 112.737C267.808 112.737 267.199 112.595 266.676 112.311C266.154 112.027 265.75 111.633 265.466 111.129C265.187 110.625 265.047 110.052 265.047 109.41C265.047 108.769 265.187 108.196 265.466 107.692C265.75 107.188 266.154 106.794 266.676 106.509C267.199 106.225 267.808 106.083 268.505 106.083ZM268.505 107.644C268.175 107.644 267.888 107.717 267.645 107.864C267.402 108.006 267.215 108.21 267.082 108.475C266.953 108.741 266.889 109.053 266.889 109.41C266.889 109.768 266.953 110.079 267.082 110.345C267.215 110.611 267.402 110.817 267.645 110.964C267.888 111.106 268.175 111.177 268.505 111.177C268.835 111.177 269.121 111.106 269.364 110.964C269.607 110.817 269.792 110.611 269.921 110.345C270.053 110.079 270.12 109.768 270.12 109.41C270.12 109.053 270.053 108.741 269.921 108.475C269.792 108.21 269.607 108.006 269.364 107.864C269.121 107.717 268.835 107.644 268.505 107.644ZM277.537 106.083C278.137 106.083 278.662 106.23 279.111 106.523C279.56 106.817 279.904 107.215 280.142 107.719C280.38 108.223 280.499 108.787 280.499 109.41C280.499 110.033 280.38 110.597 280.142 111.101C279.904 111.605 279.56 112.004 279.111 112.297C278.662 112.591 278.137 112.737 277.537 112.737C277.179 112.737 276.847 112.668 276.54 112.531C276.233 112.389 275.963 112.187 275.729 111.926V113.844H276.877C276.987 113.844 277.072 113.862 277.131 113.899C277.191 113.935 277.234 114.004 277.262 114.105C277.294 114.206 277.31 114.353 277.31 114.545C277.31 114.737 277.294 114.884 277.262 114.985C277.234 115.086 277.191 115.154 277.131 115.191C277.072 115.232 276.987 115.253 276.877 115.253H273.412C273.302 115.253 273.218 115.235 273.158 115.198C273.099 115.161 273.053 115.093 273.021 114.992C272.993 114.891 272.979 114.744 272.979 114.552C272.979 114.359 272.993 114.213 273.021 114.112C273.053 114.011 273.099 113.94 273.158 113.899C273.218 113.862 273.302 113.844 273.412 113.844H274.01V107.644H273.412C273.302 107.644 273.218 107.625 273.158 107.589C273.099 107.552 273.053 107.483 273.021 107.382C272.993 107.282 272.979 107.135 272.979 106.943C272.979 106.75 272.993 106.603 273.021 106.503C273.053 106.402 273.099 106.333 273.158 106.296C273.218 106.255 273.302 106.235 273.412 106.235H275.021C275.177 106.235 275.287 106.269 275.351 106.338C275.42 106.402 275.454 106.512 275.454 106.668V107.245C275.692 106.878 275.99 106.594 276.348 106.393C276.705 106.186 277.101 106.083 277.537 106.083ZM277.262 107.644C276.969 107.644 276.703 107.712 276.464 107.85C276.226 107.987 276.036 108.191 275.894 108.462C275.752 108.727 275.681 109.044 275.681 109.41C275.681 109.777 275.752 110.095 275.894 110.366C276.036 110.631 276.226 110.833 276.464 110.971C276.703 111.108 276.969 111.177 277.262 111.177C277.546 111.177 277.793 111.106 278.004 110.964C278.215 110.817 278.375 110.611 278.485 110.345C278.6 110.079 278.657 109.768 278.657 109.41C278.657 109.053 278.6 108.741 278.485 108.475C278.375 108.21 278.215 108.006 278.004 107.864C277.793 107.717 277.546 107.644 277.262 107.644ZM287.538 106.083C287.928 106.083 288.294 106.212 288.638 106.468C288.84 106.615 288.94 106.807 288.94 107.046C288.94 107.197 288.899 107.376 288.817 107.582C288.734 107.788 288.64 107.944 288.535 108.049C288.434 108.155 288.326 108.207 288.212 108.207C288.148 108.207 288.079 108.189 288.006 108.152C287.749 108.01 287.483 107.939 287.208 107.939C286.855 107.939 286.525 108.052 286.218 108.276C285.911 108.501 285.664 108.81 285.476 109.204C285.293 109.598 285.201 110.038 285.201 110.524V111.177H287.174C287.284 111.177 287.369 111.197 287.428 111.239C287.488 111.275 287.531 111.344 287.559 111.445C287.591 111.546 287.607 111.692 287.607 111.885C287.607 112.077 287.591 112.224 287.559 112.325C287.531 112.426 287.488 112.494 287.428 112.531C287.369 112.568 287.284 112.586 287.174 112.586H282.472C282.362 112.586 282.277 112.568 282.218 112.531C282.158 112.494 282.112 112.426 282.08 112.325C282.053 112.224 282.039 112.077 282.039 111.885C282.039 111.692 282.053 111.546 282.08 111.445C282.112 111.344 282.158 111.275 282.218 111.239C282.277 111.197 282.362 111.177 282.472 111.177H283.483V107.644H282.678C282.568 107.644 282.484 107.625 282.424 107.589C282.364 107.552 282.319 107.483 282.287 107.382C282.259 107.282 282.245 107.135 282.245 106.943C282.245 106.75 282.259 106.603 282.287 106.503C282.319 106.402 282.364 106.333 282.424 106.296C282.484 106.255 282.568 106.235 282.678 106.235H284.562C284.718 106.235 284.828 106.269 284.892 106.338C284.96 106.402 284.995 106.512 284.995 106.668V108.159C285.339 107.495 285.733 106.984 286.177 106.626C286.626 106.264 287.08 106.083 287.538 106.083ZM293.924 106.083C294.62 106.083 295.214 106.235 295.704 106.537C296.195 106.835 296.563 107.252 296.811 107.788C297.063 108.32 297.189 108.929 297.189 109.616C297.189 109.772 297.155 109.882 297.086 109.946C297.022 110.011 296.912 110.043 296.756 110.043H292.343C292.43 110.409 292.616 110.691 292.9 110.888C293.188 111.081 293.553 111.177 293.993 111.177C294.703 111.177 295.473 111.051 296.302 110.799C296.357 110.78 296.412 110.771 296.467 110.771C296.568 110.771 296.655 110.817 296.728 110.909C296.802 111 296.868 111.156 296.928 111.376C296.974 111.546 296.997 111.69 296.997 111.809C296.997 111.928 296.969 112.022 296.914 112.091C296.864 112.155 296.779 112.208 296.66 112.249C296.201 112.4 295.734 112.519 295.257 112.607C294.781 112.694 294.313 112.737 293.855 112.737C293.159 112.737 292.558 112.595 292.054 112.311C291.55 112.027 291.165 111.635 290.899 111.136C290.638 110.631 290.508 110.056 290.508 109.41C290.508 108.769 290.645 108.196 290.92 107.692C291.195 107.188 291.591 106.794 292.109 106.509C292.627 106.225 293.232 106.083 293.924 106.083ZM293.924 107.644C293.085 107.644 292.567 107.997 292.37 108.702H295.395C295.317 108.368 295.15 108.109 294.893 107.925C294.641 107.738 294.318 107.644 293.924 107.644ZM303.252 106.083C303.669 106.083 304.033 106.175 304.345 106.358C304.661 106.542 304.904 106.803 305.073 107.142C305.243 107.476 305.328 107.871 305.328 108.324V111.177H305.857C305.967 111.177 306.052 111.197 306.111 111.239C306.171 111.275 306.214 111.344 306.242 111.445C306.274 111.546 306.29 111.692 306.29 111.885C306.29 112.077 306.274 112.224 306.242 112.325C306.214 112.426 306.171 112.494 306.111 112.531C306.052 112.568 305.967 112.586 305.857 112.586H303.286C303.176 112.586 303.091 112.568 303.032 112.531C302.972 112.494 302.926 112.426 302.894 112.325C302.867 112.224 302.853 112.077 302.853 111.885C302.853 111.692 302.867 111.546 302.894 111.445C302.926 111.344 302.972 111.275 303.032 111.239C303.091 111.197 303.176 111.177 303.286 111.177H303.609V108.73C303.609 108.372 303.547 108.102 303.424 107.919C303.3 107.735 303.094 107.644 302.805 107.644C302.539 107.644 302.287 107.756 302.049 107.98C301.81 108.2 301.618 108.496 301.471 108.867C301.329 109.238 301.258 109.635 301.258 110.056V111.177H301.581C301.691 111.177 301.776 111.197 301.836 111.239C301.895 111.275 301.939 111.344 301.966 111.445C301.998 111.546 302.014 111.692 302.014 111.885C302.014 112.077 301.998 112.224 301.966 112.325C301.939 112.426 301.895 112.494 301.836 112.531C301.776 112.568 301.691 112.586 301.581 112.586H299.011C298.901 112.586 298.816 112.568 298.756 112.531C298.697 112.494 298.651 112.426 298.619 112.325C298.591 112.224 298.577 112.077 298.577 111.885C298.577 111.692 298.591 111.546 298.619 111.445C298.651 111.344 298.697 111.275 298.756 111.239C298.816 111.197 298.901 111.177 299.011 111.177H299.54V107.644H298.873C298.763 107.644 298.678 107.625 298.619 107.589C298.559 107.552 298.513 107.483 298.481 107.382C298.454 107.282 298.44 107.135 298.44 106.943C298.44 106.75 298.454 106.603 298.481 106.503C298.513 106.402 298.559 106.333 298.619 106.296C298.678 106.255 298.763 106.235 298.873 106.235H300.55C300.706 106.235 300.816 106.269 300.88 106.338C300.949 106.402 300.983 106.512 300.983 106.668V107.664C301.588 106.61 302.344 106.083 303.252 106.083ZM310.806 106.083C311.503 106.083 312.096 106.235 312.586 106.537C313.077 106.835 313.446 107.252 313.693 107.788C313.945 108.32 314.071 108.929 314.071 109.616C314.071 109.772 314.037 109.882 313.968 109.946C313.904 110.011 313.794 110.043 313.638 110.043H309.225C309.312 110.409 309.498 110.691 309.782 110.888C310.071 111.081 310.435 111.177 310.875 111.177C311.585 111.177 312.355 111.051 313.184 110.799C313.239 110.78 313.294 110.771 313.349 110.771C313.45 110.771 313.537 110.817 313.611 110.909C313.684 111 313.75 111.156 313.81 111.376C313.856 111.546 313.879 111.69 313.879 111.809C313.879 111.928 313.851 112.022 313.796 112.091C313.746 112.155 313.661 112.208 313.542 112.249C313.084 112.4 312.616 112.519 312.14 112.607C311.663 112.694 311.196 112.737 310.737 112.737C310.041 112.737 309.44 112.595 308.936 112.311C308.432 112.027 308.047 111.635 307.782 111.136C307.52 110.631 307.39 110.056 307.39 109.41C307.39 108.769 307.527 108.196 307.802 107.692C308.077 107.188 308.473 106.794 308.991 106.509C309.509 106.225 310.114 106.083 310.806 106.083ZM310.806 107.644C309.967 107.644 309.45 107.997 309.253 108.702H312.277C312.199 108.368 312.032 108.109 311.775 107.925C311.523 107.738 311.2 107.644 310.806 107.644ZM321.591 106.235C321.747 106.235 321.857 106.269 321.921 106.338C321.99 106.402 322.024 106.512 322.024 106.668V111.177H322.553C322.663 111.177 322.748 111.195 322.808 111.232C322.867 111.268 322.911 111.337 322.938 111.438C322.97 111.539 322.986 111.685 322.986 111.878C322.986 112.07 322.97 112.217 322.938 112.318C322.911 112.419 322.867 112.49 322.808 112.531C322.748 112.568 322.663 112.586 322.553 112.586H321.014C320.858 112.586 320.746 112.554 320.677 112.49C320.613 112.421 320.581 112.309 320.581 112.153V111.156C319.976 112.21 319.22 112.737 318.312 112.737C317.895 112.737 317.529 112.646 317.212 112.462C316.901 112.279 316.66 112.02 316.491 111.685C316.321 111.346 316.236 110.95 316.236 110.496V107.644H315.707C315.597 107.644 315.512 107.625 315.453 107.589C315.393 107.547 315.347 107.476 315.315 107.376C315.288 107.275 315.274 107.128 315.274 106.936C315.274 106.743 315.288 106.597 315.315 106.496C315.347 106.395 315.393 106.326 315.453 106.29C315.512 106.253 315.597 106.235 315.707 106.235H317.522C317.678 106.235 317.788 106.269 317.852 106.338C317.92 106.402 317.955 106.512 317.955 106.668V110.091C317.955 110.448 318.017 110.719 318.14 110.902C318.264 111.085 318.47 111.177 318.759 111.177C319.025 111.177 319.277 111.067 319.515 110.847C319.753 110.622 319.944 110.324 320.086 109.953C320.232 109.582 320.306 109.186 320.306 108.764V107.644H319.57C319.46 107.644 319.375 107.625 319.316 107.589C319.256 107.547 319.21 107.476 319.178 107.376C319.151 107.275 319.137 107.128 319.137 106.936C319.137 106.743 319.151 106.597 319.178 106.496C319.21 106.395 319.256 106.326 319.316 106.29C319.375 106.253 319.46 106.235 319.57 106.235H321.591ZM329.743 106.083C330.133 106.083 330.499 106.212 330.843 106.468C331.045 106.615 331.146 106.807 331.146 107.046C331.146 107.197 331.104 107.376 331.022 107.582C330.939 107.788 330.845 107.944 330.74 108.049C330.639 108.155 330.532 108.207 330.417 108.207C330.353 108.207 330.284 108.189 330.211 108.152C329.954 108.01 329.688 107.939 329.413 107.939C329.061 107.939 328.731 108.052 328.424 108.276C328.117 108.501 327.869 108.81 327.681 109.204C327.498 109.598 327.406 110.038 327.406 110.524V111.177H329.379C329.489 111.177 329.574 111.197 329.633 111.239C329.693 111.275 329.736 111.344 329.764 111.445C329.796 111.546 329.812 111.692 329.812 111.885C329.812 112.077 329.796 112.224 329.764 112.325C329.736 112.426 329.693 112.494 329.633 112.531C329.574 112.568 329.489 112.586 329.379 112.586H324.677C324.567 112.586 324.483 112.568 324.423 112.531C324.363 112.494 324.318 112.426 324.286 112.325C324.258 112.224 324.244 112.077 324.244 111.885C324.244 111.692 324.258 111.546 324.286 111.445C324.318 111.344 324.363 111.275 324.423 111.239C324.483 111.197 324.567 111.177 324.677 111.177H325.688V107.644H324.884C324.774 107.644 324.689 107.625 324.629 107.589C324.57 107.552 324.524 107.483 324.492 107.382C324.464 107.282 324.451 107.135 324.451 106.943C324.451 106.75 324.464 106.603 324.492 106.503C324.524 106.402 324.57 106.333 324.629 106.296C324.689 106.255 324.774 106.235 324.884 106.235H326.767C326.923 106.235 327.033 106.269 327.097 106.338C327.166 106.402 327.2 106.512 327.2 106.668V108.159C327.544 107.495 327.938 106.984 328.382 106.626C328.831 106.264 329.285 106.083 329.743 106.083ZM338.04 106.083C338.333 106.083 338.542 106.118 338.666 106.186C338.789 106.251 338.851 106.361 338.851 106.516V107.967C338.851 108.123 338.801 108.235 338.7 108.304C338.604 108.368 338.443 108.4 338.219 108.4C337.976 108.4 337.809 108.352 337.717 108.255C337.447 107.967 337.137 107.763 336.789 107.644C336.441 107.52 336.037 107.458 335.579 107.458C335.309 107.458 335.096 107.506 334.94 107.602C334.789 107.699 334.713 107.827 334.713 107.987C334.713 108.18 334.883 108.317 335.222 108.4C335.4 108.446 335.705 108.489 336.136 108.53C336.562 108.581 336.915 108.631 337.195 108.682C337.479 108.732 337.747 108.808 337.999 108.908C338.365 109.06 338.652 109.27 338.858 109.541C339.064 109.811 339.167 110.169 339.167 110.613C339.167 111.048 339.06 111.427 338.844 111.747C338.633 112.064 338.322 112.309 337.909 112.483C337.502 112.652 337.009 112.737 336.432 112.737C335.795 112.737 335.203 112.574 334.658 112.249V112.304C334.658 112.46 334.592 112.57 334.459 112.634C334.326 112.703 334.113 112.737 333.82 112.737C333.526 112.737 333.318 112.703 333.194 112.634C333.07 112.57 333.008 112.46 333.008 112.304V110.771C333.008 110.62 333.061 110.51 333.167 110.441C333.276 110.373 333.444 110.338 333.668 110.338C333.948 110.338 334.138 110.402 334.239 110.531C334.468 110.819 334.761 111.03 335.119 111.163C335.476 111.296 335.868 111.362 336.294 111.362C337.027 111.362 337.394 111.172 337.394 110.792C337.394 110.677 337.341 110.586 337.236 110.517C337.135 110.448 336.984 110.391 336.782 110.345C336.668 110.322 336.402 110.281 335.985 110.221C335.522 110.166 335.123 110.104 334.789 110.036C334.459 109.962 334.159 109.85 333.888 109.699C333.256 109.351 332.94 108.801 332.94 108.049C332.94 107.651 333.047 107.302 333.263 107.004C333.478 106.707 333.774 106.48 334.149 106.324C334.53 106.164 334.956 106.083 335.428 106.083C336.12 106.083 336.734 106.251 337.27 106.585V106.516C337.27 106.361 337.325 106.251 337.435 106.186C337.55 106.118 337.751 106.083 338.04 106.083Z" fill="#072114"/>
<circle cx="203.764" cy="109.404" r="27.373" fill="#58C9AB"/>
<path d="M203.814 107.543C201.79 107.543 200.148 105.902 200.148 103.877V100.211H207.481V103.877C207.481 105.902 205.839 107.543 203.814 107.543Z" stroke="#072114" stroke-width="1.95522" stroke-miterlimit="10" stroke-linecap="round" stroke-linejoin="round"/>
<path d="M200.147 100.224C198.797 100.224 197.703 99.1297 197.703 97.78V95.3359H205.035C206.385 95.3359 207.479 96.4302 207.479 97.78V100.224" stroke="#072114" stroke-width="1.95522" stroke-miterlimit="10" stroke-linecap="round" stroke-linejoin="round"/>
<path d="M195.258 112.443C195.258 109.743 197.446 107.555 200.146 107.555H207.478C210.178 107.555 212.366 109.743 212.366 112.443" stroke="#072114" stroke-width="1.95522" stroke-miterlimit="10" stroke-linecap="round" stroke-linejoin="round"/>
<path d="M195.264 124.169L192.82 112.438" stroke="#072114" stroke-width="1.95522" stroke-miterlimit="10" stroke-linecap="round" stroke-linejoin="round"/>
<path d="M192.82 112.438H214.817L212.372 124.169" stroke="#072114" stroke-width="1.95522" stroke-miterlimit="10" stroke-linecap="round" stroke-linejoin="round"/>
<path d="M192.82 124.172H214.817" stroke="#072114" stroke-width="1.95522" stroke-miterlimit="10" stroke-linecap="round" stroke-linejoin="round"/>
<circle cx="203.816" cy="119.277" r="1.22201" fill="#072114"/>
<g filter="url(#filter1_b_2186_433)">
<path d="M0 109.411C0 90.8938 15.011 75.8828 33.5281 75.8828H124.892C143.409 75.8828 158.42 90.8938 158.42 109.411V109.411C158.42 127.928 143.409 142.939 124.892 142.939H33.5281C15.0111 142.939 0 127.928 0 109.411V109.411Z" fill="url(#paint1_linear_2186_433)"/>
</g>
<path opacity="0" d="M79.1019 104.427C79.2622 104.427 79.3768 104.461 79.4455 104.53C79.5143 104.599 79.5487 104.713 79.5487 104.874V107.774C79.5487 107.925 79.4845 108.035 79.3562 108.104C79.2325 108.173 79.04 108.207 78.7788 108.207C78.5267 108.207 78.3503 108.175 78.2495 108.111C78.1533 108.042 78.1052 107.93 78.1052 107.774V105.905H76.861V111.177H78.3457C78.4557 111.177 78.5405 111.197 78.6001 111.239C78.6596 111.275 78.7032 111.344 78.7307 111.445C78.7628 111.546 78.7788 111.692 78.7788 111.885C78.7788 112.077 78.7628 112.224 78.7307 112.325C78.7032 112.426 78.6596 112.494 78.6001 112.531C78.5405 112.568 78.4557 112.586 78.3457 112.586H73.6578C73.5478 112.586 73.463 112.568 73.4035 112.531C73.3439 112.494 73.2981 112.426 73.266 112.325C73.2385 112.224 73.2248 112.077 73.2248 111.885C73.2248 111.692 73.2385 111.546 73.266 111.445C73.2981 111.344 73.3439 111.275 73.4035 111.239C73.463 111.197 73.5478 111.177 73.6578 111.177H75.1425V105.905H73.8984V107.774C73.8984 107.925 73.8342 108.035 73.7059 108.104C73.5822 108.173 73.3897 108.207 73.1285 108.207C72.8765 108.207 72.7 108.175 72.5992 108.111C72.503 108.042 72.4549 107.93 72.4549 107.774V104.874C72.4549 104.713 72.4893 104.599 72.558 104.53C72.6313 104.461 72.7459 104.427 72.9017 104.427H79.1019ZM82.9306 103.567C83.0864 103.567 83.1964 103.602 83.2605 103.671C83.3293 103.735 83.3636 103.845 83.3636 104.001V107.341C83.9135 106.503 84.578 106.083 85.357 106.083C85.774 106.083 86.1383 106.175 86.45 106.358C86.7662 106.542 87.009 106.803 87.1786 107.142C87.3481 107.476 87.4329 107.871 87.4329 108.324V111.177H87.9622C88.0722 111.177 88.157 111.197 88.2165 111.239C88.2761 111.275 88.3196 111.344 88.3471 111.445C88.3792 111.546 88.3952 111.692 88.3952 111.885C88.3952 112.077 88.3792 112.224 88.3471 112.325C88.3196 112.426 88.2761 112.494 88.2165 112.531C88.157 112.568 88.0722 112.586 87.9622 112.586H85.3914C85.2814 112.586 85.1966 112.568 85.1371 112.531C85.0775 112.494 85.0317 112.426 84.9996 112.325C84.9721 112.224 84.9583 112.077 84.9583 111.885C84.9583 111.692 84.9721 111.546 84.9996 111.445C85.0317 111.344 85.0775 111.275 85.1371 111.239C85.1966 111.197 85.2814 111.177 85.3914 111.177H85.7145V108.73C85.7145 108.372 85.6526 108.102 85.5289 107.919C85.4051 107.735 85.1989 107.644 84.9102 107.644C84.6444 107.644 84.3924 107.756 84.1541 107.98C83.9158 108.2 83.7233 108.496 83.5767 108.867C83.4346 109.238 83.3636 109.635 83.3636 110.056V111.177H83.6867C83.7967 111.177 83.8814 111.197 83.941 111.239C84.0006 111.275 84.0441 111.344 84.0716 111.445C84.1037 111.546 84.1197 111.692 84.1197 111.885C84.1197 112.077 84.1037 112.224 84.0716 112.325C84.0441 112.426 84.0006 112.494 83.941 112.531C83.8814 112.568 83.7967 112.586 83.6867 112.586H81.1159C81.0059 112.586 80.9211 112.568 80.8616 112.531C80.802 112.494 80.7562 112.426 80.7241 112.325C80.6966 112.224 80.6828 112.077 80.6828 111.885C80.6828 111.692 80.6966 111.546 80.7241 111.445C80.7562 111.344 80.802 111.275 80.8616 111.239C80.9211 111.197 81.0059 111.177 81.1159 111.177H81.6452V104.977H80.9784C80.8684 104.977 80.7837 104.958 80.7241 104.922C80.6645 104.885 80.6187 104.816 80.5866 104.715C80.5591 104.615 80.5454 104.468 80.5454 104.276C80.5454 104.083 80.5591 103.936 80.5866 103.836C80.6187 103.735 80.6645 103.666 80.7241 103.629C80.7837 103.588 80.8684 103.567 80.9784 103.567H82.9306ZM93.4063 106.235C93.5621 106.235 93.672 106.269 93.7362 106.338C93.8049 106.402 93.8393 106.512 93.8393 106.668V111.177H95.7708C95.8808 111.177 95.9656 111.197 96.0252 111.239C96.0848 111.275 96.1283 111.344 96.1558 111.445C96.1879 111.546 96.2039 111.692 96.2039 111.885C96.2039 112.077 96.1879 112.224 96.1558 112.325C96.1283 112.426 96.0848 112.494 96.0252 112.531C95.9656 112.568 95.8808 112.586 95.7708 112.586H90.2443C90.1343 112.586 90.0495 112.568 89.99 112.531C89.9304 112.494 89.8846 112.426 89.8525 112.325C89.825 112.224 89.8113 112.077 89.8113 111.885C89.8113 111.692 89.825 111.546 89.8525 111.445C89.8846 111.344 89.9304 111.275 89.99 111.239C90.0495 111.197 90.1343 111.177 90.2443 111.177H92.1209V107.644H90.6567C90.5468 107.644 90.462 107.625 90.4024 107.589C90.3428 107.552 90.297 107.483 90.2649 107.382C90.2374 107.282 90.2237 107.135 90.2237 106.943C90.2237 106.75 90.2374 106.603 90.2649 106.503C90.297 106.402 90.3428 106.333 90.4024 106.296C90.462 106.255 90.5468 106.235 90.6567 106.235H93.4063ZM92.9595 103.217C93.2848 103.217 93.5117 103.251 93.64 103.32C93.7729 103.384 93.8393 103.494 93.8393 103.65V104.777C93.8393 104.933 93.7774 105.045 93.6537 105.114C93.5346 105.178 93.3146 105.21 92.9938 105.21C92.6731 105.21 92.4462 105.178 92.3133 105.114C92.185 105.045 92.1209 104.933 92.1209 104.777V103.65C92.1209 103.49 92.1804 103.377 92.2996 103.313C92.4187 103.249 92.6387 103.217 92.9595 103.217ZM102.308 106.083C102.725 106.083 103.089 106.175 103.401 106.358C103.717 106.542 103.96 106.803 104.129 107.142C104.299 107.476 104.384 107.871 104.384 108.324V111.177H104.913C105.023 111.177 105.108 111.197 105.167 111.239C105.227 111.275 105.27 111.344 105.298 111.445C105.33 111.546 105.346 111.692 105.346 111.885C105.346 112.077 105.33 112.224 105.298 112.325C105.27 112.426 105.227 112.494 105.167 112.531C105.108 112.568 105.023 112.586 104.913 112.586H102.342C102.232 112.586 102.147 112.568 102.088 112.531C102.028 112.494 101.982 112.426 101.95 112.325C101.923 112.224 101.909 112.077 101.909 111.885C101.909 111.692 101.923 111.546 101.95 111.445C101.982 111.344 102.028 111.275 102.088 111.239C102.147 111.197 102.232 111.177 102.342 111.177H102.665V108.73C102.665 108.372 102.603 108.102 102.48 107.919C102.356 107.735 102.15 107.644 101.861 107.644C101.595 107.644 101.343 107.756 101.105 107.98C100.867 108.2 100.674 108.496 100.528 108.867C100.385 109.238 100.314 109.635 100.314 110.056V111.177H100.638C100.747 111.177 100.832 111.197 100.892 111.239C100.951 111.275 100.995 111.344 101.022 111.445C101.055 111.546 101.071 111.692 101.071 111.885C101.071 112.077 101.055 112.224 101.022 112.325C100.995 112.426 100.951 112.494 100.892 112.531C100.832 112.568 100.747 112.586 100.638 112.586H98.0667C97.9567 112.586 97.8719 112.568 97.8124 112.531C97.7528 112.494 97.707 112.426 97.6749 112.325C97.6474 112.224 97.6336 112.077 97.6336 111.885C97.6336 111.692 97.6474 111.546 97.6749 111.445C97.707 111.344 97.7528 111.275 97.8124 111.239C97.8719 111.197 97.9567 111.177 98.0667 111.177H98.596V107.644H97.9292C97.8192 107.644 97.7345 107.625 97.6749 107.589C97.6153 107.552 97.5695 107.483 97.5374 107.382C97.5099 107.282 97.4962 107.135 97.4962 106.943C97.4962 106.75 97.5099 106.603 97.5374 106.503C97.5695 106.402 97.6153 106.333 97.6749 106.296C97.7345 106.255 97.8192 106.235 97.9292 106.235H99.6064C99.7622 106.235 99.8722 106.269 99.9364 106.338C100.005 106.402 100.039 106.512 100.039 106.668V107.664C100.644 106.61 101.4 106.083 102.308 106.083ZM113.148 111.177C113.308 111.177 113.421 111.225 113.485 111.321C113.549 111.417 113.581 111.605 113.581 111.885C113.581 112.077 113.565 112.224 113.533 112.325C113.505 112.426 113.462 112.494 113.402 112.531C113.343 112.568 113.258 112.586 113.148 112.586H111.972C111.743 112.586 111.565 112.494 111.436 112.311L109.704 109.905L108.755 110.627V111.177H109.353C109.463 111.177 109.548 111.197 109.608 111.239C109.667 111.275 109.711 111.344 109.738 111.445C109.771 111.546 109.787 111.692 109.787 111.885C109.787 112.077 109.771 112.224 109.738 112.325C109.711 112.426 109.667 112.494 109.608 112.531C109.548 112.568 109.463 112.586 109.353 112.586H106.508C106.398 112.586 106.313 112.568 106.253 112.531C106.194 112.494 106.148 112.426 106.116 112.325C106.088 112.224 106.075 112.077 106.075 111.885C106.075 111.692 106.088 111.546 106.116 111.445C106.148 111.344 106.194 111.275 106.253 111.239C106.313 111.197 106.398 111.177 106.508 111.177H107.037V104.977H106.37C106.26 104.977 106.176 104.958 106.116 104.922C106.056 104.885 106.011 104.816 105.978 104.715C105.951 104.615 105.937 104.468 105.937 104.276C105.937 104.083 105.951 103.936 105.978 103.836C106.011 103.735 106.056 103.666 106.116 103.629C106.176 103.588 106.26 103.567 106.37 103.567H108.322C108.478 103.567 108.588 103.602 108.652 103.671C108.721 103.735 108.755 103.845 108.755 104.001V108.963L110.543 107.506H110.199C110.039 107.506 109.926 107.463 109.862 107.376C109.798 107.289 109.766 107.121 109.766 106.874C109.766 106.622 109.798 106.452 109.862 106.365C109.926 106.278 110.039 106.235 110.199 106.235H113.045C113.205 106.235 113.317 106.278 113.382 106.365C113.446 106.452 113.478 106.622 113.478 106.874C113.478 107.121 113.446 107.289 113.382 107.376C113.317 107.463 113.205 107.506 113.045 107.506H112.77L111.058 108.888L112.729 111.177H113.148ZM118.303 106.083C119 106.083 119.593 106.235 120.084 106.537C120.574 106.835 120.943 107.252 121.19 107.788C121.442 108.32 121.568 108.929 121.568 109.616C121.568 109.772 121.534 109.882 121.465 109.946C121.401 110.011 121.291 110.043 121.135 110.043H116.722C116.809 110.409 116.995 110.691 117.279 110.888C117.568 111.081 117.932 111.177 118.372 111.177C119.082 111.177 119.852 111.051 120.682 110.799C120.737 110.78 120.792 110.771 120.847 110.771C120.947 110.771 121.034 110.817 121.108 110.909C121.181 111 121.247 111.156 121.307 111.376C121.353 111.546 121.376 111.69 121.376 111.809C121.376 111.928 121.348 112.022 121.293 112.091C121.243 112.155 121.158 112.208 121.039 112.249C120.581 112.4 120.113 112.519 119.637 112.607C119.16 112.694 118.693 112.737 118.234 112.737C117.538 112.737 116.938 112.595 116.434 112.311C115.929 112.027 115.545 111.635 115.279 111.136C115.018 110.631 114.887 110.056 114.887 109.41C114.887 108.769 115.024 108.196 115.299 107.692C115.574 107.188 115.971 106.794 116.489 106.509C117.006 106.225 117.611 106.083 118.303 106.083ZM118.303 107.644C117.465 107.644 116.947 107.997 116.75 108.702H119.774C119.696 108.368 119.529 108.109 119.272 107.925C119.02 107.738 118.697 107.644 118.303 107.644ZM128.8 106.083C129.189 106.083 129.556 106.212 129.899 106.468C130.101 106.615 130.202 106.807 130.202 107.046C130.202 107.197 130.161 107.376 130.078 107.582C129.996 107.788 129.902 107.944 129.796 108.049C129.695 108.155 129.588 108.207 129.473 108.207C129.409 108.207 129.34 108.189 129.267 108.152C129.01 108.01 128.745 107.939 128.47 107.939C128.117 107.939 127.787 108.052 127.48 108.276C127.173 108.501 126.925 108.81 126.737 109.204C126.554 109.598 126.462 110.038 126.462 110.524V111.177H128.435C128.545 111.177 128.63 111.197 128.69 111.239C128.749 111.275 128.793 111.344 128.82 111.445C128.852 111.546 128.868 111.692 128.868 111.885C128.868 112.077 128.852 112.224 128.82 112.325C128.793 112.426 128.749 112.494 128.69 112.531C128.63 112.568 128.545 112.586 128.435 112.586H123.734C123.624 112.586 123.539 112.568 123.479 112.531C123.42 112.494 123.374 112.426 123.342 112.325C123.314 112.224 123.3 112.077 123.3 111.885C123.3 111.692 123.314 111.546 123.342 111.445C123.374 111.344 123.42 111.275 123.479 111.239C123.539 111.197 123.624 111.177 123.734 111.177H124.744V107.644H123.94C123.83 107.644 123.745 107.625 123.685 107.589C123.626 107.552 123.58 107.483 123.548 107.382C123.52 107.282 123.507 107.135 123.507 106.943C123.507 106.75 123.52 106.603 123.548 106.503C123.58 106.402 123.626 106.333 123.685 106.296C123.745 106.255 123.83 106.235 123.94 106.235H125.823C125.979 106.235 126.089 106.269 126.153 106.338C126.222 106.402 126.256 106.512 126.256 106.668V108.159C126.6 107.495 126.994 106.984 127.438 106.626C127.888 106.264 128.341 106.083 128.8 106.083ZM137.096 106.083C137.389 106.083 137.598 106.118 137.722 106.186C137.845 106.251 137.907 106.361 137.907 106.516V107.967C137.907 108.123 137.857 108.235 137.756 108.304C137.66 108.368 137.499 108.4 137.275 108.4C137.032 108.4 136.865 108.352 136.773 108.255C136.503 107.967 136.193 107.763 135.845 107.644C135.497 107.52 135.094 107.458 134.635 107.458C134.365 107.458 134.152 107.506 133.996 107.602C133.845 107.699 133.769 107.827 133.769 107.987C133.769 108.18 133.939 108.317 134.278 108.4C134.457 108.446 134.761 108.489 135.192 108.53C135.618 108.581 135.971 108.631 136.251 108.682C136.535 108.732 136.803 108.808 137.055 108.908C137.422 109.06 137.708 109.27 137.914 109.541C138.12 109.811 138.224 110.169 138.224 110.613C138.224 111.048 138.116 111.427 137.9 111.747C137.69 112.064 137.378 112.309 136.966 112.483C136.558 112.652 136.065 112.737 135.488 112.737C134.851 112.737 134.26 112.574 133.714 112.249V112.304C133.714 112.46 133.648 112.57 133.515 112.634C133.382 112.703 133.169 112.737 132.876 112.737C132.582 112.737 132.374 112.703 132.25 112.634C132.126 112.57 132.065 112.46 132.065 112.304V110.771C132.065 110.62 132.117 110.51 132.223 110.441C132.333 110.373 132.5 110.338 132.724 110.338C133.004 110.338 133.194 110.402 133.295 110.531C133.524 110.819 133.817 111.03 134.175 111.163C134.532 111.296 134.924 111.362 135.35 111.362C136.083 111.362 136.45 111.172 136.45 110.792C136.45 110.677 136.397 110.586 136.292 110.517C136.191 110.448 136.04 110.391 135.838 110.345C135.724 110.322 135.458 110.281 135.041 110.221C134.578 110.166 134.179 110.104 133.845 110.036C133.515 109.962 133.215 109.85 132.944 109.699C132.312 109.351 131.996 108.801 131.996 108.049C131.996 107.651 132.104 107.302 132.319 107.004C132.534 106.707 132.83 106.48 133.206 106.324C133.586 106.164 134.012 106.083 134.484 106.083C135.176 106.083 135.79 106.251 136.326 106.585V106.516C136.326 106.361 136.381 106.251 136.491 106.186C136.606 106.118 136.807 106.083 137.096 106.083Z" fill="#072114"/>
<circle cx="36.584" cy="109.404" r="27.373" fill="#58C9AB"/>
<path d="M39.8868 105.54C39.8868 103.515 38.2454 101.874 36.2207 101.874C34.196 101.874 32.5547 103.515 32.5547 105.54C32.5547 106.356 32.8245 107.105 33.278 107.711C33.9971 108.671 34.3877 109.838 34.3877 111.038V111.039H38.0537V111.032C38.0537 109.832 38.4418 108.673 39.1622 107.713C39.6164 107.107 39.8868 106.357 39.8868 105.54Z" stroke="#072114" stroke-width="1.95522" stroke-miterlimit="10"/>
<path d="M47.0897 103.838C47.5266 106.719 46.8422 109.421 45.4106 111.588C43.168 114.982 41.7213 118.96 41.7213 123.029V124.008H30.7232V120.281H25.2241V114.721C24.0504 114.721 22.9371 114.254 22.1072 113.424L21.5703 112.888L25.2241 107.388V105.555C25.2241 99.4475 30.2212 94.4912 36.3444 94.558C41.8693 94.6182 46.3218 98.7732 47.0897 103.838Z" stroke="#072114" stroke-width="1.95522" stroke-miterlimit="10"/>
<path d="M38.0488 111.061V112.894C38.0488 113.906 37.2281 114.727 36.2158 114.727C35.2035 114.727 34.3828 113.906 34.3828 112.894V111.061" stroke="#072114" stroke-width="1.95522" stroke-miterlimit="10"/>
<path d="M28.8906 101.87L30.7236 103.703" stroke="#072114" stroke-width="1.95522" stroke-miterlimit="10"/>
<path d="M41.7031 103.703L43.5361 101.87" stroke="#072114" stroke-width="1.95522" stroke-miterlimit="10"/>
<path d="M27.9688 107.383H30.7183" stroke="#072114" stroke-width="1.95522" stroke-miterlimit="10"/>
<path d="M41.7031 107.383H44.4526" stroke="#072114" stroke-width="1.95522" stroke-miterlimit="10"/>
<g filter="url(#filter2_b_2186_433)">
<path d="M194.742 34.3328C194.742 15.8157 209.753 0.804688 228.27 0.804688H321.034C339.551 0.804688 354.562 15.8157 354.562 34.3328V34.3328C354.562 52.8498 339.551 67.8608 321.034 67.8608H228.27C209.753 67.8608 194.742 52.8498 194.742 34.3328V34.3328Z" fill="url(#paint2_linear_2186_433)"/>
</g>
<path opacity="0" d="M272.47 29.1974C272.754 29.1974 272.949 29.2295 273.054 29.2936C273.159 29.3578 273.212 29.47 273.212 29.6304V32.27C273.212 32.4258 273.141 32.538 272.999 32.6068C272.862 32.6709 272.63 32.703 272.305 32.703C272.089 32.703 271.922 32.6893 271.803 32.6618C271.688 32.6297 271.608 32.5839 271.562 32.5243C271.517 32.4647 271.494 32.3799 271.494 32.27C271.494 31.8117 271.368 31.4451 271.116 31.1702C270.868 30.8952 270.513 30.7577 270.05 30.7577C269.413 30.7577 268.93 30.9869 268.6 31.4451C268.27 31.9034 268.105 32.5633 268.105 33.4248C268.105 34.2771 268.279 34.937 268.627 35.4044C268.98 35.8673 269.477 36.0987 270.119 36.0987C270.518 36.0987 270.9 36.046 271.267 35.9406C271.633 35.8306 272.032 35.6656 272.463 35.4457C272.536 35.409 272.605 35.3907 272.669 35.3907C272.884 35.3907 273.063 35.5809 273.205 35.9612C273.269 36.1353 273.301 36.2911 273.301 36.4286C273.301 36.6623 273.196 36.8296 272.985 36.9304C272.005 37.4162 271.026 37.659 270.05 37.659C269.299 37.659 268.636 37.4872 268.064 37.1435C267.491 36.7998 267.046 36.3095 266.73 35.6725C266.418 35.0309 266.263 34.2817 266.263 33.4248C266.263 32.5724 266.416 31.8278 266.723 31.1908C267.03 30.5492 267.454 30.0566 267.995 29.7129C268.54 29.3692 269.157 29.1974 269.844 29.1974C270.646 29.1974 271.242 29.4861 271.631 30.0635V29.6304C271.631 29.4746 271.698 29.3646 271.83 29.3005C271.963 29.2317 272.176 29.1974 272.47 29.1974ZM280.368 31.0052C280.757 31.0052 281.124 31.1335 281.468 31.3901C281.669 31.5368 281.77 31.7292 281.77 31.9675C281.77 32.1187 281.729 32.2975 281.646 32.5037C281.564 32.7099 281.47 32.8657 281.364 32.9711C281.264 33.0765 281.156 33.1292 281.041 33.1292C280.977 33.1292 280.908 33.1109 280.835 33.0742C280.579 32.9321 280.313 32.8611 280.038 32.8611C279.685 32.8611 279.355 32.9734 279.048 33.1979C278.741 33.4225 278.493 33.7318 278.306 34.1259C278.122 34.52 278.031 34.9599 278.031 35.4457V36.0987H280.003C280.113 36.0987 280.198 36.1193 280.258 36.1605C280.317 36.1972 280.361 36.2659 280.388 36.3668C280.42 36.4676 280.436 36.6142 280.436 36.8067C280.436 36.9992 280.42 37.1458 280.388 37.2466C280.361 37.3474 280.317 37.4162 280.258 37.4528C280.198 37.4895 280.113 37.5078 280.003 37.5078H275.302C275.192 37.5078 275.107 37.4895 275.047 37.4528C274.988 37.4162 274.942 37.3474 274.91 37.2466C274.882 37.1458 274.869 36.9992 274.869 36.8067C274.869 36.6142 274.882 36.4676 274.91 36.3668C274.942 36.2659 274.988 36.1972 275.047 36.1605C275.107 36.1193 275.192 36.0987 275.302 36.0987H276.312V32.5655H275.508C275.398 32.5655 275.313 32.5472 275.254 32.5106C275.194 32.4739 275.148 32.4052 275.116 32.3043C275.089 32.2035 275.075 32.0569 275.075 31.8644C275.075 31.6719 275.089 31.5253 275.116 31.4245C275.148 31.3237 275.194 31.2549 275.254 31.2183C275.313 31.177 275.398 31.1564 275.508 31.1564H277.391C277.547 31.1564 277.657 31.1908 277.721 31.2595C277.79 31.3237 277.824 31.4337 277.824 31.5895V33.0811C278.168 32.4166 278.562 31.9057 279.007 31.5482C279.456 31.1862 279.909 31.0052 280.368 31.0052ZM286.754 31.0052C287.45 31.0052 288.044 31.1564 288.534 31.4589C289.024 31.7567 289.393 32.1737 289.641 32.7099C289.893 33.2415 290.019 33.8509 290.019 34.5383C290.019 34.6941 289.984 34.8041 289.915 34.8683C289.851 34.9324 289.741 34.9645 289.586 34.9645H285.173C285.26 35.3311 285.445 35.6129 285.729 35.81C286.018 36.0024 286.382 36.0987 286.822 36.0987C287.533 36.0987 288.302 35.9727 289.132 35.7206C289.187 35.7023 289.242 35.6931 289.297 35.6931C289.398 35.6931 289.485 35.739 289.558 35.8306C289.631 35.9223 289.698 36.0781 289.757 36.298C289.803 36.4676 289.826 36.6119 289.826 36.7311C289.826 36.8502 289.799 36.9442 289.744 37.0129C289.693 37.0771 289.608 37.1298 289.489 37.171C289.031 37.3222 288.564 37.4414 288.087 37.5284C287.61 37.6155 287.143 37.659 286.685 37.659C285.988 37.659 285.388 37.517 284.884 37.2329C284.38 36.9487 283.995 36.5569 283.729 36.0574C283.468 35.5534 283.337 34.9783 283.337 34.3321C283.337 33.6906 283.475 33.1177 283.75 32.6137C284.025 32.1096 284.421 31.7155 284.939 31.4314C285.457 31.1472 286.062 31.0052 286.754 31.0052ZM286.754 32.5655C285.915 32.5655 285.397 32.9184 285.2 33.6241H288.225C288.147 33.2896 287.979 33.0307 287.723 32.8474C287.471 32.6595 287.148 32.5655 286.754 32.5655ZM295.023 31.0052C296.031 31.0052 296.759 31.2229 297.209 31.6582C297.658 32.0935 297.882 32.7168 297.882 33.5279V35.5144C297.882 35.6977 297.921 35.8421 297.999 35.9475C298.077 36.0483 298.189 36.0987 298.336 36.0987H298.549C298.659 36.0987 298.744 36.1193 298.803 36.1605C298.863 36.1972 298.906 36.2659 298.934 36.3668C298.966 36.4676 298.982 36.6142 298.982 36.8067C298.982 36.9992 298.966 37.1458 298.934 37.2466C298.906 37.3474 298.863 37.4162 298.803 37.4528C298.744 37.4895 298.659 37.5078 298.549 37.5078H297.779C297.495 37.5078 297.243 37.4505 297.023 37.336C296.808 37.2168 296.643 37.0312 296.528 36.7792C296.166 37.0587 295.783 37.2764 295.38 37.4322C294.977 37.5834 294.562 37.659 294.136 37.659C293.618 37.659 293.171 37.572 292.796 37.3978C292.42 37.2191 292.131 36.9671 291.929 36.6417C291.732 36.3118 291.634 35.9245 291.634 35.48C291.634 34.8385 291.861 34.3413 292.314 33.9884C292.768 33.6356 293.403 33.4591 294.218 33.4591C294.828 33.4591 295.476 33.5279 296.164 33.6654V33.466C296.164 33.159 296.068 32.9321 295.875 32.7855C295.683 32.6389 295.343 32.5655 294.858 32.5655C294.587 32.5655 294.285 32.5999 293.95 32.6686C293.62 32.7328 293.293 32.8199 292.967 32.9299C292.89 32.9528 292.823 32.9642 292.768 32.9642C292.654 32.9642 292.55 32.923 292.459 32.8405C292.372 32.7534 292.292 32.6091 292.218 32.4074C292.149 32.2058 292.115 32.0408 292.115 31.9125C292.115 31.6788 292.22 31.523 292.431 31.4451C292.839 31.2985 293.272 31.1885 293.73 31.1152C294.189 31.0418 294.619 31.0052 295.023 31.0052ZM294.39 34.8751C294.07 34.8751 293.824 34.9324 293.655 35.047C293.49 35.1616 293.407 35.3288 293.407 35.5488C293.407 35.7642 293.488 35.9291 293.648 36.0437C293.813 36.1537 294.049 36.2087 294.356 36.2087C294.672 36.2087 294.984 36.1468 295.291 36.0231C295.602 35.8948 295.893 35.7206 296.164 35.5007V35.0607C295.559 34.937 294.968 34.8751 294.39 34.8751ZM302.653 29.1974C302.868 29.1974 303.033 29.2134 303.148 29.2455C303.267 29.273 303.349 29.3165 303.395 29.3761C303.441 29.4357 303.464 29.5204 303.464 29.6304V31.5688H306.014C306.174 31.5688 306.287 31.6215 306.351 31.7269C306.415 31.8323 306.447 32.0271 306.447 32.3112C306.447 32.5953 306.415 32.7901 306.351 32.8955C306.287 32.9963 306.174 33.0467 306.014 33.0467H303.464V34.9576C303.464 35.7183 303.759 36.0987 304.35 36.0987C304.561 36.0987 304.806 36.0529 305.086 35.9612C305.37 35.865 305.7 35.7321 306.076 35.5625C306.177 35.5213 306.257 35.5007 306.316 35.5007C306.413 35.5007 306.502 35.5419 306.584 35.6244C306.667 35.7023 306.745 35.8329 306.818 36.0162C306.901 36.2224 306.942 36.3897 306.942 36.518C306.942 36.6188 306.917 36.7036 306.866 36.7723C306.82 36.8365 306.749 36.8938 306.653 36.9442C305.709 37.4207 304.891 37.659 304.199 37.659C303.402 37.659 302.792 37.4368 302.371 36.9923C301.954 36.5478 301.745 35.8993 301.745 35.047V33.0467H300.419C300.258 33.0467 300.146 32.9963 300.082 32.8955C300.018 32.7901 299.986 32.5953 299.986 32.3112C299.986 32.0271 300.018 31.8323 300.082 31.7269C300.146 31.6215 300.258 31.5688 300.419 31.5688H301.745V29.6304C301.745 29.4746 301.814 29.3646 301.952 29.3005C302.094 29.2317 302.327 29.1974 302.653 29.1974ZM311.98 31.0052C312.677 31.0052 313.286 31.1472 313.809 31.4314C314.331 31.7155 314.732 32.1096 315.012 32.6137C315.296 33.1177 315.438 33.6906 315.438 34.3321C315.438 34.9737 315.296 35.5465 315.012 36.0506C314.732 36.5546 314.331 36.9487 313.809 37.2329C313.286 37.517 312.677 37.659 311.98 37.659C311.284 37.659 310.674 37.517 310.152 37.2329C309.63 36.9487 309.226 36.5546 308.942 36.0506C308.663 35.5465 308.523 34.9737 308.523 34.3321C308.523 33.6906 308.663 33.1177 308.942 32.6137C309.226 32.1096 309.63 31.7155 310.152 31.4314C310.674 31.1472 311.284 31.0052 311.98 31.0052ZM311.98 32.5655C311.65 32.5655 311.364 32.6389 311.121 32.7855C310.878 32.9276 310.69 33.1315 310.558 33.3973C310.429 33.6631 310.365 33.9747 310.365 34.3321C310.365 34.6896 310.429 35.0012 310.558 35.267C310.69 35.5327 310.878 35.739 311.121 35.8856C311.364 36.0277 311.65 36.0987 311.98 36.0987C312.31 36.0987 312.597 36.0277 312.84 35.8856C313.083 35.739 313.268 35.5327 313.396 35.267C313.529 35.0012 313.596 34.6896 313.596 34.3321C313.596 33.9747 313.529 33.6631 313.396 33.3973C313.268 33.1315 313.083 32.9276 312.84 32.7855C312.597 32.6389 312.31 32.5655 311.98 32.5655ZM322.573 31.0052C322.962 31.0052 323.329 31.1335 323.673 31.3901C323.874 31.5368 323.975 31.7292 323.975 31.9675C323.975 32.1187 323.934 32.2975 323.851 32.5037C323.769 32.7099 323.675 32.8657 323.57 32.9711C323.469 33.0765 323.361 33.1292 323.247 33.1292C323.182 33.1292 323.114 33.1109 323.04 33.0742C322.784 32.9321 322.518 32.8611 322.243 32.8611C321.89 32.8611 321.56 32.9734 321.253 33.1979C320.946 33.4225 320.699 33.7318 320.511 34.1259C320.327 34.52 320.236 34.9599 320.236 35.4457V36.0987H322.209C322.319 36.0987 322.403 36.1193 322.463 36.1605C322.523 36.1972 322.566 36.2659 322.594 36.3668C322.626 36.4676 322.642 36.6142 322.642 36.8067C322.642 36.9992 322.626 37.1458 322.594 37.2466C322.566 37.3474 322.523 37.4162 322.463 37.4528C322.403 37.4895 322.319 37.5078 322.209 37.5078H317.507C317.397 37.5078 317.312 37.4895 317.253 37.4528C317.193 37.4162 317.147 37.3474 317.115 37.2466C317.088 37.1458 317.074 36.9992 317.074 36.8067C317.074 36.6142 317.088 36.4676 317.115 36.3668C317.147 36.2659 317.193 36.1972 317.253 36.1605C317.312 36.1193 317.397 36.0987 317.507 36.0987H318.517V32.5655H317.713C317.603 32.5655 317.518 32.5472 317.459 32.5106C317.399 32.4739 317.353 32.4052 317.321 32.3043C317.294 32.2035 317.28 32.0569 317.28 31.8644C317.28 31.6719 317.294 31.5253 317.321 31.4245C317.353 31.3237 317.399 31.2549 317.459 31.2183C317.518 31.177 317.603 31.1564 317.713 31.1564H319.597C319.752 31.1564 319.862 31.1908 319.927 31.2595C319.995 31.3237 320.03 31.4337 320.03 31.5895V33.0811C320.373 32.4166 320.767 31.9057 321.212 31.5482C321.661 31.1862 322.115 31.0052 322.573 31.0052ZM330.87 31.0052C331.163 31.0052 331.371 31.0396 331.495 31.1083C331.619 31.1725 331.681 31.2824 331.681 31.4382V32.8886C331.681 33.0444 331.63 33.1567 331.53 33.2254C331.433 33.2896 331.273 33.3217 331.048 33.3217C330.805 33.3217 330.638 33.2735 330.547 33.1773C330.276 32.8886 329.967 32.6847 329.619 32.5655C329.27 32.4418 328.867 32.3799 328.409 32.3799C328.138 32.3799 327.925 32.4281 327.77 32.5243C327.618 32.6205 327.543 32.7488 327.543 32.9092C327.543 33.1017 327.712 33.2392 328.051 33.3217C328.23 33.3675 328.535 33.411 328.966 33.4523C329.392 33.5027 329.745 33.5531 330.024 33.6035C330.308 33.6539 330.576 33.7295 330.828 33.8303C331.195 33.9815 331.481 34.1923 331.688 34.4627C331.894 34.7331 331.997 35.0905 331.997 35.535C331.997 35.9704 331.889 36.3484 331.674 36.6692C331.463 36.9854 331.151 37.2306 330.739 37.4047C330.331 37.5743 329.839 37.659 329.261 37.659C328.624 37.659 328.033 37.4964 327.488 37.171V37.226C327.488 37.3818 327.421 37.4918 327.288 37.5559C327.155 37.6247 326.942 37.659 326.649 37.659C326.356 37.659 326.147 37.6247 326.024 37.5559C325.9 37.4918 325.838 37.3818 325.838 37.226V35.6931C325.838 35.5419 325.891 35.4319 325.996 35.3632C326.106 35.2944 326.273 35.2601 326.498 35.2601C326.777 35.2601 326.968 35.3242 327.068 35.4525C327.298 35.7412 327.591 35.952 327.948 36.0849C328.306 36.2178 328.698 36.2843 329.124 36.2843C329.857 36.2843 330.223 36.0941 330.223 35.7137C330.223 35.5992 330.171 35.5075 330.065 35.4388C329.965 35.3701 329.813 35.3128 329.612 35.267C329.497 35.244 329.231 35.2028 328.814 35.1432C328.352 35.0882 327.953 35.0264 327.618 34.9576C327.288 34.8843 326.988 34.772 326.718 34.6208C326.085 34.2725 325.769 33.7226 325.769 32.9711C325.769 32.5724 325.877 32.2241 326.092 31.9263C326.308 31.6284 326.603 31.4016 326.979 31.2458C327.359 31.0854 327.786 31.0052 328.258 31.0052C328.95 31.0052 329.564 31.1725 330.1 31.507V31.4382C330.1 31.2824 330.155 31.1725 330.265 31.1083C330.379 31.0396 330.581 31.0052 330.87 31.0052Z" fill="#072114"/>
<circle cx="230.365" cy="34.1309" r="27.373" fill="#58C9AB"/>
<path d="M231.082 35.5118L219.87 48.1712C218.882 49.3004 217.149 49.3524 216.094 48.2971C215.035 47.2389 215.093 45.5066 216.219 44.5211L228.879 33.3091" stroke="#072114" stroke-width="1.72059" stroke-miterlimit="10" stroke-linecap="round" stroke-linejoin="round"/>
<path d="M237.76 26.6541L236.426 31.4101L238.87 34.8318H234.47L231.601 38.7422L230.79 33.6239L225.672 32.8133L229.582 29.9437V25.5445L233.004 27.9885L237.76 26.6541Z" stroke="#072114" stroke-width="1.72059" stroke-miterlimit="10" stroke-linecap="round" stroke-linejoin="round"/>
<path d="M243.328 19.614V22.5469" stroke="#072114" stroke-width="1.72059" stroke-miterlimit="10" stroke-linecap="round" stroke-linejoin="round"/>
<path d="M241.852 21.0703H244.784" stroke="#072114" stroke-width="1.72059" stroke-miterlimit="10" stroke-linecap="round" stroke-linejoin="round"/>
<path d="M233.484 20.6531V23.5859" stroke="#072114" stroke-width="1.72059" stroke-miterlimit="10" stroke-linecap="round" stroke-linejoin="round"/>
<path d="M232.031 22.125H234.964" stroke="#072114" stroke-width="1.72059" stroke-miterlimit="10" stroke-linecap="round" stroke-linejoin="round"/>
<path d="M242.281 29.4422V32.375" stroke="#072114" stroke-width="1.72059" stroke-miterlimit="10" stroke-linecap="round" stroke-linejoin="round"/>
<path d="M240.805 30.8984H243.738" stroke="#072114" stroke-width="1.72059" stroke-miterlimit="10" stroke-linecap="round" stroke-linejoin="round"/>
<path d="M243.328 38.239V41.1719" stroke="#072114" stroke-width="1.72059" stroke-miterlimit="10" stroke-linecap="round" stroke-linejoin="round"/>
<path d="M241.852 39.7109H244.784" stroke="#072114" stroke-width="1.72059" stroke-miterlimit="10" stroke-linecap="round" stroke-linejoin="round"/>
<path d="M224.688 19.614V22.5469" stroke="#072114" stroke-width="1.72059" stroke-miterlimit="10" stroke-linecap="round" stroke-linejoin="round"/>
<path d="M223.227 21.0703H226.159" stroke="#072114" stroke-width="1.72059" stroke-miterlimit="10" stroke-linecap="round" stroke-linejoin="round"/>
<path d="M220.289 25.0526L223.711 27.0078" stroke="#072114" stroke-width="1.72059" stroke-miterlimit="10" stroke-linecap="round" stroke-linejoin="round"/>
<path d="M217.844 30.4297L221.754 29.9409" stroke="#072114" stroke-width="1.72059" stroke-miterlimit="10" stroke-linecap="round" stroke-linejoin="round"/>
<path d="M239.346 44.1016L237.391 40.6799" stroke="#072114" stroke-width="1.72059" stroke-miterlimit="10" stroke-linecap="round" stroke-linejoin="round"/>
<path d="M233.961 46.5469L234.45 42.6364" stroke="#072114" stroke-width="1.72059" stroke-miterlimit="10" stroke-linecap="round" stroke-linejoin="round"/>
<path d="M227.487 39.5859L224.82 36.9194" stroke="#072114" stroke-width="1.72059" stroke-miterlimit="10" stroke-linecap="round" stroke-linejoin="round"/>
<g filter="url(#filter3_b_2186_433)">
<path d="M0 34.3327C0 15.8157 15.011 0.804688 33.528 0.804688H153.391C171.908 0.804688 186.919 15.8157 186.919 34.3327V34.3327C186.919 52.8497 171.908 67.8607 153.391 67.8607H33.528C15.011 67.8607 0 52.8497 0 34.3327V34.3327Z" fill="url(#paint3_linear_2186_433)"/>
</g>
<path opacity="0" d="M78.1629 21.5283C78.2729 21.5283 78.3577 21.5489 78.4172 21.5902C78.4768 21.6268 78.5203 21.6955 78.5478 21.7964C78.5799 21.8972 78.596 22.0438 78.596 22.2363C78.596 22.4288 78.5799 22.5754 78.5478 22.6762C78.5203 22.777 78.4768 22.8458 78.4172 22.8824C78.3577 22.9191 78.2729 22.9374 78.1629 22.9374H76.5407V28.2784H78.3004C78.4104 28.2784 78.4951 28.299 78.5547 28.3402C78.6143 28.3769 78.6578 28.4456 78.6853 28.5464C78.7174 28.6473 78.7334 28.7939 78.7334 28.9864C78.7334 29.1788 78.7174 29.3255 78.6853 29.4263C78.6578 29.5271 78.6143 29.5958 78.5547 29.6325C78.4951 29.6692 78.4104 29.6875 78.3004 29.6875H73.0625C72.9526 29.6875 72.8678 29.6692 72.8082 29.6325C72.7486 29.5958 72.7028 29.5271 72.6707 29.4263C72.6432 29.3255 72.6295 29.1788 72.6295 28.9864C72.6295 28.7939 72.6432 28.6473 72.6707 28.5464C72.7028 28.4456 72.7486 28.3769 72.8082 28.3402C72.8678 28.299 72.9526 28.2784 73.0625 28.2784H74.8222V22.9374H73.2C73.09 22.9374 73.0053 22.9191 72.9457 22.8824C72.8861 22.8458 72.8403 22.777 72.8082 22.6762C72.7807 22.5754 72.767 22.4288 72.767 22.2363C72.767 22.0438 72.7807 21.8972 72.8082 21.7964C72.8403 21.6955 72.8861 21.6268 72.9457 21.5902C73.0053 21.5489 73.09 21.5283 73.2 21.5283H78.1629ZM85.1055 23.1849C85.5225 23.1849 85.8868 23.2765 86.1984 23.4598C86.5146 23.6431 86.7575 23.9043 86.927 24.2434C87.0966 24.578 87.1813 24.9721 87.1813 25.4257V28.2784H87.7106C87.8206 28.2784 87.9054 28.299 87.965 28.3402C88.0245 28.3769 88.0681 28.4456 88.0956 28.5464C88.1276 28.6473 88.1437 28.7939 88.1437 28.9864C88.1437 29.1788 88.1276 29.3255 88.0956 29.4263C88.0681 29.5271 88.0245 29.5958 87.965 29.6325C87.9054 29.6692 87.8206 29.6875 87.7106 29.6875H85.1398C85.0298 29.6875 84.9451 29.6692 84.8855 29.6325C84.8259 29.5958 84.7801 29.5271 84.748 29.4263C84.7205 29.3255 84.7068 29.1788 84.7068 28.9864C84.7068 28.7939 84.7205 28.6473 84.748 28.5464C84.7801 28.4456 84.8259 28.3769 84.8855 28.3402C84.9451 28.299 85.0298 28.2784 85.1398 28.2784H85.4629V25.8313C85.4629 25.4739 85.401 25.2035 85.2773 25.0202C85.1536 24.8369 84.9474 24.7452 84.6587 24.7452C84.3929 24.7452 84.1408 24.8575 83.9025 25.082C83.6642 25.302 83.4718 25.5976 83.3251 25.9688C83.1831 26.34 83.112 26.7363 83.112 27.1579V28.2784H83.4351C83.5451 28.2784 83.6299 28.299 83.6894 28.3402C83.749 28.3769 83.7926 28.4456 83.82 28.5464C83.8521 28.6473 83.8682 28.7939 83.8682 28.9864C83.8682 29.1788 83.8521 29.3255 83.82 29.4263C83.7926 29.5271 83.749 29.5958 83.6894 29.6325C83.6299 29.6692 83.5451 29.6875 83.4351 29.6875H80.8643C80.7543 29.6875 80.6696 29.6692 80.61 29.6325C80.5504 29.5958 80.5046 29.5271 80.4725 29.4263C80.445 29.3255 80.4313 29.1788 80.4313 28.9864C80.4313 28.7939 80.445 28.6473 80.4725 28.5464C80.5046 28.4456 80.5504 28.3769 80.61 28.3402C80.6696 28.299 80.7543 28.2784 80.8643 28.2784H81.3936V24.7452H80.7268C80.6169 24.7452 80.5321 24.7269 80.4725 24.6902C80.4129 24.6536 80.3671 24.5848 80.335 24.484C80.3075 24.3832 80.2938 24.2366 80.2938 24.0441C80.2938 23.8516 80.3075 23.705 80.335 23.6042C80.3671 23.5034 80.4129 23.4346 80.4725 23.398C80.5321 23.3567 80.6169 23.3361 80.7268 23.3361H82.404C82.5599 23.3361 82.6698 23.3705 82.734 23.4392C82.8027 23.5034 82.8371 23.6133 82.8371 23.7691V24.7659C83.442 23.7119 84.1981 23.1849 85.1055 23.1849ZM95.0656 20.6691C95.2214 20.6691 95.3314 20.7034 95.3955 20.7722C95.4643 20.8363 95.4987 20.9463 95.4987 21.1021V28.2784H96.0967C96.2067 28.2784 96.2914 28.2967 96.351 28.3334C96.4106 28.37 96.4541 28.4388 96.4816 28.5396C96.5137 28.6404 96.5297 28.787 96.5297 28.9795C96.5297 29.172 96.5137 29.3186 96.4816 29.4194C96.4541 29.5202 96.4106 29.5913 96.351 29.6325C96.2914 29.6692 96.2067 29.6875 96.0967 29.6875H94.4882C94.3324 29.6875 94.2201 29.6554 94.1514 29.5913C94.0872 29.5225 94.0552 29.4103 94.0552 29.2544V28.677C93.8169 29.0437 93.519 29.3301 93.1616 29.5363C92.8041 29.7379 92.4077 29.8387 91.9724 29.8387C91.3721 29.8387 90.8474 29.6921 90.3983 29.3988C89.9492 29.1055 89.6055 28.7068 89.3672 28.2028C89.1289 27.6987 89.0098 27.135 89.0098 26.5118C89.0098 25.8886 89.1289 25.3249 89.3672 24.8208C89.6055 24.3168 89.9492 23.9181 90.3983 23.6248C90.8474 23.3315 91.3721 23.1849 91.9724 23.1849C92.3298 23.1849 92.6621 23.2559 92.9691 23.398C93.2761 23.5354 93.5465 23.7348 93.7802 23.996V22.0782H92.7697C92.6598 22.0782 92.575 22.0599 92.5154 22.0232C92.4558 21.9865 92.41 21.9178 92.3779 21.817C92.3504 21.7162 92.3367 21.5695 92.3367 21.3771C92.3367 21.1846 92.3504 21.038 92.3779 20.9371C92.41 20.8363 92.4558 20.7676 92.5154 20.7309C92.575 20.6897 92.6598 20.6691 92.7697 20.6691H95.0656ZM92.2473 24.7452C91.9632 24.7452 91.7158 24.8186 91.505 24.9652C91.2942 25.1073 91.1315 25.3112 91.0169 25.577C90.9069 25.8427 90.852 26.1544 90.852 26.5118C90.852 26.8692 90.9069 27.1809 91.0169 27.4466C91.1315 27.7124 91.2942 27.9186 91.505 28.0653C91.7158 28.2073 91.9632 28.2784 92.2473 28.2784C92.5406 28.2784 92.8064 28.2096 93.0447 28.0722C93.283 27.9347 93.4732 27.733 93.6152 27.4673C93.7573 27.1969 93.8283 26.8784 93.8283 26.5118C93.8283 26.1452 93.7573 25.829 93.6152 25.5632C93.4732 25.2928 93.283 25.0889 93.0447 24.9514C92.8064 24.814 92.5406 24.7452 92.2473 24.7452ZM101.101 23.1849C101.797 23.1849 102.391 23.3361 102.881 23.6385C103.371 23.9364 103.74 24.3534 103.988 24.8896C104.24 25.4212 104.366 26.0306 104.366 26.718C104.366 26.8738 104.331 26.9838 104.263 27.048C104.199 27.1121 104.089 27.1442 103.933 27.1442H99.5198C99.6069 27.5108 99.7925 27.7926 100.077 27.9897C100.365 28.1821 100.73 28.2784 101.17 28.2784C101.88 28.2784 102.65 28.1523 103.479 27.9003C103.534 27.882 103.589 27.8728 103.644 27.8728C103.745 27.8728 103.832 27.9186 103.905 28.0103C103.979 28.1019 104.045 28.2577 104.105 28.4777C104.15 28.6473 104.173 28.7916 104.173 28.9108C104.173 29.0299 104.146 29.1238 104.091 29.1926C104.041 29.2567 103.956 29.3094 103.837 29.3507C103.378 29.5019 102.911 29.6211 102.434 29.7081C101.958 29.7952 101.49 29.8387 101.032 29.8387C100.336 29.8387 99.7352 29.6967 99.2311 29.4125C98.7271 29.1284 98.3421 28.7366 98.0763 28.2371C97.8151 27.733 97.6845 27.1579 97.6845 26.5118C97.6845 25.8702 97.822 25.2974 98.097 24.7933C98.3719 24.2893 98.7683 23.8952 99.2861 23.6111C99.8039 23.3269 100.409 23.1849 101.101 23.1849ZM101.101 24.7452C100.262 24.7452 99.7444 25.0981 99.5473 25.8038H102.572C102.494 25.4693 102.327 25.2104 102.07 25.0271C101.818 24.8392 101.495 24.7452 101.101 24.7452ZM110.037 23.1849C110.637 23.1849 111.162 23.3315 111.611 23.6248C112.06 23.9181 112.404 24.3168 112.642 24.8208C112.88 25.3249 112.999 25.8886 112.999 26.5118C112.999 27.135 112.88 27.6987 112.642 28.2028C112.404 28.7068 112.06 29.1055 111.611 29.3988C111.162 29.6921 110.637 29.8387 110.037 29.8387C109.679 29.8387 109.347 29.77 109.04 29.6325C108.733 29.4905 108.463 29.2888 108.229 29.0276V30.9454H109.377C109.487 30.9454 109.572 30.9637 109.631 31.0004C109.691 31.0371 109.734 31.1058 109.762 31.2066C109.794 31.3074 109.81 31.4541 109.81 31.6465C109.81 31.839 109.794 31.9856 109.762 32.0865C109.734 32.1873 109.691 32.256 109.631 32.2927C109.572 32.3339 109.487 32.3545 109.377 32.3545H105.912C105.802 32.3545 105.718 32.3362 105.658 32.2995C105.599 32.2629 105.553 32.1941 105.521 32.0933C105.493 31.9925 105.479 31.8459 105.479 31.6534C105.479 31.4609 105.493 31.3143 105.521 31.2135C105.553 31.1127 105.599 31.0416 105.658 31.0004C105.718 30.9637 105.802 30.9454 105.912 30.9454H106.51V24.7452H105.912C105.802 24.7452 105.718 24.7269 105.658 24.6902C105.599 24.6536 105.553 24.5848 105.521 24.484C105.493 24.3832 105.479 24.2366 105.479 24.0441C105.479 23.8516 105.493 23.705 105.521 23.6042C105.553 23.5034 105.599 23.4346 105.658 23.398C105.718 23.3567 105.802 23.3361 105.912 23.3361H107.521C107.677 23.3361 107.787 23.3705 107.851 23.4392C107.92 23.5034 107.954 23.6133 107.954 23.7691V24.3465C108.192 23.9799 108.49 23.6958 108.848 23.4942C109.205 23.288 109.601 23.1849 110.037 23.1849ZM109.762 24.7452C109.469 24.7452 109.203 24.814 108.964 24.9514C108.726 25.0889 108.536 25.2928 108.394 25.5632C108.252 25.829 108.181 26.1452 108.181 26.5118C108.181 26.8784 108.252 27.1969 108.394 27.4673C108.536 27.733 108.726 27.9347 108.964 28.0722C109.203 28.2096 109.469 28.2784 109.762 28.2784C110.046 28.2784 110.293 28.2073 110.504 28.0653C110.715 27.9186 110.875 27.7124 110.985 27.4466C111.1 27.1809 111.157 26.8692 111.157 26.5118C111.157 26.1544 111.1 25.8427 110.985 25.577C110.875 25.3112 110.715 25.1073 110.504 24.9652C110.293 24.8186 110.046 24.7452 109.762 24.7452ZM117.983 23.1849C118.679 23.1849 119.273 23.3361 119.763 23.6385C120.254 23.9364 120.622 24.3534 120.87 24.8896C121.122 25.4212 121.248 26.0306 121.248 26.718C121.248 26.8738 121.214 26.9838 121.145 27.048C121.081 27.1121 120.971 27.1442 120.815 27.1442H116.402C116.489 27.5108 116.675 27.7926 116.959 27.9897C117.247 28.1821 117.612 28.2784 118.052 28.2784C118.762 28.2784 119.532 28.1523 120.361 27.9003C120.416 27.882 120.471 27.8728 120.526 27.8728C120.627 27.8728 120.714 27.9186 120.787 28.0103C120.861 28.1019 120.927 28.2577 120.987 28.4777C121.033 28.6473 121.055 28.7916 121.055 28.9108C121.055 29.0299 121.028 29.1238 120.973 29.1926C120.923 29.2567 120.838 29.3094 120.719 29.3507C120.26 29.5019 119.793 29.6211 119.316 29.7081C118.84 29.7952 118.372 29.8387 117.914 29.8387C117.218 29.8387 116.617 29.6967 116.113 29.4125C115.609 29.1284 115.224 28.7366 114.958 28.2371C114.697 27.733 114.567 27.1579 114.567 26.5118C114.567 25.8702 114.704 25.2974 114.979 24.7933C115.254 24.2893 115.65 23.8952 116.168 23.6111C116.686 23.3269 117.291 23.1849 117.983 23.1849ZM117.983 24.7452C117.144 24.7452 116.626 25.0981 116.429 25.8038H119.454C119.376 25.4693 119.209 25.2104 118.952 25.0271C118.7 24.8392 118.377 24.7452 117.983 24.7452ZM127.311 23.1849C127.728 23.1849 128.092 23.2765 128.404 23.4598C128.72 23.6431 128.963 23.9043 129.132 24.2434C129.302 24.578 129.387 24.9721 129.387 25.4257V28.2784H129.916C130.026 28.2784 130.111 28.299 130.17 28.3402C130.23 28.3769 130.273 28.4456 130.301 28.5464C130.333 28.6473 130.349 28.7939 130.349 28.9864C130.349 29.1788 130.333 29.3255 130.301 29.4263C130.273 29.5271 130.23 29.5958 130.17 29.6325C130.111 29.6692 130.026 29.6875 129.916 29.6875H127.345C127.235 29.6875 127.15 29.6692 127.091 29.6325C127.031 29.5958 126.985 29.5271 126.953 29.4263C126.926 29.3255 126.912 29.1788 126.912 28.9864C126.912 28.7939 126.926 28.6473 126.953 28.5464C126.985 28.4456 127.031 28.3769 127.091 28.3402C127.15 28.299 127.235 28.2784 127.345 28.2784H127.668V25.8313C127.668 25.4739 127.606 25.2035 127.482 25.0202C127.359 24.8369 127.153 24.7452 126.864 24.7452C126.598 24.7452 126.346 24.8575 126.108 25.082C125.869 25.302 125.677 25.5976 125.53 25.9688C125.388 26.34 125.317 26.7363 125.317 27.1579V28.2784H125.64C125.75 28.2784 125.835 28.299 125.895 28.3402C125.954 28.3769 125.998 28.4456 126.025 28.5464C126.057 28.6473 126.073 28.7939 126.073 28.9864C126.073 29.1788 126.057 29.3255 126.025 29.4263C125.998 29.5271 125.954 29.5958 125.895 29.6325C125.835 29.6692 125.75 29.6875 125.64 29.6875H123.07C122.96 29.6875 122.875 29.6692 122.815 29.6325C122.756 29.5958 122.71 29.5271 122.678 29.4263C122.65 29.3255 122.636 29.1788 122.636 28.9864C122.636 28.7939 122.65 28.6473 122.678 28.5464C122.71 28.4456 122.756 28.3769 122.815 28.3402C122.875 28.299 122.96 28.2784 123.07 28.2784H123.599V24.7452H122.932C122.822 24.7452 122.737 24.7269 122.678 24.6902C122.618 24.6536 122.572 24.5848 122.54 24.484C122.513 24.3832 122.499 24.2366 122.499 24.0441C122.499 23.8516 122.513 23.705 122.54 23.6042C122.572 23.5034 122.618 23.4346 122.678 23.398C122.737 23.3567 122.822 23.3361 122.932 23.3361H124.609C124.765 23.3361 124.875 23.3705 124.939 23.4392C125.008 23.5034 125.042 23.6133 125.042 23.7691V24.7659C125.647 23.7119 126.403 23.1849 127.311 23.1849ZM137.271 20.6691C137.427 20.6691 137.537 20.7034 137.601 20.7722C137.669 20.8363 137.704 20.9463 137.704 21.1021V28.2784H138.302C138.412 28.2784 138.497 28.2967 138.556 28.3334C138.616 28.37 138.659 28.4388 138.687 28.5396C138.719 28.6404 138.735 28.787 138.735 28.9795C138.735 29.172 138.719 29.3186 138.687 29.4194C138.659 29.5202 138.616 29.5913 138.556 29.6325C138.497 29.6692 138.412 29.6875 138.302 29.6875H136.693C136.538 29.6875 136.425 29.6554 136.357 29.5913C136.292 29.5225 136.26 29.4103 136.26 29.2544V28.677C136.022 29.0437 135.724 29.3301 135.367 29.5363C135.009 29.7379 134.613 29.8387 134.178 29.8387C133.577 29.8387 133.053 29.6921 132.603 29.3988C132.154 29.1055 131.811 28.7068 131.572 28.2028C131.334 27.6987 131.215 27.135 131.215 26.5118C131.215 25.8886 131.334 25.3249 131.572 24.8208C131.811 24.3168 132.154 23.9181 132.603 23.6248C133.053 23.3315 133.577 23.1849 134.178 23.1849C134.535 23.1849 134.867 23.2559 135.174 23.398C135.481 23.5354 135.752 23.7348 135.985 23.996V22.0782H134.975C134.865 22.0782 134.78 22.0599 134.721 22.0232C134.661 21.9865 134.615 21.9178 134.583 21.817C134.556 21.7162 134.542 21.5695 134.542 21.3771C134.542 21.1846 134.556 21.038 134.583 20.9371C134.615 20.8363 134.661 20.7676 134.721 20.7309C134.78 20.6897 134.865 20.6691 134.975 20.6691H137.271ZM134.453 24.7452C134.168 24.7452 133.921 24.8186 133.71 24.9652C133.499 25.1073 133.337 25.3112 133.222 25.577C133.112 25.8427 133.057 26.1544 133.057 26.5118C133.057 26.8692 133.112 27.1809 133.222 27.4466C133.337 27.7124 133.499 27.9186 133.71 28.0653C133.921 28.2073 134.168 28.2784 134.453 28.2784C134.746 28.2784 135.012 28.2096 135.25 28.0722C135.488 27.9347 135.678 27.733 135.82 27.4673C135.962 27.1969 136.034 26.8784 136.034 26.5118C136.034 26.1452 135.962 25.829 135.82 25.5632C135.678 25.2928 135.488 25.0889 135.25 24.9514C135.012 24.814 134.746 24.7452 134.453 24.7452ZM143.306 23.1849C144.003 23.1849 144.596 23.3361 145.086 23.6385C145.577 23.9364 145.946 24.3534 146.193 24.8896C146.445 25.4212 146.571 26.0306 146.571 26.718C146.571 26.8738 146.537 26.9838 146.468 27.048C146.404 27.1121 146.294 27.1442 146.138 27.1442H141.725C141.812 27.5108 141.998 27.7926 142.282 27.9897C142.571 28.1821 142.935 28.2784 143.375 28.2784C144.085 28.2784 144.855 28.1523 145.684 27.9003C145.739 27.882 145.794 27.8728 145.849 27.8728C145.95 27.8728 146.037 27.9186 146.111 28.0103C146.184 28.1019 146.25 28.2577 146.31 28.4777C146.356 28.6473 146.379 28.7916 146.379 28.9108C146.379 29.0299 146.351 29.1238 146.296 29.1926C146.246 29.2567 146.161 29.3094 146.042 29.3507C145.584 29.5019 145.116 29.6211 144.64 29.7081C144.163 29.7952 143.696 29.8387 143.237 29.8387C142.541 29.8387 141.94 29.6967 141.436 29.4125C140.932 29.1284 140.547 28.7366 140.282 28.2371C140.02 27.733 139.89 27.1579 139.89 26.5118C139.89 25.8702 140.027 25.2974 140.302 24.7933C140.577 24.2893 140.973 23.8952 141.491 23.6111C142.009 23.3269 142.614 23.1849 143.306 23.1849ZM143.306 24.7452C142.467 24.7452 141.95 25.0981 141.753 25.8038H144.777C144.699 25.4693 144.532 25.2104 144.275 25.0271C144.023 24.8392 143.7 24.7452 143.306 24.7452ZM152.634 23.1849C153.051 23.1849 153.415 23.2765 153.727 23.4598C154.043 23.6431 154.286 23.9043 154.455 24.2434C154.625 24.578 154.71 24.9721 154.71 25.4257V28.2784H155.239C155.349 28.2784 155.434 28.299 155.493 28.3402C155.553 28.3769 155.596 28.4456 155.624 28.5464C155.656 28.6473 155.672 28.7939 155.672 28.9864C155.672 29.1788 155.656 29.3255 155.624 29.4263C155.596 29.5271 155.553 29.5958 155.493 29.6325C155.434 29.6692 155.349 29.6875 155.239 29.6875H152.668C152.558 29.6875 152.473 29.6692 152.414 29.6325C152.354 29.5958 152.308 29.5271 152.276 29.4263C152.249 29.3255 152.235 29.1788 152.235 28.9864C152.235 28.7939 152.249 28.6473 152.276 28.5464C152.308 28.4456 152.354 28.3769 152.414 28.3402C152.473 28.299 152.558 28.2784 152.668 28.2784H152.991V25.8313C152.991 25.4739 152.929 25.2035 152.806 25.0202C152.682 24.8369 152.476 24.7452 152.187 24.7452C151.921 24.7452 151.669 24.8575 151.431 25.082C151.193 25.302 151 25.5976 150.853 25.9688C150.711 26.34 150.64 26.7363 150.64 27.1579V28.2784H150.963C151.073 28.2784 151.158 28.299 151.218 28.3402C151.277 28.3769 151.321 28.4456 151.348 28.5464C151.38 28.6473 151.396 28.7939 151.396 28.9864C151.396 29.1788 151.38 29.3255 151.348 29.4263C151.321 29.5271 151.277 29.5958 151.218 29.6325C151.158 29.6692 151.073 29.6875 150.963 29.6875H148.393C148.283 29.6875 148.198 29.6692 148.138 29.6325C148.079 29.5958 148.033 29.5271 148.001 29.4263C147.973 29.3255 147.96 29.1788 147.96 28.9864C147.96 28.7939 147.973 28.6473 148.001 28.5464C148.033 28.4456 148.079 28.3769 148.138 28.3402C148.198 28.299 148.283 28.2784 148.393 28.2784H148.922V24.7452H148.255C148.145 24.7452 148.06 24.7269 148.001 24.6902C147.941 24.6536 147.895 24.5848 147.863 24.484C147.836 24.3832 147.822 24.2366 147.822 24.0441C147.822 23.8516 147.836 23.705 147.863 23.6042C147.895 23.5034 147.941 23.4346 148.001 23.398C148.06 23.3567 148.145 23.3361 148.255 23.3361H149.932C150.088 23.3361 150.198 23.3705 150.262 23.4392C150.331 23.5034 150.365 23.6133 150.365 23.7691V24.7659C150.97 23.7119 151.726 23.1849 152.634 23.1849ZM159.205 21.3771C159.421 21.3771 159.585 21.3931 159.7 21.4252C159.819 21.4527 159.902 21.4962 159.947 21.5558C159.993 21.6154 160.016 21.7001 160.016 21.8101V23.7485H162.566C162.727 23.7485 162.839 23.8012 162.903 23.9066C162.967 24.012 162.999 24.2068 162.999 24.4909C162.999 24.775 162.967 24.9698 162.903 25.0752C162.839 25.176 162.727 25.2264 162.566 25.2264H160.016V27.1373C160.016 27.898 160.312 28.2784 160.903 28.2784C161.114 28.2784 161.359 28.2325 161.638 28.1409C161.923 28.0447 162.253 27.9118 162.628 27.7422C162.729 27.701 162.809 27.6803 162.869 27.6803C162.965 27.6803 163.054 27.7216 163.137 27.8041C163.219 27.882 163.297 28.0126 163.371 28.1959C163.453 28.4021 163.494 28.5694 163.494 28.6977C163.494 28.7985 163.469 28.8833 163.419 28.952C163.373 29.0162 163.302 29.0734 163.206 29.1238C162.262 29.6004 161.444 29.8387 160.752 29.8387C159.954 29.8387 159.345 29.6165 158.923 29.172C158.506 28.7275 158.298 28.079 158.298 27.2267V25.2264H156.971C156.811 25.2264 156.698 25.176 156.634 25.0752C156.57 24.9698 156.538 24.775 156.538 24.4909C156.538 24.2068 156.57 24.012 156.634 23.9066C156.698 23.8012 156.811 23.7485 156.971 23.7485H158.298V21.8101C158.298 21.6543 158.367 21.5443 158.504 21.4802C158.646 21.4114 158.88 21.3771 159.205 21.3771ZM79.6064 40.3361C79.7164 40.3361 79.8012 40.3567 79.8607 40.398C79.9203 40.4346 79.9638 40.5034 79.9913 40.6042C80.0234 40.705 80.0395 40.8516 80.0395 41.0441C80.0395 41.2366 80.0234 41.3832 79.9913 41.484C79.9638 41.5848 79.9203 41.6536 79.8607 41.6902C79.8012 41.7269 79.7164 41.7452 79.6064 41.7452H79.3246L78.321 46.3919C78.2843 46.5569 78.2041 46.6715 78.0804 46.7356C77.9613 46.8044 77.7642 46.8387 77.4893 46.8387C77.2235 46.8387 77.0264 46.8044 76.8981 46.7356C76.7698 46.6669 76.6759 46.5523 76.6163 46.3919L75.654 43.9517L74.6779 46.3919C74.6137 46.5523 74.5175 46.6669 74.3892 46.7356C74.2609 46.8044 74.0615 46.8387 73.7912 46.8387C73.5162 46.8387 73.3192 46.8044 73.2 46.7356C73.0854 46.6715 73.0098 46.5569 72.9732 46.3919L71.9902 41.7452H71.7565C71.6465 41.7452 71.5618 41.7269 71.5022 41.6902C71.4426 41.6536 71.3991 41.5848 71.3716 41.484C71.3395 41.3832 71.3235 41.2366 71.3235 41.0441C71.3235 40.8516 71.3395 40.705 71.3716 40.6042C71.3991 40.5034 71.4426 40.4346 71.5022 40.398C71.5618 40.3567 71.6465 40.3361 71.7565 40.3361H74.1211C74.2311 40.3361 74.3159 40.3567 74.3754 40.398C74.435 40.4346 74.4785 40.5034 74.506 40.6042C74.5381 40.705 74.5542 40.8516 74.5542 41.0441C74.5542 41.2366 74.5381 41.3832 74.506 41.484C74.4785 41.5848 74.435 41.6536 74.3754 41.6902C74.3159 41.7269 74.2311 41.7452 74.1211 41.7452H73.5368L74.0524 44.4123L75.0009 42.082C75.0514 41.9537 75.127 41.8575 75.2278 41.7933C75.3286 41.7246 75.473 41.6902 75.6608 41.6902C75.8579 41.6902 76.0045 41.7177 76.1008 41.7727C76.2016 41.8277 76.2772 41.9148 76.3276 42.0339L77.2693 44.4123L77.8055 41.7452H77.3106C77.2006 41.7452 77.1158 41.7269 77.0562 41.6902C76.9966 41.6536 76.9508 41.5848 76.9187 41.484C76.8912 41.3832 76.8775 41.2366 76.8775 41.0441C76.8775 40.8516 76.8912 40.705 76.9187 40.6042C76.9508 40.5034 76.9966 40.4346 77.0562 40.398C77.1158 40.3567 77.2006 40.3361 77.3106 40.3361H79.6064ZM86.274 40.1849C86.6635 40.1849 87.0301 40.3132 87.3738 40.5698C87.5754 40.7164 87.6763 40.9089 87.6763 41.1472C87.6763 41.2984 87.635 41.4772 87.5525 41.6834C87.47 41.8896 87.3761 42.0454 87.2707 42.1508C87.1699 42.2562 87.0622 42.3089 86.9476 42.3089C86.8835 42.3089 86.8147 42.2906 86.7414 42.2539C86.4848 42.1118 86.219 42.0408 85.9441 42.0408C85.5912 42.0408 85.2613 42.1531 84.9542 42.3776C84.6472 42.6022 84.3997 42.9115 84.2119 43.3056C84.0286 43.6997 83.9369 44.1396 83.9369 44.6254V45.2784H85.9097C86.0197 45.2784 86.1044 45.299 86.164 45.3402C86.2236 45.3769 86.2671 45.4456 86.2946 45.5464C86.3267 45.6473 86.3427 45.7939 86.3427 45.9864C86.3427 46.1788 86.3267 46.3255 86.2946 46.4263C86.2671 46.5271 86.2236 46.5958 86.164 46.6325C86.1044 46.6692 86.0197 46.6875 85.9097 46.6875H81.208C81.098 46.6875 81.0132 46.6692 80.9537 46.6325C80.8941 46.5958 80.8483 46.5271 80.8162 46.4263C80.7887 46.3255 80.775 46.1788 80.775 45.9864C80.775 45.7939 80.7887 45.6473 80.8162 45.5464C80.8483 45.4456 80.8941 45.3769 80.9537 45.3402C81.0132 45.299 81.098 45.2784 81.208 45.2784H82.2185V41.7452H81.4142C81.3042 41.7452 81.2195 41.7269 81.1599 41.6902C81.1003 41.6536 81.0545 41.5848 81.0224 41.484C80.9949 41.3832 80.9812 41.2366 80.9812 41.0441C80.9812 40.8516 80.9949 40.705 81.0224 40.6042C81.0545 40.5034 81.1003 40.4346 81.1599 40.398C81.2195 40.3567 81.3042 40.3361 81.4142 40.3361H83.2976C83.4534 40.3361 83.5634 40.3705 83.6276 40.4392C83.6963 40.5034 83.7307 40.6133 83.7307 40.7691V42.2608C84.0744 41.5963 84.4685 41.0853 84.913 40.7279C85.3621 40.3659 85.8157 40.1849 86.274 40.1849ZM93.0859 40.3361C93.2418 40.3361 93.3517 40.3705 93.4159 40.4392C93.4846 40.5034 93.519 40.6133 93.519 40.7691V45.2784H95.4505C95.5605 45.2784 95.6453 45.299 95.7049 45.3402C95.7644 45.3769 95.808 45.4456 95.8355 45.5464C95.8675 45.6473 95.8836 45.7939 95.8836 45.9864C95.8836 46.1788 95.8675 46.3255 95.8355 46.4263C95.808 46.5271 95.7644 46.5958 95.7049 46.6325C95.6453 46.6692 95.5605 46.6875 95.4505 46.6875H89.924C89.814 46.6875 89.7292 46.6692 89.6697 46.6325C89.6101 46.5958 89.5643 46.5271 89.5322 46.4263C89.5047 46.3255 89.4909 46.1788 89.4909 45.9864C89.4909 45.7939 89.5047 45.6473 89.5322 45.5464C89.5643 45.4456 89.6101 45.3769 89.6697 45.3402C89.7292 45.299 89.814 45.2784 89.924 45.2784H91.8005V41.7452H90.3364C90.2264 41.7452 90.1417 41.7269 90.0821 41.6902C90.0225 41.6536 89.9767 41.5848 89.9446 41.484C89.9171 41.3832 89.9034 41.2366 89.9034 41.0441C89.9034 40.8516 89.9171 40.705 89.9446 40.6042C89.9767 40.5034 90.0225 40.4346 90.0821 40.398C90.1417 40.3567 90.2264 40.3361 90.3364 40.3361H93.0859ZM92.6391 37.3185C92.9645 37.3185 93.1913 37.3529 93.3197 37.4216C93.4525 37.4858 93.519 37.5957 93.519 37.7515V38.8789C93.519 39.0347 93.4571 39.1469 93.3334 39.2157C93.2143 39.2798 92.9943 39.3119 92.6735 39.3119C92.3527 39.3119 92.1259 39.2798 91.993 39.2157C91.8647 39.1469 91.8005 39.0347 91.8005 38.8789V37.7515C91.8005 37.5912 91.8601 37.4789 91.9793 37.4147C92.0984 37.3506 92.3184 37.3185 92.6391 37.3185ZM100.118 38.3771C100.333 38.3771 100.498 38.3931 100.613 38.4252C100.732 38.4527 100.814 38.4962 100.86 38.5558C100.906 38.6154 100.929 38.7001 100.929 38.8101V40.7485H103.479C103.64 40.7485 103.752 40.8012 103.816 40.9066C103.88 41.012 103.912 41.2068 103.912 41.4909C103.912 41.775 103.88 41.9698 103.816 42.0752C103.752 42.176 103.64 42.2264 103.479 42.2264H100.929V44.1373C100.929 44.898 101.225 45.2784 101.816 45.2784C102.026 45.2784 102.272 45.2325 102.551 45.1409C102.835 45.0447 103.165 44.9118 103.541 44.7422C103.642 44.701 103.722 44.6803 103.782 44.6803C103.878 44.6803 103.967 44.7216 104.05 44.8041C104.132 44.882 104.21 45.0126 104.283 45.1959C104.366 45.4021 104.407 45.5694 104.407 45.6977C104.407 45.7985 104.382 45.8833 104.331 45.952C104.286 46.0162 104.215 46.0734 104.118 46.1238C103.174 46.6004 102.356 46.8387 101.664 46.8387C100.867 46.8387 100.258 46.6165 99.836 46.172C99.419 45.7275 99.2105 45.079 99.2105 44.2267V42.2264H97.8839C97.7235 42.2264 97.6112 42.176 97.547 42.0752C97.4829 41.9698 97.4508 41.775 97.4508 41.4909C97.4508 41.2068 97.4829 41.012 97.547 40.9066C97.6112 40.8012 97.7235 40.7485 97.8839 40.7485H99.2105V38.8101C99.2105 38.6543 99.2792 38.5443 99.4167 38.4802C99.5588 38.4114 99.7925 38.3771 100.118 38.3771ZM109.542 40.1849C110.238 40.1849 110.832 40.3361 111.322 40.6385C111.812 40.9364 112.181 41.3534 112.429 41.8896C112.681 42.4212 112.807 43.0306 112.807 43.718C112.807 43.8738 112.773 43.9838 112.704 44.048C112.64 44.1121 112.53 44.1442 112.374 44.1442H107.961C108.048 44.5108 108.234 44.7926 108.518 44.9897C108.806 45.1821 109.171 45.2784 109.611 45.2784C110.321 45.2784 111.091 45.1523 111.92 44.9003C111.975 44.882 112.03 44.8728 112.085 44.8728C112.186 44.8728 112.273 44.9186 112.346 45.0103C112.42 45.1019 112.486 45.2577 112.546 45.4777C112.592 45.6473 112.614 45.7916 112.614 45.9108C112.614 46.0299 112.587 46.1238 112.532 46.1926C112.482 46.2567 112.397 46.3094 112.278 46.3507C111.819 46.5019 111.352 46.6211 110.875 46.7081C110.399 46.7952 109.931 46.8387 109.473 46.8387C108.777 46.8387 108.176 46.6967 107.672 46.4125C107.168 46.1284 106.783 45.7366 106.517 45.2371C106.256 44.733 106.126 44.1579 106.126 43.5118C106.126 42.8702 106.263 42.2974 106.538 41.7933C106.813 41.2893 107.209 40.8952 107.727 40.6111C108.245 40.3269 108.85 40.1849 109.542 40.1849ZM109.542 41.7452C108.703 41.7452 108.185 42.0981 107.988 42.8038H111.013C110.935 42.4693 110.768 42.2104 110.511 42.0271C110.259 41.8392 109.936 41.7452 109.542 41.7452ZM120.038 40.1849C120.428 40.1849 120.794 40.3132 121.138 40.5698C121.34 40.7164 121.44 40.9089 121.44 41.1472C121.44 41.2984 121.399 41.4772 121.317 41.6834C121.234 41.8896 121.14 42.0454 121.035 42.1508C120.934 42.2562 120.826 42.3089 120.712 42.3089C120.648 42.3089 120.579 42.2906 120.506 42.2539C120.249 42.1118 119.983 42.0408 119.708 42.0408C119.355 42.0408 119.025 42.1531 118.718 42.3776C118.411 42.6022 118.164 42.9115 117.976 43.3056C117.793 43.6997 117.701 44.1396 117.701 44.6254V45.2784H119.674C119.784 45.2784 119.869 45.299 119.928 45.3402C119.988 45.3769 120.031 45.4456 120.059 45.5464C120.091 45.6473 120.107 45.7939 120.107 45.9864C120.107 46.1788 120.091 46.3255 120.059 46.4263C120.031 46.5271 119.988 46.5958 119.928 46.6325C119.869 46.6692 119.784 46.6875 119.674 46.6875H114.972C114.862 46.6875 114.777 46.6692 114.718 46.6325C114.658 46.5958 114.612 46.5271 114.58 46.4263C114.553 46.3255 114.539 46.1788 114.539 45.9864C114.539 45.7939 114.553 45.6473 114.58 45.5464C114.612 45.4456 114.658 45.3769 114.718 45.3402C114.777 45.299 114.862 45.2784 114.972 45.2784H115.983V41.7452H115.178C115.068 41.7452 114.984 41.7269 114.924 41.6902C114.864 41.6536 114.819 41.5848 114.787 41.484C114.759 41.3832 114.745 41.2366 114.745 41.0441C114.745 40.8516 114.759 40.705 114.787 40.6042C114.819 40.5034 114.864 40.4346 114.924 40.398C114.984 40.3567 115.068 40.3361 115.178 40.3361H117.062C117.218 40.3361 117.328 40.3705 117.392 40.4392C117.46 40.5034 117.495 40.6133 117.495 40.7691V42.2608C117.839 41.5963 118.233 41.0853 118.677 40.7279C119.126 40.3659 119.58 40.1849 120.038 40.1849ZM128.335 40.1849C128.628 40.1849 128.837 40.2192 128.96 40.288C129.084 40.3521 129.146 40.4621 129.146 40.6179V42.0683C129.146 42.2241 129.096 42.3364 128.995 42.4051C128.898 42.4693 128.738 42.5013 128.514 42.5013C128.271 42.5013 128.103 42.4532 128.012 42.357C127.741 42.0683 127.432 41.8644 127.084 41.7452C126.736 41.6215 126.332 41.5596 125.874 41.5596C125.604 41.5596 125.391 41.6078 125.235 41.704C125.084 41.8002 125.008 41.9285 125.008 42.0889C125.008 42.2814 125.177 42.4189 125.517 42.5013C125.695 42.5472 126 42.5907 126.431 42.632C126.857 42.6824 127.21 42.7328 127.489 42.7832C127.773 42.8336 128.042 42.9092 128.294 43.01C128.66 43.1612 128.947 43.372 129.153 43.6424C129.359 43.9128 129.462 44.2702 129.462 44.7147C129.462 45.1501 129.354 45.5281 129.139 45.8489C128.928 46.1651 128.617 46.4103 128.204 46.5844C127.796 46.7539 127.304 46.8387 126.726 46.8387C126.089 46.8387 125.498 46.676 124.953 46.3507V46.4057C124.953 46.5615 124.886 46.6715 124.754 46.7356C124.621 46.8044 124.408 46.8387 124.114 46.8387C123.821 46.8387 123.613 46.8044 123.489 46.7356C123.365 46.6715 123.303 46.5615 123.303 46.4057V44.8728C123.303 44.7216 123.356 44.6116 123.461 44.5429C123.571 44.4741 123.739 44.4398 123.963 44.4398C124.243 44.4398 124.433 44.5039 124.534 44.6322C124.763 44.9209 125.056 45.1317 125.413 45.2646C125.771 45.3975 126.163 45.464 126.589 45.464C127.322 45.464 127.689 45.2738 127.689 44.8934C127.689 44.7789 127.636 44.6872 127.531 44.6185C127.43 44.5497 127.279 44.4925 127.077 44.4466C126.962 44.4237 126.697 44.3825 126.28 44.3229C125.817 44.2679 125.418 44.2061 125.084 44.1373C124.754 44.064 124.453 43.9517 124.183 43.8005C123.551 43.4522 123.234 42.9023 123.234 42.1508C123.234 41.7521 123.342 41.4038 123.558 41.106C123.773 40.8081 124.068 40.5813 124.444 40.4255C124.825 40.2651 125.251 40.1849 125.723 40.1849C126.415 40.1849 127.029 40.3521 127.565 40.6867V40.6179C127.565 40.4621 127.62 40.3521 127.73 40.288C127.845 40.2192 128.046 40.1849 128.335 40.1849Z" fill="#072114"/>
<circle cx="36.2715" cy="34.1309" r="27.373" fill="#58C9AB"/>
<path d="M24.25 32.1331H32.2044C32.6657 32.1331 32.9576 32.6283 32.7342 33.0319L31.8353 34.6558C31.6118 35.0595 31.9038 35.5547 32.3651 35.5547H40.1634C40.6211 35.5547 40.9133 35.0666 40.6972 34.6631L39.8195 33.0246C39.6033 32.6212 39.8956 32.1331 40.3532 32.1331H48.2014" stroke="#072114" stroke-width="1.95522" stroke-miterlimit="10"/>
<path d="M46.9794 29.7533C46.3045 29.7533 45.7574 29.2062 45.7574 28.5313V21.7247C45.7574 20.8609 45.0571 20.1605 44.1932 20.1605H28.1971C27.3332 20.1605 26.6329 20.8609 26.6329 21.7247V28.5619C26.6329 29.2199 26.0995 29.7533 25.4415 29.7533V29.7533C24.7834 29.7533 24.25 30.2868 24.25 30.9448V46.556C24.25 47.9058 25.3442 49 26.694 49H45.7574C47.1072 49 48.2014 47.9058 48.2014 46.556V30.9753C48.2014 30.3004 47.6543 29.7533 46.9794 29.7533V29.7533Z" stroke="#072114" stroke-width="1.95522" stroke-miterlimit="10"/>
<path d="M48.75 32.1328H50.302" stroke="#072114" stroke-width="1.95522" stroke-miterlimit="10" stroke-linecap="round"/>
<path d="M22.1459 32.1328H24.9688" stroke="#072114" stroke-width="1.95522" stroke-miterlimit="10" stroke-linecap="round"/>
<path d="M30.9675 44.8585C30.9675 45.2905 30.6173 45.6406 30.1854 45.6406H29.3055C28.8736 45.6406 28.5234 45.2905 28.5234 44.8585V43.9787C28.5234 43.5468 28.8736 43.1966 29.3055 43.1966H30.1854C30.6173 43.1966 30.9675 43.5468 30.9675 43.9787V44.8585Z" fill="#072114"/>
<path d="M35.2487 44.8585C35.2487 45.2905 34.8986 45.6406 34.4666 45.6406H33.5868C33.1548 45.6406 32.8047 45.2905 32.8047 44.8585V43.9787C32.8047 43.5468 33.1548 43.1966 33.5868 43.1966H34.4666C34.8986 43.1966 35.2487 43.5468 35.2487 43.9787V44.8585Z" fill="#072114"/>
<path d="M39.53 44.8585C39.53 45.2905 39.1798 45.6406 38.7479 45.6406H37.868C37.4361 45.6406 37.0859 45.2905 37.0859 44.8585V43.9787C37.0859 43.5468 37.4361 43.1966 37.868 43.1966H38.7479C39.1798 43.1966 39.53 43.5468 39.53 43.9787V44.8585Z" fill="#072114"/>
<path d="M43.8034 44.8585C43.8034 45.2905 43.4532 45.6406 43.0213 45.6406H42.1415C41.7095 45.6406 41.3594 45.2905 41.3594 44.8585V43.9787C41.3594 43.5468 41.7095 43.1966 42.1415 43.1966H43.0213C43.4532 43.1966 43.8034 43.5468 43.8034 43.9787V44.8585Z" fill="#072114"/>
<path d="M30.9675 40.5773C30.9675 41.0092 30.6173 41.3594 30.1854 41.3594H29.3055C28.8736 41.3594 28.5234 41.0092 28.5234 40.5773V39.6974C28.5234 39.2655 28.8736 38.9154 29.3055 38.9154H30.1854C30.6173 38.9154 30.9675 39.2655 30.9675 39.6974V40.5773Z" fill="#072114"/>
<path d="M35.2487 40.5773C35.2487 41.0092 34.8986 41.3594 34.4666 41.3594H33.5868C33.1548 41.3594 32.8047 41.0092 32.8047 40.5773V39.6974C32.8047 39.2655 33.1548 38.9154 33.5868 38.9154H34.4666C34.8986 38.9154 35.2487 39.2655 35.2487 39.6974V40.5773Z" fill="#072114"/>
<path d="M39.53 40.5773C39.53 41.0092 39.1798 41.3594 38.7479 41.3594H37.868C37.4361 41.3594 37.0859 41.0092 37.0859 40.5773V39.6974C37.0859 39.2655 37.4361 38.9154 37.868 38.9154H38.7479C39.1798 38.9154 39.53 39.2655 39.53 39.6974V40.5773Z" fill="#072114"/>
<path d="M43.8034 40.5773C43.8034 41.0092 43.4532 41.3594 43.0213 41.3594H42.1415C41.7095 41.3594 41.3594 41.0092 41.3594 40.5773V39.6974C41.3594 39.2655 41.7095 38.9154 42.1415 38.9154H43.0213C43.4532 38.9154 43.8034 39.2655 43.8034 39.6974V40.5773Z" fill="#072114"/>
<g id="audience-pill-labels" fill="#072114" font-family="system-ui, -apple-system, 'Segoe UI', Roboto, sans-serif" font-size="12" font-weight="700" letter-spacing="-0.02em">
<text x="74" y="40">Beginner Designers</text>
<text x="252" y="40">Trained Designers</text>
<text x="74" y="115">Active Freelancers</text>
<text x="220" y="115">Career Switchers</text>
</g>
<defs>
<filter id="filter0_b_2186_433" x="161.863" y="69.5973" width="201.899" height="79.6257" filterUnits="userSpaceOnUse" color-interpolation-filters="sRGB">
<feFlood flood-opacity="0" result="BackgroundImageFix"/>
<feGaussianBlur in="BackgroundImageFix" stdDeviation="3.14276"/>
<feComposite in2="SourceAlpha" operator="in" result="effect1_backgroundBlur_2186_433"/>
<feBlend mode="normal" in="SourceGraphic" in2="effect1_backgroundBlur_2186_433" result="shape"/>
</filter>
<filter id="filter1_b_2186_433" x="-6.28553" y="69.5973" width="170.993" height="79.6257" filterUnits="userSpaceOnUse" color-interpolation-filters="sRGB">
<feFlood flood-opacity="0" result="BackgroundImageFix"/>
<feGaussianBlur in="BackgroundImageFix" stdDeviation="3.14276"/>
<feComposite in2="SourceAlpha" operator="in" result="effect1_backgroundBlur_2186_433"/>
<feBlend mode="normal" in="SourceGraphic" in2="effect1_backgroundBlur_2186_433" result="shape"/>
</filter>
<filter id="filter2_b_2186_433" x="188.457" y="-5.48084" width="172.391" height="79.6257" filterUnits="userSpaceOnUse" color-interpolation-filters="sRGB">
<feFlood flood-opacity="0" result="BackgroundImageFix"/>
<feGaussianBlur in="BackgroundImageFix" stdDeviation="3.14276"/>
<feComposite in2="SourceAlpha" operator="in" result="effect1_backgroundBlur_2186_433"/>
<feBlend mode="normal" in="SourceGraphic" in2="effect1_backgroundBlur_2186_433" result="shape"/>
</filter>
<filter id="filter3_b_2186_433" x="-6.28552" y="-5.48083" width="199.493" height="79.6257" filterUnits="userSpaceOnUse" color-interpolation-filters="sRGB">
<feFlood flood-opacity="0" result="BackgroundImageFix"/>
<feGaussianBlur in="BackgroundImageFix" stdDeviation="3.14276"/>
<feComposite in2="SourceAlpha" operator="in" result="effect1_backgroundBlur_2186_433"/>
<feBlend mode="normal" in="SourceGraphic" in2="effect1_backgroundBlur_2186_433" result="shape"/>
</filter>
<linearGradient id="paint0_linear_2186_433" x1="419.962" y1="114.756" x2="182.551" y2="113.013" gradientUnits="userSpaceOnUse">
<stop stop-color="white"/>
<stop offset="1" stop-color="white"/>
</linearGradient>
<linearGradient id="paint1_linear_2186_433" x1="253.378" y1="114.756" x2="15.9669" y2="113.013" gradientUnits="userSpaceOnUse">
<stop stop-color="white"/>
<stop offset="1" stop-color="white"/>
</linearGradient>
<linearGradient id="paint2_linear_2186_433" x1="448.12" y1="39.6781" x2="210.709" y2="37.9349" gradientUnits="userSpaceOnUse">
<stop stop-color="white"/>
<stop offset="1" stop-color="white"/>
</linearGradient>
<linearGradient id="paint3_linear_2186_433" x1="253.377" y1="39.6781" x2="15.9669" y2="37.9349" gradientUnits="userSpaceOnUse">
<stop stop-color="white"/>
<stop offset="1" stop-color="white"/>
</linearGradient>
</defs>
</svg>
