<svg width="255" height="87" viewBox="0 0 255 87" fill="none" xmlns="http://www.w3.org/2000/svg">
<g filter="url(#filter0_b_2183_82)">
<path d="M0.78125 43.8672C0.78125 20.1189 20.033 0.867188 43.7812 0.867188H211.781C235.529 0.867188 254.781 20.1189 254.781 43.8672C254.781 67.6154 235.529 86.8672 211.781 86.8672H43.7812C20.033 86.8672 0.78125 67.6154 0.78125 43.8672Z" fill="url(#paint0_linear_2183_82)"/>
</g>
<path d="M102.757 27.4346C102.897 27.4346 103.006 27.4609 103.082 27.5137C103.158 27.5605 103.214 27.6484 103.249 27.7773C103.29 27.9062 103.311 28.0938 103.311 28.3398C103.311 28.5859 103.29 28.7734 103.249 28.9023C103.214 29.0312 103.158 29.1191 103.082 29.166C103.006 29.2129 102.897 29.2363 102.757 29.2363H102.256V37.4805C102.256 37.6738 102.183 37.8174 102.036 37.9111C101.89 38.0107 101.641 38.0605 101.289 38.0605C101.02 38.0605 100.817 38.0225 100.683 37.9463C100.554 37.876 100.439 37.7588 100.34 37.5947L96.3848 31.0469H96.3496V36.0654H97.3252C97.4658 36.0654 97.5742 36.0918 97.6504 36.1445C97.7266 36.1914 97.7822 36.2793 97.8174 36.4082C97.8584 36.5371 97.8789 36.7246 97.8789 36.9707C97.8789 37.2168 97.8584 37.4043 97.8174 37.5332C97.7822 37.6621 97.7266 37.75 97.6504 37.7969C97.5742 37.8438 97.4658 37.8672 97.3252 37.8672H93.7744C93.6338 37.8672 93.5254 37.8438 93.4492 37.7969C93.373 37.75 93.3145 37.6621 93.2734 37.5332C93.2383 37.4043 93.2207 37.2168 93.2207 36.9707C93.2207 36.7246 93.2383 36.5371 93.2734 36.4082C93.3145 36.2793 93.373 36.1914 93.4492 36.1445C93.5254 36.0918 93.6338 36.0654 93.7744 36.0654H94.3633V29.2363H93.7744C93.6338 29.2363 93.5254 29.2129 93.4492 29.166C93.373 29.1191 93.3145 29.0312 93.2734 28.9023C93.2383 28.7734 93.2207 28.5859 93.2207 28.3398C93.2207 28.0938 93.2383 27.9062 93.2734 27.7773C93.3145 27.6484 93.373 27.5605 93.4492 27.5137C93.5254 27.4609 93.6338 27.4346 93.7744 27.4346H96.0947C96.3291 27.4346 96.4932 27.5137 96.5869 27.6719L100.234 33.71H100.27V29.2363H99.4609C99.3203 29.2363 99.2119 29.2129 99.1357 29.166C99.0596 29.1191 99.001 29.0312 98.96 28.9023C98.9248 28.7734 98.9072 28.5859 98.9072 28.3398C98.9072 28.0938 98.9248 27.9062 98.96 27.7773C99.001 27.6484 99.0596 27.5605 99.1357 27.5137C99.2119 27.4609 99.3203 27.4346 99.4609 27.4346H102.757ZM109.094 29.5527C109.984 29.5527 110.743 29.7461 111.37 30.1328C111.997 30.5137 112.469 31.0469 112.785 31.7324C113.107 32.4121 113.269 33.1914 113.269 34.0703C113.269 34.2695 113.225 34.4102 113.137 34.4922C113.055 34.5742 112.914 34.6152 112.715 34.6152H107.072C107.184 35.084 107.421 35.4443 107.784 35.6963C108.153 35.9424 108.619 36.0654 109.182 36.0654C110.09 36.0654 111.074 35.9043 112.135 35.582C112.205 35.5586 112.275 35.5469 112.346 35.5469C112.475 35.5469 112.586 35.6055 112.68 35.7227C112.773 35.8398 112.858 36.0391 112.935 36.3203C112.993 36.5371 113.022 36.7217 113.022 36.874C113.022 37.0264 112.987 37.1465 112.917 37.2344C112.853 37.3164 112.744 37.3838 112.592 37.4365C112.006 37.6299 111.408 37.7822 110.799 37.8936C110.189 38.0049 109.592 38.0605 109.006 38.0605C108.115 38.0605 107.348 37.8789 106.703 37.5156C106.059 37.1523 105.566 36.6514 105.227 36.0127C104.893 35.3682 104.726 34.6328 104.726 33.8066C104.726 32.9863 104.901 32.2539 105.253 31.6094C105.604 30.9648 106.111 30.4609 106.773 30.0977C107.436 29.7344 108.209 29.5527 109.094 29.5527ZM109.094 31.5479C108.021 31.5479 107.359 31.999 107.107 32.9014H110.975C110.875 32.4736 110.661 32.1426 110.333 31.9082C110.011 31.668 109.598 31.5479 109.094 31.5479ZM124.782 29.7461C124.923 29.7461 125.031 29.7725 125.107 29.8252C125.184 29.8721 125.239 29.96 125.274 30.0889C125.315 30.2178 125.336 30.4053 125.336 30.6514C125.336 30.8975 125.315 31.085 125.274 31.2139C125.239 31.3428 125.184 31.4307 125.107 31.4775C125.031 31.5244 124.923 31.5479 124.782 31.5479H124.422L123.139 37.4893C123.092 37.7002 122.989 37.8467 122.831 37.9287C122.679 38.0166 122.427 38.0605 122.075 38.0605C121.735 38.0605 121.483 38.0166 121.319 37.9287C121.155 37.8408 121.035 37.6943 120.959 37.4893L119.729 34.3691L118.48 37.4893C118.398 37.6943 118.275 37.8408 118.111 37.9287C117.947 38.0166 117.692 38.0605 117.347 38.0605C116.995 38.0605 116.743 38.0166 116.591 37.9287C116.444 37.8467 116.348 37.7002 116.301 37.4893L115.044 31.5479H114.745C114.604 31.5479 114.496 31.5244 114.42 31.4775C114.344 31.4307 114.288 31.3428 114.253 31.2139C114.212 31.085 114.191 30.8975 114.191 30.6514C114.191 30.4053 114.212 30.2178 114.253 30.0889C114.288 29.96 114.344 29.8721 114.42 29.8252C114.496 29.7725 114.604 29.7461 114.745 29.7461H117.769C117.909 29.7461 118.018 29.7725 118.094 29.8252C118.17 29.8721 118.226 29.96 118.261 30.0889C118.302 30.2178 118.322 30.4053 118.322 30.6514C118.322 30.8975 118.302 31.085 118.261 31.2139C118.226 31.3428 118.17 31.4307 118.094 31.4775C118.018 31.5244 117.909 31.5479 117.769 31.5479H117.021L117.681 34.958L118.894 31.9785C118.958 31.8145 119.055 31.6914 119.184 31.6094C119.312 31.5215 119.497 31.4775 119.737 31.4775C119.989 31.4775 120.177 31.5127 120.3 31.583C120.429 31.6533 120.525 31.7646 120.59 31.917L121.794 34.958L122.479 31.5479H121.847C121.706 31.5479 121.598 31.5244 121.521 31.4775C121.445 31.4307 121.387 31.3428 121.346 31.2139C121.311 31.085 121.293 30.8975 121.293 30.6514C121.293 30.4053 121.311 30.2178 121.346 30.0889C121.387 29.96 121.445 29.8721 121.521 29.8252C121.598 29.7725 121.706 29.7461 121.847 29.7461H124.782ZM98.6699 48.4346C100.018 48.4346 101.037 48.7393 101.729 49.3486C102.426 49.9521 102.774 50.8252 102.774 51.9678C102.774 53.1104 102.426 53.9863 101.729 54.5957C101.037 55.2051 100.018 55.5098 98.6699 55.5098H97.3516V57.0654H99.2588C99.3994 57.0654 99.5078 57.0918 99.584 57.1445C99.6602 57.1914 99.7158 57.2793 99.751 57.4082C99.792 57.5371 99.8125 57.7246 99.8125 57.9707C99.8125 58.2168 99.792 58.4043 99.751 58.5332C99.7158 58.6621 99.6602 58.75 99.584 58.7969C99.5078 58.8438 99.3994 58.8672 99.2588 58.8672H93.8623C93.7217 58.8672 93.6133 58.8438 93.5371 58.7969C93.4609 58.75 93.4023 58.6621 93.3613 58.5332C93.3262 58.4043 93.3086 58.2168 93.3086 57.9707C93.3086 57.7246 93.3262 57.5371 93.3613 57.4082C93.4023 57.2793 93.4609 57.1914 93.5371 57.1445C93.6133 57.0918 93.7217 57.0654 93.8623 57.0654H95.1543V50.2363H93.8623C93.7217 50.2363 93.6133 50.2129 93.5371 50.166C93.4609 50.1191 93.4023 50.0312 93.3613 49.9023C93.3262 49.7734 93.3086 49.5859 93.3086 49.3398C93.3086 49.0938 93.3262 48.9062 93.3613 48.7773C93.4023 48.6484 93.4609 48.5605 93.5371 48.5137C93.6133 48.4609 93.7217 48.4346 93.8623 48.4346H98.6699ZM97.3516 53.6201H98.3975C99.0947 53.6201 99.6191 53.4854 99.9707 53.2158C100.328 52.9463 100.507 52.5303 100.507 51.9678C100.507 51.4053 100.328 50.9922 99.9707 50.7285C99.6191 50.459 99.0947 50.3242 98.3975 50.3242H97.3516V53.6201ZM108.971 50.5527C109.861 50.5527 110.641 50.7344 111.309 51.0977C111.977 51.4609 112.489 51.9648 112.847 52.6094C113.21 53.2539 113.392 53.9863 113.392 54.8066C113.392 55.627 113.21 56.3594 112.847 57.0039C112.489 57.6484 111.977 58.1523 111.309 58.5156C110.641 58.8789 109.861 59.0605 108.971 59.0605C108.08 59.0605 107.301 58.8789 106.633 58.5156C105.965 58.1523 105.449 57.6484 105.086 57.0039C104.729 56.3594 104.55 55.627 104.55 54.8066C104.55 53.9863 104.729 53.2539 105.086 52.6094C105.449 51.9648 105.965 51.4609 106.633 51.0977C107.301 50.7344 108.08 50.5527 108.971 50.5527ZM108.971 52.5479C108.549 52.5479 108.183 52.6416 107.872 52.8291C107.562 53.0107 107.321 53.2715 107.151 53.6113C106.987 53.9512 106.905 54.3496 106.905 54.8066C106.905 55.2637 106.987 55.6621 107.151 56.002C107.321 56.3418 107.562 56.6055 107.872 56.793C108.183 56.9746 108.549 57.0654 108.971 57.0654C109.393 57.0654 109.759 56.9746 110.069 56.793C110.38 56.6055 110.617 56.3418 110.781 56.002C110.951 55.6621 111.036 55.2637 111.036 54.8066C111.036 54.3496 110.951 53.9512 110.781 53.6113C110.617 53.2715 110.38 53.0107 110.069 52.8291C109.759 52.6416 109.393 52.5479 108.971 52.5479ZM122.33 50.5527C122.705 50.5527 122.972 50.5967 123.13 50.6846C123.288 50.7666 123.367 50.9072 123.367 51.1064V52.9609C123.367 53.1602 123.303 53.3037 123.174 53.3916C123.051 53.4736 122.846 53.5146 122.559 53.5146C122.248 53.5146 122.034 53.4531 121.917 53.3301C121.571 52.9609 121.176 52.7002 120.73 52.5479C120.285 52.3896 119.77 52.3105 119.184 52.3105C118.838 52.3105 118.565 52.3721 118.366 52.4951C118.173 52.6182 118.076 52.7822 118.076 52.9873C118.076 53.2334 118.293 53.4092 118.727 53.5146C118.955 53.5732 119.345 53.6289 119.896 53.6816C120.44 53.7461 120.892 53.8105 121.249 53.875C121.612 53.9395 121.955 54.0361 122.277 54.165C122.746 54.3584 123.112 54.6279 123.376 54.9736C123.64 55.3193 123.771 55.7764 123.771 56.3447C123.771 56.9014 123.634 57.3848 123.358 57.7949C123.089 58.1992 122.69 58.5127 122.163 58.7354C121.642 58.9521 121.012 59.0605 120.273 59.0605C119.459 59.0605 118.703 58.8525 118.006 58.4365V58.5068C118.006 58.7061 117.921 58.8467 117.751 58.9287C117.581 59.0166 117.309 59.0605 116.934 59.0605C116.559 59.0605 116.292 59.0166 116.134 58.9287C115.976 58.8467 115.896 58.7061 115.896 58.5068V56.5469C115.896 56.3535 115.964 56.2129 116.099 56.125C116.239 56.0371 116.453 55.9932 116.74 55.9932C117.098 55.9932 117.341 56.0752 117.47 56.2393C117.763 56.6084 118.138 56.8779 118.595 57.0479C119.052 57.2178 119.553 57.3027 120.098 57.3027C121.035 57.3027 121.504 57.0596 121.504 56.5732C121.504 56.4268 121.437 56.3096 121.302 56.2217C121.173 56.1338 120.979 56.0605 120.722 56.002C120.575 55.9727 120.235 55.9199 119.702 55.8438C119.11 55.7734 118.601 55.6943 118.173 55.6064C117.751 55.5127 117.367 55.3691 117.021 55.1758C116.213 54.7305 115.809 54.0273 115.809 53.0664C115.809 52.5566 115.946 52.1113 116.222 51.7305C116.497 51.3496 116.875 51.0596 117.355 50.8604C117.842 50.6553 118.387 50.5527 118.99 50.5527C119.875 50.5527 120.66 50.7666 121.346 51.1943V51.1064C121.346 50.9072 121.416 50.7666 121.557 50.6846C121.703 50.5967 121.961 50.5527 122.33 50.5527ZM133.123 50.5527C133.498 50.5527 133.765 50.5967 133.923 50.6846C134.081 50.7666 134.16 50.9072 134.16 51.1064V52.9609C134.16 53.1602 134.096 53.3037 133.967 53.3916C133.844 53.4736 133.639 53.5146 133.352 53.5146C133.041 53.5146 132.827 53.4531 132.71 53.3301C132.364 52.9609 131.969 52.7002 131.523 52.5479C131.078 52.3896 130.562 52.3105 129.977 52.3105C129.631 52.3105 129.358 52.3721 129.159 52.4951C128.966 52.6182 128.869 52.7822 128.869 52.9873C128.869 53.2334 129.086 53.4092 129.52 53.5146C129.748 53.5732 130.138 53.6289 130.688 53.6816C131.233 53.7461 131.685 53.8105 132.042 53.875C132.405 53.9395 132.748 54.0361 133.07 54.165C133.539 54.3584 133.905 54.6279 134.169 54.9736C134.433 55.3193 134.564 55.7764 134.564 56.3447C134.564 56.9014 134.427 57.3848 134.151 57.7949C133.882 58.1992 133.483 58.5127 132.956 58.7354C132.435 58.9521 131.805 59.0605 131.066 59.0605C130.252 59.0605 129.496 58.8525 128.799 58.4365V58.5068C128.799 58.7061 128.714 58.8467 128.544 58.9287C128.374 59.0166 128.102 59.0605 127.727 59.0605C127.352 59.0605 127.085 59.0166 126.927 58.9287C126.769 58.8467 126.689 58.7061 126.689 58.5068V56.5469C126.689 56.3535 126.757 56.2129 126.892 56.125C127.032 56.0371 127.246 55.9932 127.533 55.9932C127.891 55.9932 128.134 56.0752 128.263 56.2393C128.556 56.6084 128.931 56.8779 129.388 57.0479C129.845 57.2178 130.346 57.3027 130.891 57.3027C131.828 57.3027 132.297 57.0596 132.297 56.5732C132.297 56.4268 132.229 56.3096 132.095 56.2217C131.966 56.1338 131.772 56.0605 131.515 56.002C131.368 55.9727 131.028 55.9199 130.495 55.8438C129.903 55.7734 129.394 55.6943 128.966 55.6064C128.544 55.5127 128.16 55.3691 127.814 55.1758C127.006 54.7305 126.602 54.0273 126.602 53.0664C126.602 52.5566 126.739 52.1113 127.015 51.7305C127.29 51.3496 127.668 51.0596 128.148 50.8604C128.635 50.6553 129.18 50.5527 129.783 50.5527C130.668 50.5527 131.453 50.7666 132.139 51.1943V51.1064C132.139 50.9072 132.209 50.7666 132.35 50.6846C132.496 50.5967 132.754 50.5527 133.123 50.5527ZM142.018 50.7461C142.217 50.7461 142.357 50.79 142.439 50.8779C142.527 50.96 142.571 51.1006 142.571 51.2998V57.0654H145.041C145.182 57.0654 145.29 57.0918 145.366 57.1445C145.442 57.1914 145.498 57.2793 145.533 57.4082C145.574 57.5371 145.595 57.7246 145.595 57.9707C145.595 58.2168 145.574 58.4043 145.533 58.5332C145.498 58.6621 145.442 58.75 145.366 58.7969C145.29 58.8438 145.182 58.8672 145.041 58.8672H137.975C137.834 58.8672 137.726 58.8438 137.649 58.7969C137.573 58.75 137.515 58.6621 137.474 58.5332C137.438 58.4043 137.421 58.2168 137.421 57.9707C137.421 57.7246 137.438 57.5371 137.474 57.4082C137.515 57.2793 137.573 57.1914 137.649 57.1445C137.726 57.0918 137.834 57.0654 137.975 57.0654H140.374V52.5479H138.502C138.361 52.5479 138.253 52.5244 138.177 52.4775C138.101 52.4307 138.042 52.3428 138.001 52.2139C137.966 52.085 137.948 51.8975 137.948 51.6514C137.948 51.4053 137.966 51.2178 138.001 51.0889C138.042 50.96 138.101 50.8721 138.177 50.8252C138.253 50.7725 138.361 50.7461 138.502 50.7461H142.018ZM141.446 46.8877C141.862 46.8877 142.152 46.9316 142.316 47.0195C142.486 47.1016 142.571 47.2422 142.571 47.4414V48.8828C142.571 49.082 142.492 49.2256 142.334 49.3135C142.182 49.3955 141.9 49.4365 141.49 49.4365C141.08 49.4365 140.79 49.3955 140.62 49.3135C140.456 49.2256 140.374 49.082 140.374 48.8828V47.4414C140.374 47.2363 140.45 47.0928 140.603 47.0107C140.755 46.9287 141.036 46.8877 141.446 46.8877ZM150.033 47.3359C150.232 47.3359 150.373 47.3799 150.455 47.4678C150.543 47.5498 150.587 47.6904 150.587 47.8896V51.5898C150.886 51.2559 151.231 51.001 151.624 50.8252C152.017 50.6436 152.441 50.5527 152.898 50.5527C153.666 50.5527 154.337 50.7402 154.911 51.1152C155.485 51.4902 155.925 52 156.229 52.6445C156.534 53.2891 156.687 54.0098 156.687 54.8066C156.687 55.6035 156.534 56.3242 156.229 56.9688C155.925 57.6133 155.485 58.123 154.911 58.498C154.337 58.873 153.666 59.0605 152.898 59.0605C152.342 59.0605 151.835 58.9316 151.378 58.6738C150.921 58.4102 150.54 58.0439 150.235 57.5752V58.3135C150.235 58.5127 150.191 58.6562 150.104 58.7441C150.021 58.8262 149.881 58.8672 149.682 58.8672H147.713C147.572 58.8672 147.464 58.8438 147.388 58.7969C147.312 58.7441 147.253 58.6533 147.212 58.5244C147.177 58.3955 147.159 58.208 147.159 57.9619C147.159 57.7158 147.177 57.5283 147.212 57.3994C147.253 57.2705 147.312 57.1826 147.388 57.1357C147.464 57.0889 147.572 57.0654 147.713 57.0654H148.39V49.1377H147.537C147.396 49.1377 147.288 49.1143 147.212 49.0674C147.136 49.0205 147.077 48.9326 147.036 48.8037C147.001 48.6748 146.983 48.4873 146.983 48.2412C146.983 47.9951 147.001 47.8076 147.036 47.6787C147.077 47.5498 147.136 47.4619 147.212 47.415C147.288 47.3623 147.396 47.3359 147.537 47.3359H150.033ZM152.547 52.5479C152.172 52.5479 151.832 52.6357 151.527 52.8115C151.223 52.9873 150.979 53.248 150.798 53.5938C150.616 53.9336 150.525 54.3379 150.525 54.8066C150.525 55.2754 150.616 55.6826 150.798 56.0283C150.979 56.3682 151.223 56.626 151.527 56.8018C151.832 56.9775 152.172 57.0654 152.547 57.0654C152.91 57.0654 153.227 56.9746 153.496 56.793C153.766 56.6055 153.971 56.3418 154.111 56.002C154.258 55.6621 154.331 55.2637 154.331 54.8066C154.331 54.3496 154.258 53.9512 154.111 53.6113C153.971 53.2715 153.766 53.0107 153.496 52.8291C153.227 52.6416 152.91 52.5479 152.547 52.5479ZM163.604 50.7461C163.803 50.7461 163.943 50.79 164.025 50.8779C164.113 50.96 164.157 51.1006 164.157 51.2998V57.0654H166.627C166.768 57.0654 166.876 57.0918 166.952 57.1445C167.028 57.1914 167.084 57.2793 167.119 57.4082C167.16 57.5371 167.181 57.7246 167.181 57.9707C167.181 58.2168 167.16 58.4043 167.119 58.5332C167.084 58.6621 167.028 58.75 166.952 58.7969C166.876 58.8438 166.768 58.8672 166.627 58.8672H159.561C159.42 58.8672 159.312 58.8438 159.235 58.7969C159.159 58.75 159.101 58.6621 159.06 58.5332C159.024 58.4043 159.007 58.2168 159.007 57.9707C159.007 57.7246 159.024 57.5371 159.06 57.4082C159.101 57.2793 159.159 57.1914 159.235 57.1445C159.312 57.0918 159.42 57.0654 159.561 57.0654H161.96V52.5479H160.088C159.947 52.5479 159.839 52.5244 159.763 52.4775C159.687 52.4307 159.628 52.3428 159.587 52.2139C159.552 52.085 159.534 51.8975 159.534 51.6514C159.534 51.4053 159.552 51.2178 159.587 51.0889C159.628 50.96 159.687 50.8721 159.763 50.8252C159.839 50.7725 159.947 50.7461 160.088 50.7461H163.604ZM163.032 46.8877C163.448 46.8877 163.738 46.9316 163.902 47.0195C164.072 47.1016 164.157 47.2422 164.157 47.4414V48.8828C164.157 49.082 164.078 49.2256 163.92 49.3135C163.768 49.3955 163.486 49.4365 163.076 49.4365C162.666 49.4365 162.376 49.3955 162.206 49.3135C162.042 49.2256 161.96 49.082 161.96 48.8828V47.4414C161.96 47.2363 162.036 47.0928 162.188 47.0107C162.341 46.9287 162.622 46.8877 163.032 46.8877ZM174.309 47.3359C174.508 47.3359 174.648 47.3799 174.73 47.4678C174.818 47.5498 174.862 47.6904 174.862 47.8896V57.0654H177.332C177.473 57.0654 177.581 57.0918 177.657 57.1445C177.733 57.1914 177.789 57.2793 177.824 57.4082C177.865 57.5371 177.886 57.7246 177.886 57.9707C177.886 58.2168 177.865 58.4043 177.824 58.5332C177.789 58.6621 177.733 58.75 177.657 58.7969C177.581 58.8438 177.473 58.8672 177.332 58.8672H170.266C170.125 58.8672 170.017 58.8438 169.94 58.7969C169.864 58.75 169.806 58.6621 169.765 58.5332C169.729 58.4043 169.712 58.2168 169.712 57.9707C169.712 57.7246 169.729 57.5371 169.765 57.4082C169.806 57.2793 169.864 57.1914 169.94 57.1445C170.017 57.0918 170.125 57.0654 170.266 57.0654H172.665V49.1377H170.617C170.477 49.1377 170.368 49.1143 170.292 49.0674C170.216 49.0205 170.157 48.9326 170.116 48.8037C170.081 48.6748 170.063 48.4873 170.063 48.2412C170.063 47.9951 170.081 47.8076 170.116 47.6787C170.157 47.5498 170.216 47.4619 170.292 47.415C170.368 47.3623 170.477 47.3359 170.617 47.3359H174.309ZM185.189 50.7461C185.389 50.7461 185.529 50.79 185.611 50.8779C185.699 50.96 185.743 51.1006 185.743 51.2998V57.0654H188.213C188.354 57.0654 188.462 57.0918 188.538 57.1445C188.614 57.1914 188.67 57.2793 188.705 57.4082C188.746 57.5371 188.767 57.7246 188.767 57.9707C188.767 58.2168 188.746 58.4043 188.705 58.5332C188.67 58.6621 188.614 58.75 188.538 58.7969C188.462 58.8438 188.354 58.8672 188.213 58.8672H181.146C181.006 58.8672 180.897 58.8438 180.821 58.7969C180.745 58.75 180.687 58.6621 180.646 58.5332C180.61 58.4043 180.593 58.2168 180.593 57.9707C180.593 57.7246 180.61 57.5371 180.646 57.4082C180.687 57.2793 180.745 57.1914 180.821 57.1445C180.897 57.0918 181.006 57.0654 181.146 57.0654H183.546V52.5479H181.674C181.533 52.5479 181.425 52.5244 181.349 52.4775C181.272 52.4307 181.214 52.3428 181.173 52.2139C181.138 52.085 181.12 51.8975 181.12 51.6514C181.12 51.4053 181.138 51.2178 181.173 51.0889C181.214 50.96 181.272 50.8721 181.349 50.8252C181.425 50.7725 181.533 50.7461 181.674 50.7461H185.189ZM184.618 46.8877C185.034 46.8877 185.324 46.9316 185.488 47.0195C185.658 47.1016 185.743 47.2422 185.743 47.4414V48.8828C185.743 49.082 185.664 49.2256 185.506 49.3135C185.354 49.3955 185.072 49.4365 184.662 49.4365C184.252 49.4365 183.962 49.3955 183.792 49.3135C183.628 49.2256 183.546 49.082 183.546 48.8828V47.4414C183.546 47.2363 183.622 47.0928 183.774 47.0107C183.927 46.9287 184.208 46.8877 184.618 46.8877ZM194.181 48.2412C194.456 48.2412 194.667 48.2617 194.813 48.3027C194.966 48.3379 195.071 48.3936 195.13 48.4697C195.188 48.5459 195.218 48.6543 195.218 48.7949V51.2734H198.479C198.684 51.2734 198.827 51.3408 198.909 51.4756C198.991 51.6104 199.032 51.8594 199.032 52.2227C199.032 52.5859 198.991 52.835 198.909 52.9697C198.827 53.0986 198.684 53.1631 198.479 53.1631H195.218V55.6064C195.218 56.5791 195.596 57.0654 196.352 57.0654C196.621 57.0654 196.935 57.0068 197.292 56.8896C197.655 56.7666 198.077 56.5967 198.558 56.3799C198.687 56.3271 198.789 56.3008 198.865 56.3008C198.988 56.3008 199.103 56.3535 199.208 56.459C199.313 56.5586 199.413 56.7256 199.507 56.96C199.612 57.2236 199.665 57.4375 199.665 57.6016C199.665 57.7305 199.633 57.8389 199.568 57.9268C199.51 58.0088 199.419 58.082 199.296 58.1465C198.089 58.7559 197.043 59.0605 196.158 59.0605C195.139 59.0605 194.359 58.7764 193.82 58.208C193.287 57.6396 193.021 56.8105 193.021 55.7207V53.1631H191.324C191.119 53.1631 190.976 53.0986 190.894 52.9697C190.812 52.835 190.771 52.5859 190.771 52.2227C190.771 51.8594 190.812 51.6104 190.894 51.4756C190.976 51.3408 191.119 51.2734 191.324 51.2734H193.021V48.7949C193.021 48.5957 193.108 48.4551 193.284 48.373C193.466 48.2852 193.765 48.2412 194.181 48.2412ZM206.775 50.7461C206.975 50.7461 207.115 50.79 207.197 50.8779C207.285 50.96 207.329 51.1006 207.329 51.2998V57.0654H209.799C209.939 57.0654 210.048 57.0918 210.124 57.1445C210.2 57.1914 210.256 57.2793 210.291 57.4082C210.332 57.5371 210.353 57.7246 210.353 57.9707C210.353 58.2168 210.332 58.4043 210.291 58.5332C210.256 58.6621 210.2 58.75 210.124 58.7969C210.048 58.8438 209.939 58.8672 209.799 58.8672H202.732C202.592 58.8672 202.483 58.8438 202.407 58.7969C202.331 58.75 202.272 58.6621 202.231 58.5332C202.196 58.4043 202.179 58.2168 202.179 57.9707C202.179 57.7246 202.196 57.5371 202.231 57.4082C202.272 57.2793 202.331 57.1914 202.407 57.1445C202.483 57.0918 202.592 57.0654 202.732 57.0654H205.132V52.5479H203.26C203.119 52.5479 203.011 52.5244 202.935 52.4775C202.858 52.4307 202.8 52.3428 202.759 52.2139C202.724 52.085 202.706 51.8975 202.706 51.6514C202.706 51.4053 202.724 51.2178 202.759 51.0889C202.8 50.96 202.858 50.8721 202.935 50.8252C203.011 50.7725 203.119 50.7461 203.26 50.7461H206.775ZM206.204 46.8877C206.62 46.8877 206.91 46.9316 207.074 47.0195C207.244 47.1016 207.329 47.2422 207.329 47.4414V48.8828C207.329 49.082 207.25 49.2256 207.092 49.3135C206.939 49.3955 206.658 49.4365 206.248 49.4365C205.838 49.4365 205.548 49.3955 205.378 49.3135C205.214 49.2256 205.132 49.082 205.132 48.8828V47.4414C205.132 47.2363 205.208 47.0928 205.36 47.0107C205.513 46.9287 205.794 46.8877 206.204 46.8877ZM217.023 50.5527C217.914 50.5527 218.673 50.7461 219.3 51.1328C219.927 51.5137 220.398 52.0469 220.715 52.7324C221.037 53.4121 221.198 54.1914 221.198 55.0703C221.198 55.2695 221.154 55.4102 221.066 55.4922C220.984 55.5742 220.844 55.6152 220.645 55.6152H215.002C215.113 56.084 215.351 56.4443 215.714 56.6963C216.083 56.9424 216.549 57.0654 217.111 57.0654C218.02 57.0654 219.004 56.9043 220.064 56.582C220.135 56.5586 220.205 56.5469 220.275 56.5469C220.404 56.5469 220.516 56.6055 220.609 56.7227C220.703 56.8398 220.788 57.0391 220.864 57.3203C220.923 57.5371 220.952 57.7217 220.952 57.874C220.952 58.0264 220.917 58.1465 220.847 58.2344C220.782 58.3164 220.674 58.3838 220.521 58.4365C219.936 58.6299 219.338 58.7822 218.729 58.8936C218.119 59.0049 217.521 59.0605 216.936 59.0605C216.045 59.0605 215.277 58.8789 214.633 58.5156C213.988 58.1523 213.496 57.6514 213.156 57.0127C212.822 56.3682 212.655 55.6328 212.655 54.8066C212.655 53.9863 212.831 53.2539 213.183 52.6094C213.534 51.9648 214.041 51.4609 214.703 51.0977C215.365 50.7344 216.139 50.5527 217.023 50.5527ZM217.023 52.5479C215.951 52.5479 215.289 52.999 215.037 53.9014H218.904C218.805 53.4736 218.591 53.1426 218.263 52.9082C217.94 52.668 217.527 52.5479 217.023 52.5479ZM230.26 50.5527C230.635 50.5527 230.901 50.5967 231.06 50.6846C231.218 50.7666 231.297 50.9072 231.297 51.1064V52.9609C231.297 53.1602 231.232 53.3037 231.104 53.3916C230.98 53.4736 230.775 53.5146 230.488 53.5146C230.178 53.5146 229.964 53.4531 229.847 53.3301C229.501 52.9609 229.105 52.7002 228.66 52.5479C228.215 52.3896 227.699 52.3105 227.113 52.3105C226.768 52.3105 226.495 52.3721 226.296 52.4951C226.103 52.6182 226.006 52.7822 226.006 52.9873C226.006 53.2334 226.223 53.4092 226.656 53.5146C226.885 53.5732 227.274 53.6289 227.825 53.6816C228.37 53.7461 228.821 53.8105 229.179 53.875C229.542 53.9395 229.885 54.0361 230.207 54.165C230.676 54.3584 231.042 54.6279 231.306 54.9736C231.569 55.3193 231.701 55.7764 231.701 56.3447C231.701 56.9014 231.563 57.3848 231.288 57.7949C231.019 58.1992 230.62 58.5127 230.093 58.7354C229.571 58.9521 228.941 59.0605 228.203 59.0605C227.389 59.0605 226.633 58.8525 225.936 58.4365V58.5068C225.936 58.7061 225.851 58.8467 225.681 58.9287C225.511 59.0166 225.238 59.0605 224.863 59.0605C224.488 59.0605 224.222 59.0166 224.063 58.9287C223.905 58.8467 223.826 58.7061 223.826 58.5068V56.5469C223.826 56.3535 223.894 56.2129 224.028 56.125C224.169 56.0371 224.383 55.9932 224.67 55.9932C225.027 55.9932 225.271 56.0752 225.399 56.2393C225.692 56.6084 226.067 56.8779 226.524 57.0479C226.981 57.2178 227.482 57.3027 228.027 57.3027C228.965 57.3027 229.434 57.0596 229.434 56.5732C229.434 56.4268 229.366 56.3096 229.231 56.2217C229.103 56.1338 228.909 56.0605 228.651 56.002C228.505 55.9727 228.165 55.9199 227.632 55.8438C227.04 55.7734 226.53 55.6943 226.103 55.6064C225.681 55.5127 225.297 55.3691 224.951 55.1758C224.143 54.7305 223.738 54.0273 223.738 53.0664C223.738 52.5566 223.876 52.1113 224.151 51.7305C224.427 51.3496 224.805 51.0596 225.285 50.8604C225.771 50.6553 226.316 50.5527 226.92 50.5527C227.805 50.5527 228.59 50.7666 229.275 51.1943V51.1064C229.275 50.9072 229.346 50.7666 229.486 50.6846C229.633 50.5967 229.891 50.5527 230.26 50.5527Z" fill="#072114"/>
<circle cx="47.7812" cy="43.8672" r="35" fill="#4DCB43"/>
<g clip-path="url(#clip0_2183_82)">
<path d="M65.9219 54.9927H65.6225V52.8004C65.6225 52.4168 65.3684 52.0797 64.9995 51.9741L58.8864 50.2249C56.1759 49.4494 53.3132 49.418 50.6119 50.0883C52.5833 48.7133 54.8916 47.8369 57.3138 47.5844L63.638 46.9251C64.11 46.8759 64.4528 46.4533 64.4036 45.9812C64.3544 45.5091 63.9322 45.1669 63.4597 45.2155L57.1355 45.8748C53.1409 46.2913 49.4233 48.2229 46.7793 51.2213C44.1352 48.2229 40.4176 46.2913 36.4231 45.8748L30.099 45.2155C29.6268 45.1672 29.2044 45.5092 29.1551 45.9812C29.1059 46.4532 29.4487 46.8758 29.9207 46.9251L36.2448 47.5844C38.667 47.8369 40.9754 48.7133 42.9467 50.0884C40.2453 49.418 37.3827 49.4495 34.6721 50.225L28.559 51.9742C28.1902 52.0798 27.936 52.4169 27.936 52.8005V54.9927H27.6406C27.166 54.9927 26.7812 55.3774 26.7812 55.852V59.2895C26.7812 59.7641 27.166 60.1489 27.6406 60.1489H44.3485C44.7032 61.1493 45.659 61.8677 46.7794 61.8677C47.8998 61.8677 48.8555 61.1493 49.2102 60.1489H65.9219C66.3965 60.1489 66.7812 59.7641 66.7812 59.2895V55.852C66.7812 55.3773 66.3965 54.9927 65.9219 54.9927ZM58.4137 51.8774L63.9038 53.4484V54.9927H47.6388V53.0721C50.917 51.286 54.8155 50.8478 58.4137 51.8774ZM29.6549 53.4484L35.1451 51.8774C38.7431 50.8479 42.6417 51.286 45.92 53.0721V54.9927H29.6549V53.4484ZM65.0625 58.4302H48.4981C48.0235 58.4302 47.6388 58.8149 47.6388 59.2895C47.6388 59.7634 47.2532 60.1489 46.7794 60.1489C46.3055 60.1489 45.92 59.7634 45.92 59.2895C45.92 58.8149 45.5352 58.4302 45.0606 58.4302H28.5V56.7114H65.0625V58.4302Z" fill="#072114"/>
<path d="M62.1714 26.229C61.7807 23.9693 60.7874 22.343 60.7453 22.2748C60.567 21.9864 60.236 21.8299 59.8997 21.8748C59.5637 21.92 59.2856 22.1585 59.1898 22.4837C58.5786 24.5593 57.1397 25.6266 51.0862 28.4946C47.2167 30.328 45.4036 33.3014 44.5641 35.4731C43.657 37.8195 43.6634 39.7362 43.6641 39.8166C43.6654 39.9609 43.703 40.1025 43.7734 40.2285L46.2313 44.6228C46.0716 45.5373 45.9634 46.4667 45.9136 47.4064C45.8884 47.8804 46.2522 48.285 46.7261 48.3101C46.7417 48.311 46.7571 48.3114 46.7725 48.3114C47.2262 48.3114 47.6056 47.956 47.6299 47.4975C47.6721 46.7022 47.7582 45.9149 47.8852 45.1391L53.4719 43.5628C53.7729 43.4778 54.0048 43.2326 54.0761 42.928C54.0848 42.8906 55.0063 39.1289 59.7922 34.1917C61.8774 32.0406 62.7001 29.2871 62.1714 26.229ZM58.7473 32.7929L56.6414 33.138C56.173 33.2148 55.8555 33.6567 55.9322 34.125C56.0013 34.5464 56.3658 34.8456 56.7793 34.8456C56.8157 34.8456 56.8527 34.8425 56.8897 34.8378C56.1343 35.733 55.5012 36.5774 54.9726 37.3557L53.1057 37.6584C52.6372 37.7344 52.319 38.1757 52.3949 38.6443C52.4633 39.0662 52.8281 39.3662 53.2422 39.3662C53.2878 39.3662 53.3342 39.3625 53.3807 39.355L53.7811 39.2901C53.0915 40.5408 52.7252 41.494 52.5471 42.0379L48.2854 43.2404C49.4554 38.6957 52.0673 34.6928 55.6823 32.0796C56.0669 31.8015 56.1533 31.2643 55.8753 30.8796C55.5972 30.495 55.06 30.4086 54.6754 30.6867C50.9183 33.4026 48.1576 37.485 46.8079 42.1332L45.3897 39.5974C45.4166 39.0832 45.5483 37.6677 46.1912 36.0315C46.6292 34.9171 47.209 33.9202 47.9261 33.0443C48.0261 33.3786 48.3245 33.6319 48.6932 33.6558C48.7121 33.6571 48.7308 33.6576 48.7495 33.6576C49.1987 33.6576 49.5769 33.3084 49.6062 32.8536L49.7048 31.3293C50.3451 30.8411 51.051 30.4133 51.8222 30.0479C56.5101 27.8269 58.8116 26.511 60.0069 24.7625C60.1936 25.2791 60.3735 25.8964 60.4868 26.5754C60.8897 28.9874 60.3042 31.0775 58.7473 32.7929Z" fill="white"/>
</g>
<defs>
<filter id="filter0_b_2183_82" x="-7.25562" y="-7.16968" width="270.074" height="102.074" filterUnits="userSpaceOnUse" color-interpolation-filters="sRGB">
<feFlood flood-opacity="0" result="BackgroundImageFix"/>
<feGaussianBlur in="BackgroundImageFix" stdDeviation="4.01843"/>
<feComposite in2="SourceAlpha" operator="in" result="effect1_backgroundBlur_2183_82"/>
<feBlend mode="normal" in="SourceGraphic" in2="effect1_backgroundBlur_2183_82" result="shape"/>
</filter>
<linearGradient id="paint0_linear_2183_82" x1="407.03" y1="50.7227" x2="26.3931" y2="47.2287" gradientUnits="userSpaceOnUse">
<stop stop-color="white"/>
<stop offset="1" stop-color="white"/>
</linearGradient>
<clipPath id="clip0_2183_82">
<rect width="40" height="40" fill="white" transform="translate(26.7812 21.8672)"/>
</clipPath>
</defs>
</svg>
