<svg width="239" height="86" viewBox="0 0 239 86" fill="none" xmlns="http://www.w3.org/2000/svg">
<g filter="url(#filter0_b_2183_83)">
<path d="M0 43.0028C0 19.3263 19.1935 0.132812 42.87 0.132812H196.13C219.806 0.132812 239 19.3263 239 43.0028C239 66.6792 219.806 85.8727 196.13 85.8727H42.87C19.1935 85.8727 0 66.6792 0 43.0028Z" fill="url(#paint0_linear_2183_83)"/>
</g>
<path d="M102.217 27.374C102.58 27.374 102.829 27.415 102.964 27.4971C103.099 27.5791 103.166 27.7227 103.166 27.9277V31.3027C103.166 31.502 103.075 31.6455 102.894 31.7334C102.718 31.8154 102.422 31.8564 102.006 31.8564C101.73 31.8564 101.517 31.8389 101.364 31.8037C101.218 31.7627 101.115 31.7041 101.057 31.6279C100.998 31.5518 100.969 31.4434 100.969 31.3027C100.969 30.7168 100.808 30.248 100.485 29.8965C100.169 29.5449 99.7148 29.3691 99.123 29.3691C98.3086 29.3691 97.6904 29.6621 97.2686 30.248C96.8467 30.834 96.6357 31.6777 96.6357 32.7793C96.6357 33.8691 96.8584 34.7129 97.3037 35.3105C97.7549 35.9023 98.3906 36.1982 99.2109 36.1982C99.7207 36.1982 100.21 36.1309 100.679 35.9961C101.147 35.8555 101.657 35.6445 102.208 35.3633C102.302 35.3164 102.39 35.293 102.472 35.293C102.747 35.293 102.976 35.5361 103.157 36.0225C103.239 36.2451 103.28 36.4443 103.28 36.6201C103.28 36.9189 103.146 37.1328 102.876 37.2617C101.622 37.8828 100.371 38.1934 99.123 38.1934C98.1621 38.1934 97.3154 37.9736 96.583 37.5342C95.8506 37.0947 95.2822 36.4678 94.8779 35.6533C94.4795 34.833 94.2803 33.875 94.2803 32.7793C94.2803 31.6895 94.4766 30.7373 94.8691 29.9229C95.2617 29.1025 95.8037 28.4727 96.4951 28.0332C97.1924 27.5938 97.9805 27.374 98.8594 27.374C99.8848 27.374 100.646 27.7432 101.145 28.4814V27.9277C101.145 27.7285 101.229 27.5879 101.399 27.5059C101.569 27.418 101.842 27.374 102.217 27.374ZM112.315 29.6855C112.813 29.6855 113.282 29.8496 113.722 30.1777C113.979 30.3652 114.108 30.6113 114.108 30.916C114.108 31.1094 114.056 31.3379 113.95 31.6016C113.845 31.8652 113.725 32.0645 113.59 32.1992C113.461 32.334 113.323 32.4014 113.177 32.4014C113.095 32.4014 113.007 32.3779 112.913 32.3311C112.585 32.1494 112.245 32.0586 111.894 32.0586C111.442 32.0586 111.021 32.2021 110.628 32.4893C110.235 32.7764 109.919 33.1719 109.679 33.6758C109.444 34.1797 109.327 34.7422 109.327 35.3633V36.1982H111.85C111.99 36.1982 112.099 36.2246 112.175 36.2773C112.251 36.3242 112.307 36.4121 112.342 36.541C112.383 36.6699 112.403 36.8574 112.403 37.1035C112.403 37.3496 112.383 37.5371 112.342 37.666C112.307 37.7949 112.251 37.8828 112.175 37.9297C112.099 37.9766 111.99 38 111.85 38H105.838C105.697 38 105.589 37.9766 105.513 37.9297C105.437 37.8828 105.378 37.7949 105.337 37.666C105.302 37.5371 105.284 37.3496 105.284 37.1035C105.284 36.8574 105.302 36.6699 105.337 36.541C105.378 36.4121 105.437 36.3242 105.513 36.2773C105.589 36.2246 105.697 36.1982 105.838 36.1982H107.13V31.6807H106.102C105.961 31.6807 105.853 31.6572 105.776 31.6104C105.7 31.5635 105.642 31.4756 105.601 31.3467C105.565 31.2178 105.548 31.0303 105.548 30.7842C105.548 30.5381 105.565 30.3506 105.601 30.2217C105.642 30.0928 105.7 30.0049 105.776 29.958C105.853 29.9053 105.961 29.8789 106.102 29.8789H108.51C108.709 29.8789 108.85 29.9229 108.932 30.0107C109.02 30.0928 109.063 30.2334 109.063 30.4326V32.3398C109.503 31.4902 110.007 30.8369 110.575 30.3799C111.149 29.917 111.729 29.6855 112.315 29.6855ZM120.48 29.6855C121.371 29.6855 122.13 29.8789 122.757 30.2656C123.384 30.6465 123.855 31.1797 124.172 31.8652C124.494 32.5449 124.655 33.3242 124.655 34.2031C124.655 34.4023 124.611 34.543 124.523 34.625C124.441 34.707 124.301 34.748 124.102 34.748H118.459C118.57 35.2168 118.808 35.5771 119.171 35.8291C119.54 36.0752 120.006 36.1982 120.568 36.1982C121.477 36.1982 122.461 36.0371 123.521 35.7148C123.592 35.6914 123.662 35.6797 123.732 35.6797C123.861 35.6797 123.973 35.7383 124.066 35.8555C124.16 35.9727 124.245 36.1719 124.321 36.4531C124.38 36.6699 124.409 36.8545 124.409 37.0068C124.409 37.1592 124.374 37.2793 124.304 37.3672C124.239 37.4492 124.131 37.5166 123.979 37.5693C123.393 37.7627 122.795 37.915 122.186 38.0264C121.576 38.1377 120.979 38.1934 120.393 38.1934C119.502 38.1934 118.734 38.0117 118.09 37.6484C117.445 37.2852 116.953 36.7842 116.613 36.1455C116.279 35.501 116.112 34.7656 116.112 33.9395C116.112 33.1191 116.288 32.3867 116.64 31.7422C116.991 31.0977 117.498 30.5938 118.16 30.2305C118.822 29.8672 119.596 29.6855 120.48 29.6855ZM120.48 31.6807C119.408 31.6807 118.746 32.1318 118.494 33.0342H122.361C122.262 32.6064 122.048 32.2754 121.72 32.041C121.397 31.8008 120.984 31.6807 120.48 31.6807ZM131.054 29.6855C132.343 29.6855 133.274 29.9639 133.849 30.5205C134.423 31.0771 134.71 31.874 134.71 32.9111V35.4512C134.71 35.6855 134.76 35.8701 134.859 36.0049C134.959 36.1338 135.103 36.1982 135.29 36.1982H135.562C135.703 36.1982 135.812 36.2246 135.888 36.2773C135.964 36.3242 136.02 36.4121 136.055 36.541C136.096 36.6699 136.116 36.8574 136.116 37.1035C136.116 37.3496 136.096 37.5371 136.055 37.666C136.02 37.7949 135.964 37.8828 135.888 37.9297C135.812 37.9766 135.703 38 135.562 38H134.578C134.215 38 133.893 37.9268 133.611 37.7803C133.336 37.6279 133.125 37.3906 132.979 37.0684C132.516 37.4258 132.026 37.7041 131.511 37.9033C130.995 38.0967 130.465 38.1934 129.92 38.1934C129.258 38.1934 128.687 38.082 128.206 37.8594C127.726 37.6309 127.356 37.3086 127.099 36.8926C126.847 36.4707 126.721 35.9756 126.721 35.4072C126.721 34.5869 127.011 33.9512 127.591 33.5C128.171 33.0488 128.982 32.8232 130.025 32.8232C130.805 32.8232 131.634 32.9111 132.513 33.0869V32.832C132.513 32.4395 132.39 32.1494 132.144 31.9619C131.897 31.7744 131.464 31.6807 130.843 31.6807C130.497 31.6807 130.11 31.7246 129.683 31.8125C129.261 31.8945 128.842 32.0059 128.426 32.1465C128.326 32.1758 128.241 32.1904 128.171 32.1904C128.024 32.1904 127.893 32.1377 127.775 32.0322C127.664 31.9209 127.562 31.7363 127.468 31.4785C127.38 31.2207 127.336 31.0098 127.336 30.8457C127.336 30.5469 127.471 30.3477 127.74 30.248C128.262 30.0605 128.815 29.9199 129.401 29.8262C129.987 29.7324 130.538 29.6855 131.054 29.6855ZM130.245 34.6338C129.835 34.6338 129.521 34.707 129.305 34.8535C129.094 35 128.988 35.2139 128.988 35.4951C128.988 35.7705 129.091 35.9814 129.296 36.1279C129.507 36.2686 129.809 36.3389 130.201 36.3389C130.605 36.3389 131.004 36.2598 131.396 36.1016C131.795 35.9375 132.167 35.7148 132.513 35.4336V34.8711C131.739 34.7129 130.983 34.6338 130.245 34.6338ZM140.81 27.374C141.085 27.374 141.296 27.3945 141.442 27.4355C141.595 27.4707 141.7 27.5264 141.759 27.6025C141.817 27.6787 141.847 27.7871 141.847 27.9277V30.4062H145.107C145.312 30.4062 145.456 30.4736 145.538 30.6084C145.62 30.7432 145.661 30.9922 145.661 31.3555C145.661 31.7188 145.62 31.9678 145.538 32.1025C145.456 32.2314 145.312 32.2959 145.107 32.2959H141.847V34.7393C141.847 35.7119 142.225 36.1982 142.98 36.1982C143.25 36.1982 143.563 36.1396 143.921 36.0225C144.284 35.8994 144.706 35.7295 145.187 35.5127C145.315 35.46 145.418 35.4336 145.494 35.4336C145.617 35.4336 145.731 35.4863 145.837 35.5918C145.942 35.6914 146.042 35.8584 146.136 36.0928C146.241 36.3564 146.294 36.5703 146.294 36.7344C146.294 36.8633 146.262 36.9717 146.197 37.0596C146.139 37.1416 146.048 37.2148 145.925 37.2793C144.718 37.8887 143.672 38.1934 142.787 38.1934C141.768 38.1934 140.988 37.9092 140.449 37.3408C139.916 36.7725 139.649 35.9434 139.649 34.8535V32.2959H137.953C137.748 32.2959 137.604 32.2314 137.522 32.1025C137.44 31.9678 137.399 31.7188 137.399 31.3555C137.399 30.9922 137.44 30.7432 137.522 30.6084C137.604 30.4736 137.748 30.4062 137.953 30.4062H139.649V27.9277C139.649 27.7285 139.737 27.5879 139.913 27.5059C140.095 27.418 140.394 27.374 140.81 27.374ZM153.404 29.8789C153.604 29.8789 153.744 29.9229 153.826 30.0107C153.914 30.0928 153.958 30.2334 153.958 30.4326V36.1982H156.428C156.568 36.1982 156.677 36.2246 156.753 36.2773C156.829 36.3242 156.885 36.4121 156.92 36.541C156.961 36.6699 156.981 36.8574 156.981 37.1035C156.981 37.3496 156.961 37.5371 156.92 37.666C156.885 37.7949 156.829 37.8828 156.753 37.9297C156.677 37.9766 156.568 38 156.428 38H149.361C149.221 38 149.112 37.9766 149.036 37.9297C148.96 37.8828 148.901 37.7949 148.86 37.666C148.825 37.5371 148.808 37.3496 148.808 37.1035C148.808 36.8574 148.825 36.6699 148.86 36.541C148.901 36.4121 148.96 36.3242 149.036 36.2773C149.112 36.2246 149.221 36.1982 149.361 36.1982H151.761V31.6807H149.889C149.748 31.6807 149.64 31.6572 149.563 31.6104C149.487 31.5635 149.429 31.4756 149.388 31.3467C149.353 31.2178 149.335 31.0303 149.335 30.7842C149.335 30.5381 149.353 30.3506 149.388 30.2217C149.429 30.0928 149.487 30.0049 149.563 29.958C149.64 29.9053 149.748 29.8789 149.889 29.8789H153.404ZM152.833 26.0205C153.249 26.0205 153.539 26.0645 153.703 26.1523C153.873 26.2344 153.958 26.375 153.958 26.5742V28.0156C153.958 28.2148 153.879 28.3584 153.721 28.4463C153.568 28.5283 153.287 28.5693 152.877 28.5693C152.467 28.5693 152.177 28.5283 152.007 28.4463C151.843 28.3584 151.761 28.2148 151.761 28.0156V26.5742C151.761 26.3691 151.837 26.2256 151.989 26.1436C152.142 26.0615 152.423 26.0205 152.833 26.0205ZM168.021 29.8789C168.161 29.8789 168.27 29.9053 168.346 29.958C168.422 30.0049 168.478 30.0928 168.513 30.2217C168.554 30.3506 168.574 30.5381 168.574 30.7842C168.574 31.0303 168.554 31.2178 168.513 31.3467C168.478 31.4756 168.422 31.5635 168.346 31.6104C168.27 31.6572 168.161 31.6807 168.021 31.6807H167.423L164.848 37.6221C164.76 37.8271 164.616 37.9736 164.417 38.0615C164.218 38.1494 163.913 38.1934 163.503 38.1934C163.093 38.1934 162.791 38.1494 162.598 38.0615C162.404 37.9736 162.264 37.8271 162.176 37.6221L159.618 31.6807H159.038C158.897 31.6807 158.789 31.6572 158.713 31.6104C158.637 31.5635 158.578 31.4756 158.537 31.3467C158.502 31.2178 158.484 31.0303 158.484 30.7842C158.484 30.5381 158.502 30.3506 158.537 30.2217C158.578 30.0928 158.637 30.0049 158.713 29.958C158.789 29.9053 158.897 29.8789 159.038 29.8789H162.589C162.729 29.8789 162.838 29.9053 162.914 29.958C162.99 30.0049 163.046 30.0928 163.081 30.2217C163.122 30.3506 163.143 30.5381 163.143 30.7842C163.143 31.0303 163.122 31.2178 163.081 31.3467C163.046 31.4756 162.99 31.5635 162.914 31.6104C162.838 31.6572 162.729 31.6807 162.589 31.6807H162L163.556 35.5566L165.129 31.6807H164.646C164.505 31.6807 164.396 31.6572 164.32 31.6104C164.244 31.5635 164.186 31.4756 164.145 31.3467C164.109 31.2178 164.092 31.0303 164.092 30.7842C164.092 30.5381 164.109 30.3506 164.145 30.2217C164.186 30.0928 164.244 30.0049 164.32 29.958C164.396 29.9053 164.505 29.8789 164.646 29.8789H168.021ZM174.445 29.6855C175.336 29.6855 176.095 29.8789 176.722 30.2656C177.349 30.6465 177.82 31.1797 178.137 31.8652C178.459 32.5449 178.62 33.3242 178.62 34.2031C178.62 34.4023 178.576 34.543 178.488 34.625C178.406 34.707 178.266 34.748 178.066 34.748H172.424C172.535 35.2168 172.772 35.5771 173.136 35.8291C173.505 36.0752 173.971 36.1982 174.533 36.1982C175.441 36.1982 176.426 36.0371 177.486 35.7148C177.557 35.6914 177.627 35.6797 177.697 35.6797C177.826 35.6797 177.938 35.7383 178.031 35.8555C178.125 35.9727 178.21 36.1719 178.286 36.4531C178.345 36.6699 178.374 36.8545 178.374 37.0068C178.374 37.1592 178.339 37.2793 178.269 37.3672C178.204 37.4492 178.096 37.5166 177.943 37.5693C177.357 37.7627 176.76 37.915 176.15 38.0264C175.541 38.1377 174.943 38.1934 174.357 38.1934C173.467 38.1934 172.699 38.0117 172.055 37.6484C171.41 37.2852 170.918 36.7842 170.578 36.1455C170.244 35.501 170.077 34.7656 170.077 33.9395C170.077 33.1191 170.253 32.3867 170.604 31.7422C170.956 31.0977 171.463 30.5938 172.125 30.2305C172.787 29.8672 173.561 29.6855 174.445 29.6855ZM174.445 31.6807C173.373 31.6807 172.711 32.1318 172.459 33.0342H176.326C176.227 32.6064 176.013 32.2754 175.685 32.041C175.362 31.8008 174.949 31.6807 174.445 31.6807ZM102.647 48.5674C102.853 48.5674 102.999 48.6113 103.087 48.6992C103.175 48.7871 103.219 48.9336 103.219 49.1387V51.793C103.219 51.9922 103.134 52.1357 102.964 52.2236C102.794 52.3057 102.521 52.3467 102.146 52.3467C101.783 52.3467 101.534 52.3057 101.399 52.2236C101.265 52.1416 101.197 51.998 101.197 51.793V50.457H97.7695V53.1377H100.441C100.646 53.1377 100.79 53.2051 100.872 53.3398C100.954 53.4746 100.995 53.7236 100.995 54.0869C100.995 54.4502 100.954 54.6992 100.872 54.834C100.79 54.9629 100.646 55.0273 100.441 55.0273H97.7695V57.1982H99.6768C99.8174 57.1982 99.9258 57.2246 100.002 57.2773C100.078 57.3242 100.134 57.4121 100.169 57.541C100.21 57.6699 100.23 57.8574 100.23 58.1035C100.23 58.3496 100.21 58.5371 100.169 58.666C100.134 58.7949 100.078 58.8828 100.002 58.9297C99.9258 58.9766 99.8174 59 99.6768 59H94.4561C94.3154 59 94.207 58.9766 94.1309 58.9297C94.0547 58.8828 93.9961 58.7949 93.9551 58.666C93.9199 58.5371 93.9023 58.3496 93.9023 58.1035C93.9023 57.8574 93.9199 57.6699 93.9551 57.541C93.9961 57.4121 94.0547 57.3242 94.1309 57.2773C94.207 57.2246 94.3154 57.1982 94.4561 57.1982H95.5723V50.3691H94.4561C94.3154 50.3691 94.207 50.3457 94.1309 50.2988C94.0547 50.252 93.9961 50.1641 93.9551 50.0352C93.9199 49.9062 93.9023 49.7188 93.9023 49.4727C93.9023 49.2266 93.9199 49.0391 93.9551 48.9102C93.9961 48.7812 94.0547 48.6934 94.1309 48.6465C94.207 48.5938 94.3154 48.5674 94.4561 48.5674H102.647ZM112.315 50.6855C112.813 50.6855 113.282 50.8496 113.722 51.1777C113.979 51.3652 114.108 51.6113 114.108 51.916C114.108 52.1094 114.056 52.3379 113.95 52.6016C113.845 52.8652 113.725 53.0645 113.59 53.1992C113.461 53.334 113.323 53.4014 113.177 53.4014C113.095 53.4014 113.007 53.3779 112.913 53.3311C112.585 53.1494 112.245 53.0586 111.894 53.0586C111.442 53.0586 111.021 53.2021 110.628 53.4893C110.235 53.7764 109.919 54.1719 109.679 54.6758C109.444 55.1797 109.327 55.7422 109.327 56.3633V57.1982H111.85C111.99 57.1982 112.099 57.2246 112.175 57.2773C112.251 57.3242 112.307 57.4121 112.342 57.541C112.383 57.6699 112.403 57.8574 112.403 58.1035C112.403 58.3496 112.383 58.5371 112.342 58.666C112.307 58.7949 112.251 58.8828 112.175 58.9297C112.099 58.9766 111.99 59 111.85 59H105.838C105.697 59 105.589 58.9766 105.513 58.9297C105.437 58.8828 105.378 58.7949 105.337 58.666C105.302 58.5371 105.284 58.3496 105.284 58.1035C105.284 57.8574 105.302 57.6699 105.337 57.541C105.378 57.4121 105.437 57.3242 105.513 57.2773C105.589 57.2246 105.697 57.1982 105.838 57.1982H107.13V52.6807H106.102C105.961 52.6807 105.853 52.6572 105.776 52.6104C105.7 52.5635 105.642 52.4756 105.601 52.3467C105.565 52.2178 105.548 52.0303 105.548 51.7842C105.548 51.5381 105.565 51.3506 105.601 51.2217C105.642 51.0928 105.7 51.0049 105.776 50.958C105.853 50.9053 105.961 50.8789 106.102 50.8789H108.51C108.709 50.8789 108.85 50.9229 108.932 51.0107C109.02 51.0928 109.063 51.2334 109.063 51.4326V53.3398C109.503 52.4902 110.007 51.8369 110.575 51.3799C111.149 50.917 111.729 50.6855 112.315 50.6855ZM120.48 50.6855C121.371 50.6855 122.13 50.8789 122.757 51.2656C123.384 51.6465 123.855 52.1797 124.172 52.8652C124.494 53.5449 124.655 54.3242 124.655 55.2031C124.655 55.4023 124.611 55.543 124.523 55.625C124.441 55.707 124.301 55.748 124.102 55.748H118.459C118.57 56.2168 118.808 56.5771 119.171 56.8291C119.54 57.0752 120.006 57.1982 120.568 57.1982C121.477 57.1982 122.461 57.0371 123.521 56.7148C123.592 56.6914 123.662 56.6797 123.732 56.6797C123.861 56.6797 123.973 56.7383 124.066 56.8555C124.16 56.9727 124.245 57.1719 124.321 57.4531C124.38 57.6699 124.409 57.8545 124.409 58.0068C124.409 58.1592 124.374 58.2793 124.304 58.3672C124.239 58.4492 124.131 58.5166 123.979 58.5693C123.393 58.7627 122.795 58.915 122.186 59.0264C121.576 59.1377 120.979 59.1934 120.393 59.1934C119.502 59.1934 118.734 59.0117 118.09 58.6484C117.445 58.2852 116.953 57.7842 116.613 57.1455C116.279 56.501 116.112 55.7656 116.112 54.9395C116.112 54.1191 116.288 53.3867 116.64 52.7422C116.991 52.0977 117.498 51.5938 118.16 51.2305C118.822 50.8672 119.596 50.6855 120.48 50.6855ZM120.48 52.6807C119.408 52.6807 118.746 53.1318 118.494 54.0342H122.361C122.262 53.6064 122.048 53.2754 121.72 53.041C121.397 52.8008 120.984 52.6807 120.48 52.6807ZM131.273 50.6855C132.164 50.6855 132.923 50.8789 133.55 51.2656C134.177 51.6465 134.648 52.1797 134.965 52.8652C135.287 53.5449 135.448 54.3242 135.448 55.2031C135.448 55.4023 135.404 55.543 135.316 55.625C135.234 55.707 135.094 55.748 134.895 55.748H129.252C129.363 56.2168 129.601 56.5771 129.964 56.8291C130.333 57.0752 130.799 57.1982 131.361 57.1982C132.27 57.1982 133.254 57.0371 134.314 56.7148C134.385 56.6914 134.455 56.6797 134.525 56.6797C134.654 56.6797 134.766 56.7383 134.859 56.8555C134.953 56.9727 135.038 57.1719 135.114 57.4531C135.173 57.6699 135.202 57.8545 135.202 58.0068C135.202 58.1592 135.167 58.2793 135.097 58.3672C135.032 58.4492 134.924 58.5166 134.771 58.5693C134.186 58.7627 133.588 58.915 132.979 59.0264C132.369 59.1377 131.771 59.1934 131.186 59.1934C130.295 59.1934 129.527 59.0117 128.883 58.6484C128.238 58.2852 127.746 57.7842 127.406 57.1455C127.072 56.501 126.905 55.7656 126.905 54.9395C126.905 54.1191 127.081 53.3867 127.433 52.7422C127.784 52.0977 128.291 51.5938 128.953 51.2305C129.615 50.8672 130.389 50.6855 131.273 50.6855ZM131.273 52.6807C130.201 52.6807 129.539 53.1318 129.287 54.0342H133.154C133.055 53.6064 132.841 53.2754 132.513 53.041C132.19 52.8008 131.777 52.6807 131.273 52.6807ZM145.143 47.4688C145.342 47.4688 145.482 47.5127 145.564 47.6006C145.652 47.6826 145.696 47.8232 145.696 48.0225V57.1982H146.461C146.602 57.1982 146.71 57.2217 146.786 57.2686C146.862 57.3154 146.918 57.4033 146.953 57.5322C146.994 57.6611 147.015 57.8486 147.015 58.0947C147.015 58.3408 146.994 58.5283 146.953 58.6572C146.918 58.7861 146.862 58.877 146.786 58.9297C146.71 58.9766 146.602 59 146.461 59H144.404C144.205 59 144.062 58.959 143.974 58.877C143.892 58.7891 143.851 58.6455 143.851 58.4463V57.708C143.546 58.1768 143.165 58.543 142.708 58.8066C142.251 59.0645 141.744 59.1934 141.188 59.1934C140.42 59.1934 139.749 59.0059 139.175 58.6309C138.601 58.2559 138.161 57.7461 137.856 57.1016C137.552 56.457 137.399 55.7363 137.399 54.9395C137.399 54.1426 137.552 53.4219 137.856 52.7773C138.161 52.1328 138.601 51.623 139.175 51.248C139.749 50.873 140.42 50.6855 141.188 50.6855C141.645 50.6855 142.069 50.7764 142.462 50.958C142.854 51.1338 143.2 51.3887 143.499 51.7227V49.2705H142.207C142.066 49.2705 141.958 49.2471 141.882 49.2002C141.806 49.1533 141.747 49.0654 141.706 48.9365C141.671 48.8076 141.653 48.6201 141.653 48.374C141.653 48.1279 141.671 47.9404 141.706 47.8115C141.747 47.6826 141.806 47.5947 141.882 47.5479C141.958 47.4951 142.066 47.4688 142.207 47.4688H145.143ZM141.539 52.6807C141.176 52.6807 140.859 52.7744 140.59 52.9619C140.32 53.1436 140.112 53.4043 139.966 53.7441C139.825 54.084 139.755 54.4824 139.755 54.9395C139.755 55.3965 139.825 55.7949 139.966 56.1348C140.112 56.4746 140.32 56.7383 140.59 56.9258C140.859 57.1074 141.176 57.1982 141.539 57.1982C141.914 57.1982 142.254 57.1104 142.559 56.9346C142.863 56.7588 143.106 56.501 143.288 56.1611C143.47 55.8154 143.561 55.4082 143.561 54.9395C143.561 54.4707 143.47 54.0664 143.288 53.7266C143.106 53.3809 142.863 53.1201 142.559 52.9443C142.254 52.7686 141.914 52.6807 141.539 52.6807ZM152.736 50.6855C153.627 50.6855 154.406 50.8672 155.074 51.2305C155.742 51.5938 156.255 52.0977 156.612 52.7422C156.976 53.3867 157.157 54.1191 157.157 54.9395C157.157 55.7598 156.976 56.4922 156.612 57.1367C156.255 57.7812 155.742 58.2852 155.074 58.6484C154.406 59.0117 153.627 59.1934 152.736 59.1934C151.846 59.1934 151.066 59.0117 150.398 58.6484C149.73 58.2852 149.215 57.7812 148.852 57.1367C148.494 56.4922 148.315 55.7598 148.315 54.9395C148.315 54.1191 148.494 53.3867 148.852 52.7422C149.215 52.0977 149.73 51.5938 150.398 51.2305C151.066 50.8672 151.846 50.6855 152.736 50.6855ZM152.736 52.6807C152.314 52.6807 151.948 52.7744 151.638 52.9619C151.327 53.1436 151.087 53.4043 150.917 53.7441C150.753 54.084 150.671 54.4824 150.671 54.9395C150.671 55.3965 150.753 55.7949 150.917 56.1348C151.087 56.4746 151.327 56.7383 151.638 56.9258C151.948 57.1074 152.314 57.1982 152.736 57.1982C153.158 57.1982 153.524 57.1074 153.835 56.9258C154.146 56.7383 154.383 56.4746 154.547 56.1348C154.717 55.7949 154.802 55.3965 154.802 54.9395C154.802 54.4824 154.717 54.084 154.547 53.7441C154.383 53.4043 154.146 53.1436 153.835 52.9619C153.524 52.7744 153.158 52.6807 152.736 52.6807ZM166.623 50.6855C167.162 50.6855 167.587 50.9053 167.897 51.3447C168.208 51.7842 168.363 52.4521 168.363 53.3486V58.4463C168.363 58.6455 168.319 58.7891 168.231 58.877C168.149 58.959 168.009 59 167.81 59H166.72C166.521 59 166.377 58.959 166.289 58.877C166.207 58.7891 166.166 58.6455 166.166 58.4463V53.8496C166.166 53.5391 166.128 53.3105 166.052 53.1641C165.981 53.0176 165.867 52.9443 165.709 52.9443C165.434 52.9443 165.214 53.1582 165.05 53.5859C164.892 54.0137 164.812 54.6377 164.812 55.458V58.4463C164.812 58.6455 164.769 58.7891 164.681 58.877C164.599 58.959 164.458 59 164.259 59H163.169C162.97 59 162.826 58.959 162.738 58.877C162.656 58.7891 162.615 58.6455 162.615 58.4463V53.8496C162.615 53.5391 162.577 53.3105 162.501 53.1641C162.431 53.0176 162.316 52.9443 162.158 52.9443C161.883 52.9443 161.663 53.1582 161.499 53.5859C161.341 54.0137 161.262 54.6377 161.262 55.458V58.4463C161.262 58.6455 161.218 58.7891 161.13 58.877C161.048 58.959 160.907 59 160.708 59H159.618C159.419 59 159.275 58.959 159.188 58.877C159.105 58.7891 159.064 58.6455 159.064 58.4463V52.6807H158.563C158.423 52.6807 158.314 52.6572 158.238 52.6104C158.162 52.5635 158.106 52.4756 158.071 52.3467C158.03 52.2178 158.01 52.0303 158.01 51.7842C158.01 51.5381 158.03 51.3506 158.071 51.2217C158.106 51.0928 158.162 51.0049 158.238 50.958C158.314 50.9053 158.423 50.8789 158.563 50.8789H160.093C160.292 50.8789 160.433 50.9229 160.515 51.0107C160.603 51.0928 160.646 51.2334 160.646 51.4326V52.6982C160.922 52.0361 161.244 51.5352 161.613 51.1953C161.988 50.8555 162.398 50.6855 162.844 50.6855C163.711 50.6855 164.271 51.2803 164.522 52.4697C164.792 51.8838 165.105 51.4414 165.463 51.1426C165.82 50.8379 166.207 50.6855 166.623 50.6855Z" fill="#072114"/>
<circle cx="48.375" cy="42.75" r="35" fill="#4DCB43"/>
<path d="M33.0078 40.1953H43.1785C43.7684 40.1953 44.1416 40.8285 43.8559 41.3446L42.7066 43.421C42.4209 43.9371 42.7941 44.5703 43.384 44.5703H53.3552C53.9404 44.5703 54.3141 43.9462 54.0377 43.4303L52.9154 41.3352C52.6391 40.8195 53.0127 40.1953 53.5979 40.1953H63.6328" stroke="#072114" stroke-width="2.5" stroke-miterlimit="10"/>
<path d="M62.0703 37.1484C61.2074 37.1484 60.5078 36.4489 60.5078 35.5859V26.8828C60.5078 25.7782 59.6124 24.8828 58.5078 24.8828H38.0547C36.9501 24.8828 36.0547 25.7782 36.0547 26.8828V35.625C36.0547 36.4664 35.3726 37.1484 34.5312 37.1484V37.1484C33.6899 37.1484 33.0078 37.8305 33.0078 38.6719V58.6328C33.0078 60.3588 34.407 61.7578 36.1328 61.7578H60.5078C62.2337 61.7578 63.6328 60.3588 63.6328 58.6328V38.7109C63.6328 37.848 62.9333 37.1484 62.0703 37.1484V37.1484Z" stroke="#072114" stroke-width="2.5" stroke-miterlimit="10"/>
<path d="M64.3359 40.1953H66.3203" stroke="#072114" stroke-width="2.5" stroke-miterlimit="10" stroke-linecap="round"/>
<path d="M30.3203 40.1953H33.9297" stroke="#072114" stroke-width="2.5" stroke-miterlimit="10" stroke-linecap="round"/>
<path d="M41.6016 56.4609C41.6016 57.0132 41.1538 57.4609 40.6016 57.4609H39.4766C38.9243 57.4609 38.4766 57.0132 38.4766 56.4609V55.3359C38.4766 54.7837 38.9243 54.3359 39.4766 54.3359H40.6016C41.1538 54.3359 41.6016 54.7837 41.6016 55.3359V56.4609Z" fill="white"/>
<path d="M47.0703 56.4609C47.0703 57.0132 46.6226 57.4609 46.0703 57.4609H44.9453C44.393 57.4609 43.9453 57.0132 43.9453 56.4609V55.3359C43.9453 54.7837 44.393 54.3359 44.9453 54.3359H46.0703C46.6226 54.3359 47.0703 54.7837 47.0703 55.3359V56.4609Z" fill="white"/>
<path d="M52.5391 56.4609C52.5391 57.0132 52.0913 57.4609 51.5391 57.4609H50.4141C49.8618 57.4609 49.4141 57.0132 49.4141 56.4609V55.3359C49.4141 54.7837 49.8618 54.3359 50.4141 54.3359H51.5391C52.0913 54.3359 52.5391 54.7837 52.5391 55.3359V56.4609Z" fill="white"/>
<path d="M58.0078 56.4609C58.0078 57.0132 57.5601 57.4609 57.0078 57.4609H55.8828C55.3305 57.4609 54.8828 57.0132 54.8828 56.4609V55.3359C54.8828 54.7837 55.3305 54.3359 55.8828 54.3359H57.0078C57.5601 54.3359 58.0078 54.7837 58.0078 55.3359V56.4609Z" fill="white"/>
<path d="M41.6016 50.9922C41.6016 51.5445 41.1538 51.9922 40.6016 51.9922H39.4766C38.9243 51.9922 38.4766 51.5445 38.4766 50.9922V49.8672C38.4766 49.3149 38.9243 48.8672 39.4766 48.8672H40.6016C41.1538 48.8672 41.6016 49.3149 41.6016 49.8672V50.9922Z" fill="white"/>
<path d="M47.0703 50.9922C47.0703 51.5445 46.6226 51.9922 46.0703 51.9922H44.9453C44.393 51.9922 43.9453 51.5445 43.9453 50.9922V49.8672C43.9453 49.3149 44.393 48.8672 44.9453 48.8672H46.0703C46.6226 48.8672 47.0703 49.3149 47.0703 49.8672V50.9922Z" fill="white"/>
<path d="M52.5391 50.9922C52.5391 51.5445 52.0913 51.9922 51.5391 51.9922H50.4141C49.8618 51.9922 49.4141 51.5445 49.4141 50.9922V49.8672C49.4141 49.3149 49.8618 48.8672 50.4141 48.8672H51.5391C52.0913 48.8672 52.5391 49.3149 52.5391 49.8672V50.9922Z" fill="white"/>
<path d="M58.0078 50.9922C58.0078 51.5445 57.5601 51.9922 57.0078 51.9922H55.8828C55.3305 51.9922 54.8828 51.5445 54.8828 50.9922V49.8672C54.8828 49.3149 55.3305 48.8672 55.8828 48.8672H57.0078C57.5601 48.8672 58.0078 49.3149 58.0078 49.8672V50.9922Z" fill="white"/>
<defs>
<filter id="filter0_b_2183_83" x="-8.03686" y="-7.90405" width="255.074" height="101.816" filterUnits="userSpaceOnUse" color-interpolation-filters="sRGB">
<feFlood flood-opacity="0" result="BackgroundImageFix"/>
<feGaussianBlur in="BackgroundImageFix" stdDeviation="4.01843"/>
<feComposite in2="SourceAlpha" operator="in" result="effect1_backgroundBlur_2183_83"/>
<feBlend mode="normal" in="SourceGraphic" in2="effect1_backgroundBlur_2183_83" result="shape"/>
</filter>
<linearGradient id="paint0_linear_2183_83" x1="323.976" y1="49.8375" x2="20.4158" y2="47.6086" gradientUnits="userSpaceOnUse">
<stop stop-color="white"/>
<stop offset="1" stop-color="white"/>
</linearGradient>
</defs>
</svg>
