<svg width="255" height="87" viewBox="0 0 255 87" fill="none" xmlns="http://www.w3.org/2000/svg">
<foreignObject x="-7.25562" y="-7.16968" width="270.074" height="102.074"><div xmlns="http://www.w3.org/1999/xhtml" style="backdrop-filter:blur(4.02px);clip-path:url(#bgblur_0_2303_319_clip_path);height:100%;width:100%"></div></foreignObject><path data-figma-bg-blur-radius="8.03687" d="M0.78125 43.8672C0.78125 20.1189 20.033 0.867188 43.7812 0.867188H211.781C235.529 0.867188 254.781 20.1189 254.781 43.8672C254.781 67.6154 235.529 86.8672 211.781 86.8672H43.7812C20.033 86.8672 0.78125 67.6154 0.78125 43.8672Z" fill="url(#paint0_linear_2303_319)"/>
<path d="M101.623 27.2412C101.986 27.2412 102.235 27.2822 102.37 27.3643C102.505 27.4463 102.572 27.5898 102.572 27.7949V31.1699C102.572 31.3691 102.481 31.5127 102.3 31.6006C102.124 31.6826 101.828 31.7236 101.412 31.7236C101.137 31.7236 100.923 31.7061 100.771 31.6709C100.624 31.6299 100.521 31.5713 100.463 31.4951C100.404 31.4189 100.375 31.3105 100.375 31.1699C100.375 30.584 100.214 30.1152 99.8916 29.7637C99.5752 29.4121 99.1211 29.2363 98.5293 29.2363C97.7148 29.2363 97.0967 29.5293 96.6748 30.1152C96.2529 30.7012 96.042 31.5449 96.042 32.6465C96.042 33.7363 96.2646 34.5801 96.71 35.1777C97.1611 35.7695 97.7969 36.0654 98.6172 36.0654C99.127 36.0654 99.6162 35.998 100.085 35.8633C100.554 35.7227 101.063 35.5117 101.614 35.2305C101.708 35.1836 101.796 35.1602 101.878 35.1602C102.153 35.1602 102.382 35.4033 102.563 35.8896C102.646 36.1123 102.687 36.3115 102.687 36.4873C102.687 36.7861 102.552 37 102.282 37.1289C101.028 37.75 99.7773 38.0605 98.5293 38.0605C97.5684 38.0605 96.7217 37.8408 95.9893 37.4014C95.2568 36.9619 94.6885 36.335 94.2842 35.5205C93.8857 34.7002 93.6865 33.7422 93.6865 32.6465C93.6865 31.5566 93.8828 30.6045 94.2754 29.79C94.668 28.9697 95.21 28.3398 95.9014 27.9004C96.5986 27.4609 97.3867 27.2412 98.2656 27.2412C99.291 27.2412 100.053 27.6104 100.551 28.3486V27.7949C100.551 27.5957 100.636 27.4551 100.806 27.373C100.976 27.2852 101.248 27.2412 101.623 27.2412ZM108.971 29.5527C109.861 29.5527 110.641 29.7344 111.309 30.0977C111.977 30.4609 112.489 30.9648 112.847 31.6094C113.21 32.2539 113.392 32.9863 113.392 33.8066C113.392 34.627 113.21 35.3594 112.847 36.0039C112.489 36.6484 111.977 37.1523 111.309 37.5156C110.641 37.8789 109.861 38.0605 108.971 38.0605C108.08 38.0605 107.301 37.8789 106.633 37.5156C105.965 37.1523 105.449 36.6484 105.086 36.0039C104.729 35.3594 104.55 34.627 104.55 33.8066C104.55 32.9863 104.729 32.2539 105.086 31.6094C105.449 30.9648 105.965 30.4609 106.633 30.0977C107.301 29.7344 108.08 29.5527 108.971 29.5527ZM108.971 31.5479C108.549 31.5479 108.183 31.6416 107.872 31.8291C107.562 32.0107 107.321 32.2715 107.151 32.6113C106.987 32.9512 106.905 33.3496 106.905 33.8066C106.905 34.2637 106.987 34.6621 107.151 35.002C107.321 35.3418 107.562 35.6055 107.872 35.793C108.183 35.9746 108.549 36.0654 108.971 36.0654C109.393 36.0654 109.759 35.9746 110.069 35.793C110.38 35.6055 110.617 35.3418 110.781 35.002C110.951 34.6621 111.036 34.2637 111.036 33.8066C111.036 33.3496 110.951 32.9512 110.781 32.6113C110.617 32.2715 110.38 32.0107 110.069 31.8291C109.759 31.6416 109.393 31.5479 108.971 31.5479ZM122.857 29.5527C123.396 29.5527 123.821 29.7725 124.132 30.2119C124.442 30.6514 124.598 31.3193 124.598 32.2158V37.3135C124.598 37.5127 124.554 37.6562 124.466 37.7441C124.384 37.8262 124.243 37.8672 124.044 37.8672H122.954C122.755 37.8672 122.611 37.8262 122.523 37.7441C122.441 37.6562 122.4 37.5127 122.4 37.3135V32.7168C122.4 32.4062 122.362 32.1777 122.286 32.0312C122.216 31.8848 122.102 31.8115 121.943 31.8115C121.668 31.8115 121.448 32.0254 121.284 32.4531C121.126 32.8809 121.047 33.5049 121.047 34.3252V37.3135C121.047 37.5127 121.003 37.6562 120.915 37.7441C120.833 37.8262 120.692 37.8672 120.493 37.8672H119.403C119.204 37.8672 119.061 37.8262 118.973 37.7441C118.891 37.6562 118.85 37.5127 118.85 37.3135V32.7168C118.85 32.4062 118.812 32.1777 118.735 32.0312C118.665 31.8848 118.551 31.8115 118.393 31.8115C118.117 31.8115 117.897 32.0254 117.733 32.4531C117.575 32.8809 117.496 33.5049 117.496 34.3252V37.3135C117.496 37.5127 117.452 37.6562 117.364 37.7441C117.282 37.8262 117.142 37.8672 116.942 37.8672H115.853C115.653 37.8672 115.51 37.8262 115.422 37.7441C115.34 37.6562 115.299 37.5127 115.299 37.3135V31.5479H114.798C114.657 31.5479 114.549 31.5244 114.473 31.4775C114.396 31.4307 114.341 31.3428 114.306 31.2139C114.265 31.085 114.244 30.8975 114.244 30.6514C114.244 30.4053 114.265 30.2178 114.306 30.0889C114.341 29.96 114.396 29.8721 114.473 29.8252C114.549 29.7725 114.657 29.7461 114.798 29.7461H116.327C116.526 29.7461 116.667 29.79 116.749 29.8779C116.837 29.96 116.881 30.1006 116.881 30.2998V31.5654C117.156 30.9033 117.479 30.4023 117.848 30.0625C118.223 29.7227 118.633 29.5527 119.078 29.5527C119.945 29.5527 120.505 30.1475 120.757 31.3369C121.026 30.751 121.34 30.3086 121.697 30.0098C122.055 29.7051 122.441 29.5527 122.857 29.5527ZM133.65 29.5527C134.189 29.5527 134.614 29.7725 134.925 30.2119C135.235 30.6514 135.391 31.3193 135.391 32.2158V37.3135C135.391 37.5127 135.347 37.6562 135.259 37.7441C135.177 37.8262 135.036 37.8672 134.837 37.8672H133.747C133.548 37.8672 133.404 37.8262 133.316 37.7441C133.234 37.6562 133.193 37.5127 133.193 37.3135V32.7168C133.193 32.4062 133.155 32.1777 133.079 32.0312C133.009 31.8848 132.895 31.8115 132.736 31.8115C132.461 31.8115 132.241 32.0254 132.077 32.4531C131.919 32.8809 131.84 33.5049 131.84 34.3252V37.3135C131.84 37.5127 131.796 37.6562 131.708 37.7441C131.626 37.8262 131.485 37.8672 131.286 37.8672H130.196C129.997 37.8672 129.854 37.8262 129.766 37.7441C129.684 37.6562 129.643 37.5127 129.643 37.3135V32.7168C129.643 32.4062 129.604 32.1777 129.528 32.0312C129.458 31.8848 129.344 31.8115 129.186 31.8115C128.91 31.8115 128.69 32.0254 128.526 32.4531C128.368 32.8809 128.289 33.5049 128.289 34.3252V37.3135C128.289 37.5127 128.245 37.6562 128.157 37.7441C128.075 37.8262 127.935 37.8672 127.735 37.8672H126.646C126.446 37.8672 126.303 37.8262 126.215 37.7441C126.133 37.6562 126.092 37.5127 126.092 37.3135V31.5479H125.591C125.45 31.5479 125.342 31.5244 125.266 31.4775C125.189 31.4307 125.134 31.3428 125.099 31.2139C125.058 31.085 125.037 30.8975 125.037 30.6514C125.037 30.4053 125.058 30.2178 125.099 30.0889C125.134 29.96 125.189 29.8721 125.266 29.8252C125.342 29.7725 125.45 29.7461 125.591 29.7461H127.12C127.319 29.7461 127.46 29.79 127.542 29.8779C127.63 29.96 127.674 30.1006 127.674 30.2998V31.5654C127.949 30.9033 128.271 30.4023 128.641 30.0625C129.016 29.7227 129.426 29.5527 129.871 29.5527C130.738 29.5527 131.298 30.1475 131.55 31.3369C131.819 30.751 132.133 30.3086 132.49 30.0098C132.848 29.7051 133.234 29.5527 133.65 29.5527ZM144.47 29.7461C144.669 29.7461 144.81 29.79 144.892 29.8779C144.979 29.96 145.023 30.1006 145.023 30.2998V36.0654H145.7C145.841 36.0654 145.949 36.0889 146.025 36.1357C146.102 36.1826 146.157 36.2705 146.192 36.3994C146.233 36.5283 146.254 36.7158 146.254 36.9619C146.254 37.208 146.233 37.3955 146.192 37.5244C146.157 37.6533 146.102 37.7441 146.025 37.7969C145.949 37.8438 145.841 37.8672 145.7 37.8672H143.731C143.532 37.8672 143.389 37.8262 143.301 37.7441C143.219 37.6562 143.178 37.5127 143.178 37.3135V36.0391C142.404 37.3867 141.438 38.0605 140.277 38.0605C139.744 38.0605 139.275 37.9434 138.871 37.709C138.473 37.4746 138.165 37.1436 137.948 36.7158C137.731 36.2822 137.623 35.7754 137.623 35.1953V31.5479H136.946C136.806 31.5479 136.697 31.5244 136.621 31.4775C136.545 31.4248 136.486 31.334 136.445 31.2051C136.41 31.0762 136.393 30.8887 136.393 30.6426C136.393 30.3965 136.41 30.209 136.445 30.0801C136.486 29.9512 136.545 29.8633 136.621 29.8164C136.697 29.7695 136.806 29.7461 136.946 29.7461H139.267C139.466 29.7461 139.606 29.79 139.688 29.8779C139.776 29.96 139.82 30.1006 139.82 30.2998V34.6768C139.82 35.1338 139.899 35.4795 140.058 35.7139C140.216 35.9482 140.479 36.0654 140.849 36.0654C141.188 36.0654 141.511 35.9248 141.815 35.6436C142.12 35.3564 142.363 34.9756 142.545 34.501C142.732 34.0264 142.826 33.5195 142.826 32.9805V31.5479H141.886C141.745 31.5479 141.637 31.5244 141.561 31.4775C141.484 31.4248 141.426 31.334 141.385 31.2051C141.35 31.0762 141.332 30.8887 141.332 30.6426C141.332 30.3965 141.35 30.209 141.385 30.0801C141.426 29.9512 141.484 29.8633 141.561 29.8164C141.637 29.7695 141.745 29.7461 141.886 29.7461H144.47ZM153.399 29.5527C153.933 29.5527 154.398 29.6699 154.797 29.9043C155.201 30.1387 155.512 30.4727 155.729 30.9062C155.945 31.334 156.054 31.8379 156.054 32.418V36.0654H156.73C156.871 36.0654 156.979 36.0918 157.056 36.1445C157.132 36.1914 157.188 36.2793 157.223 36.4082C157.264 36.5371 157.284 36.7246 157.284 36.9707C157.284 37.2168 157.264 37.4043 157.223 37.5332C157.188 37.6621 157.132 37.75 157.056 37.7969C156.979 37.8438 156.871 37.8672 156.73 37.8672H153.443C153.303 37.8672 153.194 37.8438 153.118 37.7969C153.042 37.75 152.983 37.6621 152.942 37.5332C152.907 37.4043 152.89 37.2168 152.89 36.9707C152.89 36.7246 152.907 36.5371 152.942 36.4082C152.983 36.2793 153.042 36.1914 153.118 36.1445C153.194 36.0918 153.303 36.0654 153.443 36.0654H153.856V32.9365C153.856 32.4795 153.777 32.1338 153.619 31.8994C153.461 31.665 153.197 31.5479 152.828 31.5479C152.488 31.5479 152.166 31.6914 151.861 31.9785C151.557 32.2598 151.311 32.6377 151.123 33.1123C150.941 33.5869 150.851 34.0938 150.851 34.6328V36.0654H151.264C151.404 36.0654 151.513 36.0918 151.589 36.1445C151.665 36.1914 151.721 36.2793 151.756 36.4082C151.797 36.5371 151.817 36.7246 151.817 36.9707C151.817 37.2168 151.797 37.4043 151.756 37.5332C151.721 37.6621 151.665 37.75 151.589 37.7969C151.513 37.8438 151.404 37.8672 151.264 37.8672H147.977C147.836 37.8672 147.728 37.8438 147.651 37.7969C147.575 37.75 147.517 37.6621 147.476 37.5332C147.44 37.4043 147.423 37.2168 147.423 36.9707C147.423 36.7246 147.44 36.5371 147.476 36.4082C147.517 36.2793 147.575 36.1914 147.651 36.1445C147.728 36.0918 147.836 36.0654 147.977 36.0654H148.653V31.5479H147.801C147.66 31.5479 147.552 31.5244 147.476 31.4775C147.399 31.4307 147.341 31.3428 147.3 31.2139C147.265 31.085 147.247 30.8975 147.247 30.6514C147.247 30.4053 147.265 30.2178 147.3 30.0889C147.341 29.96 147.399 29.8721 147.476 29.8252C147.552 29.7725 147.66 29.7461 147.801 29.7461H149.945C150.145 29.7461 150.285 29.79 150.367 29.8779C150.455 29.96 150.499 30.1006 150.499 30.2998V31.5742C151.272 30.2266 152.239 29.5527 153.399 29.5527ZM163.604 29.7461C163.803 29.7461 163.943 29.79 164.025 29.8779C164.113 29.96 164.157 30.1006 164.157 30.2998V36.0654H166.627C166.768 36.0654 166.876 36.0918 166.952 36.1445C167.028 36.1914 167.084 36.2793 167.119 36.4082C167.16 36.5371 167.181 36.7246 167.181 36.9707C167.181 37.2168 167.16 37.4043 167.119 37.5332C167.084 37.6621 167.028 37.75 166.952 37.7969C166.876 37.8438 166.768 37.8672 166.627 37.8672H159.561C159.42 37.8672 159.312 37.8438 159.235 37.7969C159.159 37.75 159.101 37.6621 159.06 37.5332C159.024 37.4043 159.007 37.2168 159.007 36.9707C159.007 36.7246 159.024 36.5371 159.06 36.4082C159.101 36.2793 159.159 36.1914 159.235 36.1445C159.312 36.0918 159.42 36.0654 159.561 36.0654H161.96V31.5479H160.088C159.947 31.5479 159.839 31.5244 159.763 31.4775C159.687 31.4307 159.628 31.3428 159.587 31.2139C159.552 31.085 159.534 30.8975 159.534 30.6514C159.534 30.4053 159.552 30.2178 159.587 30.0889C159.628 29.96 159.687 29.8721 159.763 29.8252C159.839 29.7725 159.947 29.7461 160.088 29.7461H163.604ZM163.032 25.8877C163.448 25.8877 163.738 25.9316 163.902 26.0195C164.072 26.1016 164.157 26.2422 164.157 26.4414V27.8828C164.157 28.082 164.078 28.2256 163.92 28.3135C163.768 28.3955 163.486 28.4365 163.076 28.4365C162.666 28.4365 162.376 28.3955 162.206 28.3135C162.042 28.2256 161.96 28.082 161.96 27.8828V26.4414C161.96 26.2363 162.036 26.0928 162.188 26.0107C162.341 25.9287 162.622 25.8877 163.032 25.8877ZM172.595 27.2412C172.87 27.2412 173.081 27.2617 173.228 27.3027C173.38 27.3379 173.485 27.3936 173.544 27.4697C173.603 27.5459 173.632 27.6543 173.632 27.7949V30.2734H176.893C177.098 30.2734 177.241 30.3408 177.323 30.4756C177.405 30.6104 177.446 30.8594 177.446 31.2227C177.446 31.5859 177.405 31.835 177.323 31.9697C177.241 32.0986 177.098 32.1631 176.893 32.1631H173.632V34.6064C173.632 35.5791 174.01 36.0654 174.766 36.0654C175.035 36.0654 175.349 36.0068 175.706 35.8896C176.069 35.7666 176.491 35.5967 176.972 35.3799C177.101 35.3271 177.203 35.3008 177.279 35.3008C177.402 35.3008 177.517 35.3535 177.622 35.459C177.728 35.5586 177.827 35.7256 177.921 35.96C178.026 36.2236 178.079 36.4375 178.079 36.6016C178.079 36.7305 178.047 36.8389 177.982 36.9268C177.924 37.0088 177.833 37.082 177.71 37.1465C176.503 37.7559 175.457 38.0605 174.572 38.0605C173.553 38.0605 172.773 37.7764 172.234 37.208C171.701 36.6396 171.435 35.8105 171.435 34.7207V32.1631H169.738C169.533 32.1631 169.39 32.0986 169.308 31.9697C169.226 31.835 169.185 31.5859 169.185 31.2227C169.185 30.8594 169.226 30.6104 169.308 30.4756C169.39 30.3408 169.533 30.2734 169.738 30.2734H171.435V27.7949C171.435 27.5957 171.522 27.4551 171.698 27.373C171.88 27.2852 172.179 27.2412 172.595 27.2412ZM189.013 29.7461C189.153 29.7461 189.262 29.7725 189.338 29.8252C189.414 29.8721 189.47 29.96 189.505 30.0889C189.546 30.2178 189.566 30.4053 189.566 30.6514C189.566 30.8975 189.546 31.085 189.505 31.2139C189.47 31.3428 189.414 31.4307 189.338 31.4775C189.262 31.5244 189.153 31.5479 189.013 31.5479H188.45L185.084 38.3682C184.674 39.1943 184.281 39.8213 183.906 40.249C183.537 40.6826 183.112 40.9873 182.632 41.1631C182.157 41.3447 181.542 41.4473 180.786 41.4707C180.575 41.4766 180.414 41.3975 180.303 41.2334C180.197 41.0693 180.145 40.7705 180.145 40.3369C180.145 40.0381 180.183 39.8242 180.259 39.6953C180.341 39.5664 180.455 39.4961 180.602 39.4844C181.064 39.4551 181.439 39.3672 181.727 39.2207C182.02 39.0742 182.283 38.8398 182.518 38.5176C182.758 38.2012 183.045 37.7207 183.379 37.0762L180.689 31.5479H180.03C179.89 31.5479 179.781 31.5244 179.705 31.4775C179.629 31.4307 179.57 31.3428 179.529 31.2139C179.494 31.085 179.477 30.8975 179.477 30.6514C179.477 30.4053 179.494 30.2178 179.529 30.0889C179.57 29.96 179.629 29.8721 179.705 29.8252C179.781 29.7725 179.89 29.7461 180.03 29.7461H183.581C183.722 29.7461 183.83 29.7725 183.906 29.8252C183.982 29.8721 184.038 29.96 184.073 30.0889C184.114 30.2178 184.135 30.4053 184.135 30.6514C184.135 30.8975 184.114 31.085 184.073 31.2139C184.038 31.3428 183.982 31.4307 183.906 31.4775C183.83 31.5244 183.722 31.5479 183.581 31.5479H183.054L184.583 34.8877L186.112 31.5479H185.638C185.497 31.5479 185.389 31.5244 185.312 31.4775C185.236 31.4307 185.178 31.3428 185.137 31.2139C185.102 31.085 185.084 30.8975 185.084 30.6514C185.084 30.4053 185.102 30.2178 185.137 30.0889C185.178 29.96 185.236 29.8721 185.312 29.8252C185.389 29.7725 185.497 29.7461 185.638 29.7461H189.013ZM205.835 27.2412C206.743 27.2412 207.707 27.5225 208.727 28.085C208.855 28.1553 208.949 28.2344 209.008 28.3223C209.072 28.4043 209.104 28.5068 209.104 28.6299V30.3613C209.104 30.5605 209.02 30.7041 208.85 30.792C208.68 30.874 208.407 30.915 208.032 30.915C207.669 30.915 207.42 30.874 207.285 30.792C207.15 30.71 207.083 30.5664 207.083 30.3613V29.4648C206.661 29.2539 206.242 29.1484 205.826 29.1484C205.498 29.1484 205.231 29.2539 205.026 29.4648C204.821 29.6758 204.719 29.9541 204.719 30.2998C204.719 30.5811 204.801 30.8594 204.965 31.1348C205.129 31.4043 205.363 31.6973 205.668 32.0137L207.259 33.6748C207.417 33.2939 207.555 32.9248 207.672 32.5674C207.713 32.4502 207.769 32.3594 207.839 32.2949C207.909 32.2305 208.006 32.1982 208.129 32.1982H210.062C210.203 32.1982 210.312 32.2217 210.388 32.2686C210.464 32.3154 210.52 32.4033 210.555 32.5322C210.596 32.6611 210.616 32.8486 210.616 33.0947C210.616 33.3408 210.596 33.5283 210.555 33.6572C210.52 33.7861 210.464 33.877 210.388 33.9297C210.312 33.9766 210.203 34 210.062 34H209.263C209.104 34.4512 208.938 34.8643 208.762 35.2393L209.562 36.0654H210.238C210.379 36.0654 210.487 36.0918 210.563 36.1445C210.64 36.1914 210.695 36.2793 210.73 36.4082C210.771 36.5371 210.792 36.7246 210.792 36.9707C210.792 37.2168 210.771 37.4043 210.73 37.5332C210.695 37.6621 210.64 37.75 210.563 37.7969C210.487 37.8438 210.379 37.8672 210.238 37.8672H208.735C208.501 37.8672 208.29 37.7705 208.103 37.5771L207.531 36.9883C206.775 37.7031 205.838 38.0605 204.719 38.0605C204.104 38.0605 203.564 37.9346 203.102 37.6826C202.639 37.4248 202.281 37.0703 202.029 36.6191C201.777 36.1621 201.651 35.6406 201.651 35.0547C201.651 34.498 201.783 34.0059 202.047 33.5781C202.311 33.1445 202.706 32.752 203.233 32.4004C202.735 31.6973 202.486 30.9824 202.486 30.2559C202.486 29.6758 202.621 29.1572 202.891 28.7002C203.16 28.2432 203.547 27.8857 204.051 27.6279C204.555 27.3701 205.149 27.2412 205.835 27.2412ZM204.42 33.7451C204.221 33.9268 204.071 34.1172 203.972 34.3164C203.878 34.5098 203.831 34.7266 203.831 34.9668C203.831 35.3008 203.928 35.5674 204.121 35.7666C204.314 35.9658 204.572 36.0654 204.895 36.0654C205.352 36.0654 205.765 35.8867 206.134 35.5293L204.42 33.7451ZM102.054 48.4346C102.259 48.4346 102.405 48.4785 102.493 48.5664C102.581 48.6543 102.625 48.8008 102.625 49.0059V51.6602C102.625 51.8594 102.54 52.0029 102.37 52.0908C102.2 52.1729 101.928 52.2139 101.553 52.2139C101.189 52.2139 100.94 52.1729 100.806 52.0908C100.671 52.0088 100.604 51.8652 100.604 51.6602V50.3242H97.1758V53.0049H99.8477C100.053 53.0049 100.196 53.0723 100.278 53.207C100.36 53.3418 100.401 53.5908 100.401 53.9541C100.401 54.3174 100.36 54.5664 100.278 54.7012C100.196 54.8301 100.053 54.8945 99.8477 54.8945H97.1758V57.0654H99.083C99.2236 57.0654 99.332 57.0918 99.4082 57.1445C99.4844 57.1914 99.54 57.2793 99.5752 57.4082C99.6162 57.5371 99.6367 57.7246 99.6367 57.9707C99.6367 58.2168 99.6162 58.4043 99.5752 58.5332C99.54 58.6621 99.4844 58.75 99.4082 58.7969C99.332 58.8438 99.2236 58.8672 99.083 58.8672H93.8623C93.7217 58.8672 93.6133 58.8438 93.5371 58.7969C93.4609 58.75 93.4023 58.6621 93.3613 58.5332C93.3262 58.4043 93.3086 58.2168 93.3086 57.9707C93.3086 57.7246 93.3262 57.5371 93.3613 57.4082C93.4023 57.2793 93.4609 57.1914 93.5371 57.1445C93.6133 57.0918 93.7217 57.0654 93.8623 57.0654H94.9785V50.2363H93.8623C93.7217 50.2363 93.6133 50.2129 93.5371 50.166C93.4609 50.1191 93.4023 50.0312 93.3613 49.9023C93.3262 49.7734 93.3086 49.5859 93.3086 49.3398C93.3086 49.0938 93.3262 48.9062 93.3613 48.7773C93.4023 48.6484 93.4609 48.5605 93.5371 48.5137C93.6133 48.4609 93.7217 48.4346 93.8623 48.4346H102.054ZM111.722 50.5527C112.22 50.5527 112.688 50.7168 113.128 51.0449C113.386 51.2324 113.515 51.4785 113.515 51.7832C113.515 51.9766 113.462 52.2051 113.356 52.4688C113.251 52.7324 113.131 52.9316 112.996 53.0664C112.867 53.2012 112.729 53.2686 112.583 53.2686C112.501 53.2686 112.413 53.2451 112.319 53.1982C111.991 53.0166 111.651 52.9258 111.3 52.9258C110.849 52.9258 110.427 53.0693 110.034 53.3564C109.642 53.6436 109.325 54.0391 109.085 54.543C108.851 55.0469 108.733 55.6094 108.733 56.2305V57.0654H111.256C111.396 57.0654 111.505 57.0918 111.581 57.1445C111.657 57.1914 111.713 57.2793 111.748 57.4082C111.789 57.5371 111.81 57.7246 111.81 57.9707C111.81 58.2168 111.789 58.4043 111.748 58.5332C111.713 58.6621 111.657 58.75 111.581 58.7969C111.505 58.8438 111.396 58.8672 111.256 58.8672H105.244C105.104 58.8672 104.995 58.8438 104.919 58.7969C104.843 58.75 104.784 58.6621 104.743 58.5332C104.708 58.4043 104.69 58.2168 104.69 57.9707C104.69 57.7246 104.708 57.5371 104.743 57.4082C104.784 57.2793 104.843 57.1914 104.919 57.1445C104.995 57.0918 105.104 57.0654 105.244 57.0654H106.536V52.5479H105.508C105.367 52.5479 105.259 52.5244 105.183 52.4775C105.106 52.4307 105.048 52.3428 105.007 52.2139C104.972 52.085 104.954 51.8975 104.954 51.6514C104.954 51.4053 104.972 51.2178 105.007 51.0889C105.048 50.96 105.106 50.8721 105.183 50.8252C105.259 50.7725 105.367 50.7461 105.508 50.7461H107.916C108.115 50.7461 108.256 50.79 108.338 50.8779C108.426 50.96 108.47 51.1006 108.47 51.2998V53.207C108.909 52.3574 109.413 51.7041 109.981 51.2471C110.556 50.7842 111.136 50.5527 111.722 50.5527ZM120.432 50.7461C120.631 50.7461 120.771 50.79 120.854 50.8779C120.941 50.96 120.985 51.1006 120.985 51.2998V57.0654H123.455C123.596 57.0654 123.704 57.0918 123.78 57.1445C123.856 57.1914 123.912 57.2793 123.947 57.4082C123.988 57.5371 124.009 57.7246 124.009 57.9707C124.009 58.2168 123.988 58.4043 123.947 58.5332C123.912 58.6621 123.856 58.75 123.78 58.7969C123.704 58.8438 123.596 58.8672 123.455 58.8672H116.389C116.248 58.8672 116.14 58.8438 116.063 58.7969C115.987 58.75 115.929 58.6621 115.888 58.5332C115.853 58.4043 115.835 58.2168 115.835 57.9707C115.835 57.7246 115.853 57.5371 115.888 57.4082C115.929 57.2793 115.987 57.1914 116.063 57.1445C116.14 57.0918 116.248 57.0654 116.389 57.0654H118.788V52.5479H116.916C116.775 52.5479 116.667 52.5244 116.591 52.4775C116.515 52.4307 116.456 52.3428 116.415 52.2139C116.38 52.085 116.362 51.8975 116.362 51.6514C116.362 51.4053 116.38 51.2178 116.415 51.0889C116.456 50.96 116.515 50.8721 116.591 50.8252C116.667 50.7725 116.775 50.7461 116.916 50.7461H120.432ZM119.86 46.8877C120.276 46.8877 120.566 46.9316 120.73 47.0195C120.9 47.1016 120.985 47.2422 120.985 47.4414V48.8828C120.985 49.082 120.906 49.2256 120.748 49.3135C120.596 49.3955 120.314 49.4365 119.904 49.4365C119.494 49.4365 119.204 49.3955 119.034 49.3135C118.87 49.2256 118.788 49.082 118.788 48.8828V47.4414C118.788 47.2363 118.864 47.0928 119.017 47.0107C119.169 46.9287 119.45 46.8877 119.86 46.8877ZM130.68 50.5527C131.57 50.5527 132.329 50.7461 132.956 51.1328C133.583 51.5137 134.055 52.0469 134.371 52.7324C134.693 53.4121 134.854 54.1914 134.854 55.0703C134.854 55.2695 134.811 55.4102 134.723 55.4922C134.641 55.5742 134.5 55.6152 134.301 55.6152H128.658C128.77 56.084 129.007 56.4443 129.37 56.6963C129.739 56.9424 130.205 57.0654 130.768 57.0654C131.676 57.0654 132.66 56.9043 133.721 56.582C133.791 56.5586 133.861 56.5469 133.932 56.5469C134.061 56.5469 134.172 56.6055 134.266 56.7227C134.359 56.8398 134.444 57.0391 134.521 57.3203C134.579 57.5371 134.608 57.7217 134.608 57.874C134.608 58.0264 134.573 58.1465 134.503 58.2344C134.438 58.3164 134.33 58.3838 134.178 58.4365C133.592 58.6299 132.994 58.7822 132.385 58.8936C131.775 59.0049 131.178 59.0605 130.592 59.0605C129.701 59.0605 128.934 58.8789 128.289 58.5156C127.645 58.1523 127.152 57.6514 126.812 57.0127C126.479 56.3682 126.312 55.6328 126.312 54.8066C126.312 53.9863 126.487 53.2539 126.839 52.6094C127.19 51.9648 127.697 51.4609 128.359 51.0977C129.021 50.7344 129.795 50.5527 130.68 50.5527ZM130.68 52.5479C129.607 52.5479 128.945 52.999 128.693 53.9014H132.561C132.461 53.4736 132.247 53.1426 131.919 52.9082C131.597 52.668 131.184 52.5479 130.68 52.5479ZM142.606 50.5527C143.14 50.5527 143.605 50.6699 144.004 50.9043C144.408 51.1387 144.719 51.4727 144.936 51.9062C145.152 52.334 145.261 52.8379 145.261 53.418V57.0654H145.938C146.078 57.0654 146.187 57.0918 146.263 57.1445C146.339 57.1914 146.395 57.2793 146.43 57.4082C146.471 57.5371 146.491 57.7246 146.491 57.9707C146.491 58.2168 146.471 58.4043 146.43 58.5332C146.395 58.6621 146.339 58.75 146.263 58.7969C146.187 58.8438 146.078 58.8672 145.938 58.8672H142.65C142.51 58.8672 142.401 58.8438 142.325 58.7969C142.249 58.75 142.19 58.6621 142.149 58.5332C142.114 58.4043 142.097 58.2168 142.097 57.9707C142.097 57.7246 142.114 57.5371 142.149 57.4082C142.19 57.2793 142.249 57.1914 142.325 57.1445C142.401 57.0918 142.51 57.0654 142.65 57.0654H143.063V53.9365C143.063 53.4795 142.984 53.1338 142.826 52.8994C142.668 52.665 142.404 52.5479 142.035 52.5479C141.695 52.5479 141.373 52.6914 141.068 52.9785C140.764 53.2598 140.518 53.6377 140.33 54.1123C140.148 54.5869 140.058 55.0938 140.058 55.6328V57.0654H140.471C140.611 57.0654 140.72 57.0918 140.796 57.1445C140.872 57.1914 140.928 57.2793 140.963 57.4082C141.004 57.5371 141.024 57.7246 141.024 57.9707C141.024 58.2168 141.004 58.4043 140.963 58.5332C140.928 58.6621 140.872 58.75 140.796 58.7969C140.72 58.8438 140.611 58.8672 140.471 58.8672H137.184C137.043 58.8672 136.935 58.8438 136.858 58.7969C136.782 58.75 136.724 58.6621 136.683 58.5332C136.647 58.4043 136.63 58.2168 136.63 57.9707C136.63 57.7246 136.647 57.5371 136.683 57.4082C136.724 57.2793 136.782 57.1914 136.858 57.1445C136.935 57.0918 137.043 57.0654 137.184 57.0654H137.86V52.5479H137.008C136.867 52.5479 136.759 52.5244 136.683 52.4775C136.606 52.4307 136.548 52.3428 136.507 52.2139C136.472 52.085 136.454 51.8975 136.454 51.6514C136.454 51.4053 136.472 51.2178 136.507 51.0889C136.548 50.96 136.606 50.8721 136.683 50.8252C136.759 50.7725 136.867 50.7461 137.008 50.7461H139.152C139.352 50.7461 139.492 50.79 139.574 50.8779C139.662 50.96 139.706 51.1006 139.706 51.2998V52.5742C140.479 51.2266 141.446 50.5527 142.606 50.5527ZM155.342 47.3359C155.541 47.3359 155.682 47.3799 155.764 47.4678C155.852 47.5498 155.896 47.6904 155.896 47.8896V57.0654H156.66C156.801 57.0654 156.909 57.0889 156.985 57.1357C157.062 57.1826 157.117 57.2705 157.152 57.3994C157.193 57.5283 157.214 57.7158 157.214 57.9619C157.214 58.208 157.193 58.3955 157.152 58.5244C157.117 58.6533 157.062 58.7441 156.985 58.7969C156.909 58.8438 156.801 58.8672 156.66 58.8672H154.604C154.404 58.8672 154.261 58.8262 154.173 58.7441C154.091 58.6562 154.05 58.5127 154.05 58.3135V57.5752C153.745 58.0439 153.364 58.4102 152.907 58.6738C152.45 58.9316 151.943 59.0605 151.387 59.0605C150.619 59.0605 149.948 58.873 149.374 58.498C148.8 58.123 148.36 57.6133 148.056 56.9688C147.751 56.3242 147.599 55.6035 147.599 54.8066C147.599 54.0098 147.751 53.2891 148.056 52.6445C148.36 52 148.8 51.4902 149.374 51.1152C149.948 50.7402 150.619 50.5527 151.387 50.5527C151.844 50.5527 152.269 50.6436 152.661 50.8252C153.054 51.001 153.399 51.2559 153.698 51.5898V49.1377H152.406C152.266 49.1377 152.157 49.1143 152.081 49.0674C152.005 49.0205 151.946 48.9326 151.905 48.8037C151.87 48.6748 151.853 48.4873 151.853 48.2412C151.853 47.9951 151.87 47.8076 151.905 47.6787C151.946 47.5498 152.005 47.4619 152.081 47.415C152.157 47.3623 152.266 47.3359 152.406 47.3359H155.342ZM151.738 52.5479C151.375 52.5479 151.059 52.6416 150.789 52.8291C150.52 53.0107 150.312 53.2715 150.165 53.6113C150.024 53.9512 149.954 54.3496 149.954 54.8066C149.954 55.2637 150.024 55.6621 150.165 56.002C150.312 56.3418 150.52 56.6055 150.789 56.793C151.059 56.9746 151.375 57.0654 151.738 57.0654C152.113 57.0654 152.453 56.9775 152.758 56.8018C153.062 56.626 153.306 56.3682 153.487 56.0283C153.669 55.6826 153.76 55.2754 153.76 54.8066C153.76 54.3379 153.669 53.9336 153.487 53.5938C153.306 53.248 153.062 52.9873 152.758 52.8115C152.453 52.6357 152.113 52.5479 151.738 52.5479ZM165.502 50.5527C165.877 50.5527 166.144 50.5967 166.302 50.6846C166.46 50.7666 166.539 50.9072 166.539 51.1064V52.9609C166.539 53.1602 166.475 53.3037 166.346 53.3916C166.223 53.4736 166.018 53.5146 165.73 53.5146C165.42 53.5146 165.206 53.4531 165.089 53.3301C164.743 52.9609 164.348 52.7002 163.902 52.5479C163.457 52.3896 162.941 52.3105 162.355 52.3105C162.01 52.3105 161.737 52.3721 161.538 52.4951C161.345 52.6182 161.248 52.7822 161.248 52.9873C161.248 53.2334 161.465 53.4092 161.898 53.5146C162.127 53.5732 162.517 53.6289 163.067 53.6816C163.612 53.7461 164.063 53.8105 164.421 53.875C164.784 53.9395 165.127 54.0361 165.449 54.165C165.918 54.3584 166.284 54.6279 166.548 54.9736C166.812 55.3193 166.943 55.7764 166.943 56.3447C166.943 56.9014 166.806 57.3848 166.53 57.7949C166.261 58.1992 165.862 58.5127 165.335 58.7354C164.813 58.9521 164.184 59.0605 163.445 59.0605C162.631 59.0605 161.875 58.8525 161.178 58.4365V58.5068C161.178 58.7061 161.093 58.8467 160.923 58.9287C160.753 59.0166 160.48 59.0605 160.105 59.0605C159.73 59.0605 159.464 59.0166 159.306 58.9287C159.147 58.8467 159.068 58.7061 159.068 58.5068V56.5469C159.068 56.3535 159.136 56.2129 159.271 56.125C159.411 56.0371 159.625 55.9932 159.912 55.9932C160.27 55.9932 160.513 56.0752 160.642 56.2393C160.935 56.6084 161.31 56.8779 161.767 57.0479C162.224 57.2178 162.725 57.3027 163.27 57.3027C164.207 57.3027 164.676 57.0596 164.676 56.5732C164.676 56.4268 164.608 56.3096 164.474 56.2217C164.345 56.1338 164.151 56.0605 163.894 56.002C163.747 55.9727 163.407 55.9199 162.874 55.8438C162.282 55.7734 161.772 55.6943 161.345 55.6064C160.923 55.5127 160.539 55.3691 160.193 55.1758C159.385 54.7305 158.98 54.0273 158.98 53.0664C158.98 52.5566 159.118 52.1113 159.394 51.7305C159.669 51.3496 160.047 51.0596 160.527 50.8604C161.014 50.6553 161.559 50.5527 162.162 50.5527C163.047 50.5527 163.832 50.7666 164.518 51.1943V51.1064C164.518 50.9072 164.588 50.7666 164.729 50.6846C164.875 50.5967 165.133 50.5527 165.502 50.5527ZM171.795 47.3359C171.994 47.3359 172.135 47.3799 172.217 47.4678C172.305 47.5498 172.349 47.6904 172.349 47.8896V52.1611C173.052 51.0889 173.901 50.5527 174.897 50.5527C175.431 50.5527 175.896 50.6699 176.295 50.9043C176.699 51.1387 177.01 51.4727 177.227 51.9062C177.443 52.334 177.552 52.8379 177.552 53.418V57.0654H178.229C178.369 57.0654 178.478 57.0918 178.554 57.1445C178.63 57.1914 178.686 57.2793 178.721 57.4082C178.762 57.5371 178.782 57.7246 178.782 57.9707C178.782 58.2168 178.762 58.4043 178.721 58.5332C178.686 58.6621 178.63 58.75 178.554 58.7969C178.478 58.8438 178.369 58.8672 178.229 58.8672H174.941C174.801 58.8672 174.692 58.8438 174.616 58.7969C174.54 58.75 174.481 58.6621 174.44 58.5332C174.405 58.4043 174.388 58.2168 174.388 57.9707C174.388 57.7246 174.405 57.5371 174.44 57.4082C174.481 57.2793 174.54 57.1914 174.616 57.1445C174.692 57.0918 174.801 57.0654 174.941 57.0654H175.354V53.9365C175.354 53.4795 175.275 53.1338 175.117 52.8994C174.959 52.665 174.695 52.5479 174.326 52.5479C173.986 52.5479 173.664 52.6914 173.359 52.9785C173.055 53.2598 172.809 53.6377 172.621 54.1123C172.439 54.5869 172.349 55.0938 172.349 55.6328V57.0654H172.762C172.902 57.0654 173.011 57.0918 173.087 57.1445C173.163 57.1914 173.219 57.2793 173.254 57.4082C173.295 57.5371 173.315 57.7246 173.315 57.9707C173.315 58.2168 173.295 58.4043 173.254 58.5332C173.219 58.6621 173.163 58.75 173.087 58.7969C173.011 58.8438 172.902 58.8672 172.762 58.8672H169.475C169.334 58.8672 169.226 58.8438 169.149 58.7969C169.073 58.75 169.015 58.6621 168.974 58.5332C168.938 58.4043 168.921 58.2168 168.921 57.9707C168.921 57.7246 168.938 57.5371 168.974 57.4082C169.015 57.2793 169.073 57.1914 169.149 57.1445C169.226 57.0918 169.334 57.0654 169.475 57.0654H170.151V49.1377H169.299C169.158 49.1377 169.05 49.1143 168.974 49.0674C168.897 49.0205 168.839 48.9326 168.798 48.8037C168.763 48.6748 168.745 48.4873 168.745 48.2412C168.745 47.9951 168.763 47.8076 168.798 47.6787C168.839 47.5498 168.897 47.4619 168.974 47.415C169.05 47.3623 169.158 47.3359 169.299 47.3359H171.795ZM185.189 50.7461C185.389 50.7461 185.529 50.79 185.611 50.8779C185.699 50.96 185.743 51.1006 185.743 51.2998V57.0654H188.213C188.354 57.0654 188.462 57.0918 188.538 57.1445C188.614 57.1914 188.67 57.2793 188.705 57.4082C188.746 57.5371 188.767 57.7246 188.767 57.9707C188.767 58.2168 188.746 58.4043 188.705 58.5332C188.67 58.6621 188.614 58.75 188.538 58.7969C188.462 58.8438 188.354 58.8672 188.213 58.8672H181.146C181.006 58.8672 180.897 58.8438 180.821 58.7969C180.745 58.75 180.687 58.6621 180.646 58.5332C180.61 58.4043 180.593 58.2168 180.593 57.9707C180.593 57.7246 180.61 57.5371 180.646 57.4082C180.687 57.2793 180.745 57.1914 180.821 57.1445C180.897 57.0918 181.006 57.0654 181.146 57.0654H183.546V52.5479H181.674C181.533 52.5479 181.425 52.5244 181.349 52.4775C181.272 52.4307 181.214 52.3428 181.173 52.2139C181.138 52.085 181.12 51.8975 181.12 51.6514C181.12 51.4053 181.138 51.2178 181.173 51.0889C181.214 50.96 181.272 50.8721 181.349 50.8252C181.425 50.7725 181.533 50.7461 181.674 50.7461H185.189ZM184.618 46.8877C185.034 46.8877 185.324 46.9316 185.488 47.0195C185.658 47.1016 185.743 47.2422 185.743 47.4414V48.8828C185.743 49.082 185.664 49.2256 185.506 49.3135C185.354 49.3955 185.072 49.4365 184.662 49.4365C184.252 49.4365 183.962 49.3955 183.792 49.3135C183.628 49.2256 183.546 49.082 183.546 48.8828V47.4414C183.546 47.2363 183.622 47.0928 183.774 47.0107C183.927 46.9287 184.208 46.8877 184.618 46.8877ZM196.07 50.5527C196.838 50.5527 197.509 50.7402 198.083 51.1152C198.657 51.4902 199.097 52 199.401 52.6445C199.706 53.2891 199.858 54.0098 199.858 54.8066C199.858 55.6035 199.706 56.3242 199.401 56.9688C199.097 57.6133 198.657 58.123 198.083 58.498C197.509 58.873 196.838 59.0605 196.07 59.0605C195.613 59.0605 195.188 58.9727 194.796 58.7969C194.403 58.6152 194.058 58.3574 193.759 58.0234V60.4756H195.227C195.367 60.4756 195.476 60.499 195.552 60.5459C195.628 60.5928 195.684 60.6807 195.719 60.8096C195.76 60.9385 195.78 61.126 195.78 61.3721C195.78 61.6182 195.76 61.8057 195.719 61.9346C195.684 62.0635 195.628 62.1514 195.552 62.1982C195.476 62.251 195.367 62.2773 195.227 62.2773H190.797C190.656 62.2773 190.548 62.2539 190.472 62.207C190.396 62.1602 190.337 62.0723 190.296 61.9434C190.261 61.8145 190.243 61.627 190.243 61.3809C190.243 61.1348 190.261 60.9473 190.296 60.8184C190.337 60.6895 190.396 60.5986 190.472 60.5459C190.548 60.499 190.656 60.4756 190.797 60.4756H191.562V52.5479H190.797C190.656 52.5479 190.548 52.5244 190.472 52.4775C190.396 52.4307 190.337 52.3428 190.296 52.2139C190.261 52.085 190.243 51.8975 190.243 51.6514C190.243 51.4053 190.261 51.2178 190.296 51.0889C190.337 50.96 190.396 50.8721 190.472 50.8252C190.548 50.7725 190.656 50.7461 190.797 50.7461H192.854C193.053 50.7461 193.193 50.79 193.275 50.8779C193.363 50.96 193.407 51.1006 193.407 51.2998V52.0381C193.712 51.5693 194.093 51.2061 194.55 50.9482C195.007 50.6846 195.514 50.5527 196.07 50.5527ZM195.719 52.5479C195.344 52.5479 195.004 52.6357 194.699 52.8115C194.395 52.9873 194.151 53.248 193.97 53.5938C193.788 53.9336 193.697 54.3379 193.697 54.8066C193.697 55.2754 193.788 55.6826 193.97 56.0283C194.151 56.3682 194.395 56.626 194.699 56.8018C195.004 56.9775 195.344 57.0654 195.719 57.0654C196.082 57.0654 196.398 56.9746 196.668 56.793C196.938 56.6055 197.143 56.3418 197.283 56.002C197.43 55.6621 197.503 55.2637 197.503 54.8066C197.503 54.3496 197.43 53.9512 197.283 53.6113C197.143 53.2715 196.938 53.0107 196.668 52.8291C196.398 52.6416 196.082 52.5479 195.719 52.5479Z" fill="#072114"/>
<circle cx="47.7812" cy="43.8672" r="35" fill="#F5955D"/>
<g clip-path="url(#clip1_2303_319)">
<path d="M46.5858 39.4707C47.3668 40.2518 48.6332 40.2518 49.4142 39.4707L55.1193 33.7656C57.0852 31.7997 57.0852 28.6123 55.1193 26.6463C53.3939 24.9209 50.7276 24.7098 48.772 26.013C48.3124 26.3193 47.6876 26.3193 47.228 26.013C45.2724 24.7098 42.6061 24.9209 40.8807 26.6463C38.9148 28.6123 38.9148 31.7997 40.8807 33.7656L46.5858 39.4707Z" stroke="#FFE072" stroke-width="2.34375" stroke-miterlimit="10"/>
<path d="M48 53.4531C51.4518 53.4531 54.25 56.2513 54.25 59.7031V59.7031C54.25 61.429 52.8509 62.8281 51.125 62.8281H44.875C43.1491 62.8281 41.75 61.429 41.75 59.7031V59.7031C41.75 56.2513 44.5482 53.4531 48 53.4531Z" stroke="#072114" stroke-width="2.34375" stroke-miterlimit="10"/>
<path d="M48 53.4531C49.9416 53.4531 51.5156 51.8791 51.5156 49.9375C51.5156 47.9959 49.9416 46.4219 48 46.4219C46.0584 46.4219 44.4844 47.9959 44.4844 49.9375C44.4844 51.8791 46.0584 53.4531 48 53.4531Z" stroke="#072114" stroke-width="2.34375" stroke-miterlimit="10"/>
<path d="M35.5 53.4531C38.9518 53.4531 41.75 56.2513 41.75 59.7031V59.7031C41.75 61.429 40.3509 62.8281 38.625 62.8281H32.375C30.6491 62.8281 29.25 61.429 29.25 59.7031V59.7031C29.25 56.2513 32.0482 53.4531 35.5 53.4531Z" stroke="#072114" stroke-width="2.34375" stroke-miterlimit="10"/>
<path d="M35.5 53.4531C37.4416 53.4531 39.0156 51.8791 39.0156 49.9375C39.0156 47.9959 37.4416 46.4219 35.5 46.4219C33.5584 46.4219 31.9844 47.9959 31.9844 49.9375C31.9844 51.8791 33.5584 53.4531 35.5 53.4531Z" stroke="#072114" stroke-width="2.34375" stroke-miterlimit="10"/>
<path d="M60.5 53.4531C57.0482 53.4531 54.25 56.2513 54.25 59.7031V59.7031C54.25 61.429 55.6491 62.8281 57.375 62.8281H63.625C65.3509 62.8281 66.75 61.429 66.75 59.7031V59.7031C66.75 56.2513 63.9518 53.4531 60.5 53.4531Z" stroke="#072114" stroke-width="2.34375" stroke-miterlimit="10"/>
<path d="M60.5 53.4531C62.4416 53.4531 64.0156 51.8791 64.0156 49.9375C64.0156 47.9959 62.4416 46.4219 60.5 46.4219C58.5584 46.4219 56.9844 47.9959 56.9844 49.9375C56.9844 51.8791 58.5584 53.4531 60.5 53.4531Z" stroke="#072114" stroke-width="2.34375" stroke-miterlimit="10"/>
<path fill-rule="evenodd" clip-rule="evenodd" d="M37.734 39.2749C37.8857 38.7438 37.5781 38.1904 37.047 38.0387C36.516 37.887 35.9625 38.1946 35.8109 38.7257L35.6919 39.1422L35.2749 39.0231C34.7438 38.8714 34.1904 39.179 34.0387 39.71C33.887 40.2411 34.1946 40.7945 34.7256 40.9462L35.1427 41.0653L35.0231 41.4843C34.8714 42.0154 35.179 42.5688 35.71 42.7205C36.2411 42.8721 36.7945 42.5646 36.9462 42.0335L37.0658 41.6145L37.4844 41.7341C38.0154 41.8857 38.5689 41.5782 38.7206 41.0471C38.8722 40.5161 38.5647 39.9626 38.0336 39.811L37.615 39.6914L37.734 39.2749Z" fill="#FFE072"/>
<circle cx="34.5" cy="33.5" r="1.5" fill="#072114"/>
<circle cx="61.5" cy="38.5" r="1.5" fill="#072114"/>
<path fill-rule="evenodd" clip-rule="evenodd" d="M63.8816 27.7765C64.2497 27.3648 64.2145 26.7326 63.8029 26.3645C63.3912 25.9963 62.759 26.0315 62.3908 26.4431L62.1021 26.766L61.7788 26.4768C61.3671 26.1086 60.735 26.1439 60.3668 26.5555C59.9986 26.9671 60.0338 27.5993 60.4454 27.9675L60.7687 28.2567L60.4782 28.5815C60.11 28.9932 60.1452 29.6254 60.5569 29.9935C60.9685 30.3617 61.6007 30.3265 61.9689 29.9149L62.2594 29.5901L62.5838 29.8803C62.9955 30.2485 63.6277 30.2133 63.9959 29.8016C64.3641 29.39 64.3288 28.7578 63.9172 28.3896L63.5927 28.0994L63.8816 27.7765Z" fill="#FFE072"/>
</g>
<defs>
<clipPath id="bgblur_0_2303_319_clip_path"><path transform="translate(7.25562 7.16968)" d="M0.78125 43.8672C0.78125 20.1189 20.033 0.867188 43.7812 0.867188H211.781C235.529 0.867188 254.781 20.1189 254.781 43.8672C254.781 67.6154 235.529 86.8672 211.781 86.8672H43.7812C20.033 86.8672 0.78125 67.6154 0.78125 43.8672Z"/>
</clipPath><linearGradient id="paint0_linear_2303_319" x1="407.03" y1="50.7227" x2="26.3931" y2="47.2287" gradientUnits="userSpaceOnUse">
<stop stop-color="white"/>
<stop offset="1" stop-color="white"/>
</linearGradient>
<clipPath id="clip1_2303_319">
<rect width="40" height="40" fill="white" transform="translate(28 24)"/>
</clipPath>
</defs>
</svg>
