<svg width="100" height="100" viewBox="0 0 100 100" fill="none" xmlns="http://www.w3.org/2000/svg">
<path d="M42.8639 55.9961L46.3355 78.8268H14.8016C8.36133 78.8268 3.14062 73.6059 3.14062 67.1658V55.5L42.8639 55.9961Z" fill="#072114"/>
<path d="M1.45312 58.5959C1.45312 56.4348 3.41934 54.6828 5.84473 54.6828C6.7418 54.6828 8.1748 54.2715 8.86992 54.6828C10.0543 55.3836 10.2363 57.234 10.2363 58.5959C10.2363 60.757 8.27012 62.509 5.84473 62.509C3.41934 62.509 1.45312 60.757 1.45312 58.5959Z" fill="#FFCBBE"/>
<path d="M24.7051 73.0352C26.5879 73.0352 28.4004 72.7598 30.0898 72.2539L30.0887 72.2536C30.0915 72.2537 30.0943 72.2538 30.0971 72.2539C36.7865 70.25 41.6068 64.6172 41.6068 57.9824C41.6068 51.3457 36.7865 45.7129 30.0971 43.7109C30.0923 43.7116 30.0876 43.7123 30.0829 43.713C30.0852 43.7123 30.0875 43.7116 30.0898 43.7109C28.4004 43.2051 26.5879 42.9297 24.7051 42.9297C15.375 42.9297 7.8125 49.668 7.8125 57.9824C7.8125 66.2949 15.375 73.0352 24.7051 73.0352Z" fill="#FFCBBE"/>
<path d="M22.6382 48.5748C23.5124 49.2826 24.739 49.9547 26.1472 50.5742C30.0398 52.2832 35.3153 53.584 38.3172 54.1152C39.284 54.2871 39.9891 55.125 39.9891 56.1074V69.043H46.3583V54.6797C46.3583 45.959 37.7997 38.7168 28.1629 37.2812C28.1629 37.2812 28.163 37.2812 28.1629 37.2812C27.0243 37.1113 25.8679 37.0234 24.7116 37.0234C13.4714 37.043 2.58273 45.3066 3.16281 55.5019C4.76438 55.5 8.12961 55.1191 8.12961 55.1191C9.04367 52.2051 11.278 50.252 13.8679 49.1172C15.7468 52.4453 19.5222 54.1035 22.2761 54.6055C22.5652 54.6582 22.8288 54.4473 22.8562 54.1562C23.0247 52.3316 22.5505 49.9854 22.2704 48.8096C22.2198 48.5969 22.4683 48.4371 22.6382 48.5748Z" fill="#072114"/>
<path d="M89.7422 59.042C89.7422 57.6473 90.3045 55.1912 91.332 54.3938C92.0773 53.8154 93.1141 54.6852 94.1338 54.6852C95.1436 54.6852 96.0762 54.9324 96.818 55.5008C97.858 56.2975 98.5254 57.6375 98.5254 59.0422C98.5254 61.4484 96.5592 63.3992 94.1338 63.3992C91.7084 63.3988 89.7422 61.4482 89.7422 59.042Z" fill="#C8866A"/>
<path d="M51.9375 59.0468C51.9375 57.6464 52.61 56.3025 53.6447 55.5054C54.3881 54.9329 55.3152 54.6898 56.3291 54.6898C57.4221 54.6898 58.5785 54.0343 59.3471 54.6898C60.284 55.4888 60.7207 57.7247 60.7207 59.0468C60.7207 60.6255 61.9879 64.6007 60.7207 65.3649C60.0564 65.7655 56.4979 63.7251 56.3266 63.4192C53.901 63.4192 51.9375 61.453 51.9375 59.0468Z" fill="#C8866A"/>
<path d="M75.1914 73.0352C76.9961 73.0352 78.7324 72.7832 80.3633 72.3144C80.3601 72.3135 80.3569 72.3126 80.3536 72.3117C80.3581 72.312 80.3625 72.3122 80.367 72.3125C87.1678 70.3672 92.0897 64.6856 92.0897 57.9805C92.0897 51.2734 87.1678 45.5918 80.367 43.6484C80.3643 43.6487 80.3615 43.6489 80.3588 43.6491C78.7292 43.1812 76.9944 42.9297 75.1914 42.9297C65.8613 42.9297 58.2969 49.668 58.2969 57.9824C58.2969 66.2949 65.8613 73.0352 75.1914 73.0352Z" fill="#C8866A"/>
<path d="M75.3923 51.7395C73.3929 53.7648 70.7791 54.4267 69.5399 53.2148C68.4091 52.1074 68.8153 49.8223 70.4012 47.877C65.868 47.8594 60.2177 50.0098 58.6122 55.1191C58.6122 55.1191 55.2469 55.5 53.6473 55.5019C53.0653 45.3066 63.954 37.043 75.1962 37.0234C76.2704 37.0254 77.3427 37.1035 78.4012 37.25C78.401 37.2502 78.4015 37.2498 78.4012 37.25C88.4271 38.642 97.344 46.2804 96.8167 55.502C95.68 55.5 92.7855 55.3633 91.7796 55.1191C90.4202 51.2402 86.7249 49.0117 82.9573 48.2539C82.9944 49.3828 82.6312 50.7344 81.8558 52.0156C80.3734 54.4648 77.9632 55.7207 76.473 54.8203C75.5912 54.2858 75.2336 53.1142 75.3923 51.7395Z" fill="#072114"/>
<path d="M64.5078 84.0905C64.5078 82.8907 65.0113 80.8952 65.9656 80.1774C66.7301 79.6024 67.8205 80.1774 68.8994 80.1774C71.3248 80.1774 73.291 81.9294 73.291 84.0905C73.291 86.2516 71.3248 88.0036 68.8994 88.0036C66.474 88.0036 64.5078 86.2516 64.5078 84.0905Z" fill="#FFBD86"/>
<path d="M26.7031 84.0888C26.7031 81.9277 28.6693 80.1757 31.0947 80.1757C32.1049 80.1757 33.627 79.4909 34.3689 80.0019C35.4084 80.7175 35.4863 82.8279 35.4863 84.0888C35.4863 86.2499 33.5201 88.0019 31.0947 88.0019C28.6693 88.0019 26.7031 86.2499 26.7031 84.0888Z" fill="#FFBD86"/>
<path d="M49.957 98.5273C51.7441 98.5273 53.4668 98.2793 55.084 97.8203C55.0813 97.8195 55.0786 97.8188 55.0759 97.818C55.0786 97.8181 55.0813 97.8182 55.084 97.8184C61.9062 95.8848 66.8496 90.1934 66.8496 83.4727C66.8496 76.75 61.9062 71.0586 55.084 69.125L55.0794 69.1257C53.4635 68.6695 51.7425 68.4219 49.957 68.4219C40.627 68.4219 33.0625 75.1602 33.0625 83.4746C33.0625 91.7871 40.627 98.5273 49.957 98.5273Z" fill="#FFBD86"/>
<path d="M66.5492 80.6113C67.555 80.8535 70.4496 80.9922 71.5843 80.9941C72.1683 70.7969 61.2015 62.5352 49.9613 62.5156C49.3168 62.5176 48.6742 62.5449 48.0336 62.5996C48.0312 62.6005 48.0288 62.6013 48.0264 62.6022C37.504 63.4941 27.8643 71.3871 28.413 80.9961C34.5966 80.668 42.0966 79.9199 48.497 77.041L48.4932 77.0387L48.4964 77.0391C50.5961 76.0957 52.5785 74.9219 54.3578 73.4609C59.0511 73.3066 64.7796 75.5625 66.5492 80.6113Z" fill="#072114"/>
<path d="M14.75 59.1016V61.0133" stroke="black" stroke-width="2.92969" stroke-miterlimit="10" stroke-linecap="round" stroke-linejoin="round"/>
<path d="M34.6719 59.1016V61.0133" stroke="black" stroke-width="2.92969" stroke-miterlimit="10" stroke-linecap="round" stroke-linejoin="round"/>
<path d="M22.0859 60.9531C22.7244 61.685 23.6637 62.148 24.7117 62.148C25.7598 62.148 26.699 61.685 27.3375 60.9531" stroke="black" stroke-width="2.92969" stroke-miterlimit="10" stroke-linecap="round" stroke-linejoin="round"/>
<path d="M65.2344 59.1016V61.0133" stroke="black" stroke-width="2.92969" stroke-miterlimit="10" stroke-linecap="round" stroke-linejoin="round"/>
<path d="M85.1484 59.1016V61.0133" stroke="black" stroke-width="2.92969" stroke-miterlimit="10" stroke-linecap="round" stroke-linejoin="round"/>
<path d="M72.5625 60.9531C73.201 61.685 74.1402 62.148 75.1883 62.148C76.2363 62.148 77.1756 61.685 77.8141 60.9531" stroke="black" stroke-width="2.92969" stroke-miterlimit="10" stroke-linecap="round" stroke-linejoin="round"/>
<path d="M39.9922 84.5938V86.5055" stroke="black" stroke-width="2.92969" stroke-miterlimit="10" stroke-linecap="round" stroke-linejoin="round"/>
<path d="M59.9062 84.5938V86.5055" stroke="black" stroke-width="2.92969" stroke-miterlimit="10" stroke-linecap="round" stroke-linejoin="round"/>
<path d="M47.3281 86.4453C47.9666 87.1771 48.9059 87.6402 49.9539 87.6402C51.002 87.6402 51.9412 87.1771 52.5797 86.4453" stroke="black" stroke-width="2.92969" stroke-miterlimit="10" stroke-linecap="round" stroke-linejoin="round"/>
<path d="M62.4715 10.6875H75.7123C78.5657 10.6875 80.8869 13.0087 80.8869 15.862V27.9209C80.8869 28.7021 80.4704 29.424 79.7938 29.8149C79.4553 30.0106 79.0773 30.1085 78.6993 30.1085C78.3221 30.1085 77.945 30.0111 77.607 29.8164L72.745 27.0144H72.7435" fill="#072114"/>
<path d="M62.4706 27.0107C59.6182 27.0107 57.2969 24.6893 57.2969 21.8361V15.8621C57.2969 13.0089 59.6182 10.6875 62.4715 10.6875" fill="#072114"/>
<path d="M80.8869 15.862C80.8869 13.0087 78.5657 10.6875 75.7123 10.6875H62.4715C59.6182 10.6875 57.2969 13.0089 57.2969 15.8621V21.8361C57.2969 24.6893 59.6182 27.0107 62.4706 27.0107L72.7435 27.0144H72.745L77.607 29.8164C77.945 30.0111 78.3221 30.1085 78.6993 30.1085C79.0773 30.1085 79.4553 30.0106 79.7938 29.8149C80.4704 29.424 80.8869 28.7021 80.8869 27.9209V15.862Z" fill="#072114"/>
<path d="M28.0123 2.78906H48.3075C52.1741 2.78906 55.3198 5.9348 55.32 9.80151V18.959C55.32 22.8257 52.1743 25.9715 48.3077 25.9715L32.3148 25.9775L24.6487 30.3953C24.2726 30.612 23.8529 30.7204 23.4335 30.7204C23.0132 30.7204 22.5927 30.6115 22.216 30.3938C21.4635 29.959 21 29.156 21 28.2869V9.80151C21 5.9348 24.1457 2.78906 28.0123 2.78906Z" fill="#A9EB35"/>
<path d="M29.8281 11.6094H46.1858" stroke="white" stroke-width="3" stroke-miterlimit="10" stroke-linecap="round" stroke-linejoin="round"/>
<path d="M29.8281 17.6094H37.1858" stroke="white" stroke-width="3" stroke-miterlimit="10" stroke-linecap="round" stroke-linejoin="round"/>
</svg>
