<svg width="267" height="67" viewBox="0 0 267 67" fill="none" xmlns="http://www.w3.org/2000/svg">
<path d="M164.571 55.4145C164.571 55.4145 140.626 47.3101 143.45 14.1558C150.327 12.3139 157.449 11.2087 164.571 11.0859C171.816 11.2087 178.938 12.1911 185.814 14.1558C188.638 47.1873 164.571 55.4145 164.571 55.4145Z" fill="url(#paint0_linear_2474_2)"/>
<path d="M164.571 55.4145C164.571 55.4145 140.626 47.3101 143.45 14.1558C150.327 12.3139 157.449 11.2087 164.571 11.0859C171.816 11.2087 178.938 12.1911 185.814 14.1558L183.604 16.1205L164.571 53.327V55.4145Z" fill="url(#paint1_linear_2474_2)"/>
<path d="M164.569 53.3233C164.569 53.3233 142.957 45.9556 145.413 15.8711C151.676 14.152 158.061 13.1697 164.569 13.0469C171.077 13.1697 177.585 14.152 183.848 15.8711C186.304 45.8328 164.569 53.3233 164.569 53.3233Z" fill="white" stroke="black" stroke-width="0.632388" stroke-linecap="round"/>
<path d="M164.577 53.3233C164.577 53.3233 142.965 45.9556 145.421 15.8711C151.684 14.152 158.069 13.1697 164.577 13.0469C171.085 13.1697 177.593 14.152 183.856 15.8711C186.311 45.8328 164.577 53.3233 164.577 53.3233Z" fill="white"/>
<path d="M145.301 15.5005H145.055V15.7461C143.827 31.4637 149.107 40.9189 153.896 46.0762C156.843 49.3916 160.527 51.9703 164.579 53.5666L164.702 53.6894H164.825C168.877 52.0931 172.561 49.5144 175.508 46.199C180.174 41.0417 185.577 31.5865 184.226 15.9917V15.6233H183.981C177.718 13.9042 171.21 13.0447 164.702 12.9219C158.194 13.0447 151.686 13.9042 145.301 15.5005ZM164.948 13.1675C171.21 13.2903 177.595 14.2726 183.735 15.8689C183.858 17.3425 183.858 19.1844 183.858 20.5351C183.858 33.1829 179.192 41.1644 175.017 45.7078C172.193 48.9005 168.632 51.4791 164.579 53.0754C160.65 51.4791 157.089 48.9005 154.142 45.7078C150.09 41.1644 145.424 33.3056 145.424 20.5351C145.424 19.1844 145.546 17.3425 145.669 15.8689C147.143 15.7461 156.107 13.1675 164.948 13.1675Z" fill="url(#paint2_linear_2474_2)"/>
<path d="M164.573 49.5145C164.573 49.5145 146.4 42.8837 148.487 17.7109C148.487 17.7109 156.469 18.3249 164.573 18.3249C172.678 18.3249 180.536 17.7109 180.782 17.7109C182.87 42.8837 164.573 49.5145 164.573 49.5145Z" fill="url(#paint3_linear_2474_2)"/>
<path d="M164.573 47.4355C164.573 47.4355 148.855 41.6642 150.697 19.9297C150.697 19.9297 157.573 20.4209 164.573 20.4209C171.572 20.4209 178.326 19.9297 178.571 19.9297C180.413 41.5414 164.573 47.3127 164.573 47.4355Z" fill="url(#paint4_radial_2474_2)"/>
<path d="M180.779 17.7109C180.534 17.7109 172.675 18.3249 164.57 18.3249C156.466 18.3249 148.484 17.7109 148.484 17.7109L150.695 19.9212C150.695 19.9212 157.571 20.4124 164.57 20.4124C171.57 20.4124 178.323 19.7984 178.569 19.7984L180.779 17.7109Z" fill="#8B1325"/>
<path d="M164.573 49.5145C164.573 49.5145 146.4 42.8837 148.487 17.7109L150.698 19.9212C148.978 41.6557 164.573 47.427 164.573 47.427V49.5145Z" fill="url(#paint5_linear_2474_2)"/>
<path d="M154.867 38.7034L157.446 21.7578H161.744L167.147 38.7034H162.603L160.27 29.985L158.919 38.7034H154.867Z" fill="white"/>
<path d="M167.761 21.7578H172.058L174.514 38.7034H170.462L168.989 29.8622L167.515 36.7387L165.305 29.8622L167.761 21.7578Z" fill="white"/>
<path d="M203.866 30.0031H200.674L197.604 22.1443L196.499 30.0031H192.938L195.271 15.3906H198.709L203.866 30.0031ZM201.533 22.5127L204.112 15.3906H207.673L209.76 30.0031H206.199L205.217 22.1443L203.129 26.8104L201.533 22.5127Z" fill="white"/>
<path d="M223.014 27.4222L222.155 29.8781H218.594L223.506 15.2656H227.189L231.978 29.8781H228.417L227.558 27.4222H223.014ZM225.347 19.809L223.874 24.4752H226.698L225.347 19.809Z" fill="white"/>
<path d="M249.791 25.576H242.914C242.914 27.0495 243.651 27.7863 244.879 27.7863C245.493 27.7863 246.107 27.5407 246.475 26.9267H249.545C249.3 28.0319 248.686 28.8914 247.826 29.5054C246.966 30.1194 245.984 30.365 244.879 30.365C242.178 30.6105 239.844 28.523 239.599 25.8216V25.0848C239.353 22.3834 241.318 20.0503 244.019 19.8047H244.633C247.826 19.8047 249.668 22.015 249.668 25.3304L249.791 25.576ZM246.844 23.4885C246.721 22.6289 245.861 21.8922 245.002 21.8922C244.019 21.8922 243.283 22.5062 243.037 23.4885H246.844Z" fill="white"/>
<path d="M260.965 25.576H254.088C254.088 27.0495 254.825 27.7863 256.176 27.7863C256.79 27.7863 257.404 27.5407 257.772 26.9267H260.842C260.596 28.0319 259.982 28.8914 259.123 29.5054C258.263 30.1194 257.281 30.365 256.176 30.365C253.474 30.6105 251.019 28.523 250.896 25.8216V25.0848C250.65 22.3834 252.615 20.0503 255.316 19.8047H256.053C259.246 19.8047 261.088 22.015 261.088 25.3304L260.965 25.576ZM258.018 23.4885C257.895 22.6289 257.035 21.8922 256.176 21.8922C255.194 21.8922 254.457 22.5062 254.211 23.4885H258.018Z" fill="white"/>
<path d="M233.217 22.506H231.375V20.0502H233.34V18.945C233.34 15.998 234.69 15.0156 237.269 15.0156C237.883 15.0156 238.374 15.1384 238.865 15.1384L238.743 17.4715C238.374 17.3487 238.129 17.3487 237.76 17.3487C236.901 17.3487 236.655 17.9627 236.655 18.945V20.0502H238.988V22.506H236.532V29.9965H233.217V22.506Z" fill="white"/>
<path d="M200.179 36.9893C199.319 36.6209 198.46 36.3754 197.6 36.3754C196.495 36.3754 195.144 36.7437 195.144 38.2173C195.144 40.7959 201.284 40.182 201.284 44.7253C201.284 47.6724 198.951 48.9003 196.127 48.9003C195.144 48.9003 194.162 48.6547 193.302 48.2864L193.548 46.4445C194.53 46.8128 195.513 47.0584 196.495 47.1812C197.6 47.1812 199.197 46.5672 199.197 44.8481C199.197 41.7783 193.18 42.5151 193.18 38.3401C193.18 35.8842 195.267 34.6562 197.723 34.6562C198.705 34.6562 199.811 34.9018 200.793 35.1474L200.179 36.9893Z" fill="white"/>
<path d="M203.984 34.9062H211.966V36.6254H206.072V40.6776H211.475V42.3967H206.072V46.94H211.966V48.6592H203.984V34.9062Z" fill="white"/>
<path d="M224.131 37.1155C223.271 36.6244 222.289 36.3788 221.184 36.3788C218.236 36.3788 215.781 38.7118 215.781 41.6589C215.781 44.606 218.114 47.0618 221.061 47.0618C222.166 47.0618 223.148 46.8162 224.131 46.3251L224.253 48.167C223.271 48.5353 222.166 48.7809 221.061 48.7809C216.64 48.7809 213.57 45.9567 213.57 41.5361C213.57 37.3611 216.763 34.4141 221.061 34.4141C222.166 34.4141 223.271 34.5369 224.253 35.028L224.131 37.1155Z" fill="white"/>
<path d="M237.02 42.8878C237.02 46.8172 234.933 48.7819 231.494 48.7819C228.056 48.7819 225.969 46.6945 225.969 42.8878V34.9062H227.933V42.7651C227.933 45.3437 228.793 47.1856 231.372 47.1856C233.95 47.1856 234.81 45.3437 234.81 42.7651V34.9062H236.897L237.02 42.8878Z" fill="white"/>
<path d="M240.203 34.9062H243.641C246.466 34.9062 249.167 35.3974 249.167 38.5901C249.167 40.1864 247.816 41.5371 246.22 41.6599C246.834 41.9055 247.08 42.1511 247.571 43.0106L250.272 48.5364H247.939L245.729 43.7474C245.115 42.3967 244.378 42.3967 243.396 42.3967H242.168V48.5364H240.203V34.9062ZM242.168 40.8004H243.887C245.852 40.8004 246.957 39.9408 246.957 38.5901C246.957 37.3621 245.974 36.5026 244.133 36.5026H242.168V40.8004Z" fill="white"/>
<path d="M252.609 34.9062H260.591V36.6254H254.697V40.6776H260.1V42.3967H254.697V46.94H260.591V48.6592H252.609V34.9062Z" fill="white"/>
<path d="M217.868 23.1223C217.254 22.7539 216.64 22.5084 215.903 22.5084C214.553 22.5084 213.448 23.6135 213.448 24.9642V25.2098C213.448 26.5606 214.553 27.7885 216.026 27.7885H216.149C216.886 27.7885 217.5 27.6657 218.236 27.2973V29.7532C217.377 30.1216 216.517 30.2444 215.658 30.2444C212.834 30.49 210.5 28.4025 210.255 25.5782V25.087C210.132 22.2628 212.342 19.9297 215.167 19.9297H215.658C216.517 19.9297 217.377 20.0525 218.114 20.5437L217.868 23.1223Z" fill="white"/>
<path d="M22.8466 10.2188C12.2809 10.2188 3.67188 18.8278 3.67188 29.3935C3.67188 39.9592 12.2809 48.5682 22.8466 48.5682H102.715C113.281 48.5682 121.89 39.9592 121.89 29.3935C121.89 18.8278 113.281 10.2188 102.715 10.2188H22.8466Z" fill="white"/>
<path d="M102.718 50.1677H22.8495C11.3838 50.1677 2.07031 40.8542 2.07031 29.3885C2.07031 17.9228 11.3838 8.60938 22.8495 8.60938H102.718C114.184 8.60938 123.497 17.9228 123.497 29.3885C123.497 40.8542 114.184 50.1677 102.718 50.1677ZM22.8495 10.2138C12.2838 10.2138 3.67473 18.8228 3.67473 29.3885C3.67473 39.9542 12.2838 48.5633 22.8495 48.5633H102.718C113.284 48.5633 121.893 39.9542 121.893 29.3885C121.893 18.8228 113.284 10.2138 102.718 10.2138H22.8495Z" fill="white"/>
<path d="M93.135 17.7344C90.0435 17.7344 87.5391 20.2388 87.5391 23.3694C87.5391 26.4608 90.0435 28.9653 93.135 28.9653C96.2264 28.9653 98.7308 26.4608 98.7308 23.3694C98.7308 20.278 96.2264 17.7344 93.135 17.7344ZM93.135 26.226C91.5305 26.226 90.2392 24.9347 90.2392 23.3303C90.2392 21.7258 91.5305 20.4345 93.135 20.4345C94.7394 20.4345 96.0307 21.7258 96.0307 23.3303C96.0307 24.9347 94.7394 26.226 93.135 26.226Z" fill="black"/>
<path d="M67.3771 17.7344C64.2857 17.7344 61.7812 20.2388 61.7812 23.3694C61.7812 26.4608 64.2857 28.9653 67.3771 28.9653C70.4686 28.9653 73.0122 26.4608 73.0122 23.3694C73.0122 20.278 70.4686 17.7344 67.3771 17.7344ZM67.3771 26.226C65.7727 26.226 64.4814 24.9347 64.4814 23.3303C64.4814 21.7258 65.7727 20.4345 67.3771 20.4345C68.9816 20.4345 70.2729 21.7258 70.2729 23.3303C70.2729 24.9347 68.9816 26.226 67.3771 26.226Z" fill="black"/>
<path d="M87.141 26.3798C86.7888 26.4972 86.241 26.5754 86.0453 26.5754C85.067 26.5754 84.8713 26.2624 84.8713 25.3232V20.1186H87.1801V17.9664H84.8713V14.9141H82.2886L81.7408 17.9664H79.9407H79.7842C78.2971 17.9664 77.2014 18.8664 76.4971 20.2752L75.597 17.9664H73.7578V28.7277H76.9275V24.0319C76.9275 21.6839 78.3363 20.1578 79.9798 20.1186H81.7016V25.4797C81.7016 27.9842 82.993 28.9234 85.1061 28.9234C86.2018 28.9234 87.0236 28.6886 87.5323 28.532L87.141 26.3798Z" fill="black"/>
<path d="M102.599 21.4045V28.7613H99.5078V18H101.386L102.012 19.6435" fill="black"/>
<path d="M101.977 19.6518C102.916 18.5561 104.207 17.7344 105.694 17.7344C108.277 17.7344 109.294 19.7692 109.294 21.6867V28.7696H106.125V21.765C106.125 20.8258 105.342 20.3562 104.52 20.3562C103.62 20.3562 103.072 20.8649 102.564 21.4128" fill="black"/>
<path d="M49.4219 14.0859H52.9438L57.7961 23.3211V14.0859H60.7311V28.7605H57.5222L52.3568 18.6253V28.7605H49.4219V14.0859Z" fill="black"/>
<path d="M48.5625 41.7496L49.306 40.6148C49.893 41.0452 50.793 41.4757 51.8887 41.4757C52.9453 41.4757 53.6105 41.0061 53.6105 40.1452C53.6105 39.206 52.7888 38.9321 51.4191 38.4625C50.206 38.0321 48.9929 37.406 48.9929 35.6841C48.9929 34.0797 50.2843 33.1797 51.967 33.1797C53.1018 33.1797 53.9627 33.4145 54.628 33.8058L54.041 35.0189C53.4931 34.7058 52.7888 34.5102 52.0061 34.5102C51.067 34.5102 50.48 34.8624 50.48 35.645C50.48 36.545 51.1452 36.7407 52.3974 37.1712C53.6888 37.6016 55.1367 38.1886 55.1367 40.1061C55.1367 41.7105 54.0019 42.7671 51.9279 42.7671C50.3234 42.8062 49.2277 42.2975 48.5625 41.7496Z" fill="#A7A9AC"/>
<path d="M57.875 33.3828H63.4318V34.6742H59.4403V37.2178H62.5709V38.47H59.4403V41.4049H63.6665V42.6962H57.875V33.3828Z" fill="#A7A9AC"/>
<path d="M65.9375 38.032C65.9375 35.2927 67.2289 33.2188 69.8507 33.2188C71.0247 33.2188 71.9247 33.5709 72.59 34.3536L71.6508 35.4102C71.1029 34.8623 70.6334 34.5884 69.8507 34.5884C68.3246 34.5884 67.6202 35.8406 67.6202 38.1494C67.6202 40.3017 68.3637 41.3974 69.8507 41.3974C70.6725 41.3974 71.2595 40.9669 71.7682 40.4191L72.7074 41.4365C72.0421 42.2191 71.1812 42.767 69.8507 42.767C67.1897 42.8061 65.9375 40.7712 65.9375 38.032Z" fill="#A7A9AC"/>
<path d="M75.2891 39.1352V33.3828H76.8935V39.4092C76.8935 40.7005 77.2065 41.5223 78.5762 41.5223C79.9066 41.5223 80.2588 40.7005 80.2588 39.4092V33.3828H81.8633V39.1352C81.8633 41.444 80.9632 42.8137 78.5762 42.8137C76.1891 42.8137 75.2891 41.444 75.2891 39.1352Z" fill="#A7A9AC"/>
<path d="M91.5586 42.6962H89.8368L88.0367 38.7439H86.5497V42.6962H84.9844V33.3828H88.0367C89.915 33.3828 91.4021 34.0481 91.4021 36.0829C91.4021 37.4917 90.5803 38.1961 89.6411 38.5091L91.5586 42.6962ZM87.9584 37.5308C89.1324 37.5308 89.7585 37.1395 89.7585 36.0829C89.7585 35.0655 89.1324 34.6742 88.0758 34.6742H86.5888V37.5308H87.9584Z" fill="#A7A9AC"/>
<path d="M94.2578 33.3828H99.8146V34.6742H95.8231V37.2178H98.9537V38.47H95.8231V41.4049H100.049V42.6962H94.2578V33.3828Z" fill="#A7A9AC"/>
<path d="M102.719 33.3828H105.028C108.08 33.3828 109.528 35.0264 109.528 38.0004C109.528 41.0527 108.041 42.6962 105.106 42.6962H102.68V33.3828H102.719ZM104.949 41.4049C107.141 41.4049 107.884 40.3875 107.884 38.0004C107.884 35.8873 107.297 34.6742 105.145 34.6742H104.284V41.4049H104.949Z" fill="#A7A9AC"/>
<path d="M22.7743 51.8142C10.4085 51.8142 0.351562 41.7572 0.351562 29.3914C0.351562 17.0257 10.4085 6.96875 22.7743 6.96875C35.14 6.96875 45.197 17.0257 45.197 29.3914C45.197 41.7572 35.14 51.8142 22.7743 51.8142ZM22.7743 14.0517C18.6654 14.0517 14.8304 15.6561 11.9347 18.5519C9.03889 21.4476 7.43448 25.2826 7.43448 29.3914C7.43448 33.5003 9.03889 37.3353 11.9347 40.231C14.8304 43.1268 18.6654 44.7312 22.7743 44.7312C26.8831 44.7312 30.7181 43.1268 33.6139 40.231C36.5096 37.3353 38.1141 33.5003 38.1141 29.3914C38.1141 25.2826 36.5096 21.4476 33.6139 18.5519C30.7181 15.6561 26.844 14.0517 22.7743 14.0517Z" fill="#FFC20E"/>
<path d="M48.9484 3.48438H47.1875V5.24532H48.9484V3.48438Z" fill="#FFC20E"/>
<path d="M48.9484 0H47.1875V1.76095H48.9484V0Z" fill="#FFC20E"/>
<path d="M43.9014 5.20312H42.2578V6.92494H43.9014V5.20312Z" fill="#FFC20E"/>
<path d="M40.6904 8.57031H39.0469V10.2139H40.6904V8.57031Z" fill="black"/>
<path d="M45.7455 6.92969H43.9062V8.57324H45.7455V6.92969Z" fill="black"/>
<path d="M39.0576 7.00781H37.4141V8.5731H39.0576V7.00781Z" fill="black"/>
<path d="M43.9014 8.57031H42.2578V10.2139H43.9014V8.57031Z" fill="black"/>
<path d="M47.1828 1.75781H45.4609V3.47962H47.1828V1.75781Z" fill="black"/>
<path d="M45.4666 3.48438H42.2578V5.20619H45.4666V3.48438Z" fill="black"/>
<path d="M42.2997 5.20312H40.6953V8.56849H42.2997V5.20312Z" fill="black"/>
<path d="M40.692 10.2188V11.8623H39.0485V10.2188H36.3092V11.3927H34.8613V12.8406H36.5049V14.4842H34.8613V12.8406H33.1395V15.3842H31.4568V17.0277H30.3611V18.6713H29.148C27.8176 20.667 24.4131 26.9282 23.3956 29.4718C19.7172 24.3454 16.8606 22.3106 14.5909 21.6062C13.3778 21.254 11.9299 22.5454 13.9257 24.6585C18.5432 29.7457 20.0303 33.9719 21.439 37.3373C22.1825 39.0983 25.5088 39.3722 26.174 37.5721C27.5828 33.7372 29.6568 29.4718 32.1221 25.9499V24.1106H33.4134V22.4671H34.7831V20.5496H36.4266V18.7104H34.7831V17.0277H36.4266V18.7104H38.031V17.0669H39.3224V15.0711H40.7703V13.7015H42.179V10.2188H40.692Z" fill="black"/>
<path d="M9.03906 59.4768H10.2522V60.3768C10.6435 59.829 11.1913 59.3594 12.0522 59.3594C13.3045 59.3594 14.5567 60.3768 14.5567 62.1378V62.1769C14.5567 63.9378 13.3436 64.9553 12.0522 64.9553C11.1522 64.9553 10.6043 64.5248 10.2522 64.0161V66.4814H9.03906V59.4768ZM13.3436 62.1769C13.3436 61.1203 12.6392 60.4551 11.8174 60.4551C10.9957 60.4551 10.2522 61.1595 10.2522 62.1769V62.216C10.2522 63.2335 10.9957 63.9378 11.8174 63.9378C12.6392 63.8987 13.3436 63.2335 13.3436 62.1769Z" fill="white"/>
<path d="M15.5703 62.2238C15.5703 60.6585 16.7834 59.4062 18.427 59.4062C20.0705 59.4062 21.2836 60.6585 21.2836 62.1846V62.2238C21.2836 63.7499 20.0705 65.0021 18.427 65.0021C16.7834 65.0021 15.5703 63.7499 15.5703 62.2238ZM20.0705 62.2238C20.0705 61.2455 19.4053 60.4628 18.427 60.4628C17.4487 60.4628 16.8225 61.2455 16.8225 62.1846V62.2238C16.8225 63.1629 17.4878 63.9456 18.4661 63.9456C19.4444 63.9064 20.0705 63.1238 20.0705 62.2238Z" fill="white"/>
<path d="M21.875 59.4844H23.1664L24.2229 63.1628L25.3969 59.4844H26.4535L27.6666 63.1628L28.7623 59.4844H29.9753L28.2144 64.8846H27.1187L25.9447 61.2453L24.7316 64.8846H23.6359L21.875 59.4844Z" fill="white"/>
<path d="M30.6016 62.1769C30.6016 60.6116 31.6973 59.3594 33.2234 59.3594C34.9452 59.3594 35.8061 60.6899 35.8061 62.2551C35.8061 62.3725 35.8061 62.49 35.767 62.6073H31.8538C31.9712 63.4683 32.5973 63.977 33.3799 63.977C33.9669 63.977 34.3974 63.7422 34.8278 63.3509L35.5322 63.977C35.0235 64.6031 34.3191 64.9944 33.3408 64.9944C31.8147 64.9944 30.6016 63.8596 30.6016 62.1769ZM34.593 61.7856C34.5148 61.0029 34.0452 60.3768 33.2234 60.3768C32.4799 60.3768 31.9321 60.9638 31.8147 61.7856H34.593Z" fill="white"/>
<path d="M37.0548 59.4787H38.2679V60.6918C38.62 59.9091 39.207 59.3613 40.1462 59.4004V60.6918H40.0679C38.9722 60.6918 38.2287 61.3961 38.2287 62.8049V64.8398H37.0156V59.4787H37.0548Z" fill="white"/>
<path d="M40.9297 62.1769C40.9297 60.6116 42.0254 59.3594 43.5515 59.3594C45.2734 59.3594 46.1343 60.6899 46.1343 62.2551C46.1343 62.3725 46.1343 62.49 46.1343 62.6073H42.1819C42.2993 63.4683 42.9254 63.977 43.7081 63.977C44.295 63.977 44.7255 63.7422 45.156 63.3509L45.8603 63.977C45.3516 64.6031 44.6472 64.9944 43.6689 64.9944C42.1037 64.9944 40.9297 63.8596 40.9297 62.1769ZM44.882 61.7856C44.8038 61.0029 44.3342 60.3768 43.5124 60.3768C42.7689 60.3768 42.221 60.9638 42.1037 61.7856H44.882Z" fill="white"/>
<path d="M47.1094 62.1803C47.1094 60.3802 48.3225 59.3628 49.6138 59.3628C50.5139 59.3628 51.0617 59.7932 51.453 60.302V57.4453H52.6661V64.8413H51.4139V63.9412C51.0226 64.4891 50.4747 64.9587 49.5747 64.9587C48.3225 64.9587 47.1094 63.9804 47.1094 62.1803ZM51.4139 62.1803C51.4139 61.1237 50.6704 60.4585 49.8486 60.4585C48.9877 60.4585 48.3225 61.1237 48.3225 62.1803V62.2194C48.3225 63.2369 49.0268 63.9412 49.8486 63.9412C50.7095 63.9021 51.4139 63.1977 51.4139 62.1803Z" fill="white"/>
<path d="M58.4162 64.0195V64.8413H57.2031V57.4453H58.4162V60.3802C58.8075 59.8324 59.3554 59.3628 60.2163 59.3628C61.4685 59.3628 62.7208 60.3802 62.7208 62.1412V62.1803C62.7208 63.9412 61.5077 64.9587 60.2163 64.9587C59.3554 64.9587 58.8075 64.5282 58.4162 64.0195ZM61.5077 62.1803C61.5077 61.1237 60.8033 60.4585 59.9815 60.4585C59.1597 60.4585 58.4162 61.1629 58.4162 62.1803V62.2194C58.4162 63.2369 59.1597 63.9412 59.9815 63.9412C60.8033 63.9021 61.5077 63.2369 61.5077 62.1803Z" fill="white"/>
<path d="M63.5866 66.176L64.017 65.2759C64.2518 65.3933 64.4866 65.4716 64.7214 65.4716C65.0736 65.4716 65.2692 65.3151 65.4649 64.8455L63.2344 59.4844H64.5257L66.0519 63.4758L67.4606 59.4844H68.752L66.6389 65.002C66.2084 66.0977 65.7388 66.489 64.8779 66.489C64.3301 66.5282 63.9779 66.4107 63.5866 66.176Z" fill="white"/>
<path d="M72.3906 57.7656H73.7602L75.9125 63.205L78.0256 57.7656H79.3953L76.4212 64.9268H75.3255L72.3906 57.7656Z" fill="#EB436F"/>
<path d="M79.625 62.1769C79.625 60.6116 80.7207 59.3594 82.2468 59.3594C83.9687 59.3594 84.8296 60.6899 84.8296 62.2551C84.8296 62.3725 84.8296 62.49 84.7904 62.6073H80.8381C80.9555 63.4683 81.5816 63.977 82.3642 63.977C82.9512 63.977 83.3817 63.7422 83.8121 63.3509L84.5165 63.977C84.0078 64.6031 83.3034 64.9944 82.3251 64.9944C80.8381 64.9944 79.625 63.8596 79.625 62.1769ZM83.6165 61.7856C83.5382 61.0029 83.0686 60.3768 82.2468 60.3768C81.5033 60.3768 80.9555 60.9638 80.8381 61.7856H83.6165Z" fill="#EB436F"/>
<path d="M86.1328 59.4787H87.3459V60.6918C87.6981 59.9091 88.2851 59.3613 89.2634 59.4004V60.6918H89.1851C88.0894 60.6918 87.3459 61.3961 87.3459 62.8049V64.8398H86.1328V59.4787Z" fill="#EB436F"/>
<path d="M90.2422 57.5234H91.5727V58.6974H90.2422V57.5234ZM90.2813 59.48H91.4944V64.8411H90.2813V59.48Z" fill="#EB436F"/>
<path d="M92.7812 63.8236L93.5248 62.9235C94.19 63.5105 94.8944 63.8627 95.7553 63.8627C96.5379 63.8627 97.0075 63.5105 97.0075 62.9627V62.9235C97.0075 62.4148 96.7336 62.1409 95.4031 61.8278C93.8769 61.4756 93.0552 61.0061 93.0552 59.7147V59.6756C93.0552 58.4625 94.0726 57.6016 95.4814 57.6016C96.4988 57.6016 97.3206 57.9146 98.0641 58.5016L97.3988 59.4408C96.7727 58.9712 96.1075 58.6973 95.4814 58.6973C94.7379 58.6973 94.3074 59.0886 94.3074 59.5582V59.5973C94.3074 60.1452 94.6205 60.3799 95.9901 60.7321C97.4771 61.0843 98.2597 61.6322 98.2597 62.8061C98.2597 64.1366 97.2032 64.9193 95.7162 64.9193C94.6596 64.9584 93.6422 64.5671 92.7812 63.8236Z" fill="#EB436F"/>
<path d="M99.6719 57.5234H101.002V58.6974H99.6719V57.5234ZM99.711 59.48H100.924V64.8411H99.711V59.48Z" fill="#EB436F"/>
<path d="M102.485 65.8554L102.954 64.9162C103.541 65.2684 104.128 65.4641 104.872 65.4641C105.968 65.4641 106.555 64.9162 106.555 63.8205V63.3901C106.124 63.977 105.537 64.3684 104.676 64.3684C103.424 64.3684 102.25 63.4292 102.25 61.8639V61.8248C102.25 60.2595 103.424 59.3203 104.676 59.3203C105.576 59.3203 106.124 59.7508 106.555 60.2204V59.4377H107.768V63.7031C107.768 64.6032 107.533 65.2684 107.102 65.738C106.633 66.2076 105.85 66.4424 104.911 66.4424C103.972 66.4815 103.15 66.2858 102.485 65.8554ZM106.555 61.903C106.555 61.003 105.85 60.416 104.989 60.416C104.128 60.416 103.463 61.003 103.463 61.903V61.9422C103.463 62.8422 104.128 63.4292 104.989 63.4292C105.811 63.3901 106.555 62.7639 106.555 61.903Z" fill="#EB436F"/>
<path d="M109.328 59.4768H110.541V60.2985C110.893 59.7898 111.402 59.3594 112.224 59.3594C113.437 59.3594 114.141 60.1812 114.141 61.4334V64.8379H112.928V61.7856C112.928 60.9638 112.498 60.4942 111.793 60.4942C111.089 60.4942 110.58 61.0029 110.58 61.8247V64.8379H109.328V59.4768Z" fill="#EB436F"/>
<defs>
<linearGradient id="paint0_linear_2474_2" x1="160.468" y1="15.1174" x2="184.535" y2="57.0104" gradientUnits="userSpaceOnUse">
<stop stop-color="#646567"/>
<stop offset="0.097" stop-color="#717274"/>
<stop offset="0.317" stop-color="#898B8D"/>
<stop offset="0.54" stop-color="#9A9B9D"/>
<stop offset="0.766" stop-color="#A4A5A7"/>
<stop offset="1" stop-color="#A7A8AA"/>
</linearGradient>
<linearGradient id="paint1_linear_2474_2" x1="169.072" y1="24.7668" x2="138.895" y2="43.2587" gradientUnits="userSpaceOnUse">
<stop stop-color="#C6C7C8"/>
<stop offset="0.092" stop-color="#DCDDDD"/>
<stop offset="0.203" stop-color="#F0F0F0"/>
<stop offset="0.316" stop-color="#FBFBFB"/>
<stop offset="0.433" stop-color="white"/>
<stop offset="0.537" stop-color="#F6F7F7"/>
<stop offset="0.704" stop-color="#DFDFE0"/>
<stop offset="0.913" stop-color="#B9BABB"/>
<stop offset="1" stop-color="#A7A8AA"/>
</linearGradient>
<linearGradient id="paint2_linear_2474_2" x1="176.898" y1="20.0978" x2="145.168" y2="40.229" gradientUnits="userSpaceOnUse">
<stop stop-color="#4B4B4D"/>
<stop offset="0.013" stop-color="#4D4D4F"/>
<stop offset="0.253" stop-color="#67686A"/>
<stop offset="0.497" stop-color="#797A7C"/>
<stop offset="0.744" stop-color="#838486"/>
<stop offset="1" stop-color="#87888A"/>
</linearGradient>
<linearGradient id="paint3_linear_2474_2" x1="155.618" y1="21.6931" x2="181.846" y2="41.3042" gradientUnits="userSpaceOnUse">
<stop stop-color="#8B1325"/>
<stop offset="0.607" stop-color="#CB0233"/>
<stop offset="0.708" stop-color="#CB0233"/>
<stop offset="1" stop-color="#8A193F"/>
</linearGradient>
<radialGradient id="paint4_radial_2474_2" cx="0" cy="0" r="1" gradientUnits="userSpaceOnUse" gradientTransform="translate(-11669.1 -8501.59) scale(28.3119 28.3119)">
<stop stop-color="#CB0233"/>
<stop offset="0.461" stop-color="#CB0233"/>
<stop offset="1" stop-color="#8A193F"/>
</radialGradient>
<linearGradient id="paint5_linear_2474_2" x1="143.751" y1="48.3272" x2="172.821" y2="39.5816" gradientUnits="userSpaceOnUse">
<stop stop-color="#8B1325"/>
<stop offset="0.607" stop-color="#CB0233"/>
<stop offset="0.708" stop-color="#CB0233"/>
<stop offset="1" stop-color="#8A193F"/>
</linearGradient>
</defs>
</svg>
