<svg width="244" height="244" viewBox="0 0 244 244" fill="none" xmlns="http://www.w3.org/2000/svg">
<path d="M121.971 240.676C187.435 240.676 240.504 187.607 240.504 122.143C240.504 56.6793 187.435 3.61036 121.971 3.61036C56.5074 3.61036 3.43849 56.6793 3.43849 122.143C3.43849 187.607 56.5074 240.676 121.971 240.676Z" fill="#4DCB43" stroke="white" stroke-width="6.34177" stroke-linejoin="round"/>
<path d="M121.968 231.773C182.513 231.773 231.593 182.692 231.593 122.148C231.593 61.6041 182.513 12.5234 121.968 12.5234C61.4244 12.5234 12.3438 61.6041 12.3438 122.148C12.3438 182.692 61.4244 231.773 121.968 231.773Z" fill="#072114"/>
<path d="M121.973 211.922C171.556 211.922 211.75 171.727 211.75 122.145C211.75 72.562 171.556 32.3672 121.973 32.3672C72.3901 32.3672 32.1953 72.562 32.1953 122.145C32.1953 171.727 72.3901 211.922 121.973 211.922Z" fill="#4DCB43"/>
<path d="M121.964 240.459C187.304 240.459 240.272 187.491 240.272 122.152C240.272 56.812 187.304 3.84375 121.964 3.84375C56.6245 3.84375 3.65625 56.812 3.65625 122.152C3.65625 187.491 56.6245 240.459 121.964 240.459Z" stroke="white" stroke-width="2" stroke-linecap="round" stroke-linejoin="round"/>
<path d="M121.977 201.163C165.701 201.163 201.147 165.717 201.147 121.992C201.147 78.2673 165.701 42.8213 121.977 42.8213C78.2517 42.8213 42.8057 78.2673 42.8057 121.992C42.8057 165.717 78.2517 201.163 121.977 201.163Z" fill="#4DCB43" stroke="white" stroke-width="6.34177" stroke-linejoin="round"/>
<path d="M121.967 192.395C160.76 192.395 192.207 160.947 192.207 122.155C192.207 83.3618 160.76 51.9141 121.967 51.9141C83.1743 51.9141 51.7266 83.3618 51.7266 122.155C51.7266 160.947 83.1743 192.395 121.967 192.395Z" fill="#072114"/>
<path d="M209.977 81.9922H35.9766V161.992H209.977V81.9922Z" fill="#072114"/>
<path d="M231.592 87.4141H12.1875V156.569H231.592V87.4141Z" fill="#4DCB43"/>
<path d="M16.0704 124.672C17.4598 124.672 18.5861 123.546 18.5861 122.156C18.5861 120.767 17.4598 119.641 16.0704 119.641C14.681 119.641 13.5547 120.767 13.5547 122.156C13.5547 123.546 14.681 124.672 16.0704 124.672Z" fill="#072114" stroke="#072114"/>
<path d="M227.719 124.672C229.108 124.672 230.235 123.546 230.235 122.156C230.235 120.767 229.108 119.641 227.719 119.641C226.329 119.641 225.203 120.767 225.203 122.156C225.203 123.546 226.329 124.672 227.719 124.672Z" fill="#072114" stroke="#072114"/>
<path d="M25.0703 94.8594H218.735" stroke="#072114" stroke-width="4" stroke-miterlimit="10" stroke-linecap="round"/>
<path d="M25.0703 149.289H218.735" stroke="#072114" stroke-width="4" stroke-miterlimit="10" stroke-linecap="round"/>
<path d="M37.0162 79.5193C36.2409 81.0699 35.0005 81.8452 33.605 81.2249L34.3802 79.5193C35.0005 79.6744 35.3106 79.5193 35.6207 79.0542C35.9308 78.589 35.7757 78.1238 35.3106 77.9688C34.0701 77.3485 33.1398 81.0699 30.6589 79.9845C29.4184 79.3643 29.1083 77.9688 29.8836 76.5733C30.6589 75.0227 31.8994 74.4025 33.1398 75.0227L32.2095 76.8834C31.7443 76.7283 31.2791 76.8834 31.1241 77.3485C30.969 77.8137 30.969 78.1238 31.4342 78.2789C32.6746 78.8991 33.76 75.1778 36.0859 76.2632C37.3263 76.5733 37.7915 77.9688 37.0162 79.5193Z" fill="white"/>
<path d="M34.8418 67.2657C35.7721 65.7151 37.3226 65.0949 39.0283 65.5601L37.9429 67.2657C37.1676 67.2657 36.7024 67.5758 36.2373 68.196C35.617 69.1264 35.9271 70.2117 37.1676 70.987C38.253 71.6072 39.4934 71.4522 40.1137 70.5219C40.4238 69.9016 40.4238 69.2814 40.1137 68.6612L41.1991 66.9556C42.4395 68.196 42.5946 69.9016 41.6642 71.4522C40.5788 73.3129 38.253 73.9331 36.3923 72.6926C34.2215 71.4522 33.6013 69.1263 34.8418 67.2657Z" fill="white"/>
<path d="M45.3881 59.9788L43.6825 62.3046L46.1634 64.1653L45.078 65.7159L39.0308 61.0642L40.1162 59.5136L42.4421 61.3743L44.1477 59.0484L41.8218 57.1878L42.9072 55.6372L48.9544 60.2889L47.869 61.8395L45.3881 59.9788Z" fill="white"/>
<path d="M49.8799 50.2135L48.0192 52.2292L49.1046 53.3146L50.8102 51.4539L51.8956 52.3843L50.19 54.2449L51.4305 55.3303L53.2911 53.3146L54.3765 54.2449L51.2754 57.6562L45.6934 52.5393L48.7945 49.1281L49.8799 50.2135Z" fill="white"/>
<path d="M57.0198 48.0419L56.2445 48.8172L58.1052 50.8329L56.7096 52.0733L51.5928 46.4913L53.7636 44.4756C55.1591 43.2351 56.5546 43.3902 57.4849 44.3205C58.2602 45.2509 58.4153 46.8014 57.0198 48.0419ZM55.9344 47.1115C56.5546 46.6464 56.3995 46.1812 56.0894 45.716C55.6242 45.2509 55.1591 45.2509 54.6939 45.716L53.9186 46.3362L55.1591 47.7318L55.9344 47.1115Z" fill="white"/>
<path d="M63.2244 38.5842L61.0536 40.2899L61.984 41.5303L63.9997 39.9798L64.93 41.0652L62.9143 42.6157L63.9997 44.0112L66.1705 42.3056L67.1008 43.5461L63.3795 46.3371L58.7278 40.2899L62.4491 37.4989L63.2244 38.5842Z" fill="white"/>
<path d="M68.1862 33.4627C69.7368 32.5323 71.1323 32.8424 71.9076 33.9278C72.3727 34.7031 72.5278 35.7885 71.5975 36.7188L74.6986 38.2694L72.993 39.3548L70.0469 37.8042L69.7368 38.1143L71.2873 40.5952L69.7368 41.5256L65.7053 35.1683L68.1862 33.4627ZM68.8064 34.8582L67.8761 35.4784L68.9615 37.0289L69.8918 36.4087C70.5121 36.0986 70.5121 35.6334 70.2019 35.0132C69.8918 34.548 69.4267 34.548 68.8064 34.8582Z" fill="white"/>
<path d="M75.0063 32.8415L74.0759 30.0505L75.7816 29.1202L76.0917 32.2213L75.0063 32.8415Z" fill="white"/>
<path d="M84.7757 33.3067C83.2252 33.9269 81.8296 33.7718 81.0544 32.3763L82.915 31.6011C83.2252 32.0662 83.6903 32.2213 84.1555 32.0662C84.6207 31.9112 84.9308 31.446 84.6207 30.9808C84.0004 29.7404 80.8993 31.9112 79.8139 29.4303C79.1937 28.0348 79.969 26.9494 81.5195 26.3292C83.0701 25.7089 84.4656 26.019 85.0858 27.2595L83.2251 28.0348C83.0701 27.5696 82.6049 27.4145 82.1398 27.7247C81.6746 27.8797 81.5195 28.1898 81.6746 28.655C82.1398 29.8955 85.3959 27.8797 86.4813 30.2056C86.7914 31.291 86.3263 32.6865 84.7757 33.3067Z" fill="white"/>
<path d="M92.2102 22.2969L93.9158 21.8317L96.0866 29.1194L94.381 29.5845L92.2102 22.2969Z" fill="white"/>
<path d="M105.237 22.92C105.703 25.0908 104.462 26.9515 102.136 27.4167L99.3452 28.1919L97.7947 20.7492L100.586 20.129C102.912 19.6639 104.772 20.7492 105.237 22.92ZM101.671 26.0212C103.067 25.711 103.687 24.7807 103.377 23.3852C103.067 21.9897 102.136 21.3695 100.741 21.6796L99.8104 21.8346L100.741 26.1762L101.671 26.0212Z" fill="white"/>
<path d="M108.188 18.7338L110.049 18.4237L111.134 26.0215L109.274 26.3316L108.188 18.7338Z" fill="white"/>
<path d="M117.957 25.5573C115.786 25.7123 113.925 24.1618 113.77 21.8359C113.615 19.5101 115.321 17.8045 117.492 17.8045C119.663 17.6494 121.523 19.2 121.523 21.5258C121.678 23.6966 120.128 25.4022 117.957 25.5573ZM117.802 23.8516C119.042 23.8516 119.818 22.9213 119.663 21.5258C119.663 20.1303 118.732 19.355 117.492 19.355C116.251 19.355 115.476 20.2854 115.631 21.6809C115.786 23.0764 116.561 23.8516 117.802 23.8516Z" fill="white"/>
<path d="M124.772 17.6484L130.664 17.9586V19.5091L128.648 19.3541L128.338 25.4012L126.478 25.2462L126.788 19.199L124.772 19.0439V17.6484Z" fill="white"/>
<path d="M134.23 18.2662L136.091 18.4213L135.161 26.019L133.3 25.864L134.23 18.2662Z" fill="white"/>
<path d="M143.379 19.6677C145.085 19.9778 146.325 21.2183 146.325 22.9239L144.309 22.4587C144.154 21.6834 143.689 21.3733 142.914 21.2183C141.829 21.0632 140.898 21.6834 140.588 22.9239C140.278 24.1643 140.898 25.2497 141.984 25.4048C142.604 25.5598 143.379 25.4048 143.689 24.7846L145.705 25.2497C144.93 26.8003 143.379 27.5756 141.673 27.1104C139.503 26.6452 138.262 24.7846 138.727 22.6138C139.193 20.443 141.208 19.2025 143.379 19.6677Z" fill="white"/>
<path d="M161.061 27.5739L159.2 26.7987C159.045 26.1784 158.735 25.7133 158.115 25.5582C157.03 25.093 155.944 25.7133 155.479 26.9537C155.014 28.3492 155.479 29.2796 156.72 29.7447C157.65 30.0548 158.425 29.8998 158.89 29.1245L156.72 28.3492L157.185 27.1088L160.906 28.5043L160.286 30.0548C159.511 31.1402 157.805 31.9155 155.944 31.2953C153.773 30.52 152.843 28.5043 153.618 26.3335C154.394 24.1627 156.409 23.2324 158.58 24.0077C160.441 24.6279 161.216 25.8683 161.061 27.5739Z" fill="white"/>
<path d="M165.556 26.7943L167.262 27.5696L165.246 31.6011C164.781 32.3763 165.091 32.9966 165.867 33.4618C166.642 33.9269 167.262 33.6168 167.727 32.8415L169.743 28.8101L171.449 29.5853L169.433 33.6168C168.502 35.4775 166.642 35.7876 165.091 35.0123C163.541 34.237 162.765 32.6865 163.696 30.8258L165.556 26.7943Z" fill="white"/>
<path d="M175.483 39.5146L173.002 37.964L171.916 38.8944L170.211 37.809L176.568 32.8472L178.429 33.9326L176.723 41.8404L175.018 40.755L175.483 39.5146ZM176.568 35.173L174.242 37.0337L175.793 37.964L176.568 35.173Z" fill="white"/>
<path d="M186.334 39.5089C187.885 40.5943 187.885 42.1449 187.109 43.0752C186.489 43.8505 185.559 44.1606 184.473 43.8505L184.008 47.2618L182.303 46.0213L182.768 42.7651L182.458 42.455L180.752 44.7808L179.357 43.6955L184.008 37.6483L186.334 39.5089ZM185.249 40.5943L184.318 39.8191L183.233 41.3696L184.163 42.1449C184.784 42.6101 185.249 42.455 185.559 41.9898C185.869 41.5247 185.714 41.0595 185.249 40.5943Z" fill="white"/>
<path d="M190.526 51.4475L188.51 49.4317L187.269 50.0519L185.874 48.6564L193.161 45.0902L194.712 46.6407L191.456 54.0834L190.06 52.6879L190.526 51.4475ZM192.386 47.416L189.75 48.8115L191.146 50.0519L192.386 47.416Z" fill="white"/>
<path d="M203.545 56.4092L197.808 61.3711L196.568 59.9755L198.118 54.5486L194.552 57.6497L193.312 56.2542L199.049 51.2924L200.289 52.6879L198.739 58.1149L202.305 55.0138L203.545 56.4092Z" fill="white"/>
<path d="M205.721 59.3561L209.132 64.1629L207.892 64.9381L206.806 63.2325L201.69 66.9539L200.604 65.4033L205.566 61.837L204.481 60.1314L205.721 59.3561Z" fill="white"/>
<path d="M212.078 72.0732L210.683 69.5923L209.287 70.3675L210.528 72.5383L209.287 73.3136L208.047 71.1428L206.651 71.9181L208.047 74.399L206.806 75.1743L204.481 71.1428L211.148 67.2664L213.474 71.2979L212.078 72.0732Z" fill="white"/>
<path d="M215.797 79.5191L214.557 77.0382L213.161 77.6584L214.247 79.9843L213.006 80.6045L211.921 78.2786L210.37 79.0539L211.611 81.5348L210.215 82.155L208.2 77.9685L215.022 74.7123L217.038 78.8989L215.797 79.5191Z" fill="white"/>
<path d="M41.5058 173.784L35.6137 177.66L37.1643 179.986L35.7688 180.916L33.1328 176.73L40.4204 172.078L41.5058 173.784Z" fill="white"/>
<path d="M44.9195 178.745L46.1599 180.45L39.1824 185.722L37.942 184.017L44.9195 178.745Z" fill="white"/>
<path d="M48.6336 183.396L52.3549 187.583L51.1145 188.668L48.7886 186.032L47.3931 187.273L49.0988 189.289L47.8583 190.374L46.1527 188.358L43.5167 190.684L42.1212 189.133L48.6336 183.396Z" fill="white"/>
<path d="M57.4791 194.871L55.1532 192.701L53.9128 193.941L55.9285 195.957L54.8431 197.197L52.8274 195.181L51.5869 196.577L53.9128 198.748L52.6723 199.988L48.7959 196.267L54.688 189.91L58.5644 193.631L57.4791 194.871Z" fill="white"/>
<path d="M60.8879 195.647L66.1598 199.834L65.0744 201.23L63.2137 199.834L58.8721 205.416L57.1665 204.176L61.5081 198.594L59.6474 197.198L60.8879 195.647Z" fill="white"/>
<path d="M68.9508 201.696L70.6564 202.782L65.8497 210.069L64.144 208.984L68.9508 201.696Z" fill="white"/>
<path d="M73.915 204.797L76.0858 205.883L75.4656 212.395L80.4274 208.209L82.5981 209.294L78.5667 217.047L76.706 216.117L79.0319 211.465L74.8453 215.186L73.2948 214.411L73.915 208.829L71.5892 213.481L69.7285 212.55L73.915 204.797Z" fill="white"/>
<path d="M90.351 214.096L87.4049 213.011L86.7847 214.716L89.4206 215.646L88.8004 217.197L86.1644 216.267L85.5442 218.127L88.4903 219.213L87.8701 220.763L82.9083 218.903L86.0094 210.685L90.9712 212.545L90.351 214.096Z" fill="white"/>
<path d="M100.429 224.179C98.568 223.869 97.3275 222.629 97.6376 220.768L99.8084 221.233C99.8084 221.854 100.119 222.319 100.584 222.474C101.204 222.629 101.669 222.319 101.824 221.854C102.134 220.303 97.7927 220.303 98.4129 217.202C98.723 215.651 100.274 215.031 101.979 215.341C103.84 215.806 104.925 216.892 104.615 218.597L102.444 218.132C102.599 217.512 102.134 217.202 101.669 217.047C101.204 216.892 100.739 217.047 100.584 217.667C100.274 219.218 104.615 219.373 103.995 222.164C103.84 223.714 102.444 224.645 100.429 224.179Z" fill="white"/>
<path d="M113.45 224.49L110.193 224.179L109.573 225.73L107.402 225.575L111.434 217.202L113.915 217.512L116.24 226.505L114.07 226.35L113.45 224.49ZM112.209 219.528L110.814 222.629L112.984 222.784L112.209 219.528Z" fill="white"/>
<path d="M119.502 217.664L126.169 217.509V219.214H123.843L123.998 226.192H121.827L121.672 219.214H119.346L119.502 217.664Z" fill="white"/>
<path d="M129.583 217.357L131.753 217.202L132.529 225.885L130.358 226.04L129.583 217.357Z" fill="white"/>
<path d="M139.966 224.797C138.105 225.107 136.554 224.486 136.089 222.781L138.26 222.316C138.415 222.936 138.88 223.246 139.501 223.091C140.121 222.936 140.431 222.626 140.431 222.161C140.121 220.61 135.934 222.161 135.469 219.059C135.159 217.509 136.399 216.268 138.105 215.958C139.966 215.648 141.361 216.268 141.826 217.974L139.501 218.439C139.345 217.819 138.88 217.664 138.415 217.664C137.95 217.664 137.64 218.129 137.64 218.594C137.95 220.145 141.981 218.749 142.602 221.54C142.912 223.091 141.981 224.486 139.966 224.797Z" fill="white"/>
<path d="M144.931 214.876L150.358 213.325L150.823 215.031L147.412 215.961L147.877 217.667L150.358 216.892L150.823 218.442L148.342 219.218L149.272 222.629L147.257 223.249L144.931 214.876Z" fill="white"/>
<path d="M161.204 217.045L158.258 218.286L158.413 219.836L156.398 220.612L156.088 211.308L158.413 210.378L164.616 217.355L162.6 218.131L161.204 217.045ZM157.948 213.169L158.103 216.58L160.119 215.805L157.948 213.169Z" fill="white"/>
<path d="M167.408 206.035C169.268 205.105 171.129 205.26 172.524 206.811L170.509 207.896C169.889 207.431 169.113 207.431 168.338 207.741C167.253 208.361 166.942 209.602 167.563 210.997C168.338 212.393 169.578 212.703 170.664 212.082C171.439 211.772 171.749 210.997 171.749 210.222L173.765 209.136C174.23 210.997 173.455 212.858 171.594 213.788C169.268 215.029 166.942 214.253 165.702 211.927C164.462 209.757 165.082 207.276 167.408 206.035Z" fill="white"/>
<path d="M173.616 202.472L179.198 198.595L180.129 199.991L178.268 201.231L182.299 206.968L180.594 208.209L176.562 202.472L174.702 203.712L173.616 202.472Z" fill="white"/>
<path d="M181.672 196.575L183.377 195.179L188.959 201.846L187.254 203.242L181.672 196.575Z" fill="white"/>
<path d="M195.327 196.268C193.621 197.974 190.83 198.129 188.97 196.268C187.109 194.408 187.264 191.617 188.97 189.911C190.675 188.205 193.466 188.05 195.327 189.911C197.188 191.772 197.033 194.563 195.327 196.268ZM193.932 194.873C194.862 193.942 194.862 192.547 193.776 191.462C192.691 190.376 191.296 190.221 190.365 191.307C189.435 192.237 189.435 193.632 190.52 194.718C191.606 195.803 193.001 195.803 193.932 194.873Z" fill="white"/>
<path d="M199.2 178.28L206.023 183.707L204.782 185.413L198.425 184.793L202.612 188.049L201.371 189.755L194.549 184.328L195.789 182.622L202.146 183.242L197.96 179.831L199.2 178.28Z" fill="white"/>
<path d="M43.5215 137.806C41.5057 137.806 39.8001 137.341 38.5597 136.411C37.3192 135.481 36.3889 134.24 35.9237 132.69C35.4585 131.139 35.1484 129.123 35.1484 126.952V116.409C35.1484 114.083 35.4585 112.222 35.9237 110.517C36.3889 108.811 37.3192 107.57 38.7147 106.795C39.9552 105.865 41.8159 105.555 44.1417 105.555C46.3125 105.555 48.0181 105.865 49.2585 106.64C50.499 107.415 51.4293 108.346 52.0496 109.741C52.6698 111.137 52.8248 112.687 52.8248 114.703V116.409H47.3979V114.548C47.3979 113.463 47.3979 112.687 47.2428 111.912C47.0878 111.137 46.7777 110.672 46.3125 110.206C45.8473 109.896 45.2271 109.586 44.2968 109.586C43.2114 109.586 42.5911 109.896 42.126 110.361C41.6608 110.827 41.3507 111.447 41.1956 112.377C41.0406 113.152 41.0406 114.083 41.0406 115.013V128.193C41.0406 129.278 41.1956 130.209 41.3507 130.984C41.5057 131.759 41.8159 132.379 42.4361 132.845C42.9013 133.31 43.6765 133.465 44.6069 133.465C45.5372 133.465 46.3125 133.155 46.7777 132.69C47.2428 132.224 47.5529 131.604 47.8631 130.674C48.0181 129.899 48.1732 128.813 48.1732 127.728V124.782H44.7619V121.215H53.29V137.186H49.5687L49.1035 134.085C48.6383 135.17 48.0181 135.946 47.2428 136.566C46.1574 137.496 44.917 137.806 43.5215 137.806Z" fill="#072114"/>
<path d="M66.0095 137.809C63.6836 137.809 61.8229 137.344 60.5825 136.568C59.342 135.638 58.4117 134.553 57.9465 132.847C57.4814 131.296 57.1713 129.436 57.1713 127.11V105.712H62.7533V127.73C62.7533 128.66 62.7533 129.591 62.9083 130.521C63.0634 131.451 63.3735 132.072 63.8387 132.692C64.3038 133.157 65.0791 133.467 66.0095 133.467C67.0949 133.467 67.7151 133.157 68.1802 132.692C68.6454 132.227 68.9555 131.451 69.1106 130.521C69.2656 129.591 69.2656 128.66 69.2656 127.73V105.712H74.8477V127.11C74.8477 129.281 74.5375 131.141 74.0724 132.847C73.6072 134.398 72.6769 135.638 71.4364 136.568C70.196 137.344 68.3353 137.809 66.0095 137.809Z" fill="#072114"/>
<path d="M77.6314 137.338L83.9887 105.862H90.191L96.5483 137.338H91.2764L90.0359 130.05H84.6089L83.3685 137.338H77.6314ZM84.919 126.329H89.2606L87.0898 113.149L84.919 126.329Z" fill="#072114"/>
<path d="M99.4968 105.862H107.095C109.265 105.862 110.971 106.172 112.521 106.637C114.072 107.102 115.157 108.032 115.933 109.273C116.708 110.513 117.018 112.219 117.018 114.235C117.018 115.475 116.863 116.715 116.708 117.646C116.398 118.731 116.088 119.506 115.468 120.282C114.847 121.057 114.072 121.522 113.142 121.987L117.483 137.493H111.746L107.87 123.073H105.234V137.493H99.4968V105.862ZM105.234 119.351H107.095C108.18 119.351 109.11 119.196 109.73 118.886C110.351 118.576 110.816 118.111 111.126 117.336C111.436 116.56 111.591 115.63 111.591 114.545C111.591 112.994 111.281 111.754 110.661 110.978C110.041 110.203 108.955 109.738 107.405 109.738H105.234V119.351Z" fill="#072114"/>
<path d="M119.812 137.338L126.169 105.862H132.371L138.728 137.338H133.456L132.216 130.05H126.789L125.549 137.338H119.812ZM127.099 126.329H131.441L129.27 113.149L127.099 126.329Z" fill="#072114"/>
<path d="M141.677 137.338V105.862H145.708L153.306 123.848V105.862H158.113V137.338H154.236L146.484 118.421V137.338H141.677Z" fill="#072114"/>
<path d="M166.021 137.338V110.048H161.059V105.862H176.72V110.048H171.758V137.338H166.021Z" fill="#072114"/>
<path d="M179.666 105.862H192.845V109.893H185.403V119.041H191.295V123.073H185.403V133.462H193V137.493H179.666V105.862Z" fill="#072114"/>
<path d="M196.249 105.862H209.429V109.893H201.986V119.041H207.879V123.073H201.986V133.462H209.584V137.493H196.249V105.862Z" fill="#072114"/>
</svg>
