<svg width="160" height="160" viewBox="0 0 160 160" fill="none" xmlns="http://www.w3.org/2000/svg">
<g clip-path="url(#clip0_2540_165)">
<path d="M38.4695 42.9075C23.3853 42.9075 11.1562 55.1353 11.1562 70.2195V83.729C11.1562 98.8132 23.3853 111.042 38.4695 111.042C62.3904 111.042 85.7351 118.382 105.352 132.073L112.887 137.331V16.6172L105.352 21.8772C85.7351 35.5662 62.3904 42.9075 38.4695 42.9075Z" fill="#072114"/>
<path d="M43.0061 101.953H18.625L22.4556 110.98C24.9971 116.97 26.3069 123.411 26.3069 129.917V138.547C26.3069 145.28 31.7646 150.737 38.4968 150.737C45.2302 150.737 50.688 145.28 50.688 138.547V129.917C50.688 123.411 49.3782 116.97 46.8367 110.98L43.0061 101.953Z" fill="#A9EB35"/>
<path d="M41.4172 126.734H33.5095C31.0315 126.734 29.0234 124.725 29.0234 122.247V122.198C29.0234 119.72 31.0315 117.711 33.5095 117.711H41.4172C43.8953 117.711 45.9045 119.72 45.9045 122.198V122.247C45.9045 124.725 43.8953 126.734 41.4172 126.734Z" fill="#072114"/>
<path d="M41.4172 141.139H33.5095C31.0315 141.139 29.0234 139.131 29.0234 136.653V136.603C29.0234 134.125 31.0315 132.117 33.5095 132.117H41.4172C43.8953 132.117 45.9045 134.125 45.9045 136.603V136.653C45.9045 139.131 43.8953 141.139 41.4172 141.139Z" fill="#072114"/>
<path d="M25.5395 76.9729C25.5395 84.0249 19.8218 89.7427 12.7698 89.7427C5.71655 89.7427 0 84.0249 0 76.9729C0 69.9209 5.71655 64.2031 12.7698 64.2031C19.8218 64.2031 25.5395 69.9209 25.5395 76.9729Z" fill="#072114"/>
<path d="M44.302 85.5798V68.3643C44.302 57.4939 49.2861 47.7893 57.0925 41.4062C50.9622 42.3962 44.7353 42.9041 38.4695 42.9041C23.3853 42.9041 11.1562 55.1331 11.1562 70.2173V83.7268C11.1562 98.811 23.3853 111.04 38.4695 111.04C44.7353 111.04 50.9622 111.548 57.0925 112.538C49.2861 106.156 44.302 96.4502 44.302 85.5798Z" fill="#A9EB35"/>
<path d="M159.998 77.1728C159.998 39.5569 145.38 9.0625 127.347 9.0625C109.314 9.0625 94.6953 39.5569 94.6953 77.1728C94.6953 114.789 109.314 145.283 127.347 145.283C145.38 145.283 159.998 114.789 159.998 77.1728Z" fill="#A9EB35"/>
<path d="M150.842 77.1707C150.842 47.0327 141.327 22.6016 129.59 22.6016C117.851 22.6016 108.336 47.0327 108.336 77.1707C108.336 107.309 117.851 131.74 129.59 131.74C141.327 131.74 150.842 107.309 150.842 77.1707Z" fill="#072114"/>
<path d="M54.9404 83.1553H54.4338C52.3 83.1553 50.5703 81.4243 50.5703 79.2905V69.7776C50.5703 67.6438 52.3 65.9141 54.4338 65.9141H54.9404C57.0754 65.9141 58.8052 67.6438 58.8052 69.7776V79.2905C58.8052 81.4243 57.0754 83.1553 54.9404 83.1553Z" fill="#A9EB35"/>
<path d="M66.3857 83.1553H65.8791C63.7454 83.1553 62.0156 81.4243 62.0156 79.2905V69.7776C62.0156 67.6438 63.7454 65.9141 65.8791 65.9141H66.3857C68.5208 65.9141 70.2505 67.6438 70.2505 69.7776V79.2905C70.2505 81.4243 68.5208 83.1553 66.3857 83.1553Z" fill="#A9EB35"/>
<path d="M44.2959 70.3438H37.2085C35.3982 70.3438 33.9297 71.8123 33.9297 73.6226V75.4475C33.9297 77.259 35.3982 78.7263 37.2085 78.7263H44.2959V70.3438Z" fill="#A9EB35"/>
<path d="M110.536 64.2031C109.596 64.2031 108.867 64.9724 108.791 65.909C108.493 69.5427 108.336 73.3088 108.336 77.1694C108.336 80.8754 108.481 84.4947 108.755 87.9935C108.83 88.9522 109.574 89.7414 110.536 89.7414C117.588 89.7414 123.305 84.0249 123.305 76.9729C123.305 69.9197 117.588 64.2031 110.536 64.2031Z" fill="white"/>
<path d="M77.8125 20.25C78.6754 20.25 79.375 19.5504 79.375 18.6875C79.375 17.8246 78.6754 17.125 77.8125 17.125C76.9496 17.125 76.25 16.4254 76.25 15.5625C76.25 14.6996 75.5504 14 74.6875 14C73.8246 14 73.125 14.6996 73.125 15.5625C73.125 16.4254 72.4254 17.125 71.5625 17.125C70.6996 17.125 70 17.8246 70 18.6875C70 19.5504 70.6996 20.25 71.5625 20.25C72.4254 20.25 73.125 20.9496 73.125 21.8125C73.125 22.6754 73.8246 23.375 74.6875 23.375C75.5504 23.375 76.25 22.6754 76.25 21.8125C76.25 20.9496 76.9496 20.25 77.8125 20.25Z" fill="#072114"/>
<path d="M134.125 108.25C135.851 108.25 137.25 106.851 137.25 105.125C137.25 103.399 135.851 102 134.125 102C132.399 102 131 103.399 131 105.125C131 106.851 132.399 108.25 134.125 108.25Z" fill="white"/>
<path d="M82.8125 99.25C83.6754 99.25 84.375 98.5504 84.375 97.6875C84.375 96.8246 83.6754 96.125 82.8125 96.125C81.9496 96.125 81.25 95.4254 81.25 94.5625C81.25 93.6996 80.5504 93 79.6875 93C78.8246 93 78.125 93.6996 78.125 94.5625C78.125 95.4254 77.4254 96.125 76.5625 96.125C75.6996 96.125 75 96.8246 75 97.6875C75 98.5504 75.6996 99.25 76.5625 99.25C77.4254 99.25 78.125 99.9496 78.125 100.812C78.125 101.675 78.8246 102.375 79.6875 102.375C80.5504 102.375 81.25 101.675 81.25 100.812C81.25 99.9496 81.9496 99.25 82.8125 99.25Z" fill="white"/>
<path d="M66.8125 138.25C67.6754 138.25 68.375 137.55 68.375 136.688C68.375 135.825 67.6754 135.125 66.8125 135.125C65.9496 135.125 65.25 134.425 65.25 133.562C65.25 132.7 64.5504 132 63.6875 132C62.8246 132 62.125 132.7 62.125 133.562C62.125 134.425 61.4254 135.125 60.5625 135.125C59.6996 135.125 59 135.825 59 136.688C59 137.55 59.6996 138.25 60.5625 138.25C61.4254 138.25 62.125 138.95 62.125 139.812C62.125 140.675 62.8246 141.375 63.6875 141.375C64.5504 141.375 65.25 140.675 65.25 139.812C65.25 138.95 65.9496 138.25 66.8125 138.25Z" fill="#072114"/>
<path d="M41.125 29.25C42.8509 29.25 44.25 27.8509 44.25 26.125C44.25 24.3991 42.8509 23 41.125 23C39.3991 23 38 24.3991 38 26.125C38 27.8509 39.3991 29.25 41.125 29.25Z" fill="#072114"/>
<path d="M134.812 47.25C135.675 47.25 136.375 46.5504 136.375 45.6875C136.375 44.8246 135.675 44.125 134.812 44.125C133.95 44.125 133.25 43.4254 133.25 42.5625C133.25 41.6996 132.55 41 131.688 41C130.825 41 130.125 41.6996 130.125 42.5625C130.125 43.4254 129.425 44.125 128.562 44.125C127.7 44.125 127 44.8246 127 45.6875C127 46.5504 127.7 47.25 128.562 47.25C129.425 47.25 130.125 47.9496 130.125 48.8125C130.125 49.6754 130.825 50.375 131.688 50.375C132.55 50.375 133.25 49.6754 133.25 48.8125C133.25 47.9496 133.95 47.25 134.812 47.25Z" fill="white"/>
<path d="M100.125 148.25C101.851 148.25 103.25 146.851 103.25 145.125C103.25 143.399 101.851 142 100.125 142C98.3991 142 97 143.399 97 145.125C97 146.851 98.3991 148.25 100.125 148.25Z" fill="#072114"/>
</g>
<defs>
<clipPath id="clip0_2540_165">
<rect width="160" height="160" fill="white"/>
</clipPath>
</defs>
</svg>
