<svg width="34" height="27" viewBox="0 0 34 27" fill="none" xmlns="http://www.w3.org/2000/svg">
<path d="M33 5.43368L17.4583 15.5803C17.1662 15.7709 16.7875 15.7707 16.4957 15.5796L1 5.43368M32.4691 23.226L20.5087 13.5891M1.73983 23.226L13.5902 13.6777M33 4.91068V21.2144C33 21.6232 32.9405 22.0172 32.8298 22.3865C32.6495 22.9909 32.3334 23.5294 31.9204 23.9592C31.2935 24.6113 30.4442 25.0127 29.5109 25.0127H4.48913C3.60461 25.0127 2.79671 24.6528 2.18121 24.0612C1.75346 23.6493 1.41872 23.1256 1.21676 22.5328C1.07662 22.1222 1 21.6776 1 21.2144V4.91068C1 2.81607 2.56528 1.1123 4.48913 1.1123H29.5109C31.4348 1.1123 33 2.81607 33 4.91068Z" stroke="white" stroke-width="2" stroke-miterlimit="10"/>
</svg>
