<svg width="20" height="30" viewBox="0 0 20 30" fill="none" xmlns="http://www.w3.org/2000/svg">
<path d="M0.383941 20.5615C-0.113865 20.0832 -0.129665 19.2919 0.348651 18.7941C0.826961 18.2963 1.61826 18.2805 2.11606 18.7588L0.383941 20.5615ZM9.9297 28L10.8316 28.8655L9.9656 29.768L9.06363 28.9014L9.9297 28ZM17.0304 18.7947C17.5084 18.2966 18.2997 18.2802 18.7978 18.7582C19.2959 19.2362 19.3122 20.0275 18.8342 20.5256L17.0304 18.7947ZM8.67969 2L8.67968 0.750003L11.1797 0.75V2H8.67969ZM11.1797 26V27.25H8.67969V26H11.1797ZM2.11606 18.7588L10.7957 27.0986L9.06363 28.9014L0.383941 20.5615L2.11606 18.7588ZM9.02776 27.1345L17.0304 18.7947L18.8342 20.5256L10.8316 28.8655L9.02776 27.1345ZM11.1797 2C11.1797 2.4 11.1797 14.1667 11.1797 26H8.67969C8.67969 14.1667 8.67969 2.4 8.67969 2H11.1797Z" fill="#DE3A65"/>
</svg>
