<svg width="51" height="51" viewBox="0 0 51 51" fill="none" xmlns="http://www.w3.org/2000/svg">
<path d="M49.7344 32.8027L28.4652 14.777L28.4652 23.0966L24.0164 23.0966C22.0886 23.0966 20.5315 21.564 20.5315 19.6666L20.5315 3.78125L10.5959 12.6847L0.734375 3.78125L0.734379 19.5936C0.73438 32.2189 11.189 42.5089 24.0164 42.5089L28.4652 42.5089L28.4652 50.8285L49.7344 32.8027Z" fill="#F7314E"/>
<path d="M10.5942 15.7506L18.2313 8.89062L18.2313 19.5215C18.2313 22.6596 20.8264 25.2138 24.0147 25.2138L30.7621 25.2138L30.7621 18.5727L47.393 32.7306L30.7621 46.8885L30.7621 40.2474L24.0147 40.2474C12.4479 40.2474 3.03125 30.9791 3.03125 19.5944L3.03125 8.89062L10.5942 15.7506Z" fill="#CD162A"/>
<path d="M4.88492 19.5996L4.88491 10.6473L3.03125 8.96875L3.03125 19.5996C3.03125 30.9843 12.4479 40.2526 24.0147 40.2526L25.8684 40.2526C14.3015 40.2526 4.88492 30.9843 4.88492 19.5996Z" fill="#AA0920"/>
<path d="M32.6115 20.2889L30.7578 18.6484L30.7578 25.2895L32.6115 25.2895L32.6115 20.2889Z" fill="#AA0920"/>
</svg>
