<svg width="20" height="30" viewBox="0 0 20 30" fill="none" xmlns="http://www.w3.org/2000/svg">
<path d="M1.13394 20.5615C0.636135 20.0832 0.620335 19.2919 1.09865 18.7941C1.57696 18.2963 2.36826 18.2805 2.86606 18.7588L1.13394 20.5615ZM10.6797 28L11.5816 28.8655L10.7156 29.768L9.81363 28.9014L10.6797 28ZM17.7804 18.7947C18.2584 18.2966 19.0497 18.2802 19.5478 18.7582C20.0459 19.2362 20.0622 20.0275 19.5842 20.5256L17.7804 18.7947ZM9.42969 2L9.42968 0.750003L11.9297 0.75V2H9.42969ZM11.9297 26V27.25H9.42969V26H11.9297ZM2.86606 18.7588L11.5457 27.0986L9.81363 28.9014L1.13394 20.5615L2.86606 18.7588ZM9.77776 27.1345L17.7804 18.7947L19.5842 20.5256L11.5816 28.8655L9.77776 27.1345ZM11.9297 2C11.9297 2.4 11.9297 14.1667 11.9297 26H9.42969C9.42969 14.1667 9.42969 2.4 9.42969 2H11.9297Z" fill="#B6F36B"/>
</svg>
